<svg width="180" height="85" viewBox="0 0 180 85" xmlns="http://www.w3.org/2000/svg" xmlns:xlink="http://www.w3.org/1999/xlink"><defs><path id="a" d="M0 0h14.135v5.292H0z"/></defs><g fill="none" fill-rule="evenodd"><path d="M7.012 59.376h3.12l-1.56-5.758-1.56 5.758zm9.151 6.744h-3.848l-1.092-3.423h-5.33l-1.04 3.423H1.007l5.668-17.276h3.795l5.694 17.276zm6.161-6.173l-3.951-6.122h4.081l1.82 3.113 1.794-3.113h4.082l-3.952 6.122 4.004 6.173h-4.056l-1.872-3.139-1.898 3.14h-4.055l4.003-6.174m11.258 6.173h3.587V53.825h-3.587V66.12zm0-13.826h3.587V48.43h-3.587v3.865zm14.974 4.799h-3.12c-.156 0-.26.104-.26.26v5.24c0 .155.104.26.26.26h3.12c.156 0 .26-.105.26-.26v-5.24c0-.156-.104-.26-.26-.26zm3.848 6.33A2.715 2.715 0 0149.7 66.12h-5.407a2.715 2.715 0 01-2.704-2.697v-6.9a2.715 2.715 0 012.704-2.698H49.7a2.715 2.715 0 012.704 2.698v6.9zm4.419 2.697V53.825h3.458v.908c1.092-.441 3.38-1.167 4.368-1.167 1.716 0 2.703 1.115 2.703 2.697v9.857h-3.587v-8.663c0-.156-.104-.26-.26-.26-.286 0-2.47.726-2.834.856-.156.052-.26.182-.26.337v7.73h-3.588" fill="#CF3E87"/><path d="M79.228 61.868l2.392.416v1.167c0 1.53-1.196 2.75-2.756 2.75h-4.082c-1.534 0-2.73-1.22-2.73-2.75v-6.796c0-1.53 1.196-2.75 2.73-2.75h4.082c1.56 0 2.756 1.22 2.756 2.75v1.037l-2.392.415v-.934c0-.622-.494-1.09-1.118-1.09h-2.574c-.624 0-1.092.468-1.092 1.09v5.76c0 .622.468 1.088 1.092 1.088h2.574c.624 0 1.118-.466 1.118-1.089v-1.064m14.325-4.695c0-.622-.494-1.09-1.118-1.09h-3.042c-.624 0-1.092.468-1.092 1.09v5.76c0 .622.468 1.088 1.092 1.088h3.042c.624 0 1.118-.466 1.118-1.089v-5.759zm-7.644 6.278v-6.796c0-1.53 1.196-2.75 2.73-2.75h4.524c1.533 0 2.781 1.22 2.781 2.75v6.796c0 1.53-1.248 2.75-2.781 2.75h-4.524c-1.534 0-2.73-1.22-2.73-2.75zm14.845 2.749V53.906h2.34v.882c1.586-.674 3.51-1.141 4.628-1.141 1.741 0 2.782 1.14 2.782 2.75V66.2h-2.393v-9.13c0-.7-.416-1.09-1.117-1.09-.754 0-1.846.338-2.756.7-.598.234-1.092.545-1.092 1.116v8.405h-2.392m20.486-.001h-2.574c-1.533 0-2.73-1.219-2.73-2.749V55.98h-1.923v-2.075h1.924v-2.957l2.391-.39v3.347h3.276l-.416 2.075h-2.86v7.03c0 .623.494 1.115 1.118 1.115h1.795v2.076m4.263-.001h2.392V53.906h-2.392V66.2zm0-14.344h2.392v-3.061h-2.392v3.06zm7.591 14.344V53.906h2.34v.882c1.586-.674 3.51-1.141 4.628-1.141 1.742 0 2.781 1.14 2.781 2.75V66.2h-2.391v-9.13c0-.7-.417-1.09-1.118-1.09-.754 0-1.846.338-2.756.7-.598.234-1.092.545-1.092 1.116v8.405h-2.392m24.308-12.296V66.2h-2.34v-.882c-1.586.674-3.51 1.141-4.627 1.141-1.742 0-2.782-1.141-2.782-2.75v-9.805h2.392v9.131c0 .7.415 1.09 1.118 1.09.754 0 1.846-.338 2.755-.701.598-.233 1.093-.544 1.093-1.115v-8.405h2.39" fill="#1A1919"/><path d="M157.318 0a2.65 2.65 0 00-2.652 2.646l.073.595 1.16 9.446c0 .782.636 1.416 1.419 1.416.784 0 1.42-.634 1.42-1.416l1.16-9.446.072-.595A2.65 2.65 0 00157.318 0m0 43.269a2.65 2.65 0 002.652-2.646l-.072-.594-1.16-9.448c0-.782-.636-1.415-1.42-1.415-.783 0-1.419.633-1.419 1.415l-1.16 9.446-.073.596a2.65 2.65 0 002.652 2.646m-10.842-40.37a2.643 2.643 0 00-.97 3.614l.36.479 5.74 7.602a1.42 1.42 0 001.938.518 1.415 1.415 0 00.52-1.934l-3.729-8.76-.236-.551a2.655 2.655 0 00-3.623-.968m21.683 37.471a2.644 2.644 0 00.97-3.614l-.36-.479-5.739-7.603a1.421 1.421 0 00-1.939-.517 1.414 1.414 0 00-.519 1.933l3.965 9.312a2.655 2.655 0 003.622.969M138.54 10.818a2.643 2.643 0 00.97 3.614l.553.234 8.78 3.721a1.42 1.42 0 001.937-.518 1.414 1.414 0 00-.519-1.934l-7.618-5.726-.48-.36a2.655 2.655 0 00-3.623.969" fill="#CF3E87"/><path d="M138.54 10.818a2.643 2.643 0 00.97 3.614l.553.234 8.78 3.721a1.42 1.42 0 001.937-.518 1.414 1.414 0 00-.519-1.934l-7.618-5.726-.48-.36a2.655 2.655 0 00-3.623.969z" stroke="#CF3E87" stroke-width=".5"/><path d="M176.095 32.452a2.643 2.643 0 00-.97-3.615l-.553-.234-8.78-3.722a1.421 1.421 0 00-1.939.52 1.415 1.415 0 00.52 1.933l7.62 5.725.48.361c1.267.73 2.89.297 3.622-.968m-40.46-10.817a2.65 2.65 0 002.652 2.646l.596-.073 9.467-1.158c.784 0 1.42-.634 1.42-1.415a1.42 1.42 0 00-1.42-1.417l-9.466-1.157-.597-.072a2.65 2.65 0 00-2.652 2.646" fill="#CF3E87"/><path d="M135.635 21.635a2.65 2.65 0 002.652 2.646l.596-.073 9.467-1.158c.784 0 1.42-.634 1.42-1.415a1.42 1.42 0 00-1.42-1.417l-9.466-1.157-.597-.072a2.65 2.65 0 00-2.652 2.646z" stroke="#CF3E87" stroke-width=".5"/><g transform="translate(164.865 18.989)"><mask id="b" fill="#fff"><use xlink:href="#a"/></mask><path d="M14.135 2.646A2.649 2.649 0 0011.483 0l-.596.072L1.42 1.23C.636 1.23 0 1.864 0 2.646c0 .781.635 1.416 1.419 1.416l9.468 1.157.596.073a2.65 2.65 0 002.652-2.646" fill="#CF3E87" mask="url(#b)"/></g><path d="M138.54 32.453a2.655 2.655 0 003.623.968l.479-.36 7.619-5.726c.68-.391.91-1.258.519-1.934a1.42 1.42 0 00-1.938-.52l-8.779 3.721-.552.236a2.643 2.643 0 00-.97 3.615" fill="#CF3E87"/><path d="M176.095 10.818a2.655 2.655 0 00-3.623-.969l-.48.36-7.62 5.726a1.415 1.415 0 00-.519 1.935c.393.676 1.26.91 1.939.518l8.779-3.721.553-.234a2.643 2.643 0 00.97-3.615" fill="#1A1919"/><path d="M146.477 40.372c1.267.73 2.89.297 3.622-.97l3.963-9.31a1.413 1.413 0 00-.518-1.934 1.422 1.422 0 00-1.94.518l-5.738 7.601-.36.48a2.642 2.642 0 00.971 3.615M168.159 2.9a2.654 2.654 0 00-3.622.968l-.237.551-3.728 8.76a1.414 1.414 0 00.52 1.935c.677.39 1.545.16 1.937-.519l5.738-7.602.362-.48a2.642 2.642 0 00-.97-3.613" fill="#CF3E87"/><path d="M7.628 78.63c-.138.779-.37 1.568-.792 2.242-.38.622-1.013 1.169-1.783 1.169-.676 0-1.003-.295-1.109-.958-.358.558-.833.958-1.53.958-.612 0-1.118-.379-1.118-1.021 0-.506.126-.99.242-1.474.116-.495.285-1 .285-1.517 0-.316-.169-.505-.496-.505-.105 0-.221.02-.327.053.158-.306.211-.58.612-.58.538 0 .855.39.855.906s-.137 1.01-.253 1.506c-.117.495-.296 1.021-.296 1.527 0 .347.232.579.58.579.338 0 .623-.222.834-.464.443-.537.623-1.221.75-1.895.137-.705.242-1.411.316-2.116h.718a40.745 40.745 0 00-.443 2.21c-.074.464-.17.938-.17 1.412 0 .421.138.853.634.853.654 0 1.087-.716 1.34-1.232.38-.79.602-1.738.602-2.612 0-.252-.021-.41-.169-.631h.317c.453 0 .527-.011.527.473 0 .38-.063.748-.126 1.117" fill="#6F8F9D"/><path d="M7.628 78.63c-.138.779-.37 1.568-.792 2.242-.38.622-1.013 1.169-1.783 1.169-.676 0-1.003-.295-1.109-.958-.358.558-.833.958-1.53.958-.612 0-1.118-.379-1.118-1.021 0-.506.126-.99.242-1.474.116-.495.285-1 .285-1.517 0-.316-.169-.505-.496-.505-.105 0-.221.02-.327.053.158-.306.211-.58.612-.58.538 0 .855.39.855.906s-.137 1.01-.253 1.506c-.117.495-.296 1.021-.296 1.527 0 .347.232.579.58.579.338 0 .623-.222.834-.464.443-.537.623-1.221.75-1.895.137-.705.242-1.411.316-2.116h.718a40.745 40.745 0 00-.443 2.21c-.074.464-.17.938-.17 1.412 0 .421.138.853.634.853.654 0 1.087-.716 1.34-1.232.38-.79.602-1.738.602-2.612 0-.252-.021-.41-.169-.631h.317c.453 0 .527-.011.527.473 0 .38-.063.748-.126 1.117z" stroke="#1A1919" stroke-width=".5"/><path d="M10.836 77.46c-1.309 0-1.773 1.58-1.773 2.644 0 .695.21 1.41 1.045 1.41 1.287 0 1.73-1.716 1.73-2.737 0-.716-.158-1.316-1.002-1.316zm-.77 4.581c-1.151 0-1.668-.937-1.668-1.98 0-1.442.791-3.116 2.438-3.116 1.171 0 1.635.821 1.635 1.895 0 1.4-.77 3.201-2.406 3.201z" fill="#6F8F9D"/><path d="M10.836 77.46c-1.309 0-1.773 1.58-1.773 2.644 0 .695.21 1.41 1.045 1.41 1.287 0 1.73-1.716 1.73-2.737 0-.716-.158-1.316-1.002-1.316zm-.77 4.581c-1.151 0-1.668-.937-1.668-1.98 0-1.442.791-3.116 2.438-3.116 1.171 0 1.635.821 1.635 1.895 0 1.4-.77 3.201-2.406 3.201z" stroke="#1A1919" stroke-width=".5"/><path d="M17.083 82.041c-.538 0-.865-.337-.865-.874 0-.147.01-.305.031-.452l.39-2.412a2.7 2.7 0 00.043-.41c0-.285-.222-.432-.486-.432-.79 0-1.572.652-1.698 1.432l-.475 3.053h-.602l.57-3.537c.021-.159.042-.306.042-.464 0-.284-.19-.484-.475-.484-.095 0-.19.02-.274.063.137-.295.169-.527.56-.527.506 0 .738.285.801.759.454-.506.887-.811 1.583-.811.517 0 1.087.179 1.087.79 0 .147-.031.305-.053.452l-.4 2.475a2.037 2.037 0 00-.032.358c0 .495.38.495.77.495-.116.2-.232.526-.517.526" fill="#6F8F9D"/><path d="M17.083 82.041c-.538 0-.865-.337-.865-.874 0-.147.01-.305.031-.452l.39-2.412a2.7 2.7 0 00.043-.41c0-.285-.222-.432-.486-.432-.79 0-1.572.652-1.698 1.432l-.475 3.053h-.602l.57-3.537c.021-.159.042-.306.042-.464 0-.284-.19-.484-.475-.484-.095 0-.19.02-.274.063.137-.295.169-.527.56-.527.506 0 .738.285.801.759.454-.506.887-.811 1.583-.811.517 0 1.087.179 1.087.79 0 .147-.031.305-.053.452l-.4 2.475a2.037 2.037 0 00-.032.358c0 .495.38.495.77.495-.116.2-.232.526-.517.526z" stroke="#1A1919" stroke-width=".5"/><path d="M20.745 77.46c-.496 0-.95.432-1.203.833-.169.273-.285.579-.39.884.717-.031 2.057-.39 2.057-1.285 0-.273-.2-.431-.464-.431zm-1.72 2.202c-.042.21-.074.431-.074.652 0 .643.285 1.2 1.002 1.2.57 0 .971-.347 1.373-.705-.022.148-.032.295-.064.432-.116.558-.981.8-1.478.8-1.044 0-1.435-.895-1.435-1.81 0-.443.074-.875.211-1.286.338-.968 1.15-2 2.259-2 .507 0 1.045.253 1.045.832 0 1.4-1.7 1.885-2.84 1.885z" fill="#6F8F9D"/><path d="M20.745 77.46c-.496 0-.95.432-1.203.833-.169.273-.285.579-.39.884.717-.031 2.057-.39 2.057-1.285 0-.273-.2-.431-.464-.431zm-1.72 2.202c-.042.21-.074.431-.074.652 0 .643.285 1.2 1.002 1.2.57 0 .971-.347 1.373-.705-.022.148-.032.295-.064.432-.116.558-.981.8-1.478.8-1.044 0-1.435-.895-1.435-1.81 0-.443.074-.875.211-1.286.338-.968 1.15-2 2.259-2 .507 0 1.045.253 1.045.832 0 1.4-1.7 1.885-2.84 1.885z" stroke="#1A1919" stroke-width=".5"/><path d="M26.306 82.041c-.538 0-.865-.337-.865-.874 0-.147.01-.305.032-.452l.39-2.412c.021-.137.042-.274.042-.41 0-.285-.221-.432-.485-.432-.792 0-1.573.652-1.7 1.432l-.474 3.053h-.602l.57-3.537c.021-.159.043-.306.043-.464 0-.284-.19-.484-.476-.484-.095 0-.19.02-.274.063.137-.295.17-.527.56-.527.506 0 .738.285.802.759.453-.506.886-.811 1.583-.811.517 0 1.087.179 1.087.79 0 .147-.032.305-.053.452l-.401 2.475a2.037 2.037 0 00-.032.358c0 .495.38.495.77.495-.116.2-.232.526-.517.526" fill="#6F8F9D"/><path d="M26.306 82.041c-.538 0-.865-.337-.865-.874 0-.147.01-.305.032-.452l.39-2.412c.021-.137.042-.274.042-.41 0-.285-.221-.432-.485-.432-.792 0-1.573.652-1.7 1.432l-.474 3.053h-.602l.57-3.537c.021-.159.043-.306.043-.464 0-.284-.19-.484-.476-.484-.095 0-.19.02-.274.063.137-.295.17-.527.56-.527.506 0 .738.285.802.759.453-.506.886-.811 1.583-.811.517 0 1.087.179 1.087.79 0 .147-.032.305-.053.452l-.401 2.475a2.037 2.037 0 00-.032.358c0 .495.38.495.77.495-.116.2-.232.526-.517.526z" stroke="#1A1919" stroke-width=".5"/><path d="M27.298 82.778c.317-.136.612-.474.76-.779-.211-.021-.359-.126-.359-.358 0-.263.17-.474.444-.474.285 0 .422.242.422.506 0 .674-.634 1.105-1.267 1.105" fill="#6F8F9D"/><path d="M27.298 82.778c.317-.136.612-.474.76-.779-.211-.021-.359-.126-.359-.358 0-.263.17-.474.444-.474.285 0 .422.242.422.506 0 .674-.634 1.105-1.267 1.105z" stroke="#1A1919" stroke-width=".5"/><path d="M33.398 81.494c.084-.021.169-.043.253-.043.707 0 1.499.622 2.364.622.232 0 .338-.01.549-.127-.084.137-.158.285-.243.422-.095.168-.232.22-.422.22-.538 0-1.076-.241-1.572-.41-.55-.179-.971-.295-1.552-.295-.147 0-.295.021-.433.063l3.494-4.475a1.079 1.079 0 01-.444.084c-.495 0-.97-.094-1.466-.094-.39 0-.602.02-.908.284.095-.621.021-.8.739-.8.717 0 1.435.126 2.152.126.317 0 .623-.01.94-.031l-3.451 4.454" fill="#6F8F9D"/><path d="M33.398 81.494c.084-.021.169-.043.253-.043.707 0 1.499.622 2.364.622.232 0 .338-.01.549-.127-.084.137-.158.285-.243.422-.095.168-.232.22-.422.22-.538 0-1.076-.241-1.572-.41-.55-.179-.971-.295-1.552-.295-.147 0-.295.021-.433.063l3.494-4.475a1.079 1.079 0 01-.444.084c-.495 0-.97-.094-1.466-.094-.39 0-.602.02-.908.284.095-.621.021-.8.739-.8.717 0 1.435.126 2.152.126.317 0 .623-.01.94-.031l-3.451 4.454z" stroke="#1A1919" stroke-width=".5"/><path d="M39.635 77.46c-1.309 0-1.773 1.58-1.773 2.644 0 .695.21 1.41 1.044 1.41 1.288 0 1.731-1.716 1.731-2.737 0-.716-.158-1.316-1.002-1.316zm-.77 4.581c-1.151 0-1.668-.937-1.668-1.98 0-1.442.791-3.116 2.438-3.116 1.171 0 1.635.821 1.635 1.895 0 1.4-.77 3.201-2.406 3.201z" fill="#6F8F9D"/><path d="M39.635 77.46c-1.309 0-1.773 1.58-1.773 2.644 0 .695.21 1.41 1.044 1.41 1.288 0 1.731-1.716 1.731-2.737 0-.716-.158-1.316-1.002-1.316zm-.77 4.581c-1.151 0-1.668-.937-1.668-1.98 0-1.442.791-3.116 2.438-3.116 1.171 0 1.635.821 1.635 1.895 0 1.4-.77 3.201-2.406 3.201z" stroke="#1A1919" stroke-width=".5"/><path d="M44.742 77.83c-.126-.074-.232-.138-.38-.138-.865 0-1.15.99-1.256 1.685l-.411 2.57h-.602l.623-3.865c.032-.232.074-.453.074-.685a.808.808 0 00-.032-.22l.665-.18-.127.832c.254-.4.602-.832 1.13-.832.274 0 .369.127.369.39 0 .147-.021.295-.053.442" fill="#6F8F9D"/><path d="M44.742 77.83c-.126-.074-.232-.138-.38-.138-.865 0-1.15.99-1.256 1.685l-.411 2.57h-.602l.623-3.865c.032-.232.074-.453.074-.685a.808.808 0 00-.032-.22l.665-.18-.127.832c.254-.4.602-.832 1.13-.832.274 0 .369.127.369.39 0 .147-.021.295-.053.442z" stroke="#1A1919" stroke-width=".5"/><path d="M47.275 77.471c-.75 0-1.13.927-1.13 1.559 0 .41.254.779.697.779.781 0 1.14-.916 1.14-1.57 0-.452-.232-.768-.707-.768zm-.443 4.475c-.56 0-1.657.116-1.657.875 0 .568.707.663 1.14.663.56 0 1.71-.148 1.71-.906 0-.61-.75-.632-1.193-.632zm1.762-4.327h-.126c.084.22.147.41.147.652 0 1.012-.527 1.864-1.583 2.012-.38.053-.96.136-.96.632 0 .6 1.098.568 1.499.61.58.063 1.097.358 1.097 1.011 0 1.127-1.403 1.464-2.3 1.464-.708 0-1.837-.147-1.837-1.074 0-.853.58-1.19 1.351-1.274-.264-.158-.454-.316-.454-.643 0-.463.349-.716.75-.863-.496-.253-.655-.632-.655-1.169 0-1.085.686-2.022 1.837-2.022.337 0 .57.074.876.221h.675a.83.83 0 00.475-.116c-.295.59-.19.548-.792.559z" fill="#6F8F9D"/><path d="M47.275 77.471c-.75 0-1.13.927-1.13 1.559 0 .41.254.779.697.779.781 0 1.14-.916 1.14-1.57 0-.452-.232-.768-.707-.768zm-.443 4.475c-.56 0-1.657.116-1.657.875 0 .568.707.663 1.14.663.56 0 1.71-.148 1.71-.906 0-.61-.75-.632-1.193-.632zm1.762-4.327h-.126c.084.22.147.41.147.652 0 1.012-.527 1.864-1.583 2.012-.38.053-.96.136-.96.632 0 .6 1.098.568 1.499.61.58.063 1.097.358 1.097 1.011 0 1.127-1.403 1.464-2.3 1.464-.708 0-1.837-.147-1.837-1.074 0-.853.58-1.19 1.351-1.274-.264-.158-.454-.316-.454-.643 0-.463.349-.716.75-.863-.496-.253-.655-.632-.655-1.169 0-1.085.686-2.022 1.837-2.022.337 0 .57.074.876.221h.675a.83.83 0 00.475-.116c-.295.59-.19.548-.792.559z" stroke="#1A1919" stroke-width=".5"/><path d="M54.757 77.46c-.496 0-.95.432-1.203.833-.169.273-.285.579-.39.884.717-.031 2.058-.39 2.058-1.285 0-.273-.201-.431-.465-.431zm-1.72 2.202c-.042.21-.074.431-.074.652 0 .643.285 1.2 1.003 1.2.57 0 .97-.347 1.372-.705-.021.148-.032.295-.064.432-.116.558-.981.8-1.477.8-1.045 0-1.435-.895-1.435-1.81 0-.443.073-.875.21-1.286.338-.968 1.151-2 2.26-2 .506 0 1.044.253 1.044.832 0 1.4-1.7 1.885-2.839 1.885z" fill="#6F8F9D"/><path d="M54.757 77.46c-.496 0-.95.432-1.203.833-.169.273-.285.579-.39.884.717-.031 2.058-.39 2.058-1.285 0-.273-.201-.431-.465-.431zm-1.72 2.202c-.042.21-.074.431-.074.652 0 .643.285 1.2 1.003 1.2.57 0 .97-.347 1.372-.705-.021.148-.032.295-.064.432-.116.558-.981.8-1.477.8-1.045 0-1.435-.895-1.435-1.81 0-.443.073-.875.21-1.286.338-.968 1.151-2 2.26-2 .506 0 1.044.253 1.044.832 0 1.4-1.7 1.885-2.839 1.885z" stroke="#1A1919" stroke-width=".5"/><path d="M60.319 82.041c-.538 0-.866-.337-.866-.874 0-.147.011-.305.032-.452l.39-2.412c.021-.137.043-.274.043-.41 0-.285-.222-.432-.486-.432-.791 0-1.572.652-1.699 1.432l-.475 3.053h-.601l.57-3.537c.02-.159.042-.306.042-.464 0-.284-.19-.484-.475-.484-.095 0-.19.02-.274.063.137-.295.168-.527.559-.527.506 0 .738.285.802.759.454-.506.886-.811 1.583-.811.517 0 1.087.179 1.087.79 0 .147-.032.305-.053.452l-.4 2.475a2.037 2.037 0 00-.033.358c0 .495.38.495.77.495-.115.2-.232.526-.516.526" fill="#6F8F9D"/><path d="M60.319 82.041c-.538 0-.866-.337-.866-.874 0-.147.011-.305.032-.452l.39-2.412c.021-.137.043-.274.043-.41 0-.285-.222-.432-.486-.432-.791 0-1.572.652-1.699 1.432l-.475 3.053h-.601l.57-3.537c.02-.159.042-.306.042-.464 0-.284-.19-.484-.475-.484-.095 0-.19.02-.274.063.137-.295.168-.527.559-.527.506 0 .738.285.802.759.454-.506.886-.811 1.583-.811.517 0 1.087.179 1.087.79 0 .147-.032.305-.053.452l-.4 2.475a2.037 2.037 0 00-.033.358c0 .495.38.495.77.495-.115.2-.232.526-.516.526z" stroke="#1A1919" stroke-width=".5"/><path d="M66.904 77.83c-.127-.074-.233-.138-.38-.138-.865 0-1.15.99-1.256 1.685l-.411 2.57h-.602l.623-3.865c.031-.232.073-.453.073-.685a.808.808 0 00-.031-.22l.665-.18-.127.832c.253-.4.602-.832 1.13-.832.273 0 .369.127.369.39 0 .147-.021.295-.053.442" fill="#6F8F9D"/><path d="M66.904 77.83c-.127-.074-.233-.138-.38-.138-.865 0-1.15.99-1.256 1.685l-.411 2.57h-.602l.623-3.865c.031-.232.073-.453.073-.685a.808.808 0 00-.031-.22l.665-.18-.127.832c.253-.4.602-.832 1.13-.832.273 0 .369.127.369.39 0 .147-.021.295-.053.442z" stroke="#1A1919" stroke-width=".5"/><path d="M69.584 77.46c-.496 0-.95.432-1.203.833-.169.273-.285.579-.39.884.717-.031 2.058-.39 2.058-1.285 0-.273-.201-.431-.465-.431zm-1.72 2.202c-.042.21-.074.431-.074.652 0 .643.285 1.2 1.003 1.2.57 0 .97-.347 1.371-.705-.02.148-.031.295-.063.432-.116.558-.981.8-1.477.8-1.045 0-1.435-.895-1.435-1.81 0-.443.073-.875.21-1.286.338-.968 1.151-2 2.259-2 .506 0 1.045.253 1.045.832 0 1.4-1.7 1.885-2.839 1.885z" fill="#6F8F9D"/><path d="M69.584 77.46c-.496 0-.95.432-1.203.833-.169.273-.285.579-.39.884.717-.031 2.058-.39 2.058-1.285 0-.273-.201-.431-.465-.431zm-1.72 2.202c-.042.21-.074.431-.074.652 0 .643.285 1.2 1.003 1.2.57 0 .97-.347 1.371-.705-.02.148-.031.295-.063.432-.116.558-.981.8-1.477.8-1.045 0-1.435-.895-1.435-1.81 0-.443.073-.875.21-1.286.338-.968 1.151-2 2.259-2 .506 0 1.045.253 1.045.832 0 1.4-1.7 1.885-2.839 1.885z" stroke="#1A1919" stroke-width=".5"/><path d="M74.47 80.936c-.39.568-1.023 1.105-1.752 1.105-.643 0-1.118-.442-1.118-1.095 0-.748.253-1.506.411-2.222a3.28 3.28 0 00.085-.653c0-.326-.148-.547-.496-.547a.98.98 0 00-.306.053c.147-.316.18-.58.601-.58.58 0 .845.4.845.938 0 .99-.496 2-.496 2.969 0 .337.158.61.527.61.982 0 1.594-1.537 1.784-2.337a6.17 6.17 0 00.179-1.464c0-.263-.032-.442-.158-.673h.485c.285 0 .327.115.327.379 0 1.116-.274 2.58-.918 3.517" fill="#6F8F9D"/><path d="M74.47 80.936c-.39.568-1.023 1.105-1.752 1.105-.643 0-1.118-.442-1.118-1.095 0-.748.253-1.506.411-2.222a3.28 3.28 0 00.085-.653c0-.326-.148-.547-.496-.547a.98.98 0 00-.306.053c.147-.316.18-.58.601-.58.58 0 .845.4.845.938 0 .99-.496 2-.496 2.969 0 .337.158.61.527.61.982 0 1.594-1.537 1.784-2.337a6.17 6.17 0 00.179-1.464c0-.263-.032-.442-.158-.673h.485c.285 0 .327.115.327.379 0 1.116-.274 2.58-.918 3.517z" stroke="#1A1919" stroke-width=".5"/><path d="M78.544 77.46c-.897 0-1.467.896-1.689 1.665-.116.389-.158.8-.158 1.21 0 .495.126 1.18.76 1.18.644 0 1.171-.548 1.414-1.106.253-.568.464-1.537.464-2.159 0-.473-.317-.79-.791-.79zm1.277 1.496c-.095.568-.19 1.148-.19 1.727 0 .516.116.937.728.927-.053.273-.18.431-.475.431-.612 0-.792-.642-.823-1.137-.264.632-.887 1.137-1.594 1.137-1.002 0-1.414-.863-1.414-1.748 0-1.485.865-3.348 2.575-3.348.433 0 .781.147.971.547.253-.537.095-.452.78-.452-.337.663-.442 1.2-.558 1.916z" fill="#6F8F9D"/><path d="M78.544 77.46c-.897 0-1.467.896-1.689 1.665-.116.389-.158.8-.158 1.21 0 .495.126 1.18.76 1.18.644 0 1.171-.548 1.414-1.106.253-.568.464-1.537.464-2.159 0-.473-.317-.79-.791-.79zm1.277 1.496c-.095.568-.19 1.148-.19 1.727 0 .516.116.937.728.927-.053.273-.18.431-.475.431-.612 0-.792-.642-.823-1.137-.264.632-.887 1.137-1.594 1.137-1.002 0-1.414-.863-1.414-1.748 0-1.485.865-3.348 2.575-3.348.433 0 .781.147.971.547.253-.537.095-.452.78-.452-.337.663-.442 1.2-.558 1.916z" stroke="#1A1919" stroke-width=".5"/><path d="M82.058 80.272a5.153 5.153 0 00-.085.811c0 .305.233.442.507.442.074 0 .158-.01.232-.02-.116.23-.2.536-.517.536-.464 0-.844-.326-.844-.8 0-.326.053-.642.105-.958l.76-4.802c.032-.221.085-.442.085-.664 0-.073-.01-.136-.022-.21l.708-.168-.93 5.833" fill="#6F8F9D"/><path d="M82.058 80.272a5.153 5.153 0 00-.085.811c0 .305.233.442.507.442.074 0 .158-.01.232-.02-.116.23-.2.536-.517.536-.464 0-.844-.326-.844-.8 0-.326.053-.642.105-.958l.76-4.802c.032-.221.085-.442.085-.664 0-.073-.01-.136-.022-.21l.708-.168-.93 5.833z" stroke="#1A1919" stroke-width=".5"/><path d="M84.97 75.944c-.232 0-.4-.158-.4-.39 0-.242.179-.463.432-.463.232 0 .433.148.433.39 0 .263-.2.463-.465.463zm.053 5.866c-.084.158-.137.231-.327.231-.506 0-.876-.347-.876-.852 0-.317.053-.622.106-.927l.348-2.18c.032-.232.074-.453.074-.685a.808.808 0 00-.032-.22l.728-.18-.548 3.454c-.032.19-.053.39-.053.58 0 .505.359.484.75.473l-.17.306z" fill="#6F8F9D"/><path d="M84.97 75.944c-.232 0-.4-.158-.4-.39 0-.242.179-.463.432-.463.232 0 .433.148.433.39 0 .263-.2.463-.465.463zm.053 5.866c-.084.158-.137.231-.327.231-.506 0-.876-.347-.876-.852 0-.317.053-.622.106-.927l.348-2.18c.032-.232.074-.453.074-.685a.808.808 0 00-.032-.22l.728-.18-.548 3.454c-.032.19-.053.39-.053.58 0 .505.359.484.75.473l-.17.306z" stroke="#1A1919" stroke-width=".5"/><path d="M88.506 77.46c-.929 0-1.499.99-1.71 1.77a4.08 4.08 0 00-.148 1.126c0 .548.17 1.159.834 1.159.697 0 1.203-.685 1.425-1.274.19-.495.39-1.443.39-1.97 0-.473-.306-.81-.791-.81zm1.256 2.044c-.064.378-.127.758-.127 1.137 0 .505.105.884.676.958-.074.253-.138.442-.444.442-.612 0-.802-.674-.812-1.169-.307.695-.866 1.169-1.647 1.169-1.076 0-1.403-.874-1.403-1.8 0-.443.074-.875.21-1.296.338-.968 1.161-2 2.28-2 .412 0 .75.126.992.474l.317-1.938c.032-.221.074-.442.074-.664 0-.073 0-.136-.021-.21l.707-.168-.802 5.065z" fill="#6F8F9D"/><path d="M88.506 77.46c-.929 0-1.499.99-1.71 1.77a4.08 4.08 0 00-.148 1.126c0 .548.17 1.159.834 1.159.697 0 1.203-.685 1.425-1.274.19-.495.39-1.443.39-1.97 0-.473-.306-.81-.791-.81zm1.256 2.044c-.064.378-.127.758-.127 1.137 0 .505.105.884.676.958-.074.253-.138.442-.444.442-.612 0-.802-.674-.812-1.169-.307.695-.866 1.169-1.647 1.169-1.076 0-1.403-.874-1.403-1.8 0-.443.074-.875.21-1.296.338-.968 1.161-2 2.28-2 .412 0 .75.126.992.474l.317-1.938c.032-.221.074-.442.074-.664 0-.073 0-.136-.021-.21l.707-.168-.802 5.065z" stroke="#1A1919" stroke-width=".5"/><path d="M93.614 77.46c-.898 0-1.468.896-1.69 1.665-.115.389-.157.8-.157 1.21 0 .495.126 1.18.76 1.18.643 0 1.17-.548 1.414-1.106.253-.568.464-1.537.464-2.159 0-.473-.317-.79-.791-.79zm1.277 1.496c-.096.568-.19 1.148-.19 1.727 0 .516.116.937.728.927-.053.273-.18.431-.475.431-.612 0-.792-.642-.823-1.137-.264.632-.887 1.137-1.594 1.137-1.003 0-1.414-.863-1.414-1.748 0-1.485.865-3.348 2.575-3.348.433 0 .78.147.97.547.254-.537.096-.452.782-.452-.338.663-.443 1.2-.56 1.916z" fill="#6F8F9D"/><path d="M93.614 77.46c-.898 0-1.468.896-1.69 1.665-.115.389-.157.8-.157 1.21 0 .495.126 1.18.76 1.18.643 0 1.17-.548 1.414-1.106.253-.568.464-1.537.464-2.159 0-.473-.317-.79-.791-.79zm1.277 1.496c-.096.568-.19 1.148-.19 1.727 0 .516.116.937.728.927-.053.273-.18.431-.475.431-.612 0-.792-.642-.823-1.137-.264.632-.887 1.137-1.594 1.137-1.003 0-1.414-.863-1.414-1.748 0-1.485.865-3.348 2.575-3.348.433 0 .78.147.97.547.254-.537.096-.452.782-.452-.338.663-.443 1.2-.56 1.916z" stroke="#1A1919" stroke-width=".5"/><path d="M98.373 77.292c-.042.274-.422.21-.623.21-.042 0-.095 0-.137.011l-.496 3.064a2.547 2.547 0 00-.032.4c0 .38.253.538.602.538.2 0 .37-.053.549-.137-.074.485-.085.663-.644.663-.634 0-1.119-.231-1.119-.937 0-.158.01-.316.032-.474l.496-3.117c-.116 0-.232-.01-.348-.01-.095 0-.18.01-.264.02.106-.62.116-.483.696-.483.053-.348.148-.706.148-1.054a.89.89 0 00-.042-.242l.718-.157-.222 1.453h.359c.127 0 .242-.022.37-.032l-.043.284" fill="#6F8F9D"/><path d="M98.373 77.292c-.042.274-.422.21-.623.21-.042 0-.095 0-.137.011l-.496 3.064a2.547 2.547 0 00-.032.4c0 .38.253.538.602.538.2 0 .37-.053.549-.137-.074.485-.085.663-.644.663-.634 0-1.119-.231-1.119-.937 0-.158.01-.316.032-.474l.496-3.117c-.116 0-.232-.01-.348-.01-.095 0-.18.01-.264.02.106-.62.116-.483.696-.483.053-.348.148-.706.148-1.054a.89.89 0 00-.042-.242l.718-.157-.222 1.453h.359c.127 0 .242-.022.37-.032l-.043.284z" stroke="#1A1919" stroke-width=".5"/><path d="M100.42 75.944c-.232 0-.4-.158-.4-.39 0-.242.178-.463.432-.463.232 0 .432.148.432.39 0 .263-.2.463-.464.463zm.053 5.866c-.085.158-.137.231-.327.231-.507 0-.876-.347-.876-.852 0-.317.053-.622.106-.927l.348-2.18c.031-.232.074-.453.074-.685a.808.808 0 00-.032-.22l.728-.18-.549 3.454c-.032.19-.053.39-.053.58 0 .505.36.484.75.473l-.169.306z" fill="#6F8F9D"/><path d="M100.42 75.944c-.232 0-.4-.158-.4-.39 0-.242.178-.463.432-.463.232 0 .432.148.432.39 0 .263-.2.463-.464.463zm.053 5.866c-.085.158-.137.231-.327.231-.507 0-.876-.347-.876-.852 0-.317.053-.622.106-.927l.348-2.18c.031-.232.074-.453.074-.685a.808.808 0 00-.032-.22l.728-.18-.549 3.454c-.032.19-.053.39-.053.58 0 .505.36.484.75.473l-.169.306z" stroke="#1A1919" stroke-width=".5"/><path d="M103.839 77.46c-.496 0-.95.432-1.203.833-.169.273-.284.579-.39.884.717-.031 2.058-.39 2.058-1.285 0-.273-.201-.431-.465-.431zm-1.72 2.202c-.042.21-.074.431-.074.652 0 .643.285 1.2 1.003 1.2.57 0 .97-.347 1.372-.705-.021.148-.032.295-.063.432-.117.558-.982.8-1.478.8-1.045 0-1.435-.895-1.435-1.81 0-.443.073-.875.21-1.286.339-.968 1.151-2 2.259-2 .507 0 1.045.253 1.045.832 0 1.4-1.699 1.885-2.839 1.885z" fill="#6F8F9D"/><path d="M103.839 77.46c-.496 0-.95.432-1.203.833-.169.273-.284.579-.39.884.717-.031 2.058-.39 2.058-1.285 0-.273-.201-.431-.465-.431zm-1.72 2.202c-.042.21-.074.431-.074.652 0 .643.285 1.2 1.003 1.2.57 0 .97-.347 1.372-.705-.021.148-.032.295-.063.432-.117.558-.982.8-1.478.8-1.045 0-1.435-.895-1.435-1.81 0-.443.073-.875.21-1.286.339-.968 1.151-2 2.259-2 .507 0 1.045.253 1.045.832 0 1.4-1.699 1.885-2.839 1.885z" stroke="#1A1919" stroke-width=".5"/></g></svg>