<svg width="270" height="62" viewBox="0 0 270 62" xmlns="http://www.w3.org/2000/svg" xmlns:xlink="http://www.w3.org/1999/xlink"><defs><path id="a" d="M0 0h269v62H0z"/></defs><g fill="none" fill-rule="evenodd"><path d="M177.573 56.682h15.013V29.224c0-4.553.52-6.754 2.04-8.063a893.179 893.179 0 00-17.053 1.85v33.67zm-22.771-30.673a23.82 23.82 0 01.43 4.61c0 9.64-5.48 16.374-13.326 16.374-3.84 0-7.152-1.511-9.585-4.368-2.523-2.966-3.86-7.118-3.86-12.006 0-.123.006-.245.008-.367a805.923 805.923 0 00-15.26 2.846c.565 6.994 3.406 13.29 8.154 17.925C126.63 56.167 133.927 59 141.906 59c8.018 0 15.307-2.836 20.533-7.98 5.26-5.182 8.154-12.468 8.154-20.518a31.48 31.48 0 00-.678-6.548 870.778 870.778 0 00-15.113 2.055zm15.09-2.154c.012.032.017.067.023.099 0-.003 0-.003.005-.003-.011-.03-.016-.064-.027-.096zm99.917 32.012c-1.083-4.74-1.633-9.883-1.633-15.276V17c-5.061.074-10.062.19-15.01.35v26.558c-3.957 2.225-7.358 3.316-10.382 3.316-4.32 0-7.88-1.381-10.297-3.996-2.444-2.647-3.737-6.567-3.737-11.335 0-5.515 1.509-10.17 4.37-13.465.065-.08.136-.148.203-.226-5.88.322-11.672.694-17.366 1.118-1.604 3.725-2.453 7.828-2.453 12.11 0 7.977 2.574 14.833 7.441 19.827C225.882 56.323 232.744 59 240.782 59c4.223 0 9.01-1.176 14.588-3.566l.297 1.248H270l-.191-.815zM83.38 44.56c.302-.447 1.851-2.72 4.07-5.974a761.71 761.71 0 00-20.412 5l-8.92 13.095h52.33l-.006-12.121H83.381zm-29.498 2.59C36.016 52.175 24.047 56.362 19 58.208c2.269.525 4.678.791 7.203.791 4.225 0 9.01-1.176 14.588-3.566.07.298.183.751.302 1.248H55.42l-.19-.815a64.965 64.965 0 01-1.348-8.717z" fill="#F3B229"/><mask id="b" fill="#fff"><use xlink:href="#a"/></mask><path d="M192.596 9.843V2.331h-14.05v15.35a1050.993 1050.993 0 0134.493-2.438V1.046h-1.62c-7.173 0-13.345 2.886-18.823 8.797zm76.205-7.512h-15.944C249.064.987 245.62.347 242.235.347c-7.329 0-14.243 2.924-19.473 8.226a28.438 28.438 0 00-4.73 6.403v.011c6.672-.331 12.839-.566 18.43-.742-.01.006-.022.016-.033.022 2.422-1.756 5.35-2.674 8.632-2.674 2.195 0 4.815.758 7.974 2.284h-.005a716.07 716.07 0 0112.182-.064h-.022c1.711.01 2.998.021 3.81.032V2.31s-.07.005-.199.021zm-230.167 0C34.838.987 31.397.347 28.014.347c-7.332 0-14.249 2.924-19.475 8.226C3.159 14.037.193 21.491.193 29.563c0 8.014 2.571 14.901 7.431 19.922a25.333 25.333 0 001.835 1.708 443.64 443.64 0 0117.695-5.896c-3.292-.411-6.033-1.729-8.009-3.879-2.44-2.662-3.73-6.6-3.73-11.391 0-5.538 1.507-10.217 4.36-13.525 2.768-3.212 6.591-4.909 11.06-4.909 2.416 0 5.355.913 8.954 2.77v27.2a565.326 565.326 0 0114.987-3.992V2.311s-.073.004-.197.02H38.634zM163.437 8.02C158.223 2.844 150.943 0 142.935 0c-7.965 0-15.25 2.844-20.507 8.014-4.655 4.578-7.48 10.756-8.115 17.627h.008l.008-.127a880.409 880.409 0 0115.836-2.37c1.652-6.732 6.377-10.964 12.77-10.964 3.735 0 7.093 1.564 9.471 4.402.856 1.025 1.566 2.198 2.142 3.484l.01.01c5.22-.586 10.353-1.12 15.368-1.605-1.367-3.986-3.562-7.55-6.489-10.452zM63.103 14.512h23.56c-.616.907-6.449 9.524-12.55 18.535 8.41-1.792 14.95-3.1 19.661-3.975l18.112-26.74H63.097l.006 12.18z" fill="#009FA0" mask="url(#b)"/></g></svg>