<?xml version="1.0" encoding="UTF-8"?><svg id="Layer_1" xmlns="http://www.w3.org/2000/svg" width="93" height="92" viewBox="0 0 93 92"><defs><style>.cls-1{fill:#e24812;}.cls-2{fill:#4e2e2c;}</style></defs><path class="cls-2" d="M33.32,69.36h0c-5.1.06-9.8,3.86-10.72,8.95-.52,2.89.25,5.93,2.26,8.09,1.87,1.99,4.58,3.07,7.29,2.93,3.08-.15,5.75-1.71,7.81-3.96.35-.38.93-1.07.69-1.64-.27-.65-1.15-.3-1.61-.12-1.47.6-2.76,1.59-4.23,2.22-2.42,1.04-5.22,1.13-7.4-.53-1.91-1.46-2.83-3.88-2.4-6.24.38-2.09,1.65-3.98,3.34-5.23,1.96-1.46,4.77-2.16,7.04-1.02.58.29,1.06.69,1.48,1.19.4.47.75,1.09,1.36,1.31.44.17,1.66.12,1.79-.44.1-.44-1.3-5.56-6.7-5.52"/><path class="cls-2" d="M79.24,72.53c-.75-.8-1.75-.22-1.82.96-.14,2.3,1.31,6.86,1.05,7.11-.25.26-3.46-2.1-4.59-3.58h0c-1.45-1.67-3.7.23-2.14,1.9.84,1.09,2.12,1.97,3.32,2.59,1,.53,2.26,1.01,3.4,1.01.41,0,.07,3.28-.04,4-.12.8-1.57,4.49-1.02,5.05.61.61,2.18-2.31,2.29-2.53.82-1.56,1.24-3.4,1.36-5.14.37-5.31-.34-7.89-.62-8.87-.46-1.62-1.2-2.51-1.2-2.51h0s0,0,0,0Z"/><path class="cls-2" d="M91.36,74.91c0-2.25-1-5.39-2.55-7.05-2.39-2.58-4.75.31-5.45,2.74-.94-1.85-3.42-.54-2.35,1.28.53,1.12,1.45,2.15,2.11,3.21.71,1.13,1.17,2.46,1.92,3.54.48.69,1.51,1.35,2.2.46.58-.74.11-1.55-.32-2.2-1.02-1.55-1.62-2.87-1.43-4.82.09-.94.42-2.48,1.16-2.79,1.36-.56,2.81,4.36,3.36,5.76.18.47.25,1.26.75,1.36.72.14.6-1.29.59-1.48"/><path class="cls-2" d="M70.26,88.46c-2.01.19-5.1-.27-5.82-2.57-.69-2.22.94-6.16,3.8-4.98,1.54.64-.73,2.39-1.34,2.82-.82.58-1.91.84-1.5,2.14.8,2.55,4.59-1.47,5.13-2.26,1.94-2.89-.74-5.66-3.79-5.29-3.5.42-5.13,4.01-4.86,7.23.19,1.88,1.3,3.46,3.01,4.2,1.56.68,3.3.69,4.93.28.85-.21,2.65-.76,2.92-1.7.07-.36-.58-.13-2.49.13"/><path class="cls-2" d="M60.07,81.01c-1.36-.45-2.94-.1-4.05.79-.17-1.14-1.57-1.7-2.39-.8-1,1.11.03,4.27.12,5.63.09,1.41-.65,4.13.63,5.15.89.71,2.24.18,2.02-1.04,0-.02-1.35-6.21,1.22-7.84.99-.63,1.85.33,2.71.09,1.15-.32.58-1.71-.25-1.98"/><path class="cls-2" d="M51.28,83.46c-.31-3.03-4.13-3.97-6.68-3.78-.86.06-2.17.94-1.35,1.9.74.87,2.04.62,3.05.66.83.03,1.9.08,2.51.74.48.52.38,1.21.38,1.86-1.81-.67-4.22-1.02-5.99-.04-1.98,1.09-2.48,4.02-1.14,5.82.76,1.02,1.96,1.39,3.21,1.17.77-.13,1.53-.38,2.19-.79.17-.11,1.4-.9.82-1.16-.32-.14-.75-.07-1.08-.03-.61.08-1.19.1-1.8-.02-1.02-.21-1.74-.63-1.7-1.75.09-2.21,3.52-1.41,4.81-.93.21.08.41.16.61.26-.04.38-.02.75,0,1.13.07.9.23,1.83.56,2.68.04.1.5,1.07.69.7.23-.46.3-1.05.39-1.55.43-2.22.74-4.59.49-6.85"/><path class="cls-1" d="M32.27,37.89c2.55,1.6,5.8,2.38,8.86,1.77,3.1-.56,5.8-2.59,7.46-5.09,1.01-1.5,1.73-3.15,2.21-4.85,1.75-.04,3.49-.02,5.24.08.64-1.14,1.38-2.19,2.18-3.16-2.25-.22-4.51-.32-6.77-.32,0-.03,0-.06,0-.08.2-1.76.02-3.35-.28-4.46-.3-1.11-.72-1.74-1.04-1.69-.33.05-.51.76-.65,1.82-.13,1.07-.23,2.5-.41,4.06-.51,5.09-3.6,10.26-8.44,11.02-4.85.9-9.41-2.68-12.2-6.98-2.77-4.3-4.86-9.68-5-14.6-.1-4.96,2.66-9.98,7.09-11.49,1.95-.72,3.88-.8,5.38-.75,1.5.06,2.57.14,2.8-.34.21-.42-.5-1.36-2.18-2.15-1.64-.78-4.44-1.21-7.22-.18-6.21,2.3-9.4,8.98-9.17,14.94.05,3.06.9,5.93,1.87,8.59.93,2.51,2.13,4.94,3.62,7.19-5.75,2.38-11.15,5.68-15.71,10.12C3.21,47.67-1.2,57.44.29,67.13c.64,4.38,2.57,7.96,4.3,10.13,1.75,2.2,3.28,3.12,3.72,2.75.49-.39-.16-1.96-1.09-4.32-.93-2.36-2.13-5.56-2.65-9.22-1.35-8.1,2.14-16.44,8.15-22.29,4.28-4.3,9.58-7.57,15.29-9.9,1.23,1.37,2.64,2.6,4.26,3.6h0ZM92.19,41.42c-.71-1-1.88-2.24-3.37-3.34-1.82-1.35-3.73-2.54-5.71-3.59v-.26c-.23-5.36-2.97-10.9-8.1-13.54-2.58-1.3-5.34-1.32-7.06-.77-1.75.55-2.57,1.38-2.43,1.82.17.49,1.22.55,2.69.69,1.47.14,3.35.53,5.21,1.46,4.19,2.01,6.65,7.07,6.42,12-.17,3.83-1.56,7.84-3.67,11.27l-.46.62s.04.01.06.02c-.48.73-.98,1.43-1.51,2.09-3.13,3.94-8.17,6.59-12.79,4.88-4.59-1.56-7.28-6.76-7.53-11.83-.11-1.55-.1-2.96-.19-4.03-.03-1.05-.21-1.76-.53-1.83-.32-.07-.72.54-1.12,1.61-.35,1.08-.63,2.64-.51,4.39,0,.16.01.33.02.49-1.09.14-2.18.31-3.27.49-11.86,2.18-23.58,7.26-31.98,16.35-1.26,1.36-2.18,2.8-2.69,3.92-.52,1.12-.62,1.92-.34,2.08.29.18.9-.3,1.73-1.11.83-.82,1.88-1.98,3.06-3.26,8-8.4,19.34-13.13,30.72-15.01,1.06-.15,2.13-.28,3.21-.4,1.04,4.53,3.81,8.89,8.53,10.64,2.86,1.09,6.14.94,8.92-.22,2.8-1.13,5.12-3.07,7.01-5.26.8-.98,1.55-2.01,2.23-3.07,1.35.49,2.67,1.05,3.96,1.71,2.27,1.17,4.28,2.29,5.75,3.18,1.49.85,2.54,1.35,2.92.98.35-.33-.07-1.48-1.27-2.95-1.17-1.49-3.23-3.15-5.77-4.46-1.25-.62-2.52-1.16-3.82-1.63,1.21-2.53,2.05-5.23,2.43-8.11.02-.07.03-.14.04-.22,1.52.83,3,1.74,4.42,2.76,1.39,1.03,2.64,1.98,3.61,2.62.97.64,1.66,1,1.91.77.24-.21-.01-.98-.73-1.98h0s0,0,0,0Z"/></svg>