<svg aria-labelledby="logo-title" width="171" height="53" viewBox="0 0 171 53" fill="none" xmlns="http://www.w3.org/2000/svg">
    <title id="logo-title">Cordaan logo, linkt naar home</title>
    <path fill-rule="evenodd" clip-rule="evenodd" d="M37.5309 21.9838C37.2828 22.3105 36.7645 22.7279 37.5696 23.8205C37.8454 24.1942 38.235 24.5407 38.7925 24.9212C38.8465 24.9532 38.906 25.0072 38.9636 25.0581C39.1684 25.223 39.4246 25.4325 39.7342 25.4416C40.1011 25.4587 40.4137 25.1949 40.6916 24.6516C40.9722 24.0954 40.2722 23.2934 39.4751 22.4532C39.3835 22.3702 39.308 22.2824 39.2423 22.2164C39.1102 22.0697 38.5333 21.7321 38.0854 21.7151C37.7592 21.7082 37.6281 21.859 37.5309 21.9838Z" fill="#BA9459" style="fill:#BA9459;fill:color(display-p3 0.7294 0.5804 0.3490);fill-opacity:1;"/>
    <path fill-rule="evenodd" clip-rule="evenodd" d="M20.3052 38.9652C19.8534 38.7155 19.4405 38.4636 19.0888 38.2219C17.4809 37.1214 15.6249 35.0679 14.8533 33.5496C14.4401 32.7327 13.9668 31.5861 13.565 30.4094C13.5022 30.2237 13.3056 30.1237 13.1257 30.1658L7.05878 31.684C6.87405 31.7278 6.75606 31.9097 6.78316 32.1054C6.99912 33.5936 7.62813 35.745 8.15417 36.8035C8.69405 37.8964 10.1146 39.7782 11.1964 40.8269C12.2738 41.8717 14.0744 43.17 15.051 43.5955C16.0044 44.0189 17.6306 44.6543 18.8345 45.0815C18.8685 45.0996 18.9086 45.1017 18.9422 45.1017C19.1228 45.1136 19.2763 44.9801 19.3144 44.8101L20.4929 39.3806C20.5264 39.2188 20.4499 39.0451 20.3052 38.9652Z" fill="#7A4489" style="fill:#7A4489;fill:color(display-p3 0.4784 0.2667 0.5373);fill-opacity:1;"/>
    <path fill-rule="evenodd" clip-rule="evenodd" d="M32.6141 7.93039C32.7762 7.94244 32.9248 7.84056 32.982 7.68678C33.4657 6.31042 33.4043 4.37658 31.5952 3.80646C29.4426 3.13621 25.1967 3.52066 24.1614 3.73957C22.9276 3.99905 19.2115 5.50434 18.0418 6.20957C16.9048 6.90157 15.0026 8.6615 13.965 9.98184C13.7216 10.2925 13.4694 10.6153 13.2133 10.9398C13.0802 11.1136 13.1132 11.4252 13.3704 11.5301C14.731 12.0674 15.5256 12.466 16.6064 13.0673C16.7637 13.1562 16.9713 13.1211 17.0803 12.9504C17.979 11.6269 19.9802 10.2376 21.1046 9.62342C22.0299 9.11607 23.6146 8.58372 24.7029 8.40878C25.6946 8.24294 27.5411 8.04124 28.8142 7.93642C29.6793 7.8635 31.3875 7.85159 32.6141 7.93039Z" fill="#AB5335" style="fill:#AB5335;fill:color(display-p3 0.6706 0.3255 0.2078);fill-opacity:1;"/>
    <path fill-rule="evenodd" clip-rule="evenodd" d="M29.6133 32.691C30.7202 32.691 32.7083 32.1935 33.8678 31.6762C35.0246 31.1509 36.5883 29.8685 37.0413 29.493C37.7127 28.9255 38.2016 28.4482 38.8582 27.2495C38.9187 27.1337 38.9187 26.9999 38.8646 26.8899C38.4329 26.0215 37.2995 25.1137 36.5984 25.0877C36.2266 25.0765 35.9675 25.2415 35.7622 25.4833C34.6473 26.7701 33.5866 27.6472 32.2679 28.468C31.65 28.8516 31.1663 29.0176 30.4259 28.9914C29.3246 28.9595 27.899 27.719 27.2925 27.2037C26.8682 26.8441 24.6259 24.6052 24.1821 22.7496C23.9835 21.9226 23.8743 20.5511 24.2096 19.3886C24.2802 19.1608 24.104 18.8851 23.8359 18.9032C23.3149 18.9401 22.4222 19.028 21.8088 18.9691C21.6271 18.953 21.4664 19.0678 21.4224 19.2487C21.0401 20.8198 20.9405 22.4339 20.909 23.1481C20.8645 23.968 21.0481 25.3883 21.3034 26.2593C21.5516 27.1037 22.3621 28.5081 23.0703 29.3251C23.7852 30.1521 25.2645 31.3805 26.1762 31.866C26.9767 32.2934 28.529 32.691 29.6133 32.691Z" fill="#F0A92F" style="fill:#F0A92F;fill:color(display-p3 0.9412 0.6627 0.1843);fill-opacity:1;"/>
    <path fill-rule="evenodd" clip-rule="evenodd" d="M18.7584 18.4489C17.8585 18.232 17.0754 17.8664 16.299 17.5416C16.0192 17.4259 15.718 17.5338 15.5695 17.8293L15.057 18.8512C14.5117 19.9339 14.1387 22.0163 13.947 23.202C13.7489 24.4084 13.8339 26.4836 14.1322 27.8158C14.4334 29.1642 15.2506 31.4096 15.9115 32.706C16.555 33.9763 18.1978 35.7742 19.576 36.7251C20.9731 37.6839 23.1628 38.6548 24.4584 38.8865C25.0284 38.9844 25.801 39.0543 26.644 39.0842C27.6893 39.1222 28.7143 39.0842 29.4624 38.9903C30.8879 38.8127 32.8954 38.3792 33.8477 38.0396C34.7966 37.6998 36.4013 36.9228 37.3535 36.3356C38.2387 35.7843 41.619 32.7999 42.156 31.847C42.3003 31.5873 42.1873 31.3118 42.0012 31.0879C41.6394 30.6506 40.7383 29.5798 40.3909 29.0904C40.1717 28.7907 39.7894 28.6529 39.4141 29.0944C38.8467 29.7574 36.0725 32.2185 34.6625 32.8458C33.3139 33.4431 30.5928 34.0943 29.2686 34.1322C27.9622 34.1682 26.0077 33.7108 24.9142 33.1356C23.8083 32.5522 22.2672 31.3298 21.4025 30.3449C20.5438 29.3701 19.5944 27.7239 19.2799 26.6792C18.9745 25.651 18.7604 24.0061 18.8113 23.0193C18.8208 22.8433 18.8219 22.6416 18.8289 22.4209C18.8464 21.6078 18.8719 20.4402 19.1837 19.1497C19.2503 18.8732 19.1026 18.5225 18.7584 18.4489Z" fill="#E05693" style="fill:#E05693;fill:color(display-p3 0.8784 0.3373 0.5765);fill-opacity:1;"/>
    <path fill-rule="evenodd" clip-rule="evenodd" d="M46.3906 35.0734L47.0878 33.6391C47.1448 33.5393 47.1233 33.3076 46.9903 33.2176C46.641 32.988 45.0227 32.2888 44.4162 32.2667C43.4424 32.2348 43.0875 32.894 41.9902 34.1685C41.0679 35.2413 39.4373 36.7173 38.3694 37.3807C37.7309 37.7742 36.8242 38.2497 35.9411 38.6572C35.7624 38.7431 35.6723 38.9628 35.7564 39.1466L37.5428 43.0158C37.6645 43.2795 37.9271 43.2716 38.0478 43.2016C38.2117 43.1157 38.3585 43.0419 38.4791 42.964C39.4282 42.3746 40.7013 41.3239 42.5568 39.7558C43.5365 38.9289 45.4502 37.015 46.3906 35.0734Z" fill="#33488B" style="fill:#33488B;fill:color(display-p3 0.2000 0.2824 0.5451);fill-opacity:1;"/>
    <path fill-rule="evenodd" clip-rule="evenodd" d="M6.1866 26.1072C6.17762 26.3126 6.16303 26.5263 6.14182 26.7601C6.09454 27.3512 6.03605 28.0284 6.10779 28.8374C6.11914 29.0213 6.2769 29.2151 6.52998 29.1951C7.16444 29.1212 12.722 28.4121 12.6769 25.7869C12.6669 25.3562 12.6427 24.9289 12.6193 24.5022C12.5744 23.7123 12.5312 22.9672 12.6084 22.3899C12.7813 21.0584 13.2507 19.5333 14.0616 17.5416L14.3646 16.7995C14.4498 16.5857 14.3676 16.368 14.1671 16.2792C13.7497 16.0924 12.194 15.5849 11.661 15.4073C11.4654 15.3402 11.2577 15.4421 11.1846 15.641L10.6633 17.0583C10.4786 17.5616 10.0368 18.2998 9.67193 18.2998C9.43624 18.2998 9.0799 17.8602 8.56859 17.8602C7.83853 17.8602 7.41221 18.6773 7.05779 20.7658C6.98634 21.2092 6.88588 21.7266 6.78041 22.265C6.52203 23.5932 6.2277 25.0956 6.1866 26.1072Z" fill="#E77A2B" style="fill:#E77A2B;fill:color(display-p3 0.9059 0.4784 0.1686);fill-opacity:1;"/>
    <path fill-rule="evenodd" clip-rule="evenodd" d="M44.8225 27.2288C45.2548 27.7101 46.9542 28.679 47.7582 28.8109C47.8774 28.8288 48.0124 28.8469 48.165 28.871C48.3274 28.8967 48.56 28.787 48.5853 28.5231C48.603 28.3314 48.9708 23.7634 48.8702 22.6778C48.7566 21.4623 47.1648 18.9073 46.6803 18.1522C46.3997 17.7157 46.088 17.4961 45.7477 17.4961C44.7708 17.4913 44.1339 19.5696 43.7617 21.4452C43.5985 22.2523 42.8659 25.044 44.8225 27.2288Z" fill="#2D9DCC" style="fill:#2D9DCC;fill:color(display-p3 0.1765 0.6157 0.8000);fill-opacity:1;"/>
    <path fill-rule="evenodd" clip-rule="evenodd" d="M27.2167 40.9413C26.991 40.9314 26.502 40.9433 26.2153 40.9294C25.5533 40.9073 25.0264 40.8435 24.6009 40.7337C23.2289 40.3763 22.3003 41.0033 22.1086 42.3597C21.8228 44.3611 21.5131 45.9274 21.2888 47.0661C20.9067 48.9976 20.7295 49.8747 21.1277 50.3879C21.4241 50.7816 21.9629 50.7856 22.3638 50.7275C24.8328 50.436 35.2234 46.0695 36.0841 45.1381C36.1866 45.0343 36.2173 44.8788 36.1595 44.7409L34.4178 40.2382C34.3482 40.0584 34.1576 39.9645 33.9779 40.0124C32.82 40.332 31.2858 40.6418 30.0704 40.7916C29.3036 40.8914 28.3641 40.9893 27.2167 40.9413Z" fill="#AB5335" style="fill:#AB5335;fill:color(display-p3 0.6706 0.3255 0.2078);fill-opacity:1;"/>
    <path fill-rule="evenodd" clip-rule="evenodd" d="M38.312 8.92101C38.0272 8.80707 37.683 8.6652 37.2997 8.59022C36.7093 8.47334 36.3855 8.09669 36.4394 7.58243C36.5322 6.7196 37.7094 5.52598 40.3882 5.59478C40.3882 5.59478 40.7058 5.53906 41.2202 5.53906C43.4241 5.53906 47.4972 6.38293 50.4696 11.6007C50.5136 11.6803 50.7727 12.069 50.8343 12.1649C52.7599 15.2822 53.8503 18.5283 53.9864 20.7785C54.0143 21.5826 54.1915 27.0774 51.571 28.2162C51.2481 28.322 51.0555 28.0723 51.0555 27.8647C51.0555 27.6708 51.0401 26.0092 51.0495 25.2453C51.0626 23.6081 51.08 21.7113 50.999 20.9664C50.9234 20.2682 50.1209 19.3704 49.3481 18.5042C48.6996 17.7771 48.0322 17.032 47.7769 16.4109C47.5888 15.9544 47.4606 15.5598 47.3476 15.2133C47.1019 14.457 46.9232 13.9148 46.3477 13.3425C45.5503 12.5535 44.9936 12.1589 44.3042 11.7465C43.6471 11.355 42.6625 10.8276 42.1098 10.5679C41.574 10.321 39.3348 9.32721 38.312 8.92101Z" fill="#17A196" style="fill:#17A196;fill:color(display-p3 0.0902 0.6314 0.5882);fill-opacity:1;"/>
    <path fill-rule="evenodd" clip-rule="evenodd" d="M17.7838 47.7615C16.5702 47.32 15.1357 46.7446 14.2105 46.3432C12.8648 45.7477 10.7291 44.2356 9.34856 42.8972C7.97637 41.5587 6.33668 39.3756 5.62017 37.9213C5.0657 36.8025 4.47292 34.9748 4.11702 33.2707C4.06591 33.0313 3.82182 32.9094 3.61352 32.9973C3.08704 33.2049 2.34401 33.6384 1.8112 34.4694C1.05609 35.658 0.927932 37.3059 1.43482 39.3656C1.98429 41.6027 3.88428 44.9348 5.73227 46.1314C9.67426 48.6862 12.7828 50.0168 14.9675 50.0905C17.2342 50.1665 17.8558 48.8101 18.0224 48.2188C18.074 48.0292 17.9713 47.8253 17.7838 47.7615Z" fill="#2D9DCC" style="fill:#2D9DCC;fill:color(display-p3 0.1765 0.6157 0.8000);fill-opacity:1;"/>
    <path fill-rule="evenodd" clip-rule="evenodd" d="M3.6465 28.1287C3.8928 28.3284 4.27404 28.1384 4.24104 27.799L4.22557 27.6092C4.17549 26.996 4.11391 26.4507 4.16194 25.8449C4.28509 24.1859 4.79036 21.5311 5.31375 19.8031C5.73004 18.425 6.51726 16.2743 7.23436 14.5774C7.33203 14.3218 7.16984 14.108 6.99263 14.0611C6.70788 13.9772 6.40133 13.8753 6.09699 13.7736C5.54252 13.5836 4.95858 13.3938 4.56483 13.328C4.4707 13.314 4.28906 13.2831 4.06692 13.2791C3.26777 13.253 2.25502 13.4989 1.97322 14.825L1.71808 16.0207C1.33272 17.8305 1.02764 19.254 0.651122 20.6981C-0.32259 24.3997 2.11036 26.9481 3.6465 28.1287Z" fill="#BA9459" style="fill:#BA9459;fill:color(display-p3 0.7294 0.5804 0.3490);fill-opacity:1;"/>
    <path fill-rule="evenodd" clip-rule="evenodd" d="M10.3368 10.3808C10.4309 10.4175 10.6165 10.4396 10.7556 10.272C11.2716 9.64571 11.829 8.96944 12.3369 8.36021C13.6849 6.74319 15.9252 4.79552 17.4384 3.9396C18.9371 3.08559 21.3829 2.18762 23.0083 1.89212C23.6112 1.78406 24.513 1.70423 25.6123 1.6663C26.0657 1.65336 26.0932 0.96195 25.6454 0.91123C24.4409 0.750395 23.2721 0.656599 22.1701 0.626461C19.477 0.556482 17.2544 0.88315 15.5612 1.58647C13.5073 2.43754 10.5509 4.78759 8.81343 6.56236C8.27266 7.11263 8.08205 7.70702 8.25116 8.32419C8.50526 9.25024 9.51065 10.0371 10.3368 10.3808Z" fill="#79BB44" style="fill:#79BB44;fill:color(display-p3 0.4745 0.7333 0.2667);fill-opacity:1;"/>
    <path fill-rule="evenodd" clip-rule="evenodd" d="M33.0006 52.5584C34.1154 52.5584 35.0123 52.5105 35.9041 52.3886C38.2657 52.0671 37.2164 49.7556 37.1569 49.6537L36.7069 48.0096C36.654 47.812 36.4359 47.67 36.2041 47.7641C35.2409 48.1815 33.5601 48.9386 33.0455 49.1863C31.9787 49.7019 29.6465 50.7266 28.1729 51.4136C27.853 51.5734 27.9002 52.047 28.2589 52.1367C28.7773 52.2647 31.0296 52.5584 33.0006 52.5584Z" fill="#E77A2B" style="fill:#E77A2B;fill:color(display-p3 0.9059 0.4784 0.1686);fill-opacity:1;"/>
    <path fill-rule="evenodd" clip-rule="evenodd" d="M31.6768 14.3636L32.6706 10.4985C32.7632 10.1389 32.4994 9.79617 32.1582 9.78529C31.0998 9.74545 29.9723 9.75633 29.2374 9.81631C28.0169 9.91216 26.247 10.1108 25.2876 10.2676C24.4546 10.4035 21.9706 11.2306 21.2372 11.6619C20.2066 12.2532 20.1218 12.9014 20.2283 13.332C20.4385 14.1828 21.7769 14.8122 22.4585 14.7732C24.4105 14.6613 27.8368 14.6375 30.1741 14.7241C30.4583 14.7382 30.7656 14.7603 31.0933 14.7872C31.36 14.8122 31.6077 14.6344 31.6768 14.3636Z" fill="#0FA24B" style="fill:#0FA24B;fill:color(display-p3 0.0588 0.6353 0.2941);fill-opacity:1;"/>
    <path fill-rule="evenodd" clip-rule="evenodd" d="M43.4272 17.1382C43.8297 16.1063 44.0982 14.0788 42.2722 13.0721C41.9957 12.9173 41.6479 12.7006 41.317 12.4908C40.9479 12.2589 40.6045 12.0383 40.3363 11.9045C39.83 11.6299 38.597 11.0464 37.5906 10.589C37.0692 10.3544 36.2792 9.96373 35.4363 9.77599C35.1822 9.71807 34.9325 9.83995 34.8164 10.0775C34.8164 10.0775 33.0735 13.8272 32.9574 14.0678C32.8164 14.3655 32.9605 14.78 33.3379 14.8689C34.6269 15.1665 36.4417 15.7059 37.7832 16.5439C39.2824 17.4818 40.455 18.5265 41.2801 20.5671C41.4777 21.0584 42.1551 21.0136 42.3139 20.53C42.5354 19.8539 43.3266 17.3968 43.4272 17.1382Z" fill="#7A4489" style="fill:#7A4489;fill:color(display-p3 0.4784 0.2667 0.5373);fill-opacity:1;"/>
    <path fill-rule="evenodd" clip-rule="evenodd" d="M26.7411 19.1478C25.6474 19.7709 25.7306 21.3372 26.0586 22.4398C26.4715 23.8272 27.3066 24.8329 28.4156 25.6399C28.7364 25.8747 29.715 26.7002 30.3655 27.0717C30.8054 27.3235 31.2483 26.9839 31.3763 26.902C32.6264 26.1073 33.5285 25.734 34.5068 24.3516C35.1679 23.4155 35.7172 21.9664 35.336 20.6111C35.0564 19.6133 33.6135 18.983 32.7124 19.0689C31.654 19.1708 31.0321 19.815 30.4561 20.5821C29.9262 19.4316 28.0177 18.4205 26.7411 19.1478Z" fill="#DD402A" style="fill:#DD402A;fill:color(display-p3 0.8667 0.2510 0.1647);fill-opacity:1;"/>
    <path fill-rule="evenodd" clip-rule="evenodd" d="M39.4452 46.1502C39.1986 46.3197 39.2456 46.5455 39.2966 46.6515L41.034 50.0893C41.1366 50.2951 41.3863 50.3329 41.5435 50.2509C43.0231 49.5079 46.0289 46.953 47.6932 44.7957L48.3593 43.9345C49.8115 42.053 50.8147 39.416 51.2872 36.4398C51.3425 36.1062 51.4572 35.6046 51.2351 35.2733C50.9848 34.9037 49.9541 34.4062 49.6464 34.3784C49.4821 34.3563 49.3472 34.4442 49.2777 34.586L48.56 36.0442C47.4541 38.3155 45.3349 41.1961 43.8387 42.4564C43.4542 42.7802 42.9605 43.1997 42.441 43.639C41.2481 44.6478 39.6045 46.0382 39.4452 46.1502Z" fill="#79BB44" style="fill:#79BB44;fill:color(display-p3 0.4745 0.7333 0.2667);fill-opacity:1;"/>
    <path fill-rule="evenodd" clip-rule="evenodd" d="M73.5839 33.0309C72.2069 34.1095 70.263 34.7968 68.1247 34.7968C63.2783 34.7968 61.1387 31.9262 61.1387 28.0716C61.1387 24.1442 63.8209 21.2734 67.927 21.2734C71.6664 21.2734 73.6075 23.3342 73.7315 26.3045L70.6808 26.9916C70.5595 25.3227 69.7956 24.292 67.9504 24.292C65.9104 24.292 64.6806 25.863 64.6806 27.9735C64.6806 30.0366 65.8119 31.7786 68.542 31.7786C69.8219 31.7786 71.3221 31.0913 72.258 30.3541L73.5839 33.0309Z" fill="#1B233E" style="fill:#1B233E;fill:color(display-p3 0.1059 0.1373 0.2431);fill-opacity:1;"/>
    <path fill-rule="evenodd" clip-rule="evenodd" d="M82.8528 31.6564C85.0179 31.6564 86.468 30.0845 86.468 28.0716C86.468 26.01 85.0179 24.4149 82.8528 24.4149C80.7386 24.4149 79.2864 26.01 79.2864 28.0716C79.2864 30.0845 80.7386 31.6564 82.8528 31.6564ZM82.8528 21.2734C86.8873 21.2734 89.7895 24.1692 89.7895 28.0716C89.7895 31.9262 86.8873 34.7968 82.8528 34.7968C78.8691 34.7968 75.9668 31.9262 75.9668 28.0716C75.9668 24.1692 78.8691 21.2734 82.8528 21.2734Z" fill="#1B233E" style="fill:#1B233E;fill:color(display-p3 0.1059 0.1373 0.2431);fill-opacity:1;"/>
    <path fill-rule="evenodd" clip-rule="evenodd" d="M93.1239 26.1695C93.1239 25.4094 92.95 24.8692 92.2393 24.8692C91.7207 24.8692 91.1314 25.1148 90.9341 25.2367L90.7871 22.5369C90.9593 22.365 92.2393 21.9727 93.5903 21.9727C95.0664 21.9727 96.0244 22.5619 96.3955 23.9113C97.009 22.7088 97.9437 21.9727 99.6171 21.9727C100.821 21.9727 101.755 22.4141 101.928 22.7088L101.437 25.8021C101.24 25.5323 100.256 25.1389 99.0756 25.1389C97.4274 25.1389 96.7869 26.5632 96.5658 28.0603V35.0304H93.1239V26.1695Z" fill="#1B233E" style="fill:#1B233E;fill:color(display-p3 0.1059 0.1373 0.2431);fill-opacity:1;"/>
    <path fill-rule="evenodd" clip-rule="evenodd" d="M110.51 31.7285C111.662 31.7285 112.794 31.1634 113.386 30.5738V25.5924C112.721 24.9302 111.639 24.4138 110.51 24.4138C108.394 24.4138 106.99 25.8622 106.99 28.0475C106.99 30.2561 108.368 31.7285 110.51 31.7285ZM116.828 17.0508V30.5259C116.828 31.2872 116.999 31.8264 117.713 31.8264C118.107 31.8264 118.526 31.6547 118.994 31.433L119.164 34.1576C118.55 34.4533 117.419 34.7229 116.336 34.7229C114.983 34.7229 114.048 34.2314 113.63 33.079C112.794 34.0835 111.442 34.7229 109.523 34.7229C105.958 34.7229 103.498 31.9264 103.498 28.0475C103.498 24.1691 105.958 21.4195 109.523 21.4195C111.171 21.4195 112.475 21.9349 113.386 22.721V17.0508H116.828Z" fill="#1B233E" style="fill:#1B233E;fill:color(display-p3 0.1059 0.1373 0.2431);fill-opacity:1;"/>
    <path fill-rule="evenodd" clip-rule="evenodd" d="M130.301 26.1206C129.711 25.5075 128.58 24.9669 127.423 24.9669C125.283 24.9669 123.93 26.4402 123.93 28.6488C123.93 30.8093 125.307 32.2817 127.423 32.2817C128.554 32.2817 129.613 31.7664 130.301 31.1292V26.1206ZM133.743 31.0791C133.743 31.8164 133.94 32.3796 134.63 32.3796C135.121 32.3796 135.513 32.2079 135.932 31.9882L136.08 34.7129C135.44 35.0065 134.382 35.2761 133.276 35.2761C131.825 35.2761 130.916 34.6867 130.545 33.4105C129.661 34.4412 128.234 35.2521 126.464 35.2521C122.871 35.2521 120.439 32.5034 120.439 28.6488C120.439 24.7464 122.871 21.9727 126.464 21.9727C128.135 21.9727 129.439 22.439 130.301 23.298V22.1944H133.743V31.0791Z" fill="#1B233E" style="fill:#1B233E;fill:color(display-p3 0.1059 0.1373 0.2431);fill-opacity:1;"/>
    <path fill-rule="evenodd" clip-rule="evenodd" d="M147.244 26.1206C146.652 25.5075 145.523 24.9669 144.368 24.9669C142.227 24.9669 140.874 26.4402 140.874 28.6488C140.874 30.8093 142.251 32.2817 144.368 32.2817C145.499 32.2817 146.555 31.7664 147.244 31.1292V26.1206ZM150.687 31.0791C150.687 31.8164 150.883 32.3796 151.572 32.3796C152.065 32.3796 152.457 32.2079 152.876 31.9882L153.023 34.7129C152.385 35.0065 151.327 35.2761 150.22 35.2761C148.768 35.2761 147.859 34.6867 147.49 33.4105C146.604 34.4412 145.178 35.2521 143.408 35.2521C139.817 35.2521 137.381 32.5034 137.381 28.6488C137.381 24.7464 139.817 21.9727 143.408 21.9727C145.079 21.9727 146.384 22.439 147.244 23.298V22.1944H150.687V31.0791Z" fill="#1B233E" style="fill:#1B233E;fill:color(display-p3 0.1059 0.1373 0.2431);fill-opacity:1;"/>
    <path fill-rule="evenodd" clip-rule="evenodd" d="M159.182 22.1944V23.7654C160.094 22.7088 161.52 21.9727 163.315 21.9727C166.635 21.9727 168.086 24.4756 168.086 27.6427V31.0791C168.086 31.8164 168.282 32.3796 168.971 32.3796C169.391 32.3796 169.857 32.2079 170.274 31.9862L170.424 34.7108C169.783 35.0323 168.751 35.2761 167.62 35.2761C165.701 35.2761 164.642 34.2953 164.642 31.8902V28.208C164.642 26.3165 163.757 25.1398 162.035 25.1398C160.586 25.1398 159.575 26.3674 159.182 27.3971V35.0323H155.74V22.1944H159.182Z" fill="#1B233E" style="fill:#1B233E;fill:color(display-p3 0.1059 0.1373 0.2431);fill-opacity:1;"/>
</svg>
