<?xml version="1.0" encoding="utf-8"?>
<!DOCTYPE svg PUBLIC "-//W3C//DTD SVG 1.1//EN" "http://www.w3.org/Graphics/SVG/1.1/DTD/svg11.dtd">
<svg version="1.1" id="Layer_1" xmlns="http://www.w3.org/2000/svg" xmlns:xlink="http://www.w3.org/1999/xlink" x="0px" y="0px"
	 width="219.041px" height="98.45px" viewBox="0.547 2 219.041 98.45" enable-background="new 0.547 2 219.041 98.45"
	 xml:space="preserve">
<g id="Symbols_1_">
	<g id="Menu-desktop-_x2F_-Label-DGG" transform="translate(-165.000000, -55.000000)">
		<g id="Logo-_x2F_-DGG-_x2F_-Met-payoff" transform="translate(165.000000, 55.000000)">
			<g id="DGG_logo-co-2018-RGB">
				<path id="Path_93_" fill="#53565A" d="M172.646,58.418c0,0.084-0.055,0.173-0.172,0.229l-1.824,0.896
					c-0.057,0.034-0.119,0.034-0.141,0.034c-0.119,0-0.146-0.056-0.232-0.173c-0.652-0.875-1.135-1.581-2.357-1.581h-1.367
					c-1.422,0-2.561,1.131-2.561,2.534v8.733c0,1.403,1.139,2.529,2.561,2.529h0.852c1.422,0,2.561-1.126,2.561-2.529V67.26
					c0-0.173-0.113-0.279-0.289-0.279h-2.842c-0.197,0-0.281-0.09-0.281-0.287v-1.688c0-0.197,0.084-0.286,0.281-0.286h5.408
					c0.199,0,0.289,0.089,0.289,0.286v4.086c0,2.872-2.021,4.778-5.127,4.778h-0.852c-3.105,0-5.127-1.906-5.127-4.778v-8.733
					c0-2.871,2.021-4.788,5.127-4.788h1.367C170.713,55.576,172.646,57.319,172.646,58.418z"/>
				<path id="Path_92_" fill="#53565A" d="M181.889,63.688c-0.258,0-0.688-0.197-1.395-0.197c-1.594,0-2.562,0.954-2.562,2.506
					v7.317c0,0.203-0.084,0.286-0.281,0.286h-1.99c-0.199,0-0.289-0.083-0.289-0.286V61.211c0-0.197,0.09-0.286,0.289-0.286h1.703
					c0.197,0,0.287,0.089,0.287,0.286v0.896c0,0.23,0.119,0.344,0.254,0.344c0.281,0,1.137-1.525,2.674-1.525
					c1.084,0,1.484,0.034,1.484,0.364v2.112C182.057,63.575,182.002,63.688,181.889,63.688z"/>
				<path id="Shape_31_" fill="#53565A" d="M191.057,69.092c0,1.381-1.139,2.529-2.561,2.529c-1.453,0-2.566-1.148-2.566-2.529
					v-3.66c0-1.379,1.137-2.533,2.566-2.533c1.422,0,2.561,1.154,2.561,2.533V69.092z M193.617,69.092v-3.66
					c0-2.847-2.027-4.787-5.127-4.787c-3.102,0-5.123,1.917-5.123,4.787v3.66c0,2.872,2.021,4.778,5.123,4.778
					C191.59,73.876,193.617,71.964,193.617,69.092z"/>
				<path id="Shape_30_" fill="#53565A" d="M203.852,65.713h-4.551c-0.254,0-0.283-0.112-0.283-0.427
					c0-1.233,1.197-2.388,2.557-2.388c1.332,0,2.561,1.125,2.561,2.337C204.141,65.572,204.117,65.713,203.852,65.713z
					 M206.705,67.406v-1.975c0-2.562-2.271-4.787-5.125-4.787c-2.844,0-5.123,2.226-5.123,4.787v3.66
					c0,2.872,2.021,4.778,5.123,4.778c1.508,0,2.701-0.392,3.562-1.171c0.854-0.792,1.191-1.527,1.191-1.723
					c0-0.084-0.057-0.14-0.174-0.196l-1.789-0.902c-0.057-0.022-0.117-0.057-0.174-0.057c-0.176,0-0.43,0.45-1.059,1.184
					c-0.316,0.369-0.885,0.622-1.564,0.622c-1.451,0-2.557-1.149-2.557-2.529v-1.126c0-0.2,0.086-0.285,0.283-0.285h7.113
					C206.617,67.687,206.705,67.603,206.705,67.406z"/>
				<path id="Shape_29_" fill="#53565A" d="M217.027,68.813c0,1.379-1.104,2.532-2.561,2.532c-1.418,0-2.557-1.153-2.557-2.532
					v-3.101c0-1.38,1.139-2.534,2.557-2.534c1.457,0,2.561,1.16,2.561,2.534V68.813z M219.588,68.813v-3.101
					c0-2.837-2.053-4.788-4.918-4.788c-1.684,0-2.482,0.931-2.855,0.931c-0.105,0-0.195-0.113-0.195-0.31v-0.335
					c0-0.197-0.084-0.286-0.281-0.286h-1.705c-0.209,0-0.289,0.089-0.289,0.286v18.44c0,0.196,0.086,0.286,0.289,0.286h1.986
					c0.195,0,0.285-0.09,0.285-0.286v-6.673c0-0.195,0.086-0.309,0.232-0.309c0.26,0,1.102,0.931,2.75,0.931
					C217.535,73.595,219.588,71.565,219.588,68.813z"/>
				<path id="Path_91_" fill="#53565A" d="M164.312,12.517c0.424,0.342,0.084,0.92-0.758,1.273c-0.85,0.347-1.863,0.342-2.258-0.011
					c-0.404-0.348-0.051-0.914,0.775-1.256C162.896,12.182,163.902,12.176,164.312,12.517z"/>
				<path id="Path_90_" fill="#53565A" d="M167.791,13.459c0.514,0.41,0.23,1.038-0.641,1.402c-0.873,0.359-1.98,0.308-2.471-0.107
					c-0.49-0.409-0.182-1.026,0.668-1.378C166.189,13.022,167.279,13.062,167.791,13.459z"/>
				<path id="Path_89_" fill="#53565A" d="M172.457,15.102c0.766,0.589,0.512,1.441-0.586,1.89
					c-1.102,0.454-2.588,0.336-3.312-0.275c-0.723-0.589-0.424-1.413,0.633-1.85C170.25,14.424,171.707,14.525,172.457,15.102z"/>
				<path id="Path_88_" fill="#53565A" d="M176.215,17.85c-0.832-0.628-2.537-0.695-3.83-0.157
					c-1.295,0.538-1.723,1.491-0.947,2.147c0.795,0.667,2.537,0.769,3.883,0.202C176.67,19.487,177.066,18.5,176.215,17.85z"/>
				<path id="Path_87_" fill="#53565A" d="M175.439,22.016c-0.641-0.533-1.863-0.662-2.736-0.303
					c-0.867,0.364-1.08,1.093-0.465,1.631c0.623,0.544,1.865,0.701,2.768,0.326C175.902,23.305,176.092,22.553,175.439,22.016z"/>
				<path id="Path_86_" fill="#53565A" d="M172.93,25.884c-0.641-0.577-1.879-0.74-2.77-0.365c-0.898,0.365-1.137,1.145-0.529,1.727
					c0.625,0.606,1.891,0.791,2.814,0.41C173.361,27.268,173.576,26.467,172.93,25.884z"/>
				<path id="Path_85_" fill="#53565A" d="M164.436,27.234c-0.617-0.627-1.793-0.84-2.66-0.482c-0.865,0.359-1.104,1.161-0.529,1.8
					c0.592,0.65,1.807,0.892,2.695,0.517C164.842,28.704,165.057,27.874,164.436,27.234z"/>
				<path id="Path_84_" fill="#53565A" d="M168.957,24.028c-0.652-0.605-1.949-0.768-2.898-0.364
					c-0.957,0.397-1.244,1.206-0.625,1.828c0.625,0.628,1.947,0.808,2.932,0.398C169.352,25.479,169.615,24.645,168.957,24.028z"/>
				<path id="Path_83_" fill="#53565A" d="M170.77,20.221c-0.709-0.606-2.178-0.712-3.281-0.252
					c-1.115,0.466-1.486,1.329-0.818,1.957c0.688,0.628,2.18,0.769,3.322,0.286C171.146,21.729,171.482,20.832,170.77,20.221z"/>
				<path id="Path_82_" fill="#53565A" d="M168.355,17.289c-0.768-0.65-2.24-0.807-3.305-0.369
					c-1.059,0.442-1.334,1.328-0.609,1.995c0.746,0.678,2.258,0.875,3.367,0.415C168.906,18.87,169.143,17.945,168.355,17.289z"/>
				<path id="Path_81_" fill="#53565A" d="M164.156,15.422c-0.59-0.516-1.896-0.577-2.91-0.146c-1.025,0.426-1.4,1.183-0.85,1.716
					c0.568,0.527,1.885,0.616,2.943,0.179C164.396,16.723,164.752,15.943,164.156,15.422z"/>
				<path id="Path_80_" fill="#53565A" d="M159.777,14.407c-0.438-0.397-1.383-0.465-2.115-0.157
					c-0.742,0.309-1.014,0.88-0.592,1.29c0.422,0.409,1.385,0.487,2.145,0.173C159.967,15.394,160.227,14.805,159.777,14.407z"/>
				<path id="Path_79_" fill="#53565A" d="M157.908,17.228c-0.477-0.471-1.613-0.539-2.537-0.157
					c-0.922,0.381-1.316,1.082-0.865,1.575c0.461,0.488,1.615,0.578,2.559,0.18C158.027,18.427,158.395,17.709,157.908,17.228z"/>
				<path id="Path_78_" fill="#53565A" d="M163.465,19.128c-0.715-0.667-2.293-0.785-3.52-0.269
					c-1.225,0.505-1.699,1.475-1.039,2.158c0.686,0.702,2.283,0.858,3.566,0.32C163.762,20.81,164.189,19.812,163.465,19.128z"/>
				<path id="Path_77_" fill="#53565A" d="M164.094,23.344c-0.635-0.628-1.885-0.818-2.809-0.431
					c-0.924,0.381-1.178,1.199-0.578,1.833c0.617,0.65,1.896,0.863,2.854,0.472C164.51,24.824,164.74,23.972,164.094,23.344z"/>
				<path id="Path_76_" fill="#53565A" d="M153.756,15.932c-0.465-0.488-1.562-0.578-2.457-0.202
					c-0.893,0.364-1.262,1.072-0.818,1.575c0.457,0.517,1.566,0.623,2.488,0.236C153.885,17.155,154.24,16.437,153.756,15.932z"/>
				<path id="Path_75_" fill="#53565A" d="M152.236,19.414c-0.428-0.488-1.385-0.628-2.145-0.32c-0.748,0.32-1.041,0.97-0.623,1.475
					c0.42,0.504,1.389,0.661,2.166,0.342C152.41,20.591,152.688,19.913,152.236,19.414z"/>
				<path id="Path_74_" fill="#53565A" d="M156.789,20.669c-0.584-0.616-1.896-0.768-2.932-0.335
					c-1.041,0.431-1.453,1.294-0.904,1.934c0.561,0.651,1.895,0.83,2.977,0.376C157.004,22.194,157.381,21.309,156.789,20.669z"/>
				<path id="Path_73_" fill="#53565A" d="M159.457,23.77c-0.691-0.74-2.055-0.992-3.049-0.578c-0.998,0.416-1.295,1.357-0.643,2.12
					c0.67,0.774,2.061,1.065,3.107,0.633C159.912,25.514,160.164,24.538,159.457,23.77z"/>
				<path id="Path_72_" fill="#53565A" d="M153.418,24.078c-0.465-0.56-1.564-0.712-2.459-0.336
					c-0.889,0.365-1.26,1.127-0.816,1.699c0.445,0.588,1.559,0.757,2.471,0.375C153.543,25.435,153.896,24.65,153.418,24.078z"/>
				<path id="Path_71_" fill="#53565A" d="M157.746,27.56c-0.535-0.623-1.648-0.841-2.498-0.488c-0.85,0.359-1.137,1.15-0.627,1.789
					c0.52,0.65,1.658,0.896,2.533,0.533C158.033,29.024,158.287,28.205,157.746,27.56z"/>
				<path id="Path_70_" fill="#E35205" d="M146.65,22.671c0.904,0.605,0.973,1.469,0.248,2.399c-0.643,0.813-1.971,1.144-3.143,1.47
					c-1.293,0.357-2.555,0.285-3.689-0.073c-1.211-0.381-2.305-0.606-3.553-0.758c-1.475-0.179-2.984-0.095-4.594,0.342
					c-0.707,0.196-2.66,0-2.717-0.146c1.205-0.392,1.84-0.717,2.094-0.863c3.541-2.097,6.584-4.11,10.691-5.31
					c1.797-0.521,3.242,0,4.848,0.202c0.371,0.723-0.875,1.581-0.869,2.405c-1.467,0.112-2.852,0.123-4.309,0.432
					c-1.633,0.336-3.119,0.937-4.672,1.351c2.094-0.398,4.146-0.309,6.307-0.622C144.432,23.344,145.547,23.047,146.65,22.671z"/>
				<path id="Path_69_" fill="#E35205" d="M150.4,28.524c1.51,0.129,2.445,0.847,2.664,1.967c0.197,1.004-0.783,1.901-1.615,2.731
					c-0.953,0.937-2.324,1.469-3.889,1.699c-1.672,0.235-3.072,0.571-4.592,1.054c-1.824,0.571-1.869,0.588-3.725,1.502
					c-1.73,0.947-2.201,0.695-3.619,2.265c-0.135-0.174,0.602-1.452,0.742-1.727c1.844-3.785,3.129-7.104,6.33-10.025
					c1.346-1.233,3.338-1.384,5.162-1.883c1.084,0.454,0.709,1.721,1.541,2.427c-1.363,0.74-2.768,1.368-3.979,2.298
					c-1.363,1.054-2.334,2.299-3.594,3.431c1.844-1.368,4.111-2.259,6.043-3.521C148.867,30.088,149.684,29.332,150.4,28.524z"/>
				<path id="Path_68_" fill="#E35205" d="M159.311,31.356c1.418-0.663,3.012-0.579,4.439,0.162c1.279,0.667,1.492,1.85,1.74,2.938
					c0.287,1.238-0.236,2.416-1.301,3.464c-1.16,1.149-1.867,2.478-2.662,3.785c-0.816,1.361-1.75,3.962-1.92,4.948
					c-0.211,1.219-0.531,3.001-0.531,3.001c-0.424-1.176-1.162-2.3-1.385-2.635c-2.861-4.503-5.572-7.731-5.947-11.998
					c-0.16-1.738,1.523-2.921,2.609-4.256c1.475-0.196,2.561,0.987,4.096,1.11c-0.35,1.29-0.883,2.529-0.889,3.941
					c0,1.632,0.58,3.212,0.777,4.911c0.057-2.231,1.059-4.238,1.299-6.312C159.754,33.363,159.607,32.348,159.311,31.356z"/>
				<path id="Path_67_" fill="#E35205" d="M172.531,29.528c0.607-1.109,2.07-1.637,3.992-1.559c1.707,0.067,3.014,0.97,4.258,1.772
					c1.424,0.919,2.115,2.113,2.266,3.425c0.158,1.458,0.527,2.747,1.172,4.228c0.793,1.833,1.227,3.049,3.461,4.699
					c1.027,0.75,2.035,1.632,2.812,2.764c0.439,0.482-2.695-0.606-4.518-1.262c-7.029-2.742-12.117-4.02-16.748-7.721
					c-1.852-1.485-1.453-3.246-1.75-4.86c1.184-0.768,3.303-0.185,4.789-0.685c0.93,1.24,1.666,2.529,3.039,3.762
					c1.598,1.436,3.686,2.579,5.539,3.999c-2.168-2.008-3.283-4.183-5.088-6.062C174.855,31.07,173.746,30.251,172.531,29.528z"/>
				<path id="Path_66_" fill="#E35205" d="M178.455,22.75c-0.855-0.97-0.562-1.917,0.68-2.657c1.088-0.645,2.82-0.623,4.385-0.623
					c1.779-0.005,3.445,0.432,4.947,1.167c1.654,0.807,3.258,1.435,5.184,2.068c2.391,0.785,4.979,1.273,7.828,1.329
					c1.295,0.022,3.488-0.051,3.512-0.017c-1.148,0.701-3.125,1.637-5.57,2.294c-6.416,1.368-8.742,2.326-15.715,2.08
					c-2.879-0.096-4.68-1.475-6.746-2.417c-0.137-1.042,1.869-1.632,2.217-2.607c1.971,0.381,3.871,0.892,6.051,1.071
					c2.516,0.202,4.918,0.017,7.479,0.095c-3.371-0.308-6.412-1.188-9.529-1.603C181.592,22.727,180.014,22.694,178.455,22.75z"/>
				<path id="Path_65_" fill="#E35205" d="M148.291,17.188c-0.158,0.84-1.027,1.485-2.34,1.816
					c-1.146,0.292-2.127-0.051-3.016-0.319c-0.975-0.303-1.508-0.875-1.711-1.598c-0.227-0.757-0.537-1.357-0.98-1.974
					c-0.527-0.717-1.158-1.356-2.307-1.671c-0.502-0.139-1.98-0.409-1.98-0.409c0.145-0.096,3.811-0.5,4.064-0.505
					c3.689-0.111,5.537-0.358,8.922,0.449c1.525,0.371,1.74,1.396,2.395,2.254c-0.588,0.711-2.186,0.807-3.053,1.418
					c-0.889-0.544-1.613-1.127-2.676-1.525c-1.166-0.432-2.488-0.61-3.654-0.947c1.406,0.572,2.342,1.486,3.73,2.175
					C146.436,16.723,147.32,16.992,148.291,17.188z"/>
				<path id="Path_64_" fill="#E35205" d="M167.076,11.626c-1.418,0.27-2.623,0.04-3.383-0.578c-0.641-0.533-0.268-1.25,0-1.883
					c0.316-0.695,1.139-1.279,2.27-1.761c1.221-0.516,2.184-1.01,3.156-1.609c1.17-0.713,2.258-1.582,2.6-2.456
					c0.35-0.919,1.344-1.34,1.344-1.34c0.104,0.342,0.248,1.082,0.322,1.233c0.979,2.153,2.285,4.199,1.459,6.795
					c-0.373,1.166-2.291,1.789-3.744,2.596c-1.389-0.051-1.879-0.992-3.105-1.239c0.777-0.796,1.666-1.52,2.16-2.354
					c0.547-0.931,0.592-1.828,0.963-2.714c-0.732,1.161-2.166,2.193-3.102,3.37C167.52,10.297,167.238,10.948,167.076,11.626z"/>
				<path id="Path_63_" fill="#E35205" d="M176.396,15.405c-1.457-0.41-2.055-1.161-1.773-2.046
					c0.236-0.758,1.508-1.239,2.621-1.688c1.238-0.5,2.746-0.667,4.369-0.595c1.777,0.084,3.348,0.056,5.121-0.056
					c2.148-0.129,2.924-0.291,5.395-0.724c1.408-0.252,0.852-0.084,3.674-1.109c0,0-0.582,1.037-1.027,1.362
					c-2.779,2.618-5.01,5.208-9.826,7.16c-2.076,0.84-4.541,0.449-6.848,0.443c-1.008-0.695-0.057-1.738-0.654-2.528
					c1.738-0.336,3.498-0.561,5.15-1.082c1.863-0.594,3.303-1.402,5.025-2.064c-2.453,0.741-5.227,1.021-7.717,1.648
					C178.625,14.441,177.471,14.89,176.396,15.405z"/>
				<path id="Path_62_" fill="#E35205" d="M156.549,12.573c-0.768,0.713-1.953,1.038-3.24,0.954
					c-1.104-0.073-1.623-0.662-2.117-1.155c-0.549-0.538-0.537-1.206-0.182-1.917c0.379-0.752,0.58-1.385,0.676-2.081
					c0.117-0.807-0.102-1.536-0.76-2.147c-0.287-0.268-1.119-0.79-1.119-0.79c0.195-0.051,1.844-0.051,2.654,0.174
					c3.012,0.902,5.752,1.491,7.941,3.235c0.99,0.79,0.332,1.816,0.18,2.82c-1.045,0.482-2.447,0.106-3.623,0.41
					c-0.299-0.758-0.438-1.509-0.996-2.177c-0.604-0.733-1.531-1.272-2.219-1.906c0.699,0.92,0.762,2.029,1.352,3.067
					C155.404,11.61,155.918,12.109,156.549,12.573z"/>
				<path id="Shape_28_" fill="#E35205" d="M9.084,68.813c0,1.379-1.137,2.532-2.566,2.532H3.383c-0.197,0-0.281-0.09-0.281-0.285
					V58.396c0-0.201,0.084-0.284,0.281-0.284h3.135c1.423,0,2.566,1.125,2.566,2.533V68.813z M11.65,68.532v-7.607
					c0-3.101-1.992-5.062-5.126-5.062H0.834c-0.197,0-0.287,0.078-0.287,0.275v17.171c0,0.203,0.09,0.286,0.287,0.286h5.689
					C9.686,73.595,11.65,71.654,11.65,68.532z"/>
				<path id="Path_61_" fill="#E35205" d="M21.723,63.688c-0.253,0-0.687-0.197-1.395-0.197c-1.593,0-2.566,0.954-2.566,2.506v7.317
					c0,0.203-0.085,0.286-0.281,0.286h-1.992c-0.197,0-0.287-0.083-0.287-0.286V61.211c0-0.197,0.09-0.286,0.287-0.286h1.705
					c0.197,0,0.288,0.089,0.288,0.286v0.896c0,0.23,0.118,0.344,0.253,0.344c0.281,0,1.137-1.525,2.673-1.525
					c1.081,0,1.485,0.034,1.485,0.364v2.112C21.892,63.575,21.835,63.688,21.723,63.688z"/>
				<path id="Shape_27_" fill="#E35205" d="M25.189,58.67c-0.883,0-1.564-0.644-1.564-1.547c0-0.875,0.686-1.547,1.564-1.547
					c0.884,0,1.565,0.677,1.565,1.547C26.754,57.998,26.073,58.67,25.189,58.67z M26.186,73.595h-1.986
					c-0.208,0-0.287-0.083-0.287-0.286V61.205c0-0.197,0.084-0.286,0.287-0.286h1.986c0.197,0,0.287,0.089,0.287,0.286v12.104
					C26.478,73.518,26.388,73.595,26.186,73.595z"/>
				<path id="Shape_26_" fill="#E35205" d="M36.597,65.713h-4.547c-0.253,0-0.281-0.112-0.281-0.427
					c0-1.233,1.193-2.388,2.555-2.388c1.334,0,2.566,1.125,2.566,2.337C36.889,65.572,36.861,65.713,36.597,65.713z M39.45,67.406
					v-1.975c0-2.562-2.273-4.787-5.126-4.787c-2.842,0-5.116,2.226-5.116,4.787v3.66c0,2.872,2.021,4.778,5.116,4.778
					c1.508,0,2.701-0.392,3.562-1.171c0.855-0.792,1.192-1.527,1.192-1.723c0-0.084-0.057-0.14-0.174-0.196l-1.79-0.902
					c-0.056-0.022-0.118-0.057-0.174-0.057c-0.174,0-0.428,0.45-1.058,1.184c-0.315,0.369-0.884,0.622-1.565,0.622
					c-1.452,0-2.555-1.149-2.555-2.529v-1.126c0-0.2,0.084-0.285,0.282-0.285h7.113C39.365,67.687,39.45,67.603,39.45,67.406z"/>
				<path id="Path_60_" fill="#E35205" d="M53.794,58.418c0,0.084-0.056,0.173-0.174,0.229l-1.823,0.896
					c-0.056,0.034-0.118,0.034-0.141,0.034c-0.118,0-0.141-0.056-0.23-0.173c-0.653-0.875-1.137-1.581-2.358-1.581H47.7
					c-1.423,0-2.561,1.131-2.561,2.534v8.733c0,1.403,1.138,2.529,2.561,2.529h0.855c1.418,0,2.555-1.126,2.555-2.529V67.26
					c0-0.173-0.107-0.279-0.282-0.279h-2.842c-0.197,0-0.287-0.09-0.287-0.287v-1.688c0-0.197,0.09-0.286,0.287-0.286h5.397
					c0.208,0,0.287,0.089,0.287,0.286v4.086c0,2.872-2.02,4.778-5.121,4.778h-0.855c-3.1,0-5.121-1.906-5.121-4.778v-8.733
					c0-2.871,2.021-4.788,5.121-4.788h1.368C51.853,55.576,53.794,57.319,53.794,58.418z"/>
				<path id="Shape_25_" fill="#E35205" d="M64.07,68.784l-0.034,0.532c-0.484,1.324-1.334,2.029-2.415,2.029h-1.114
					c-0.709,0-1.255-0.537-1.255-1.271v-0.448c0-0.701,0.546-1.239,1.255-1.239h3.27c0.175,0,0.287,0.111,0.287,0.286v0.111H64.07z
					 M66.625,73.314v-4.25l-0.022-3.717c-0.034-2.813-2.02-4.697-5.127-4.697c-1.452,0-2.588,0.369-3.388,1.07
					c-0.906,0.791-1.277,1.491-1.277,1.72c0,0.107,0.056,0.163,0.174,0.219l1.74,0.904c0.051,0.021,0.107,0.055,0.163,0.055
					c0.174,0,0.427-0.454,1.058-1.127c0.337-0.363,0.917-0.621,1.53-0.621c1.486,0,2.505,1.037,2.567,2.472l0.033,0.79
					c0,0.197-0.089,0.287-0.287,0.287h-3.27c-2.251,0-3.782,1.458-3.782,3.487v0.162c0,2.03,1.531,3.521,3.782,3.521h1.114
					c1.311,0,2.099-0.952,2.533-0.952c0.118,0,0.197,0.107,0.197,0.303v0.369c0,0.203,0.09,0.286,0.288,0.286h1.704
					C66.541,73.595,66.625,73.518,66.625,73.314z"/>
				<path id="Path_59_" fill="#E35205" d="M71.696,64.249c0,1.148,1.024,1.436,3.1,1.861c3.045,0.589,4.525,1.324,4.525,3.516
					c0,2.534-1.823,4.25-4.7,4.25h-0.855c-2.809,0-4.631-1.711-4.631-2.838c0-0.056,0.056-0.14,0.175-0.196l1.648-0.812
					c0.057-0.033,0.119-0.057,0.141-0.057c0.09,0,0.141,0.079,0.231,0.164c0.687,0.873,1.193,1.579,2.437,1.579h0.855
					c1.312,0,2.167-0.733,2.167-1.636c0-1.206-1.255-1.346-3.618-1.828c-2.702-0.536-3.985-1.356-3.985-3.465
					c0-2.444,1.846-4.137,4.576-4.137h0.855c2.82,0,4.643,1.715,4.643,2.847c0,0.084-0.057,0.141-0.174,0.196l-1.649,0.814
					c-0.057,0.021-0.142,0.056-0.176,0.056c-0.084,0-0.118-0.09-0.196-0.169c-0.709-0.897-1.222-1.574-2.448-1.574h-0.855
					C72.427,62.814,71.696,63.346,71.696,64.249z"/>
				<path id="Path_58_" fill="#E35205" d="M87.509,73.854c-2.329,0-4.581-1.94-4.581-4.756v-5.635c0-0.194-0.085-0.284-0.282-0.284
					h-1.564c-0.197,0-0.287-0.084-0.287-0.274l0.057-0.987l3.27-3.432l0.196-0.09h0.889c0.197,0,0.282,0.09,0.282,0.285v1.976
					c0,0.196,0.083,0.28,0.287,0.28h1.987c0.197,0,0.287,0.089,0.287,0.286v1.688c0,0.196-0.09,0.274-0.287,0.274h-1.987
					c-0.209,0-0.287,0.09-0.287,0.284v5.634c0,0.591,0.197,1.096,0.624,1.633c0.253,0.309,0.855,0.504,1.706,0.875
					c0.142,0.055,0.231,0.111,0.231,0.28v1.698C88.056,73.825,87.914,73.854,87.509,73.854z"/>
				<path id="Path_57_" fill="#E35205" d="M100.609,73.595h-1.991c-0.197,0-0.288-0.083-0.288-0.286v-7.602
					c0-1.379-1.103-2.534-2.555-2.534c-1.423,0-2.566,1.16-2.566,2.534v7.602c0,0.203-0.083,0.286-0.287,0.286h-1.986
					c-0.208,0-0.288-0.083-0.288-0.286V56.138c0-0.197,0.084-0.275,0.288-0.275h1.986c0.209,0,0.287,0.078,0.287,0.275v5.403
					c0,0.196,0.085,0.342,0.232,0.342c0.253,0,1.103-0.964,2.751-0.964c2.655,0,4.7,2.03,4.7,4.788v7.602
					C100.892,73.518,100.807,73.595,100.609,73.595z"/>
				<path id="Path_56_" fill="#E35205" d="M113.639,73.595h-1.711c-0.197,0-0.283-0.083-0.283-0.286v-0.335
					c0-0.196-0.089-0.309-0.195-0.309c-0.371,0-1.193,0.93-2.853,0.93c-2.843,0-4.919-1.94-4.919-4.787v-7.603
					c0-0.197,0.085-0.286,0.288-0.286h1.985c0.208,0,0.287,0.089,0.287,0.286v7.603c0,1.379,1.103,2.533,2.566,2.533
					c1.453,0,2.556-1.154,2.556-2.533v-7.603c0-0.197,0.09-0.286,0.285-0.286h1.994c0.197,0,0.281,0.089,0.281,0.286v12.104
					C113.92,73.518,113.842,73.595,113.639,73.595z"/>
				<path id="Shape_24_" fill="#E35205" d="M118.899,58.67c-0.884,0-1.565-0.644-1.565-1.547c0-0.875,0.688-1.547,1.565-1.547
					c0.885,0,1.564,0.677,1.564,1.547C120.464,57.998,119.778,58.67,118.899,58.67z M119.895,73.595h-1.991
					c-0.196,0-0.282-0.083-0.282-0.286V61.205c0-0.197,0.086-0.286,0.282-0.286h1.991c0.197,0,0.283,0.089,0.283,0.286v12.104
					C120.178,73.518,120.092,73.595,119.895,73.595z"/>
				<path id="Path_55_" fill="#E35205" d="M132.58,73.595h-9.932c-0.197,0-0.316-0.083-0.316-0.229c0-0.057,0.033-0.141,0.057-0.196
					l5.779-9.543c0.033-0.057,0.057-0.141,0.057-0.197c0-0.144-0.119-0.228-0.316-0.228h-4.979c-0.196,0-0.286-0.085-0.286-0.286
					v-1.688c0-0.196,0.09-0.279,0.286-0.279h9.421c0.197,0,0.316,0.083,0.316,0.218c0,0.057-0.035,0.146-0.057,0.196l-5.814,9.548
					c-0.051,0.056-0.051,0.14-0.051,0.195c0,0.14,0.08,0.229,0.309,0.229h5.518c0.174,0,0.285,0.085,0.285,0.281v1.688
					C132.867,73.518,132.777,73.595,132.58,73.595z"/>
				<path id="Shape_23_" fill="#E35205" d="M142.141,65.713h-4.547c-0.258,0-0.287-0.112-0.287-0.427
					c0-1.233,1.193-2.388,2.562-2.388c1.332,0,2.561,1.125,2.561,2.337C142.43,65.572,142.4,65.713,142.141,65.713z M144.994,67.406
					v-1.975c0-2.562-2.285-4.787-5.125-4.787c-2.844,0-5.129,2.226-5.129,4.787v3.66c0,2.872,2.025,4.778,5.129,4.778
					c1.508,0,2.699-0.392,3.549-1.171c0.855-0.792,1.205-1.527,1.205-1.723c0-0.084-0.057-0.14-0.174-0.196l-1.797-0.902
					c-0.051-0.022-0.107-0.057-0.164-0.057c-0.172,0-0.426,0.45-1.057,1.184c-0.314,0.369-0.883,0.622-1.562,0.622
					c-1.455,0-2.562-1.149-2.562-2.529v-1.126c0-0.2,0.092-0.285,0.287-0.285h7.113C144.906,67.687,144.994,67.603,144.994,67.406z"
					/>
				<path id="Path_54_" fill="#E35205" d="M157.59,73.595h-1.994c-0.197,0-0.279-0.083-0.279-0.286v-7.602
					c0-1.379-1.115-2.534-2.566-2.534c-1.418,0-2.557,1.16-2.557,2.534v7.602c0,0.203-0.09,0.286-0.287,0.286h-1.99
					c-0.197,0-0.283-0.083-0.283-0.286V61.205c0-0.197,0.086-0.286,0.283-0.286h1.711c0.195,0,0.279,0.089,0.279,0.286v0.336
					c0,0.196,0.09,0.309,0.197,0.309c0.371,0,1.172-0.931,2.844-0.931c2.875,0,4.93,1.951,4.93,4.788v7.602
					C157.877,73.518,157.787,73.595,157.59,73.595z"/>
				<path id="Path_40_" fill="#E35205" d="M7.457,95.998v-1.094c0-0.123-0.062-0.185-0.186-0.185H3.203
					c-0.135,0-0.202-0.044-0.202-0.14c0-0.027,0.016-0.062,0.044-0.111l4.31-9.464c0.017-0.045,0.034-0.09,0.034-0.106
					c0-0.096-0.073-0.152-0.203-0.152H1.048c-0.124,0-0.186,0.062-0.186,0.186v1.088c0,0.124,0.062,0.186,0.186,0.186h3.663
					c0.129,0,0.203,0.05,0.203,0.145c0,0.018-0.012,0.062-0.034,0.106l-4.293,9.465c-0.028,0.051-0.034,0.09-0.034,0.111
					c0,0.096,0.062,0.141,0.203,0.141h6.521C7.395,96.173,7.457,96.111,7.457,95.998z"/>
				<path id="Shape_22_" fill="#E35205" d="M14.942,93.28v-2.367c0-0.453-0.079-0.874-0.236-1.249
					c-0.158-0.37-0.377-0.69-0.669-0.965c-0.282-0.27-0.631-0.488-1.036-0.64c-0.398-0.146-0.861-0.23-1.355-0.23
					c-0.507,0-0.957,0.067-1.362,0.219c-0.4,0.152-0.743,0.348-1.035,0.628c-0.281,0.271-0.506,0.595-0.665,0.971
					c-0.157,0.388-0.236,0.808-0.236,1.261v2.367c0,0.453,0.079,0.874,0.236,1.261c0.158,0.375,0.383,0.707,0.665,0.981
					c0.292,0.27,0.635,0.481,1.035,0.622c0.406,0.152,0.861,0.22,1.362,0.22c0.495,0,0.957-0.073,1.355-0.22
					c0.405-0.141,0.754-0.347,1.036-0.622c0.292-0.269,0.512-0.606,0.669-0.981C14.863,94.153,14.942,93.733,14.942,93.28z
					 M13.287,93.28c0,0.447-0.157,0.828-0.479,1.144c-0.32,0.323-0.708,0.48-1.17,0.48c-0.231,0-0.451-0.045-0.653-0.123
					c-0.203-0.088-0.371-0.201-0.523-0.357c-0.141-0.146-0.259-0.326-0.344-0.528c-0.09-0.201-0.129-0.403-0.129-0.621v-2.356
					c0-0.453,0.158-0.828,0.479-1.153c0.321-0.324,0.709-0.482,1.177-0.482c0.461,0,0.85,0.158,1.17,0.482
					c0.321,0.325,0.479,0.7,0.479,1.153v2.362H13.287z"/>
				<path id="Path_41_" fill="#E35205" d="M21.082,89.607V88.25c0-0.112-0.073-0.174-0.214-0.202
					c-0.141-0.027-0.388-0.033-0.743-0.033c-0.248,0-0.467,0.051-0.665,0.157c-0.197,0.095-0.36,0.213-0.506,0.33
					c-0.141,0.124-0.259,0.23-0.344,0.332c-0.09,0.106-0.158,0.156-0.213,0.156c-0.107,0-0.169-0.072-0.169-0.219v-0.577
					c0-0.124-0.062-0.186-0.175-0.186h-1.103c-0.124,0-0.186,0.062-0.186,0.186v7.8c0,0.111,0.062,0.173,0.186,0.173h1.283
					c0.124,0,0.186-0.062,0.186-0.173v-4.722c0-0.51,0.151-0.903,0.444-1.188c0.293-0.279,0.698-0.42,1.21-0.42
					c0.231,0,0.417,0.017,0.558,0.062c0.14,0.045,0.258,0.062,0.337,0.062C21.036,89.793,21.082,89.73,21.082,89.607z"/>
				<path id="Shape_10_" fill="#E35205" d="M29.225,97.994v-0.184c0-0.332-0.062-0.629-0.186-0.902
					c-0.113-0.27-0.281-0.511-0.506-0.719c-0.214-0.201-0.467-0.37-0.777-0.482c-0.299-0.112-0.636-0.174-1.007-0.169h-2.162
					c-0.337-0.146-0.495-0.358-0.495-0.622c0-0.229,0.157-0.437,0.478-0.611c0.124,0.006,0.22,0.018,0.31,0.029
					c0.09,0.005,0.158,0.005,0.22,0.005c0.478,0,0.922-0.079,1.316-0.235c0.405-0.157,0.754-0.376,1.046-0.655
					c0.293-0.27,0.523-0.607,0.692-0.972c0.169-0.373,0.248-0.789,0.248-1.215V88.2c0-0.124-0.062-0.186-0.186-0.186H27.12
					c-0.124,0-0.186,0.062-0.186,0.186v0.218c0,0.129-0.045,0.191-0.124,0.191c-0.062,0-0.152-0.028-0.248-0.09
					c-0.106-0.062-0.23-0.13-0.36-0.213c-0.129-0.079-0.293-0.146-0.479-0.214c-0.174-0.062-0.388-0.084-0.619-0.084
					c-0.479,0-0.917,0.078-1.316,0.235c-0.406,0.156-0.755,0.376-1.053,0.651c-0.292,0.28-0.523,0.611-0.681,0.981
					c-0.168,0.375-0.248,0.79-0.248,1.216v0.163c0,0.342,0.045,0.651,0.135,0.936c0.096,0.279,0.203,0.51,0.344,0.673
					c0.213,0.28,0.388,0.488,0.511,0.622c0.136,0.129,0.197,0.22,0.197,0.253c0,0.061-0.05,0.174-0.169,0.354
					c-0.124,0.173-0.174,0.454-0.174,0.829c0,0.252,0.045,0.455,0.124,0.622c0.09,0.169,0.136,0.287,0.136,0.377
					c0,0.051-0.062,0.14-0.186,0.235c-0.124,0.106-0.281,0.264-0.495,0.466c-0.113,0.14-0.22,0.308-0.299,0.509
					c-0.079,0.207-0.113,0.426-0.113,0.674v0.184c0,0.325,0.062,0.628,0.186,0.903c0.118,0.281,0.282,0.517,0.495,0.717
					c0.22,0.203,0.478,0.359,0.788,0.472c0.299,0.111,0.636,0.173,1.007,0.173h2.471c0.372,0,0.708-0.062,1.006-0.173
					c0.31-0.112,0.569-0.269,0.777-0.482c0.22-0.201,0.388-0.448,0.506-0.718C29.163,98.616,29.225,98.319,29.225,97.994z
					 M26.749,91.262c0,0.448-0.152,0.831-0.467,1.148c-0.321,0.325-0.715,0.481-1.176,0.481c-0.231,0-0.451-0.045-0.653-0.134
					c-0.197-0.078-0.371-0.202-0.522-0.348c-0.141-0.151-0.259-0.323-0.343-0.526c-0.09-0.202-0.135-0.403-0.135-0.622v-0.163
					c0-0.219,0.045-0.432,0.135-0.622c0.09-0.202,0.203-0.376,0.343-0.527c0.151-0.156,0.326-0.269,0.522-0.357
					c0.203-0.079,0.422-0.124,0.653-0.124c0.461,0,0.861,0.156,1.176,0.481c0.32,0.314,0.467,0.7,0.467,1.149V91.262z M27.57,97.994
					c0,0.207-0.079,0.404-0.248,0.566c-0.157,0.168-0.354,0.247-0.573,0.247h-2.472c-0.242,0-0.432-0.079-0.59-0.247
					s-0.236-0.359-0.236-0.566v-0.184c0-0.22,0.09-0.411,0.248-0.579c0.169-0.155,0.365-0.245,0.584-0.245h2.472
					c0.22,0,0.417,0.084,0.573,0.245c0.169,0.168,0.248,0.359,0.248,0.579v0.184H27.57z"/>
				<path id="Path_42_" fill="#E35205" d="M36.54,95.998v-1.094c0-0.123-0.062-0.185-0.186-0.185h-3.556
					c-0.135,0-0.203-0.044-0.203-0.14c0-0.062,0.017-0.106,0.034-0.129l3.743-6.145c0.028-0.045,0.034-0.09,0.034-0.124
					c0-0.106-0.062-0.151-0.203-0.151h-6.061c-0.124,0-0.185,0.062-0.185,0.186v1.088c0,0.124,0.061,0.186,0.185,0.186h3.202
					c0.13,0,0.203,0.045,0.203,0.14c0,0.045-0.011,0.079-0.033,0.13l-3.726,6.144c-0.028,0.051-0.034,0.095-0.034,0.129
					c0,0.096,0.073,0.141,0.203,0.141h6.397C36.478,96.173,36.54,96.111,36.54,95.998z"/>
				<path id="Shape_11_" fill="#E35205" d="M44.588,95.998v-2.741l-0.017-2.398c-0.017-0.903-0.32-1.638-0.912-2.188
					c-0.59-0.561-1.391-0.842-2.397-0.842c-0.929,0-1.654,0.23-2.178,0.69c-0.292,0.252-0.506,0.481-0.635,0.69
					c-0.123,0.201-0.196,0.342-0.196,0.42c0,0.051,0.045,0.106,0.112,0.141l1.114,0.577c0.051,0.027,0.09,0.045,0.113,0.045
					c0.061,0,0.134-0.068,0.23-0.203c0.09-0.128,0.236-0.307,0.444-0.525c0.118-0.123,0.259-0.219,0.422-0.292
					c0.168-0.078,0.366-0.112,0.568-0.112c0.478,0,0.866,0.151,1.17,0.455c0.299,0.296,0.461,0.684,0.49,1.138l0.017,0.51
					c0,0.124-0.062,0.185-0.186,0.185h-2.105c-0.371,0-0.697,0.051-1.002,0.169c-0.298,0.112-0.557,0.27-0.771,0.47
					c-0.213,0.201-0.382,0.438-0.494,0.706c-0.118,0.27-0.174,0.573-0.174,0.903v0.106c0,0.331,0.062,0.629,0.174,0.907
					c0.112,0.281,0.281,0.518,0.494,0.719c0.214,0.202,0.467,0.36,0.771,0.471c0.305,0.113,0.631,0.169,1.002,0.169h0.715
					c0.203,0,0.399-0.028,0.568-0.095c0.168-0.067,0.326-0.14,0.461-0.208c0.135-0.072,0.248-0.141,0.344-0.213
					c0.096-0.062,0.186-0.096,0.259-0.096c0.09,0,0.135,0.062,0.135,0.202v0.236c0,0.111,0.062,0.173,0.185,0.173h1.098
					C44.526,96.173,44.588,96.111,44.588,95.998z M42.933,93.077l-0.017,0.343c-0.321,0.874-0.839,1.306-1.559,1.306h-0.715
					c-0.23,0-0.422-0.066-0.574-0.218c-0.157-0.158-0.231-0.349-0.231-0.595v-0.292c0-0.229,0.074-0.42,0.231-0.566
					c0.152-0.151,0.343-0.23,0.574-0.23h2.105c0.124,0,0.186,0.062,0.186,0.186V93.077z"/>
				<path id="Shape_12_" fill="#E35205" d="M52.596,95.998v-2.741l-0.017-2.398c-0.011-0.903-0.31-1.638-0.901-2.188
					c-0.59-0.561-1.401-0.842-2.397-0.842c-0.929,0-1.654,0.23-2.178,0.69c-0.298,0.252-0.506,0.481-0.635,0.69
					c-0.124,0.201-0.197,0.342-0.197,0.42c0,0.051,0.034,0.106,0.112,0.141l1.115,0.577c0.05,0.027,0.09,0.045,0.118,0.045
					c0.05,0,0.135-0.068,0.22-0.203c0.096-0.128,0.247-0.307,0.45-0.525c0.112-0.123,0.259-0.219,0.422-0.292
					c0.169-0.078,0.366-0.112,0.568-0.112c0.479,0,0.868,0.151,1.171,0.455c0.298,0.296,0.461,0.684,0.483,1.138l0.017,0.51
					c0,0.124-0.062,0.185-0.186,0.185h-2.104c-0.372,0-0.697,0.051-1.001,0.169c-0.298,0.112-0.557,0.27-0.771,0.47
					c-0.219,0.201-0.382,0.438-0.495,0.706c-0.112,0.27-0.174,0.573-0.174,0.903v0.106c0,0.331,0.062,0.629,0.174,0.907
					c0.113,0.281,0.276,0.518,0.495,0.719c0.214,0.202,0.467,0.36,0.771,0.471c0.304,0.113,0.63,0.169,1.001,0.169h0.715
					c0.203,0,0.388-0.028,0.568-0.095c0.169-0.067,0.321-0.14,0.462-0.208c0.134-0.072,0.247-0.141,0.343-0.213
					c0.096-0.062,0.186-0.096,0.259-0.096c0.09,0,0.135,0.062,0.135,0.202v0.236c0,0.111,0.05,0.173,0.175,0.173h1.109
					C52.54,96.173,52.596,96.111,52.596,95.998z M50.947,93.077L50.93,93.42c-0.321,0.874-0.838,1.306-1.559,1.306h-0.715
					c-0.231,0-0.422-0.066-0.574-0.218c-0.157-0.158-0.23-0.349-0.23-0.595v-0.292c0-0.229,0.067-0.42,0.23-0.566
					c0.152-0.151,0.343-0.23,0.574-0.23h2.104c0.124,0,0.186,0.062,0.186,0.186V93.077z"/>
				<path id="Path_43_" fill="#E35205" d="M65.798,95.998v-4.899c0-0.449-0.074-0.857-0.22-1.244
					c-0.158-0.375-0.372-0.707-0.647-0.981c-0.275-0.27-0.602-0.483-0.99-0.629c-0.382-0.151-0.805-0.229-1.255-0.229
					c-0.635,0-1.159,0.129-1.575,0.403c-0.214,0.129-0.366,0.247-0.467,0.349c-0.107,0.106-0.174,0.157-0.23,0.157
					c-0.034,0-0.107-0.051-0.214-0.146c-0.096-0.096-0.259-0.207-0.467-0.343c-0.4-0.279-0.883-0.42-1.441-0.42
					c-0.219,0-0.428,0.033-0.613,0.096c-0.174,0.066-0.344,0.14-0.49,0.212c-0.141,0.067-0.259,0.141-0.361,0.214
					c-0.107,0.067-0.186,0.095-0.248,0.095c-0.09,0-0.135-0.061-0.135-0.19v-0.235c0-0.124-0.051-0.185-0.174-0.185h-1.109
					c-0.113,0-0.174,0.061-0.174,0.185v7.8c0,0.112,0.062,0.173,0.174,0.173h1.294c0.112,0,0.174-0.061,0.174-0.173v-4.901
					c0-0.219,0.044-0.42,0.135-0.621c0.079-0.203,0.197-0.376,0.327-0.517c0.136-0.146,0.293-0.263,0.468-0.358
					c0.174-0.083,0.354-0.128,0.54-0.128c0.186,0,0.366,0.045,0.541,0.123c0.175,0.089,0.338,0.213,0.479,0.357
					c0.14,0.152,0.248,0.325,0.326,0.528c0.079,0.2,0.124,0.402,0.124,0.621v4.901c0,0.111,0.062,0.173,0.175,0.173h1.294
					c0.112,0,0.174-0.062,0.174-0.173v-4.901c0-0.219,0.045-0.421,0.135-0.611c0.09-0.189,0.197-0.369,0.327-0.515
					c0.135-0.151,0.293-0.269,0.467-0.37c0.175-0.083,0.355-0.128,0.54-0.128c0.186,0,0.361,0.045,0.541,0.122
					c0.175,0.09,0.338,0.213,0.479,0.358c0.141,0.152,0.248,0.325,0.326,0.526c0.079,0.202,0.125,0.404,0.125,0.623v4.901
					c0,0.111,0.062,0.173,0.186,0.173h1.283C65.742,96.173,65.798,96.111,65.798,95.998z"/>
				<path id="Shape_13_" fill="#E35205" d="M77.802,92.191v-1.278c0-0.404-0.091-0.795-0.26-1.171
					c-0.168-0.376-0.404-0.701-0.708-0.981c-0.299-0.281-0.648-0.499-1.054-0.674c-0.405-0.168-0.833-0.252-1.283-0.252
					c-0.468,0-0.895,0.09-1.294,0.252c-0.4,0.175-0.755,0.393-1.042,0.674c-0.304,0.28-0.54,0.605-0.709,0.981
					c-0.174,0.376-0.259,0.762-0.259,1.171v2.367c0,0.453,0.079,0.873,0.236,1.261c0.158,0.375,0.383,0.707,0.665,0.981
					c0.292,0.27,0.636,0.482,1.041,0.622c0.4,0.152,0.849,0.219,1.356,0.219c0.985,0,1.745-0.252,2.292-0.763
					c0.28-0.252,0.477-0.488,0.59-0.702c0.113-0.211,0.174-0.346,0.174-0.408c0-0.045-0.034-0.09-0.107-0.123l-1.159-0.578
					c-0.045-0.028-0.089-0.034-0.106-0.034c-0.062,0-0.142,0.062-0.232,0.191c-0.095,0.141-0.247,0.325-0.45,0.567
					c-0.095,0.111-0.236,0.212-0.416,0.289c-0.174,0.068-0.371,0.107-0.591,0.107c-0.23,0-0.451-0.045-0.652-0.123
					c-0.196-0.089-0.371-0.201-0.522-0.358c-0.141-0.146-0.26-0.325-0.344-0.527c-0.09-0.201-0.135-0.403-0.135-0.621v-0.73
					c0-0.124,0.062-0.185,0.186-0.185h4.586C77.74,92.365,77.802,92.304,77.802,92.191z M75.973,91.099h-2.938
					c-0.09,0-0.135-0.017-0.152-0.062c-0.017-0.045-0.034-0.113-0.034-0.213c0-0.191,0.051-0.387,0.141-0.572
					c0.09-0.19,0.214-0.357,0.354-0.498c0.152-0.146,0.327-0.264,0.523-0.343c0.202-0.09,0.416-0.129,0.636-0.129
					c0.219,0,0.422,0.045,0.62,0.129c0.197,0.079,0.37,0.191,0.522,0.331c0.158,0.141,0.276,0.297,0.372,0.482
					c0.09,0.174,0.135,0.369,0.135,0.56c0,0.106-0.011,0.185-0.027,0.235C76.102,91.07,76.051,91.099,75.973,91.099z"/>
				<path id="Path_44_" fill="#E35205" d="M86.113,95.998v-4.899c0-0.455-0.078-0.874-0.236-1.249
					c-0.158-0.376-0.383-0.702-0.664-0.971c-0.28-0.27-0.608-0.483-1.001-0.629c-0.382-0.151-0.805-0.229-1.272-0.229
					c-0.265,0-0.506,0.027-0.708,0.084c-0.203,0.062-0.371,0.134-0.523,0.213c-0.14,0.078-0.265,0.151-0.36,0.213
					c-0.096,0.062-0.175,0.09-0.236,0.09c-0.09,0-0.135-0.062-0.135-0.19v-0.219c0-0.124-0.062-0.186-0.175-0.186h-1.103
					c-0.125,0-0.186,0.062-0.186,0.186v7.8c0,0.111,0.061,0.173,0.186,0.173h1.282c0.125,0,0.186-0.062,0.186-0.173v-4.901
					c0-0.448,0.158-0.83,0.479-1.149c0.321-0.324,0.708-0.48,1.176-0.48c0.229,0,0.444,0.045,0.647,0.123
					c0.202,0.089,0.382,0.213,0.523,0.357c0.152,0.152,0.264,0.325,0.344,0.528c0.09,0.2,0.135,0.402,0.135,0.621v4.901
					c0,0.111,0.062,0.173,0.185,0.173h1.284C86.051,96.173,86.113,96.111,86.113,95.998z"/>
				<path id="Shape_14_" fill="#E35205" d="M98.934,97.994v-0.184c0-0.332-0.063-0.629-0.182-0.902
					c-0.123-0.27-0.292-0.511-0.506-0.719c-0.218-0.201-0.478-0.37-0.776-0.482c-0.31-0.112-0.647-0.174-1.007-0.169h-2.167
					c-0.327-0.146-0.495-0.358-0.495-0.622c0-0.229,0.157-0.437,0.478-0.611c0.125,0.006,0.221,0.018,0.31,0.029
					c0.09,0.005,0.158,0.005,0.219,0.005c0.478,0,0.917-0.079,1.317-0.235c0.405-0.157,0.754-0.376,1.052-0.655
					c0.293-0.27,0.523-0.607,0.681-0.972c0.169-0.373,0.247-0.789,0.247-1.215V88.2c0-0.124-0.062-0.186-0.174-0.186h-1.109
					c-0.124,0-0.186,0.062-0.186,0.186v0.218c0,0.129-0.045,0.191-0.123,0.191c-0.062,0-0.141-0.028-0.247-0.09
					c-0.107-0.062-0.22-0.13-0.36-0.213c-0.135-0.079-0.293-0.146-0.479-0.214c-0.174-0.062-0.388-0.084-0.619-0.084
					c-0.479,0-0.923,0.078-1.316,0.235c-0.405,0.156-0.754,0.376-1.047,0.651c-0.293,0.28-0.523,0.611-0.693,0.981
					c-0.167,0.375-0.247,0.79-0.247,1.216v0.163c0,0.342,0.045,0.651,0.135,0.936c0.097,0.279,0.214,0.51,0.344,0.673
					c0.219,0.28,0.388,0.488,0.523,0.622c0.124,0.129,0.187,0.22,0.187,0.253c0,0.061-0.051,0.174-0.169,0.354
					c-0.119,0.173-0.175,0.454-0.175,0.829c0,0.252,0.045,0.455,0.136,0.622c0.078,0.169,0.122,0.287,0.122,0.377
					c0,0.051-0.061,0.14-0.185,0.235c-0.113,0.106-0.282,0.264-0.489,0.466c-0.125,0.14-0.232,0.308-0.311,0.509
					c-0.078,0.207-0.112,0.426-0.112,0.674v0.184c0,0.325,0.062,0.628,0.186,0.903c0.112,0.281,0.282,0.517,0.506,0.717
					c0.214,0.203,0.467,0.359,0.777,0.472c0.298,0.111,0.635,0.173,1.007,0.173h2.476c0.36,0,0.698-0.062,1.007-0.173
					c0.304-0.112,0.558-0.269,0.776-0.482c0.214-0.201,0.384-0.448,0.506-0.718C98.871,98.616,98.934,98.319,98.934,97.994z
					 M96.467,91.262c0,0.448-0.156,0.831-0.478,1.148c-0.321,0.325-0.71,0.481-1.176,0.481c-0.231,0-0.45-0.045-0.648-0.134
					c-0.203-0.078-0.381-0.202-0.522-0.348c-0.152-0.151-0.265-0.323-0.355-0.526c-0.08-0.202-0.124-0.403-0.124-0.622v-0.163
					c0-0.219,0.044-0.432,0.124-0.622c0.09-0.202,0.203-0.376,0.355-0.527c0.141-0.156,0.319-0.269,0.522-0.357
					c0.198-0.079,0.417-0.124,0.648-0.124c0.466,0,0.855,0.156,1.176,0.481c0.321,0.314,0.478,0.7,0.478,1.149V91.262z
					 M97.289,97.994c0,0.207-0.09,0.404-0.248,0.566c-0.168,0.168-0.365,0.247-0.585,0.247h-2.47c-0.23,0-0.423-0.079-0.585-0.247
					c-0.157-0.168-0.236-0.359-0.236-0.566v-0.184c0-0.22,0.079-0.411,0.247-0.579c0.158-0.155,0.355-0.245,0.575-0.245h2.47
					c0.22,0,0.417,0.084,0.585,0.245c0.158,0.168,0.248,0.359,0.248,0.579V97.994z"/>
				<path id="Shape_15_" fill="#E35205" d="M105.961,95.998v-2.741l-0.018-2.398c-0.016-0.903-0.319-1.638-0.911-2.188
					c-0.591-0.561-1.391-0.842-2.397-0.842c-0.929,0-1.654,0.23-2.179,0.69c-0.292,0.252-0.506,0.481-0.635,0.69
					c-0.124,0.201-0.185,0.342-0.185,0.42c0,0.051,0.033,0.106,0.106,0.141l1.115,0.577c0.051,0.027,0.089,0.045,0.118,0.045
					c0.062,0,0.135-0.068,0.231-0.203c0.09-0.128,0.236-0.307,0.45-0.525c0.107-0.123,0.248-0.219,0.417-0.292
					c0.175-0.078,0.36-0.112,0.569-0.112c0.478,0,0.866,0.151,1.17,0.455c0.299,0.296,0.461,0.684,0.49,1.138l0.018,0.51
					c0,0.124-0.062,0.185-0.187,0.185h-2.104c-0.372,0-0.698,0.051-1.002,0.169c-0.298,0.112-0.557,0.27-0.771,0.47
					c-0.214,0.201-0.382,0.438-0.495,0.706c-0.112,0.27-0.173,0.573-0.173,0.903v0.106c0,0.331,0.061,0.629,0.173,0.907
					c0.113,0.281,0.281,0.518,0.495,0.719c0.214,0.202,0.468,0.36,0.771,0.471c0.298,0.113,0.636,0.169,1.002,0.169h0.715
					c0.202,0,0.399-0.028,0.568-0.095c0.167-0.067,0.325-0.14,0.461-0.208c0.135-0.072,0.247-0.141,0.344-0.213
					c0.095-0.062,0.185-0.096,0.258-0.096c0.09,0,0.135,0.062,0.135,0.202v0.236c0,0.111,0.062,0.173,0.185,0.173h1.097
					C105.899,96.173,105.961,96.111,105.961,95.998z M104.308,93.077l-0.018,0.343c-0.321,0.874-0.838,1.306-1.559,1.306h-0.714
					c-0.231,0-0.428-0.066-0.574-0.218c-0.152-0.158-0.231-0.349-0.231-0.595v-0.292c0-0.229,0.079-0.42,0.231-0.566
					c0.152-0.151,0.343-0.23,0.574-0.23h2.104c0.124,0,0.186,0.062,0.186,0.186V93.077z"/>
				<path id="Path_45_" fill="#E35205" d="M110.555,89.231h0.557c0.389,0,0.691,0.096,0.9,0.293c0.214,0.19,0.444,0.425,0.67,0.728
					c0.027,0.017,0.045,0.045,0.061,0.067c0.018,0.028,0.047,0.034,0.062,0.034c0.029,0,0.062-0.006,0.113-0.034l1.064-0.526
					c0.066-0.033,0.106-0.078,0.106-0.129c0-0.174-0.073-0.376-0.202-0.59c-0.141-0.207-0.344-0.409-0.609-0.595
					c-0.258-0.189-0.574-0.342-0.94-0.465c-0.37-0.124-0.775-0.186-1.231-0.186h-0.557c-0.434,0-0.84,0.062-1.194,0.191
					c-0.359,0.123-0.675,0.308-0.94,0.544c-0.258,0.236-0.46,0.516-0.602,0.847c-0.141,0.325-0.213,0.684-0.213,1.087
					c0,0.674,0.213,1.173,0.636,1.499c0.415,0.312,1.063,0.559,1.93,0.733c0.383,0.066,0.713,0.14,1.008,0.2
					c0.293,0.051,0.539,0.124,0.736,0.203c0.197,0.078,0.337,0.186,0.444,0.309c0.096,0.112,0.14,0.268,0.14,0.471
					c0,0.291-0.122,0.532-0.369,0.735c-0.26,0.205-0.593,0.312-1.02,0.312h-0.557c-0.4,0-0.71-0.107-0.925-0.296
					c-0.213-0.202-0.432-0.45-0.652-0.719c-0.067-0.078-0.123-0.112-0.14-0.112s-0.045,0.017-0.096,0.034l-1.064,0.532
					c-0.072,0.034-0.106,0.068-0.106,0.124c0,0.186,0.075,0.374,0.202,0.588c0.141,0.208,0.343,0.415,0.608,0.606
					c0.265,0.185,0.575,0.342,0.945,0.454c0.36,0.124,0.772,0.186,1.223,0.186h0.557c0.93,0,1.666-0.253,2.205-0.752
					c0.547-0.499,0.822-1.167,0.822-1.991c0-0.347-0.061-0.65-0.184-0.891c-0.125-0.254-0.299-0.466-0.543-0.627
					c-0.236-0.169-0.539-0.314-0.912-0.433c-0.363-0.112-0.793-0.218-1.281-0.313c-0.67-0.129-1.177-0.27-1.503-0.422
					c-0.327-0.14-0.495-0.403-0.495-0.778c0-0.286,0.117-0.516,0.354-0.672C109.8,89.311,110.125,89.231,110.555,89.231z"/>
				<path id="Path_46_" fill="#E35205" d="M119.767,96.156v-1.089c0-0.09-0.045-0.151-0.141-0.186
					c-0.282-0.112-0.513-0.217-0.698-0.296c-0.186-0.078-0.32-0.168-0.404-0.264c-0.266-0.342-0.4-0.689-0.4-1.048v-3.622
					c0-0.122,0.061-0.185,0.174-0.185h1.284c0.123,0,0.186-0.062,0.186-0.186v-1.088c0-0.124-0.062-0.186-0.186-0.186h-1.284
					c-0.119,0-0.174-0.062-0.174-0.186v-1.266c0-0.124-0.062-0.185-0.188-0.185h-0.566l-0.135,0.049l-2.105,2.221l-0.045,0.634
					c0,0.124,0.062,0.186,0.186,0.186h1.008c0.124,0,0.187,0.062,0.187,0.185v3.622c0,0.453,0.078,0.874,0.247,1.25
					c0.168,0.375,0.383,0.689,0.662,0.964c0.277,0.265,0.586,0.472,0.941,0.623s0.725,0.23,1.109,0.23
					c0.134,0,0.218-0.012,0.274-0.028C119.737,96.297,119.767,96.246,119.767,96.156z"/>
				<path id="Path_47_" fill="#E35205" d="M128.642,88.267c0.01-0.028,0.016-0.062,0.016-0.106c0-0.106-0.062-0.151-0.185-0.151
					h-1.381c-0.096,0.033-0.151,0.067-0.157,0.106l-2.183,5.938l-2.139-5.938c-0.061-0.045-0.117-0.079-0.168-0.106h-1.373
					c-0.125,0-0.186,0.045-0.186,0.151c0,0.045,0.006,0.078,0.016,0.106l3.111,7.806c0.035,0.066,0.098,0.105,0.17,0.105h1.176
					c0.045-0.005,0.096-0.045,0.158-0.105L128.642,88.267z"/>
				<path id="Path_48_" fill="#E35205" d="M134.211,89.607V88.25c0-0.112-0.072-0.174-0.213-0.202
					c-0.141-0.027-0.389-0.033-0.742-0.033c-0.236,0-0.461,0.051-0.652,0.157c-0.197,0.095-0.361,0.213-0.508,0.33
					c-0.141,0.124-0.26,0.23-0.355,0.332c-0.09,0.106-0.158,0.156-0.213,0.156c-0.107,0-0.164-0.072-0.164-0.219v-0.577
					c0-0.124-0.061-0.186-0.186-0.186h-1.096c-0.125,0-0.186,0.062-0.186,0.186v7.8c0,0.111,0.061,0.173,0.186,0.173h1.281
					c0.125,0,0.188-0.062,0.188-0.173v-4.722c0-0.51,0.139-0.903,0.432-1.188c0.293-0.279,0.699-0.42,1.217-0.42
					c0.23,0,0.416,0.017,0.557,0.062s0.26,0.062,0.344,0.062C134.18,89.793,134.211,89.73,134.211,89.607z"/>
				<path id="Shape_16_" fill="#E35205" d="M137.357,85.565c0-0.271-0.096-0.51-0.293-0.7c-0.203-0.203-0.438-0.299-0.715-0.299
					c-0.281,0-0.521,0.096-0.713,0.299c-0.193,0.19-0.293,0.43-0.293,0.7c0,0.297,0.096,0.533,0.293,0.719
					c0.197,0.188,0.432,0.278,0.713,0.278c0.277,0,0.512-0.096,0.715-0.284C137.256,86.081,137.357,85.845,137.357,85.565z
					 M137.172,95.998V88.2c0-0.124-0.062-0.186-0.186-0.186h-1.283c-0.123,0-0.186,0.062-0.186,0.186v7.798
					c0,0.113,0.062,0.175,0.186,0.175h1.283C137.104,96.173,137.172,96.111,137.172,95.998z"/>
				<path id="Shape_17_" fill="#E35205" d="M141.393,85.565c0-0.271-0.096-0.51-0.293-0.7c-0.197-0.203-0.434-0.299-0.721-0.299
					c-0.279,0-0.521,0.096-0.713,0.299c-0.197,0.19-0.295,0.43-0.295,0.7c0,0.297,0.098,0.533,0.295,0.719
					c0.197,0.188,0.434,0.278,0.713,0.278c0.281,0,0.523-0.096,0.721-0.284C141.291,86.081,141.393,85.845,141.393,85.565z
					 M141.207,97.198V88.2c0-0.124-0.062-0.186-0.18-0.186h-1.295c-0.113,0-0.174,0.062-0.174,0.186v9.177
					c0,0.253-0.035,0.467-0.113,0.629c-0.074,0.156-0.17,0.297-0.303,0.414c-0.125,0.124-0.281,0.219-0.48,0.309
					c-0.186,0.079-0.389,0.175-0.613,0.271c-0.051,0.027-0.09,0.045-0.111,0.061c-0.018,0.018-0.033,0.062-0.033,0.113v1.092
					c0,0.123,0.072,0.186,0.201,0.186c0.902,0,1.656-0.358,2.24-1.06c0.279-0.331,0.494-0.69,0.646-1.077
					C141.133,97.934,141.207,97.557,141.207,97.198z"/>
				<path id="Path_49_" fill="#E35205" d="M149.406,89.231h0.557c0.387,0,0.691,0.096,0.9,0.293c0.215,0.19,0.445,0.425,0.676,0.728
					c0.027,0.017,0.045,0.045,0.061,0.067c0.018,0.028,0.047,0.034,0.062,0.034c0.029,0,0.062-0.006,0.113-0.034l1.064-0.526
					c0.072-0.033,0.107-0.078,0.107-0.129c0-0.174-0.074-0.376-0.203-0.59c-0.141-0.207-0.35-0.409-0.613-0.595
					c-0.266-0.189-0.576-0.342-0.945-0.465c-0.367-0.124-0.773-0.186-1.223-0.186h-0.557c-0.434,0-0.844,0.062-1.193,0.191
					c-0.359,0.123-0.676,0.308-0.939,0.544s-0.459,0.516-0.602,0.847c-0.141,0.325-0.213,0.684-0.213,1.087
					c0,0.674,0.213,1.173,0.629,1.499c0.422,0.312,1.068,0.559,1.936,0.733c0.383,0.066,0.715,0.14,1.008,0.2
					c0.291,0.051,0.539,0.124,0.73,0.203c0.197,0.078,0.338,0.186,0.436,0.309c0.096,0.112,0.152,0.268,0.152,0.471
					c0,0.291-0.125,0.532-0.385,0.735c-0.248,0.205-0.586,0.312-1.02,0.312H149.4c-0.4,0-0.709-0.107-0.922-0.296
					c-0.221-0.202-0.436-0.45-0.654-0.719c-0.072-0.078-0.123-0.112-0.141-0.112c-0.016,0-0.045,0.017-0.096,0.034l-1.057,0.532
					c-0.072,0.034-0.117,0.068-0.107,0.124c-0.006,0.186,0.062,0.374,0.203,0.588c0.143,0.208,0.344,0.415,0.607,0.606
					c0.258,0.185,0.574,0.342,0.939,0.454c0.371,0.124,0.775,0.186,1.232,0.186h0.545c0.93,0,1.672-0.253,2.213-0.752
					c0.545-0.499,0.822-1.167,0.822-1.991c0-0.347-0.062-0.65-0.186-0.891c-0.125-0.254-0.305-0.466-0.543-0.627
					c-0.24-0.169-0.539-0.314-0.908-0.433c-0.361-0.112-0.797-0.218-1.285-0.313c-0.676-0.129-1.176-0.27-1.502-0.422
					c-0.328-0.14-0.496-0.403-0.496-0.778c0-0.286,0.117-0.516,0.344-0.672C148.652,89.311,148.982,89.231,149.406,89.231z"/>
				<path id="Shape_18_" fill="#E35205" d="M156.789,85.565c0-0.271-0.096-0.51-0.291-0.7c-0.203-0.203-0.445-0.299-0.717-0.299
					c-0.281,0-0.521,0.096-0.713,0.299c-0.193,0.19-0.295,0.43-0.295,0.7c0,0.297,0.098,0.533,0.295,0.719
					c0.197,0.188,0.432,0.278,0.713,0.278c0.277,0,0.514-0.096,0.717-0.284C156.688,86.081,156.789,85.845,156.789,85.565z
					 M156.604,95.998V88.2c0-0.124-0.061-0.186-0.184-0.186h-1.285c-0.123,0-0.186,0.062-0.186,0.186v7.798
					c0,0.113,0.062,0.175,0.186,0.175h1.285C156.543,96.173,156.604,96.111,156.604,95.998z"/>
				<path id="Path_50_" fill="#E35205" d="M165.592,95.998v-4.899c0-0.455-0.08-0.874-0.238-1.249
					c-0.156-0.376-0.381-0.702-0.664-0.971c-0.275-0.27-0.605-0.483-1.002-0.629c-0.381-0.151-0.803-0.229-1.27-0.229
					c-0.266,0-0.508,0.027-0.699,0.084c-0.203,0.062-0.383,0.134-0.529,0.213c-0.139,0.078-0.264,0.151-0.365,0.213
					c-0.096,0.062-0.174,0.09-0.236,0.09c-0.09,0-0.125-0.062-0.125-0.19v-0.219c0-0.124-0.061-0.186-0.186-0.186h-1.102
					c-0.111,0-0.178,0.062-0.178,0.186v7.8c0,0.111,0.061,0.173,0.178,0.173h1.293c0.113,0,0.176-0.062,0.176-0.173v-4.901
					c0-0.448,0.158-0.83,0.477-1.149c0.322-0.324,0.711-0.48,1.178-0.48c0.23,0,0.451,0.045,0.648,0.123
					c0.201,0.089,0.381,0.213,0.523,0.357c0.152,0.152,0.262,0.325,0.354,0.528c0.078,0.2,0.123,0.402,0.123,0.621v4.901
					c0,0.111,0.062,0.173,0.188,0.173h1.281C165.529,96.173,165.592,96.111,165.592,95.998z"/>
				<path id="Shape_19_" fill="#E35205" d="M173.941,95.998V84.932c0-0.123-0.061-0.186-0.186-0.186h-1.281
					c-0.125,0-0.186,0.062-0.186,0.186v3.48c0,0.129-0.047,0.191-0.125,0.191c-0.062,0-0.152-0.028-0.248-0.09
					c-0.107-0.062-0.232-0.129-0.361-0.213c-0.133-0.079-0.291-0.146-0.475-0.214c-0.176-0.062-0.391-0.084-0.621-0.084
					c-0.449,0-0.879,0.078-1.254,0.235c-0.391,0.157-0.715,0.371-0.992,0.641c-0.275,0.28-0.49,0.595-0.648,0.971
					c-0.15,0.375-0.229,0.783-0.229,1.232v1.995c0,0.466,0.078,0.875,0.234,1.251c0.158,0.376,0.385,0.7,0.666,0.97
					s0.607,0.482,1.002,0.629c0.387,0.156,0.816,0.229,1.271,0.229c0.266,0,0.502-0.028,0.711-0.09
					c0.201-0.062,0.367-0.129,0.52-0.213c0.152-0.079,0.266-0.151,0.361-0.214c0.096-0.062,0.176-0.09,0.242-0.09
					c0.092,0,0.131,0.067,0.131,0.202v0.22c0,0.111,0.062,0.173,0.184,0.173h1.098C173.881,96.173,173.941,96.111,173.941,95.998z
					 M172.289,93.095c0,0.448-0.158,0.835-0.48,1.154c-0.322,0.314-0.709,0.471-1.17,0.471c-0.236,0-0.451-0.032-0.652-0.122
					c-0.203-0.09-0.371-0.203-0.523-0.349c-0.15-0.156-0.264-0.33-0.344-0.533c-0.09-0.19-0.135-0.402-0.135-0.621v-1.996
					c0-0.219,0.045-0.421,0.135-0.622c0.08-0.202,0.199-0.376,0.344-0.527c0.152-0.15,0.32-0.269,0.523-0.357
					c0.201-0.079,0.416-0.124,0.652-0.124c0.461,0,0.848,0.156,1.17,0.481c0.322,0.314,0.48,0.7,0.48,1.149V93.095z"/>
				<path id="Path_51_" fill="#E35205" d="M178.533,89.231h0.557c0.391,0,0.693,0.096,0.9,0.293c0.215,0.19,0.447,0.425,0.678,0.728
					c0.027,0.017,0.045,0.045,0.062,0.067c0.016,0.028,0.045,0.034,0.061,0.034c0.027,0,0.062-0.006,0.113-0.034l1.062-0.526
					c0.068-0.033,0.107-0.078,0.107-0.129c0-0.174-0.068-0.376-0.203-0.59c-0.141-0.207-0.342-0.409-0.613-0.595
					c-0.254-0.189-0.572-0.342-0.939-0.465c-0.373-0.124-0.777-0.186-1.229-0.186h-0.557c-0.432,0-0.838,0.062-1.193,0.191
					c-0.359,0.123-0.674,0.308-0.938,0.544c-0.26,0.236-0.461,0.516-0.602,0.847c-0.141,0.325-0.215,0.684-0.215,1.087
					c0,0.674,0.215,1.173,0.635,1.499c0.416,0.312,1.062,0.559,1.932,0.733c0.377,0.066,0.713,0.14,1.006,0.2
					c0.293,0.051,0.539,0.124,0.73,0.203c0.199,0.078,0.34,0.186,0.447,0.309c0.096,0.112,0.141,0.268,0.141,0.471
					c0,0.291-0.125,0.532-0.373,0.735c-0.26,0.205-0.59,0.312-1.02,0.312h-0.555c-0.4,0-0.709-0.107-0.918-0.296
					c-0.215-0.202-0.436-0.45-0.652-0.719c-0.068-0.078-0.125-0.112-0.141-0.112c-0.018,0-0.047,0.017-0.098,0.034L175.66,94.4
					c-0.074,0.034-0.107,0.068-0.107,0.124c0,0.186,0.066,0.374,0.203,0.588c0.141,0.208,0.342,0.415,0.607,0.606
					c0.262,0.185,0.572,0.342,0.943,0.454c0.367,0.124,0.771,0.186,1.223,0.186h0.555c0.93,0,1.668-0.253,2.203-0.752
					c0.551-0.499,0.82-1.167,0.82-1.991c0-0.347-0.061-0.65-0.186-0.891c-0.123-0.254-0.297-0.466-0.539-0.627
					c-0.242-0.169-0.539-0.314-0.912-0.433c-0.361-0.112-0.799-0.218-1.285-0.313c-0.674-0.129-1.174-0.27-1.502-0.422
					c-0.326-0.14-0.496-0.403-0.496-0.778c0-0.286,0.113-0.516,0.355-0.672C177.785,89.311,178.113,89.231,178.533,89.231z"/>
				<path id="Path_52_" fill="#E35205" d="M194.207,95.998v-1.094c0-0.123-0.062-0.185-0.186-0.185h-1.836
					c-0.121,0-0.172-0.061-0.184-0.173v-9.615c0.006-0.123-0.051-0.186-0.176-0.186h-0.646l-0.123,0.051l-2.955,2.925
					c-0.051,0.045-0.072,0.09-0.072,0.124s0.016,0.079,0.072,0.13l0.803,0.779c0.051,0.046,0.092,0.067,0.137,0.067
					c0.033,0,0.078-0.027,0.123-0.067l0.885-0.893c0.045-0.045,0.096-0.067,0.141-0.067c0.113,0,0.17,0.067,0.17,0.202v6.55
					c0,0.112-0.062,0.173-0.188,0.173h-1.834c-0.123,0-0.186,0.062-0.186,0.185v1.094c0,0.113,0.062,0.175,0.186,0.175h5.684
					C194.145,96.173,194.207,96.111,194.207,95.998z"/>
				<path id="Path_53_" fill="#E35205" d="M198.566,84.566h-0.695c-0.434,0-0.816,0.051-1.16,0.152
					c-0.338,0.096-0.619,0.23-0.822,0.376c-0.354,0.274-0.617,0.516-0.797,0.75c-0.176,0.23-0.266,0.422-0.266,0.577
					c0,0.045,0.033,0.091,0.107,0.124l1.158,0.589c0.027,0.006,0.057,0.018,0.09,0.018c0.051,0,0.107-0.034,0.168-0.113
					c0.107-0.128,0.215-0.263,0.305-0.387c0.092-0.135,0.199-0.235,0.301-0.329c0.109-0.09,0.234-0.158,0.387-0.208
					c0.141-0.062,0.32-0.091,0.529-0.091h0.695c0.215,0,0.424,0.045,0.633,0.13c0.203,0.079,0.377,0.201,0.527,0.341
					c0.152,0.152,0.277,0.314,0.361,0.518c0.08,0.2,0.127,0.408,0.127,0.648c0,0.27-0.064,0.516-0.178,0.734
					c-0.113,0.208-0.275,0.405-0.482,0.589c-0.203,0.186-0.451,0.36-0.756,0.534c-0.291,0.173-0.607,0.376-0.943,0.588
					c-0.924,0.566-1.607,1.155-2.068,1.744c-0.447,0.593-0.668,1.34-0.668,2.23v1.93c0,0.111,0.062,0.173,0.186,0.173h6.23
					c0.123,0,0.186-0.062,0.186-0.173v-1.095c0-0.124-0.062-0.185-0.186-0.185h-4.586c-0.125,0-0.188-0.062-0.188-0.173v-0.472
					c0-0.466,0.137-0.869,0.389-1.223c0.258-0.359,0.664-0.699,1.211-1.042c0.387-0.247,0.77-0.471,1.143-0.689
					c0.375-0.22,0.725-0.455,1.033-0.729c0.434-0.348,0.76-0.763,0.986-1.233c0.23-0.465,0.342-0.97,0.342-1.498
					c0-0.464-0.078-0.884-0.234-1.25c-0.158-0.374-0.385-0.699-0.678-0.969c-0.279-0.27-0.629-0.493-1.033-0.639
					C199.516,84.646,199.064,84.566,198.566,84.566z"/>
				<path id="Shape_20_" fill="#E35205" d="M210.781,93.364v-1.088c0-0.123-0.062-0.184-0.186-0.184h-1.285
					c-0.123,0-0.184-0.062-0.184-0.186v-6.976c0-0.123-0.062-0.186-0.188-0.186h-1.373l-0.15,0.068l-4.857,7.278l-0.016,1.266v0.033
					c0,0.095,0.051,0.151,0.168,0.151h4.58c0.113,0,0.176,0.062,0.176,0.185v2.267c0,0.111,0.061,0.173,0.184,0.173h1.285
					c0.123,0,0.186-0.062,0.186-0.173v-2.267c0-0.123,0.062-0.185,0.184-0.185h1.285C210.719,93.549,210.781,93.486,210.781,93.364z
					 M207.473,91.912c0,0.124-0.062,0.186-0.176,0.186h-2.768c-0.141,0-0.203-0.05-0.203-0.151c0-0.034,0.018-0.079,0.051-0.141
					l2.768-4.123c0.029-0.061,0.078-0.089,0.17-0.089c0.107,0,0.158,0.067,0.158,0.201V91.912z"/>
				<path id="Shape_21_" fill="#E35205" d="M219.57,93.28v-0.73c0.012-0.446-0.066-0.868-0.23-1.243
					c-0.158-0.389-0.385-0.708-0.652-0.982c-0.277-0.269-0.604-0.48-0.992-0.639c-0.375-0.15-0.791-0.229-1.236-0.229h-0.553
					c-0.236,0-0.461,0.034-0.646,0.096c-0.197,0.062-0.355,0.134-0.494,0.213c-0.143,0.079-0.26,0.14-0.344,0.201
					c-0.096,0.062-0.156,0.096-0.197,0.096c-0.096,0-0.152-0.067-0.152-0.201v-2.216c0-0.453,0.158-0.841,0.479-1.155
					c0.314-0.312,0.709-0.47,1.176-0.47h0.553c0.219,0,0.4,0.028,0.547,0.09c0.15,0.051,0.273,0.124,0.387,0.208
					c0.107,0.094,0.203,0.2,0.305,0.324c0.088,0.123,0.195,0.252,0.297,0.392c0.027,0.034,0.043,0.068,0.061,0.096
					c0.018,0.018,0.045,0.034,0.09,0.034c0.018,0,0.051-0.017,0.107-0.034l1.16-0.589c0.068-0.033,0.107-0.078,0.107-0.123
					c0-0.167-0.074-0.358-0.221-0.566c-0.141-0.218-0.354-0.421-0.619-0.611c-0.275-0.188-0.592-0.347-0.971-0.481
					c-0.379-0.123-0.799-0.191-1.25-0.191h-0.553c-0.506,0-0.955,0.079-1.361,0.22c-0.398,0.151-0.744,0.357-1.037,0.628
					c-0.279,0.27-0.512,0.595-0.674,0.98c-0.152,0.376-0.232,0.797-0.232,1.262v5.624c0,0.453,0.074,0.873,0.232,1.261
					c0.162,0.375,0.389,0.707,0.674,0.981c0.293,0.27,0.639,0.482,1.037,0.622c0.406,0.152,0.855,0.219,1.35,0.219h0.559
					c0.496,0,0.945-0.072,1.35-0.219c0.404-0.14,0.754-0.347,1.035-0.622c0.281-0.27,0.512-0.606,0.676-0.981
					C219.498,94.153,219.576,93.733,219.57,93.28z M217.92,93.28c0,0.42-0.139,0.768-0.414,1.048
					c-0.275,0.281-0.68,0.47-1.227,0.576h-0.559c-0.461,0-0.85-0.157-1.164-0.47c-0.32-0.315-0.479-0.701-0.479-1.154v-0.73
					c0-0.463,0.158-0.846,0.479-1.165c0.314-0.314,0.709-0.472,1.164-0.472h0.559c0.461,0,0.85,0.157,1.17,0.472
					c0.314,0.313,0.477,0.702,0.477,1.165v0.73H217.92z"/>
			</g>
		</g>
	</g>
</g>
</svg>
