<svg xmlns="http://www.w3.org/2000/svg" width="160" height="70" viewBox="0 0 160 70"><g fill="none" fill-rule="evenodd"><polygon fill="#418FDE" points="0 0 0 53.846 16 70 160 53.846 160 0"/><path fill="#FEFEFE" d="M32,38.6633129 L31.4333088,42 L16,42 L16,19 L31.0667268,19 L31.5999715,19.615552 L31.0332803,22.9197347 L21.1999905,22.9197347 L21.1999905,28.426829 L28.3999335,28.426829 L28.9333682,29.0421963 L28.3664869,32.3790681 L21.1999905,32.3790681 L21.1999905,38.0802653 L31.4665653,38.0802653 L32,38.6633129 Z M46.1869427,41.5526341 L46.1869427,32.2491725 C46.1869427,30.331213 45.0362042,29.4359344 43.754274,29.4359344 C42.6367082,29.4359344 41.7819007,29.659754 40.5985517,30.5869288 L40.5985517,41.5526341 L35.5358645,41.5526341 L35.5358645,29.8833914 C35.5358645,28.7646576 34.6482591,28.540838 33.5962892,28.924685 C32.3471569,27.7736906 32.8730481,25.599833 36.9821592,25.599833 C39.1518822,25.599833 39.8751232,26.2709275 40.3354186,27.6776377 C41.7819007,26.334902 43.7212886,25.599833 46.1869427,25.599833 C49.605798,25.599833 51.2494424,27.5819493 51.2494424,31.2582055 L51.2494424,41.5526341 L46.1869427,41.5526341 Z M53.9176002,26.0473266 L58.947302,26.0473266 L62.2675762,37.6522302 L62.5305218,37.6843086 L65.9823625,26.0473266 L70.4531877,26.0473266 L70.9132957,26.7825778 L65.2591214,41.3611115 L59.2762183,41.7442295 L53.4574922,26.7825778 L53.9176002,26.0473266 Z M78.1836766,26.1750204 L78.1836766,41.5525976 L73.1213642,41.5525976 L73.1213642,26.3027872 L77.4936083,25.5997966 L78.1836766,26.1750204 Z M78.71013,20.6123363 C78.71013,22.1149172 77.4936083,23.5857842 75.5538455,23.5857842 C73.7458366,23.5857842 72.5952856,22.4027114 72.5952856,21.0282618 C72.5952856,19.3975496 74.0091571,18.1187885 75.7511953,18.1187885 C77.723756,18.1187885 78.71013,19.17373 78.71013,20.6123363 L78.71013,20.6123363 Z M93.3771544,37.6522849 L93.3771544,29.5320784 C92.6211154,29.2123881 91.7005246,28.9883862 90.7141506,28.9883862 C88.2814819,28.9883862 86.7697788,30.7465005 86.7697788,33.6882345 C86.7697788,36.7571885 88.0511468,38.4194322 90.2870279,38.4194322 C91.2402292,38.4194322 92.292574,38.1318203 93.3771544,37.6522849 M96.8947783,42 C95.0863946,42 93.936031,41.5204646 93.7056959,40.0501444 C92.4235782,41.2971917 90.7141506,42 88.0843195,42 C84.5998683,42 81.5423524,39.6344012 81.5423524,34.5193564 C81.5423524,28.9883862 84.7970307,25.5999242 89.7607619,25.5999242 C91.0760522,25.5999242 92.2592138,25.7595871 93.3771544,26.0153028 L93.3771544,17.7033551 L97.7488362,17 L98.4396541,17.5752238 L98.4396541,37.7160771 C98.4396541,38.8670715 99.327447,39.0588128 100.379042,38.6753303 C101.496608,39.8261424 100.970717,42 96.8947783,42 M107.32523,37.5882192 C107.32523,38.2915743 107.917091,38.834902 109.002047,38.834902 C109.823494,38.834902 110.612706,38.515394 111.40173,38.1000153 L111.40173,35.1907242 C108.508391,35.4781539 107.32523,36.309458 107.32523,37.5882192 M118.403618,38.6754214 C119.653125,39.8260513 119.126484,41.9999089 115.017748,41.9999089 C113.143956,41.9999089 112.223177,41.4565812 111.861838,40.2097161 C110.414981,41.424685 108.836933,41.9999089 106.634786,41.9999089 C104.070364,41.9999089 102.06538,40.8490967 102.06538,38.2915743 C102.06538,35.1265675 103.972157,33.4643237 109.856854,32.5692273 L111.40173,32.3452254 C111.500124,29.8197814 110.514125,29.0524518 108.343839,29.0524518 C107.095082,29.0524518 105.451625,29.3081676 103.774995,29.7558069 L102.88739,27.1341278 L103.413093,26.3667981 C105.155694,25.9195233 107.785712,25.599833 109.988046,25.599833 C113.932793,25.599833 116.464417,26.8144375 116.464417,30.6510856 L116.464417,37.7161682 C116.464417,38.8671627 117.352023,39.0589039 118.403618,38.6754214"/></g></svg>