<svg xmlns="http://www.w3.org/2000/svg" xml:space="preserve" width="292" height="94" viewBox="366.63 334.19 394.49 125.31"><defs><clipPath id="a" clipPathUnits="userSpaceOnUse"><path d="M0 595.276h841.89V0H0Z"/></clipPath></defs><g clip-path="url(#a)" transform="matrix(1.33333 0 0 -1.33333 0 793.701)"><path d="M0 0v-.9c0-1.359-.713-2.36-2.36-2.36h-9.068v-.373c0-2.157 1.698-3.295 3.956-3.295 1.41 0 2.463.255 3.295.628.594.255.985.391 1.393.391 1.052 0 1.952-.917 1.952-2.004 0-.696-.34-1.461-1.392-1.97-1.206-.578-3.074-1.12-5.418-1.12-4.686 0-7.828 2.988-8.184 7.217-.102 1.324-.085 3.361 0 4.431.39 4.416 3.566 7.217 8.015 7.217C-3.176 7.862 0 4.806 0 0m-11.428-.102h6.844c.254 0 .373.102.373.425.102 2.224-1.291 3.702-3.532 3.702-2.564 0-3.719-1.63-3.685-4.127" style="fill:#8a8a89;fill-opacity:1;fill-rule:nonzero;stroke:none" transform="translate(410.463 268.581)"/><path d="M0 0c.526-.459.764-.967.764-1.578 0-1.155-.95-2.073-2.088-2.073-.509 0-.866.136-1.426.408-.799.391-1.801.696-2.854.696-1.715 0-2.444-.645-2.444-1.528 0-.73.542-1.155 2.037-1.512l2.293-.509c3.515-.849 5.178-2.513 5.178-5.4 0-3.617-3.174-5.79-7.064-5.79-3.04 0-5.331 1.001-6.554 1.969-.543.459-.798 1.036-.798 1.647 0 1.138.9 2.021 1.987 2.021.543 0 .9-.118 1.425-.407 1.002-.629 2.174-1.172 3.992-1.172 1.732 0 2.53.73 2.53 1.647 0 .714-.509 1.223-1.953 1.563l-2.582.594c-2.648.662-4.89 2.275-4.89 5.281 0 3.617 3.124 5.722 7.081 5.722C-3.345 1.579-1.205.985 0 0" style="fill:#8a8a89;fill-opacity:1;fill-rule:nonzero;stroke:none" transform="translate(426.24 274.864)"/><path d="M0 0c.136-1.393.119-3.498 0-4.89-.323-4.076-3.057-6.98-7.506-6.98-1.341 0-2.87.374-3.838.815v-5.043c0-1.325-1.07-2.378-2.326-2.378-1.341 0-2.326 1.053-2.326 2.378V3.566c0 .51.136.85.577 1.155 1.12.798 3.82 2.19 7.319 2.19C-3.6 6.911-.374 4.076 0 0m-11.344 1.478v-8.067c.561-.373 1.936-.849 3.346-.849 2.106 0 3.261 1.24 3.395 3.261a21.925 21.925 0 0 1 0 3.345c-.169 1.953-1.357 3.311-3.548 3.311-1.121 0-2.564-.509-3.193-1.001" style="fill:#8a8a89;fill-opacity:1;fill-rule:nonzero;stroke:none" transform="translate(447.416 269.532)"/><path d="M0 0c.917-.255 1.884-.814 1.884-2.207 0-1.257-.832-2.276-2.02-2.276-.306 0-.713.085-1.087.153-.339.068-.73.136-1.324.136-1.257 0-1.937-.628-1.937-2.157v-9.662c0-1.291-1.002-2.343-2.326-2.343-1.256 0-2.326 1.052-2.326 2.343v10.545c0 3.567 2.072 5.825 5.994 5.825C-1.885.357-.679.187 0 0" style="fill:#8a8a89;fill-opacity:1;fill-rule:nonzero;stroke:none" transform="translate(460.9 276.087)"/><path d="M0 0c0-1.342-1.104-2.514-2.462-2.514-1.409 0-2.445 1.172-2.445 2.514 0 1.376 1.036 2.463 2.445 2.463A2.454 2.454 0 0 0 0 0m-.136-6.673v-13.773c0-1.325-1.002-2.393-2.343-2.393-1.257 0-2.292 1.035-2.292 2.393v13.773c0 1.306.968 2.376 2.309 2.376 1.307 0 2.326-1.07 2.326-2.376" style="fill:#8a8a89;fill-opacity:1;fill-rule:nonzero;stroke:none" transform="translate(470.394 280.57)"/><path d="M0 0c0-1.342-1.104-2.514-2.462-2.514-1.409 0-2.445 1.172-2.445 2.514 0 1.376 1.036 2.463 2.445 2.463A2.454 2.454 0 0 0 0 0" style="fill:#8a8a89;fill-opacity:1;fill-rule:nonzero;stroke:none" transform="translate(470.394 253.158)"/><path d="M0 0v-8.508c0-.764-.205-1.188-.815-1.613-.951-.628-3.329-1.833-7.167-1.833-4.941 0-7.166 2.682-7.166 5.875 0 2.903 1.987 5.519 6.776 5.519 1.512 0 2.751-.187 3.939-.527v1.24c0 1.698-.832 2.632-3.175 2.632-1.069 0-2.292-.289-3.209-.611-.476-.136-.85-.204-1.206-.204-1.104 0-2.004.917-2.004 1.953 0 .696.255 1.562 1.511 2.071.934.408 2.786.917 4.908.917C-2.667 6.911 0 4.789 0 0m-10.766-5.977c0-1.546 1.205-2.293 3.039-2.293 1.494 0 2.7.527 3.294.934v3.142c-1.154.339-2.122.526-3.328.526-2.054 0-3.005-1.052-3.005-2.309" style="fill:#8a8a89;fill-opacity:1;fill-rule:nonzero;stroke:none" transform="translate(489.55 269.532)"/><path d="M0 0c17.948 0 32.497 14.549 32.497 32.497 0 17.947-14.549 32.497-32.497 32.497-17.947 0-32.497-14.55-32.497-32.497C-32.497 14.549-17.947 0 0 0" style="fill:#fec900;fill-opacity:1;fill-rule:nonzero;stroke:none" transform="translate(534.416 279.636)"/><path d="m0 0 1.423 9.962.009.062-3.998 4.97c.044 2.337.236 4.859.484 5.07.38.296 5.746 1.563 6.921 1.563.121 0 .154-.014.154-.014.459-.229 3.245-3.228 4.357-5.755 1.147-2.605 1.445-7.596 1.109-7.932-.354-.353-2.187-1.109-2.863-1.37l-.084-.033-.662-8.381L20.547-9.2l1.513 3.075-11.786 7.232.102 2.857 3.771 2.1.007.076c.009.097.878 9.9-3.432 14.912-.228.264-.465.543-.709.828-2.098 2.462-3.519 4.076-4.155 4.076-1.294-.1-10.601-2.918-11.581-3.898-.239-.239-1.022-8.493-1.01-8.556.051-.254 2.862-2.974 4.575-4.612l-.668-3.921c-.427.076-1.855.351-4.487 1.053-1.69.421-5.37 1.289-6.677 1.565l-.049.01a32.31 32.31 0 0 1 1.189-5.418C-10.875 1.886-.253.044-.145.025z" style="fill:#826f77;fill-opacity:1;fill-rule:nonzero;stroke:none" transform="translate(516.252 300.227)"/><path d="m0 0-3.679 2.746 1.076 6.508-.045.05c-.378.428-7.037 6.214-7.451 6.352l-.065.01c-.632 0-9.497-4.178-10.506-4.655l-.066-.031-.013-.072c-.019-.101-1.831-10.23.983-16.107.835-1.745 2.716-2.92 4.052-3.047 1.53-.145 3.169.799 3.565 1.046l1.371-1.088-11.106-13.695 2.965-2.616.094.116c.049.061 4.911 6.111 6.524 8.035 1.614 1.924 6.317 7.477 6.364 7.533l.085.1-5.88 5.843-.096-.144c-.013-.019-1.276-1.875-2.951-1.876-.275 0-.55.051-.818.15-1.803.67-2.081 3.264-2.278 6.851-.099 3.483.562 5.996.677 6.401 2.355 1.208 5.988 2.977 6.5 2.977.39-.039 2.472-2.282 3.854-3.892l-.973-6.16 7.312-6.542L6.989-.624a32.221 32.221 0 0 1-1.363 4.405l-.024-.016C4.368 2.962.611.415 0 0" style="fill:#826f77;fill-opacity:1;fill-rule:nonzero;stroke:none" transform="translate(559.072 320.144)"/><path d="m0 0-13.36-1.05c.477 7.635 3.53 10.784 7.252 10.784C-.287 9.734-.095 3.244 0 0m13.36-5.726c-.095 7.062-.954 22.14-17.845 22.14-16.033 0-21.377-12.979-21.377-22.617 0-4.486 1.241-10.88 5.344-15.174 3.531-3.722 9.066-4.675 13.36-4.675 8.876 0 16.797 4.198 19.564 6.202.572.382.954.764.668 1.432l-1.622 4.771-.668.191c-4.104-2.481-8.78-3.913-13.647-3.913-5.63 0-9.448 2.291-10.402 9.83z" style="fill:#826f77;fill-opacity:1;fill-rule:nonzero;stroke:none" transform="translate(300.837 315.59)"/><path d="m0 0-10.704-25.403L-20.173 0h-13.838l16.987-40.272h9.381L11.573 0Z" style="fill:#826f77;fill-opacity:1;fill-rule:nonzero;stroke:none" transform="translate(347.635 330.954)"/><path d="m0 0 26.625 1.813c-.095 7.062-.954 22.14-17.845 22.14-16.033 0-21.377-12.978-21.377-22.617 0-4.485 1.241-10.879 5.344-15.174 3.531-3.721 9.066-4.676 13.361-4.676 8.875 0 16.795 4.2 19.563 6.204.573.382.954.763.668 1.431l-1.622 4.771-.668.191c-4.104-2.481-8.78-3.912-13.647-3.912C4.771-9.829.955-7.539 0 0m-.096 6.489c.478 7.635 3.531 10.784 7.254 10.784 5.821 0 6.011-6.489 6.107-9.734z" style="fill:#826f77;fill-opacity:1;fill-rule:nonzero;stroke:none" transform="translate(370.164 308.05)"/><path d="M0 0a12.852 12.852 0 0 0-2.619-.296c-2.195 0-2.291 1.241-2.195 3.531l.286 14.41c.096 4.199.096 6.871-1.336 9.925-1.24 2.576-5.248 5.917-14.028 5.917-3.818 0-11.357-.764-17.846-4.39-1.145-.764-1.431-1.05-1.336-2.1l.287-5.726 3.435-.858c1.336 1.431 4.676 5.153 12.215 5.153 1.145 0 3.722-.096 5.344-1.432 1.241-1.049 1.241-2.099 1.241-7.825-20.804-2.577-24.907-4.485-24.907-13.456 0-10.497 7.729-11.643 10.497-11.643 5.439 0 10.784 2.004 15.46 3.818.763-1.432 2.099-3.818 6.489-3.818 3.05 0 6.177.925 8.455 1.787L-.572-7c.859.478.955.859.955 1.718L.376-.288l-.381.286zm-16.552 1.136C-20.56.086-22.087-.296-24.854-.296c-3.818 0-4.963 1.241-4.963 4.485 0 3.245.859 3.722 3.817 4.39.764.191 4.676.954 9.448 1.623z" style="fill:#826f77;fill-opacity:1;fill-rule:nonzero;stroke:none" transform="translate(443.577 298.517)"/><path d="M0 0v24.717c0 4.866 0 8.588-1.908 11.452-1.432 2.194-4.581 5.153-10.211 5.153-5.822 0-11.548-2.768-16.415-5.917l.191 4.867h-12.31V0h12.31v27.675c1.622 1.24 5.917 4.199 10.689 4.199 5.439 0 5.439-3.436 5.439-9.925V0z" style="fill:#826f77;fill-opacity:1;fill-rule:nonzero;stroke:none" transform="translate(489.656 290.682)"/><path d="M0 0c-14.129 0-27.48 5.341-36.63 14.654l10.037 9.862C-20.071 17.878-10.379 14.07 0 14.07c10.271 0 19.899 3.743 26.418 10.269l9.955-9.943C27.235 5.247 13.978 0 0 0" style="fill:#826f77;fill-opacity:1;fill-rule:nonzero;stroke:none" transform="translate(534.47 261.76)"/><path d="m0 0 1.59.388c1.719.415 2.473.656 3.01.889.497.213 1.115.578 1.409 1.151.272.529.067 1.022-.511 1.32-.59.303-1.399.345-2.056.213l-.276 1.468c1.54.346 2.772-.127 3.635-.57.555-.286 1.333-.753 1.771-1.46.468-.762.363-1.499.112-1.985C8.444.947 7.99.538 7.517.26c-.496-.295-1.189-.528-2.326-.814l-1.807-.449 3.288-1.69-.779-1.515L-.479-.932z" style="fill:#fff;fill-opacity:1;fill-rule:nonzero;stroke:none" transform="translate(508.923 272.805)"/><path d="m0 0 4.614-1.396L3.8-2.767.968-1.91.309-2.942c.945-.311 1.684-.908 2.071-1.523.308-.478.564-1.216.275-2.173a2.692 2.692 0 0 0-1.551-1.733C.602-8.58-.271-8.776-1.54-8.393a7.333 7.333 0 0 0-2.986 1.8l1.125 1.165c.278-.358.891-1.016 1.636-1.242.354-.106.828-.126 1.157.036.219.108.436.341.526.637.127.422 0 .884-.29 1.245-.397.493-1.184.844-1.818 1.035l-.293.089z" style="fill:#fff;fill-opacity:1;fill-rule:nonzero;stroke:none" transform="translate(520.964 275.27)"/><path d="m0 0-.562-7.051c-.096-1.199-.553-1.963-1.037-2.414-.759-.703-1.864-.913-2.777-.816l.116 1.461a.96.96 0 0 1 .615.332c.141.156.324.524.399 1.473l.576 7.23z" style="fill:#fff;fill-opacity:1;fill-rule:nonzero;stroke:none" transform="translate(532.344 273.116)"/><path d="m0 0-1.034 2.522-.026-.001-.81-2.644Zm.271 5.044 3.905-8.1-2.838-.186-.844 1.949-2.774-.183-.684-2.05-2.099-.139 3.082 8.561z" style="fill:#fff;fill-opacity:1;fill-rule:nonzero;stroke:none" transform="translate(538.204 268.224)"/><path d="m0 0-1.521 2.26-.025-.007-.262-2.751Zm-.752 4.99 5.458-7.137-2.742-.756-1.22 1.738-2.681-.738-.256-2.145-2.03-.559 1.294 8.998z" style="fill:#fff;fill-opacity:1;fill-rule:nonzero;stroke:none" transform="translate(547.52 269.921)"/><path d="m0 0 .682.346c.261.133.53.308.655.652.114.312.059.672-.08.948-.189.371-.478.519-.713.56-.363.069-.705-.105-.909-.208l-.637-.323Zm-4.105 2.176 3.978 2.019c.58.294 1.275.5 2.053.321.693-.156 1.134-.574 1.409-1.116.302-.594.35-1.224.214-1.747A2.815 2.815 0 0 0 2.945.532l3.482-2.213-2.423-1.536L1.229-.873l-.625-.316 1.448-2.858-2.387-1.211Z" style="fill:#fff;fill-opacity:1;fill-rule:nonzero;stroke:none" transform="translate(554.195 273.794)"/><path d="m0 0 .708 1.063-.475 1.185a.121.121 0 0 0 .146.162l1.229-.344.981.817a.122.122 0 0 0 .2-.088l.052-1.276 1.08-.68a.122.122 0 0 0-.022-.217L2.702.178 2.389-1.06a.122.122 0 0 0-.214-.045L1.383-.104.109-.189A.122.122 0 0 0 0 0" style="fill:#fff;fill-opacity:1;fill-rule:nonzero;stroke:none" transform="translate(505.071 277.03)"/><path d="m0 0 .672 1.01a.12.12 0 0 1 .012.112L.233 2.248a.121.121 0 0 0 .146.162l1.168-.327a.12.12 0 0 1 .111.024l.931.776a.122.122 0 0 0 .2-.088l.049-1.212a.122.122 0 0 1 .057-.098L3.921.839a.122.122 0 0 0-.022-.217L2.762.2a.121.121 0 0 1-.076-.084L2.389-1.06a.122.122 0 0 0-.214-.045l-.752.951a.125.125 0 0 1-.103.046L.109-.189A.122.122 0 0 0 0 0" style="fill:#fff;fill-opacity:1;fill-rule:nonzero;stroke:none" transform="translate(560.008 277.03)"/></g></svg>
