<?xml version="1.0" encoding="UTF-8"?> <svg xmlns="http://www.w3.org/2000/svg" width="198" height="43" viewBox="0 0 198 43" fill="none"><path d="M129.31 4.14493C128.761 3.43407 127.698 4.1416 127.698 4.1416C127.309 4.52299 126.939 4.92501 126.541 5.29708C125.897 5.89878 125.238 6.48317 124.585 7.07356C124.547 7.1075 124.499 7.13014 124.438 7.16941C124.324 6.75008 124.224 6.34673 124.106 5.95003C123.713 4.64479 123.125 3.43873 122.248 2.39773C121.041 0.96403 119.533 0.11872 117.654 0.0135551C116.388 -0.057664 115.187 0.142681 114.093 0.83091C113.12 1.44193 112.391 2.27792 111.897 3.32291C111.464 4.23811 111.239 5.19724 111.247 6.22226C111.259 7.74315 111.752 9.05571 112.781 10.1633C113.778 11.2349 115.049 11.6975 116.44 11.8972C117.325 12.0243 118.213 11.9823 119.096 11.8945C120.077 11.7973 121.041 11.5903 121.978 11.2722C122.039 11.2515 122.103 11.2375 122.203 11.2103C122.171 11.6156 122.149 11.9843 122.111 12.3511C121.919 14.1808 121.617 15.9926 121.253 17.795C120.981 19.1475 120.703 20.4993 120.451 21.8558C120.28 22.7764 120.149 23.7042 119.998 24.64C119.671 24.4337 119.338 24.2094 118.991 24.0064C118.171 23.5285 117.358 23.0366 116.519 22.596C114.423 21.4951 112.397 20.277 110.463 18.9046C109.694 18.3594 108.967 17.7551 108.221 17.178C108.099 17.0848 107.978 16.9916 107.824 16.8732C108.155 16.6435 108.474 16.4558 108.754 16.2215C109.229 15.8242 109.718 15.4321 110.134 14.9749C111.055 13.9632 111.573 12.7405 111.773 11.38C111.963 10.0827 111.813 8.83007 111.308 7.61536C110.594 5.90144 109.023 4.88374 107.197 4.96295C105.659 5.03017 104.338 5.61656 103.201 6.64691C102.352 7.41634 101.729 8.33354 101.428 9.46705C101.129 10.5946 101.208 11.6975 101.587 12.7864C101.968 13.8753 102.583 14.8238 103.307 15.7057C103.337 15.7416 103.366 15.7769 103.389 15.8155C103.402 15.8342 103.402 15.8595 103.413 15.9074C103.172 15.9433 102.935 15.9906 102.695 16.0106C101.558 16.1064 100.419 16.1137 99.2807 16.0545C99.2807 16.0545 98.0975 16.2482 97.9904 17.2952C97.884 18.3421 99.2235 18.5352 99.2235 18.5352C100.351 18.4999 101.45 18.4899 102.547 18.422C103.462 18.3654 104.358 18.1631 105.242 17.9122C105.326 17.8889 105.458 17.9102 105.522 17.9647C107.151 19.3359 108.824 20.6498 110.64 21.7527C112.471 22.8656 114.34 23.9145 116.199 24.9808C117.468 25.7083 118.755 26.4025 120.017 27.1407C121.094 27.7703 122.029 27.172 122.245 26.1123C122.361 25.5459 122.342 24.9515 122.445 24.3811C122.717 22.8556 122.991 21.3293 123.321 19.8158C123.773 17.7411 124.323 15.6864 124.559 13.5705C124.668 12.5934 124.673 11.6043 124.722 10.6212C124.727 10.5127 124.711 10.4035 124.71 10.2944C124.708 10.0947 124.8 9.97823 124.968 9.8551C125.74 9.29133 126.494 8.70361 127.247 8.11589C127.548 7.88226 127.831 7.62734 128.166 7.34512C129.434 6.19963 129.859 4.85578 129.31 4.14493ZM106.187 15.0281C106.129 15.0574 106.009 15.0567 105.974 15.0175C105.243 14.2021 104.539 13.3635 104.042 12.3751C103.703 11.7001 103.461 10.9833 103.67 10.2225C103.779 9.82914 103.963 9.43311 104.202 9.10497C104.365 8.88132 104.54 8.67632 104.73 8.48995C105.042 8.18378 105.4 7.9435 105.785 7.74648C106.101 7.58407 106.433 7.44629 106.8 7.36309C106.912 7.33847 107.028 7.33913 107.142 7.32848C107.886 7.29054 108.552 7.60804 108.989 8.14451C109.164 8.35883 109.302 8.60843 109.393 8.88465C109.439 9.02243 109.473 9.16753 109.494 9.31729C109.648 10.4102 109.372 11.4173 108.909 12.3751C108.321 13.5871 107.37 14.4371 106.187 15.0281ZM122.17 8.35151C122.18 8.41541 122.092 8.53122 122.023 8.56583C121.301 8.92326 120.55 9.20281 119.76 9.36056C119.259 9.4604 118.752 9.52696 118.418 9.58087C117.217 9.61215 116.209 9.52496 115.278 9.03841C114.195 8.47132 113.482 7.61868 113.457 6.32476C113.441 5.44617 113.742 4.65344 114.232 3.93393C114.61 3.37749 115.096 2.95949 115.718 2.7079C116.439 2.41637 117.178 2.41969 117.923 2.59475C118.862 2.81573 119.718 3.21841 120.409 3.91063C121.155 4.65877 121.614 5.58728 121.862 6.61363C122 7.18471 122.081 7.76978 122.17 8.35151Z" fill="#E23447"></path><path d="M131.094 14.3719C131.094 21.1283 135.982 26.5856 142.766 26.5856C148.42 26.5856 151.546 23.0579 151.546 23.0579L150.648 22.0595C150.648 22.0595 147.755 25.2211 142.766 25.2211C136.913 25.2211 132.59 20.4288 132.59 14.3719C132.59 8.34819 136.947 3.8554 142.667 3.8554C147.323 3.8554 150.083 6.48451 150.083 6.48451L150.947 5.41955C150.947 5.41955 148.154 2.49092 142.633 2.49092C136.082 2.49092 131.094 7.61603 131.094 14.3719ZM155.038 21.76C155.038 25.088 157.998 26.5856 160.691 26.5856C165.015 26.5856 166.544 22.4922 166.511 22.4922H166.578C166.578 22.4922 166.445 23.0912 166.445 23.9898V26.1862H167.841V15.4368C167.841 11.2768 165.779 9.14691 161.955 9.14691C158.33 9.14691 156.335 10.9773 156.335 10.9773L157.133 12.1088C157.133 12.1088 158.995 10.5114 161.888 10.5114C164.549 10.5114 166.445 11.776 166.445 15.4701V16.0359H165.347C162.387 16.0359 155.038 16.1024 155.038 21.76ZM156.501 21.6602C156.501 17.3338 162.554 17.3338 165.38 17.3338H166.445V18.2323C166.445 21.527 164.383 25.2883 160.758 25.2883C157.931 25.2883 156.501 23.424 156.501 21.6602ZM173.461 26.1862H174.858V18.9978C174.858 17.8995 174.991 16.6682 175.356 15.5034C176.088 13.0407 177.718 10.8442 180.311 10.8442C180.677 10.8442 181.076 10.9107 181.076 10.9107V9.51299C181.076 9.51299 180.611 9.41315 180.112 9.41315C177.485 9.41315 175.622 11.5098 174.791 14.0723H174.725C174.725 14.0723 174.858 13.4733 174.858 12.7079V9.54627H173.461V26.1862ZM183.138 17.8995C183.138 23.191 187.029 26.5856 191.718 26.5856C195.31 26.5856 197.638 24.2899 197.638 24.2899L196.873 23.1251C196.873 23.1251 194.911 25.2211 191.718 25.2211C187.86 25.2211 184.601 22.4595 184.601 17.6333H197.937C197.937 17.6333 198.003 17.1008 198.003 16.7347C198.003 12.7079 195.742 9.14691 191.219 9.14691C186.963 9.14691 183.138 12.2752 183.138 17.8995ZM184.701 16.3354C185.3 12.4416 188.127 10.4448 191.186 10.4448C193.946 10.4448 196.374 12.2752 196.54 16.3354H184.701Z" fill="#E23447"></path><path d="M0 26.1862H14.2002V23.3241H3.29231V15.7696H11.706V12.9075H3.29231V5.55266H13.6348V2.69058H0V26.1862ZM24.3431 19.6301C24.3431 19.6301 24.6092 20.1625 24.842 20.5619L28.3671 26.1862H32.0252L26.3052 17.5334L31.7259 9.34657H28.0345L24.9085 14.4717C24.6424 14.9043 24.3431 15.4701 24.3431 15.4701H24.2766C24.2766 15.4701 23.9773 14.9043 23.7113 14.4717L20.5853 9.34657H16.8939L22.3145 17.5334L16.5946 26.1862H20.2527L23.7778 20.5619C24.0106 20.1625 24.2766 19.6301 24.2766 19.6301H24.3431ZM35.2843 32.8422H38.5101V25.2883C38.5101 24.4224 38.4435 23.8233 38.4435 23.8233H38.5101C38.5101 23.8233 39.9733 26.5856 43.6647 26.5856C48.0544 26.5856 51.2802 23.1251 51.2802 17.7664C51.2802 12.5414 48.4202 8.94721 43.8975 8.94721C39.674 8.94721 38.244 12.009 38.244 12.009H38.1775C38.1775 12.009 38.244 11.4432 38.244 10.7776V9.34657H35.2843V32.8422ZM38.4103 17.8329C38.4103 13.5398 40.7382 11.776 43.2656 11.776C46.0591 11.776 48.0212 14.1389 48.0212 17.7997C48.0212 21.6275 45.8263 23.8233 43.1658 23.8233C40.0731 23.8233 38.4103 20.8281 38.4103 17.8329ZM54.073 17.7664C54.073 22.7584 57.6979 26.5856 62.9856 26.5856C67.0095 26.5856 69.5037 24.1894 69.5037 24.1894L68.1734 21.8265C68.1734 21.8265 66.0783 23.7907 63.1851 23.7907C60.1921 23.7907 57.5649 21.9264 57.3986 18.2323H69.6699C69.6699 18.2323 69.7697 17.2672 69.7697 16.8346C69.7697 12.4749 67.2423 8.94721 62.4867 8.94721C57.6979 8.94721 54.073 12.4083 54.073 17.7664ZM57.4984 15.8029C57.964 13.0406 59.9593 11.5098 62.4202 11.5098C64.5818 11.5098 66.3776 12.9075 66.4774 15.8029H57.4984ZM73.6939 26.1862H76.9197V19.2973C76.9197 18.2656 77.0194 17.2339 77.3187 16.2688C78.0836 13.7728 79.9792 12.3085 82.0411 12.3085C82.5399 12.3085 82.9722 12.4083 82.9722 12.4083V9.21345C82.9722 9.21345 82.5731 9.14689 82.1408 9.14689C79.5469 9.14689 77.5848 11.0771 76.8199 13.5398H76.7534C76.7534 13.5398 76.8199 12.9741 76.8199 12.2752V9.34657H73.6939V26.1862ZM86.8631 20.0294C86.8631 25.6537 91.1531 26.3193 93.3147 26.3193C93.9798 26.3193 94.4454 26.2528 94.4454 26.2528V23.3907C94.4454 23.3907 94.1461 23.4579 93.6805 23.4579C92.4501 23.4579 90.0889 23.0246 90.0889 19.6633V12.1754H94.1461V9.57953H90.0889V4.72066H86.9629V9.57953H84.6683V12.1754H86.8631V20.0294Z" fill="#545759"></path><path d="M75.3932 32.5041C75.4178 32.6385 75.4344 32.8189 75.4424 33.0465C75.4504 33.2735 75.4531 33.5364 75.4504 33.8353C75.4477 34.1335 75.4398 34.443 75.4258 34.7631C75.4125 35.0839 75.3972 35.4054 75.3806 35.7289C75.3646 36.0517 75.3493 36.3532 75.336 36.6321C75.322 36.9117 75.3094 37.1579 75.2988 37.3716C75.2875 37.5853 75.2821 37.7417 75.2821 37.8402C75.2821 37.9666 75.334 38.0605 75.4384 38.1237C75.5422 38.187 75.6599 38.2222 75.7916 38.2302C75.9226 38.2382 76.0497 38.2209 76.1734 38.177C76.2964 38.1337 76.3769 38.0672 76.4155 37.98C76.5139 37.7497 76.6303 37.4741 76.764 37.154C76.8984 36.8338 77.0447 36.487 77.2036 36.115C77.3619 35.7422 77.5302 35.3562 77.7085 34.9561C77.886 34.5568 78.071 34.1634 78.2625 33.778C78.4541 33.3913 78.6483 33.0232 78.8451 32.6725C79.042 32.3224 79.2362 32.0069 79.4284 31.728C79.5049 31.6235 79.5428 31.525 79.5428 31.4318C79.5428 31.3386 79.5196 31.2567 79.473 31.1855C79.4265 31.115 79.3613 31.0557 79.2761 31.0091C79.1917 30.9626 79.1039 30.9379 79.0134 30.9353C78.923 30.9319 78.8332 30.9539 78.7427 31.0005C78.6523 31.0471 78.5798 31.1223 78.5252 31.2268C78.1913 31.8618 77.8368 32.556 77.4617 33.3095C77.0872 34.0622 76.7135 34.9102 76.3417 35.852C76.347 35.5838 76.3576 35.2836 76.3742 34.9522C76.3909 34.6207 76.4015 34.2839 76.4068 33.9418C76.4122 33.5997 76.4042 33.2655 76.3822 32.9394C76.3603 32.6146 76.3137 32.325 76.2426 32.0728C76.1714 31.8212 76.069 31.6182 75.9353 31.4651C75.8009 31.3113 75.6247 31.2348 75.4058 31.2348C75.1977 31.2348 75.0021 31.292 74.8185 31.4072C74.635 31.5223 74.4694 31.6661 74.3217 31.8385C74.1741 32.0109 74.0483 32.1966 73.9439 32.3929C73.8402 32.5906 73.7637 32.771 73.7145 32.9354C73.6872 33.1051 73.7091 33.2369 73.7803 33.3294C73.8508 33.4226 73.9399 33.4805 74.047 33.5025C74.1534 33.5244 74.2632 33.5131 74.3749 33.4692C74.4873 33.4259 74.5738 33.3541 74.6336 33.2555C74.6722 33.1683 74.7201 33.0698 74.7773 32.96C74.8352 32.8509 74.895 32.7477 74.9582 32.6518C75.0207 32.556 75.0813 32.4748 75.1385 32.4056C75.1963 32.3377 75.2442 32.3031 75.2821 32.3031C75.3313 32.3031 75.3686 32.3696 75.3932 32.5041ZM81.6486 33.6376C81.5661 33.4599 81.4557 33.3214 81.316 33.2236C81.1764 33.1244 81.0161 33.0665 80.8358 33.0505C80.6549 33.0339 80.4713 33.0585 80.2858 33.1244C80.061 33.201 79.8707 33.3254 79.7151 33.4978C79.5588 33.6709 79.4291 33.8706 79.3254 34.0982C79.2209 34.3252 79.1391 34.5701 79.0786 34.8337C79.0187 35.0959 78.9748 35.3548 78.9476 35.6098C78.9196 35.864 78.905 36.109 78.9023 36.3406C78.8997 36.5736 78.9037 36.7726 78.9143 36.9363C78.9309 37.2811 78.9981 37.5746 79.1158 37.8156C79.2336 38.0565 79.3932 38.2435 79.5961 38.374C79.7983 38.5058 80.0364 38.5777 80.3104 38.5916C80.5837 38.6056 80.8817 38.555 81.205 38.4399C81.4457 38.352 81.6552 38.2435 81.8328 38.1111C82.0111 37.98 82.1707 37.8196 82.313 37.6305C82.4554 37.4415 82.5857 37.2238 82.7035 36.9776C82.8205 36.7306 82.9396 36.4491 83.0606 36.1309C83.0819 36.0437 83.0613 35.9659 82.9988 35.8973C82.9356 35.8287 82.8591 35.7808 82.7686 35.7535C82.6789 35.7262 82.5924 35.7236 82.5106 35.7449C82.4281 35.7668 82.3762 35.8248 82.3543 35.9173C82.3104 36.093 82.2405 36.272 82.1448 36.4557C82.049 36.6394 81.9313 36.8132 81.7923 36.9776C81.6526 37.142 81.495 37.2871 81.32 37.4129C81.1444 37.5387 80.9615 37.6292 80.77 37.6838C80.5784 37.745 80.4195 37.751 80.2938 37.7044C80.1681 37.6578 80.0683 37.5793 79.9938 37.4668C79.92 37.355 79.8668 37.2185 79.8342 37.0594C79.8009 36.901 79.7816 36.7366 79.7763 36.5669C80.0882 36.5889 80.3663 36.5323 80.6097 36.3985C80.8531 36.264 81.06 36.0863 81.2296 35.864C81.3992 35.6424 81.5275 35.3934 81.6153 35.1166C81.7031 34.8403 81.7524 34.5648 81.763 34.2912C81.7683 34.0336 81.7304 33.816 81.6486 33.6376ZM80.8811 34.3897C80.8997 34.5481 80.8811 34.7179 80.8232 34.8989C80.766 35.0799 80.6629 35.2497 80.5152 35.4081C80.3676 35.5672 80.1681 35.671 79.916 35.7209C79.9053 35.6437 79.908 35.5425 79.9246 35.4167C79.9406 35.2903 79.9652 35.1578 79.9984 35.018C80.031 34.8783 80.0723 34.7425 80.1215 34.6114C80.1707 34.4796 80.2279 34.3664 80.2938 34.2706C80.3596 34.1747 80.4294 34.1062 80.5033 34.0649C80.5771 34.0236 80.6523 34.029 80.7287 34.0776C80.8112 34.1268 80.8618 34.2306 80.8811 34.3897ZM83.0107 37.9879C83.0407 37.9114 83.0886 37.7743 83.1544 37.5779C83.2196 37.3803 83.3074 37.1034 83.4171 36.7473C83.5262 36.3912 83.6765 35.9119 83.8687 35.3096C83.9778 35.3921 84.1095 35.4647 84.2625 35.5272C84.4155 35.5905 84.5551 35.649 84.6815 35.7043C84.5824 36.0983 84.5225 36.4943 84.5006 36.891C84.4787 37.2884 84.5305 37.6758 84.6569 38.0538C84.7168 38.2395 84.8139 38.392 84.9482 38.5098C85.0819 38.6276 85.2316 38.7095 85.3952 38.756C85.5595 38.8026 85.7277 38.8106 85.9 38.7807C86.0729 38.7507 86.2326 38.6835 86.3809 38.5797C86.5777 38.4426 86.75 38.2655 86.8977 38.0492C87.0453 37.8335 87.173 37.6032 87.2794 37.3596C87.3865 37.116 87.4723 36.8704 87.5382 36.6241C87.604 36.3779 87.6532 36.1529 87.6858 35.9506C87.7078 35.858 87.6845 35.7782 87.616 35.7123C87.5475 35.6464 87.4657 35.6051 87.3699 35.5891C87.2741 35.5725 87.181 35.5865 87.0906 35.6297C87.0001 35.6737 86.9416 35.7615 86.9143 35.8926C86.7281 36.6162 86.5339 37.136 86.331 37.4541C86.1288 37.7723 85.9126 37.9087 85.6825 37.8648C85.6113 37.8542 85.5568 37.8056 85.5189 37.721C85.4803 37.6358 85.4544 37.532 85.4404 37.4089C85.4271 37.2857 85.4224 37.15 85.4284 37.0022C85.4338 36.8544 85.4431 36.7107 85.457 36.5709C85.4703 36.4311 85.4883 36.304 85.5102 36.1888C85.5322 36.0737 85.5515 35.9858 85.5681 35.9259C85.6007 35.8221 85.6359 35.7242 85.6745 35.6344C85.7131 35.5439 85.7377 35.4587 85.7484 35.3795C85.7597 35.3003 85.7484 35.225 85.7158 35.1538C85.6825 35.0833 85.6113 35.0114 85.5023 34.9402C85.3433 34.8962 85.2023 34.8536 85.0793 34.8124C84.9562 34.7718 84.8411 34.7239 84.7347 34.6686C84.6276 34.614 84.5265 34.5468 84.4308 34.4676C84.335 34.3891 84.2379 34.2912 84.1394 34.1761C84.1614 34.0776 84.1614 33.9884 84.1394 33.9092C84.1175 33.8293 84.0829 33.7607 84.037 33.7035C83.9905 33.6463 83.9339 33.6023 83.8687 33.5724C83.8029 33.5418 83.7344 33.5244 83.6632 33.5185C83.5428 33.5078 83.4318 33.5404 83.3307 33.617C83.2296 33.6942 83.1677 33.82 83.1458 33.995C83.0034 34.7125 82.8764 35.3029 82.764 35.7655C82.6522 36.2288 82.5525 36.6008 82.4647 36.8837C82.3769 37.1653 82.3031 37.3803 82.2432 37.528C82.1827 37.6758 82.1335 37.7963 82.0956 37.8894C82.0676 37.9553 82.0869 38.0239 82.1527 38.0944C82.2186 38.1657 82.2991 38.2222 82.3948 38.2628C82.4906 38.3041 82.5891 38.3207 82.6902 38.3121C82.7919 38.3041 82.8697 38.2535 82.9243 38.1603C82.9516 38.1224 82.9801 38.0645 83.0107 37.9879ZM87.5009 34.0197C87.4843 34.2173 87.465 34.4729 87.4431 34.7878C87.4211 35.1032 87.3965 35.4613 87.3692 35.864C87.342 36.2667 87.312 36.6847 87.2788 37.1173C87.2462 37.55 87.2136 37.9813 87.1803 38.4113C87.1477 38.8406 87.1178 39.2426 87.0899 39.6147C87.0626 39.9867 87.0367 40.3142 87.0121 40.5964C86.9875 40.8786 86.9668 41.085 86.9509 41.2168C86.9396 41.3313 86.9808 41.4125 87.0739 41.4597C87.167 41.5056 87.2735 41.5289 87.3938 41.5289C87.5142 41.5289 87.628 41.507 87.7344 41.463C87.8415 41.4191 87.9027 41.3645 87.9193 41.2986H87.9273C87.9273 41.294 87.9286 41.278 87.9319 41.2534C87.9346 41.2287 87.9386 41.1795 87.9439 41.1056C87.9492 41.0317 87.9592 40.9259 87.9725 40.7895C87.9865 40.6523 88.0057 40.466 88.0304 40.231C88.055 39.9954 88.0836 39.7032 88.1162 39.3558C88.1494 39.0076 88.19 38.5877 88.2392 38.0944C88.486 38.2369 88.7553 38.3314 89.048 38.378C89.3406 38.4246 89.6406 38.4312 89.9472 38.3986C90.2538 38.366 90.5558 38.2961 90.8544 38.189C91.1524 38.0825 91.4344 37.948 91.6998 37.7869C91.9652 37.6252 92.2033 37.4382 92.4141 37.2238C92.625 37.0102 92.7959 36.7832 92.9269 36.5423C93.0094 36.4431 93.056 36.3306 93.0666 36.2008C93.0779 36.0724 93.0666 35.9572 93.034 35.856C93.0007 35.7549 92.9529 35.681 92.8903 35.6344C92.8272 35.5878 92.76 35.5971 92.6888 35.6637C92.4374 36.0517 92.1966 36.3519 91.9665 36.5622C91.737 36.7739 91.5069 36.9363 91.2768 37.0515C91.3918 36.7666 91.471 36.4431 91.5149 36.0817C91.5588 35.7209 91.5561 35.3702 91.5069 35.03C91.4577 34.6906 91.3579 34.3844 91.2069 34.1108C91.0566 33.8366 90.8471 33.6396 90.5791 33.5185C90.3549 33.4199 90.1275 33.3967 89.898 33.4486C89.6679 33.5018 89.4544 33.5957 89.2575 33.7321C89.0606 33.8692 88.8864 34.0336 88.736 34.2253C88.5857 34.417 88.48 34.606 88.4201 34.7924L88.5019 33.7734C88.5132 33.6695 88.472 33.5817 88.3789 33.5105C88.2858 33.4392 88.1807 33.3953 88.0629 33.3793C87.9452 33.3634 87.8315 33.378 87.7224 33.4239C87.6127 33.4705 87.5468 33.5624 87.5255 33.6995C87.5255 33.7161 87.5169 33.8226 87.5009 34.0197ZM90.6163 35.03C90.6516 35.2657 90.6582 35.5139 90.6369 35.7742C90.615 36.0338 90.5698 36.2847 90.5013 36.5256C90.4327 36.7666 90.3549 36.9503 90.2671 37.0761C90.1574 37.2292 90.0137 37.347 89.8361 37.4295C89.6586 37.5114 89.479 37.55 89.2987 37.544C89.1178 37.5387 88.9549 37.4828 88.8099 37.3756C88.6649 37.2691 88.5704 37.1034 88.5265 36.8791C88.5106 36.7093 88.5312 36.519 88.5884 36.308C88.6456 36.097 88.7254 35.8873 88.8265 35.6797C88.9276 35.4713 89.0453 35.275 89.1797 35.0879C89.3134 34.9016 89.4517 34.7505 89.594 34.632C89.7364 34.5142 89.876 34.4403 90.0131 34.4104C90.1494 34.3797 90.2724 34.4143 90.3822 34.5129C90.5026 34.6227 90.5804 34.7951 90.6163 35.03ZM94.7985 31.099C94.5711 31.1622 94.3689 31.2761 94.1906 31.4405C94.013 31.6042 93.8581 31.8112 93.727 32.0601C93.5954 32.3097 93.4836 32.582 93.3905 32.8781C93.314 33.1138 93.2508 33.3574 93.2016 33.609C93.1524 33.8619 93.1112 34.1142 93.0786 34.3691C93.046 34.6233 93.0227 34.8756 93.0087 35.1245C92.9954 35.3741 92.9881 35.6111 92.9881 35.8354C92.9881 36.2081 93.032 36.5542 93.1198 36.8744C93.2069 37.1952 93.336 37.4648 93.5056 37.6838C93.6752 37.9028 93.886 38.0592 94.1374 38.1524C94.3895 38.2455 94.6795 38.2482 95.0074 38.1603C95.3413 38.0731 95.6698 37.8894 95.9931 37.6099C96.2006 37.4348 96.3908 37.2252 96.5631 36.9816C96.736 36.738 96.8823 36.4684 97.0027 36.1722C97.0134 36.063 96.9834 35.9765 96.9123 35.9133C96.8411 35.8507 96.7593 35.8094 96.6662 35.7901C96.5731 35.7708 96.4839 35.7728 96.3995 35.7941C96.3143 35.8161 96.2638 35.858 96.2472 35.9173C96.1654 36.1036 96.049 36.2913 95.8986 36.4804C95.7477 36.6694 95.5854 36.8351 95.4098 36.9776C95.2728 37.0867 95.1364 37.1719 94.9994 37.2318C94.8624 37.2924 94.7327 37.3184 94.6097 37.3104C94.4866 37.3017 94.3782 37.2525 94.2851 37.1619C94.192 37.0721 94.1235 36.9257 94.0802 36.7226C94.337 36.3998 94.5837 36.0451 94.8192 35.659C95.054 35.273 95.2635 34.8809 95.447 34.4842C95.6299 34.0869 95.7796 33.6995 95.8947 33.3214C96.0091 32.9434 96.0776 32.5999 96.0995 32.2904C96.1215 31.9809 96.0915 31.7207 96.0091 31.5103C95.9272 31.2993 95.7763 31.1662 95.5574 31.1116C95.2788 31.0404 95.0253 31.0364 94.7985 31.099ZM95.1431 32.1966C95.157 32.2838 95.1511 32.3976 95.1264 32.5367C95.1018 32.6765 95.0613 32.8382 95.0034 33.0219C94.9462 33.205 94.8764 33.398 94.7946 33.601C94.7287 33.7707 94.6562 33.9438 94.5764 34.1182C94.4972 34.2939 94.4154 34.4623 94.3303 34.6233C94.2452 34.7851 94.1607 34.9375 94.0762 35.0799C93.9911 35.2224 93.9106 35.3455 93.8335 35.4494C93.8335 35.3781 93.8434 35.273 93.8627 35.1332C93.8814 34.9934 93.9086 34.8357 93.9445 34.6606C93.9798 34.4856 94.021 34.2965 94.0676 34.0935C94.1141 33.8912 94.1674 33.6915 94.2279 33.4938C94.2824 33.3021 94.3429 33.1178 94.4081 32.9394C94.474 32.7617 94.5411 32.6066 94.6097 32.4761C94.6782 32.3437 94.748 32.2398 94.8192 32.1633C94.8897 32.0874 94.9582 32.0508 95.024 32.0561C95.0899 32.0621 95.1291 32.1087 95.1431 32.1966ZM99.3951 33.6376C99.3133 33.4599 99.2023 33.3214 99.0626 33.2236C98.9229 33.1244 98.7633 33.0665 98.5824 33.0505C98.4021 33.0339 98.2186 33.0585 98.0323 33.1244C97.8082 33.201 97.618 33.3254 97.4617 33.4978C97.306 33.6709 97.1757 33.8706 97.0719 34.0982C96.9681 34.3252 96.8857 34.5701 96.8258 34.8337C96.7653 35.0959 96.7214 35.3548 96.6941 35.6098C96.6669 35.864 96.6516 36.109 96.6489 36.3406C96.6462 36.5736 96.6502 36.7726 96.6615 36.9363C96.6782 37.2811 96.7447 37.5746 96.8624 37.8156C96.9801 38.0565 97.1404 38.2435 97.3426 38.374C97.5455 38.5058 97.7836 38.5777 98.0569 38.5916C98.3303 38.6056 98.6289 38.555 98.9522 38.4399C99.193 38.352 99.4018 38.2435 99.58 38.1111C99.7576 37.98 99.9173 37.8196 100.06 37.6305C100.203 37.4415 100.332 37.2238 100.45 36.9776C100.568 36.7306 100.687 36.4491 100.807 36.1309C100.828 36.0437 100.809 35.9659 100.745 35.8973C100.683 35.8287 100.606 35.7808 100.516 35.7535C100.425 35.7262 100.339 35.7236 100.257 35.7449C100.175 35.7668 100.123 35.8248 100.101 35.9173C100.057 36.093 99.9878 36.272 99.8913 36.4557C99.7962 36.6394 99.6785 36.8132 99.5388 36.9776C99.3991 37.142 99.2422 37.2871 99.0666 37.4129C98.8917 37.5387 98.7081 37.6292 98.5165 37.6838C98.325 37.745 98.1667 37.751 98.0403 37.7044C97.9146 37.6578 97.8148 37.5793 97.741 37.4668C97.6672 37.355 97.614 37.2185 97.5807 37.0594C97.5481 36.901 97.5288 36.7366 97.5235 36.5669C97.8355 36.5889 98.1128 36.5323 98.3569 36.3985C98.6003 36.264 98.8065 36.0863 98.9768 35.864C99.1457 35.6424 99.2748 35.3934 99.3626 35.1166C99.4497 34.8403 99.4989 34.5648 99.5102 34.2912C99.5155 34.0336 99.477 33.816 99.3951 33.6376ZM98.6276 34.3897C98.6469 34.5481 98.6276 34.7179 98.5704 34.8989C98.5125 35.0799 98.4101 35.2497 98.2625 35.4081C98.1148 35.5672 97.9146 35.671 97.6632 35.7209C97.6519 35.6437 97.6545 35.5425 97.6712 35.4167C97.6878 35.2903 97.7124 35.1578 97.745 35.018C97.7776 34.8783 97.8188 34.7425 97.868 34.6114C97.9173 34.4796 97.9751 34.3664 98.0403 34.2706C98.1062 34.1747 98.176 34.1062 98.2498 34.0649C98.3236 34.0236 98.3988 34.029 98.476 34.0776C98.5578 34.1268 98.6083 34.2306 98.6276 34.3897ZM102.284 33.5764C101.992 33.6423 101.723 33.772 101.48 33.9664C101.236 34.1608 101.029 34.4077 100.856 34.7059C100.683 35.0047 100.567 35.3395 100.507 35.7123C100.441 36.1123 100.439 36.5063 100.498 36.895C100.559 37.2844 100.69 37.6072 100.893 37.8648C101.013 38.0179 101.161 38.1224 101.336 38.177C101.512 38.2316 101.692 38.2509 101.882 38.2342C102.071 38.2182 102.256 38.1717 102.436 38.0944C102.617 38.0179 102.775 37.9247 102.912 37.8156V38.0126C102.612 38.1437 102.34 38.3281 102.099 38.563C101.858 38.7986 101.654 39.0589 101.484 39.3431C101.314 39.628 101.188 39.9228 101.106 40.2264C101.023 40.5305 100.996 40.8127 101.023 41.0737C101.051 41.3326 101.136 41.5549 101.279 41.7386C101.421 41.9216 101.632 42.0381 101.91 42.0874C102.151 42.1313 102.365 42.1 102.55 41.9929C102.737 41.8864 102.9 41.7326 103.04 41.5329C103.179 41.3326 103.295 41.0996 103.388 40.8307C103.482 40.5618 103.557 40.2856 103.615 40.0007C103.672 39.7158 103.712 39.4376 103.738 39.1667C103.762 38.8958 103.771 38.6562 103.766 38.4479C104.16 38.2395 104.519 37.9786 104.846 37.6631C105.171 37.3483 105.449 36.9443 105.678 36.4517C105.717 36.3586 105.717 36.268 105.678 36.1802C105.641 36.093 105.585 36.0238 105.511 35.9712C105.437 35.9193 105.357 35.8886 105.273 35.8807C105.188 35.8727 105.12 35.9013 105.071 35.9672C104.929 36.2521 104.792 36.4844 104.661 36.6654C104.53 36.8458 104.407 36.9922 104.295 37.1054C104.183 37.2179 104.082 37.2977 103.991 37.347C103.902 37.3962 103.825 37.4322 103.766 37.4541C103.761 37.4541 103.764 37.3816 103.774 37.2365C103.786 37.0914 103.798 36.9077 103.815 36.686C103.832 36.4637 103.849 36.2161 103.869 35.9426C103.888 35.6683 103.905 35.4068 103.922 35.1578C103.939 34.9082 103.954 34.6839 103.967 34.4842C103.981 34.2839 103.99 34.1428 103.996 34.0609C103.996 33.8473 103.958 33.6902 103.881 33.5883C103.804 33.4872 103.718 33.4273 103.623 33.408C103.527 33.3893 103.434 33.4026 103.347 33.4486C103.26 33.4952 103.205 33.5544 103.184 33.6256C102.877 33.5278 102.576 33.5105 102.284 33.5764ZM101.537 37.0801C101.491 36.9516 101.46 36.8052 101.447 36.6408C101.433 36.4764 101.433 36.3173 101.447 36.1642C101.46 36.0111 101.473 35.9013 101.484 35.8354C101.561 35.4414 101.728 35.1166 101.984 34.8616C102.242 34.6074 102.559 34.4583 102.936 34.4143C102.942 34.5674 102.941 34.7458 102.933 34.9482C102.925 35.1512 102.906 35.3615 102.876 35.5811C102.845 35.8001 102.801 36.0151 102.743 36.2254C102.686 36.4364 102.614 36.6241 102.526 36.7885C102.438 36.9529 102.332 37.0814 102.207 37.1746C102.08 37.2678 101.933 37.3057 101.763 37.2897C101.659 37.2784 101.584 37.2085 101.537 37.0801ZM101.874 41.0444C101.854 40.9399 101.858 40.8127 101.885 40.6623C101.913 40.5112 101.964 40.3468 102.038 40.1691C102.112 39.9914 102.198 39.817 102.297 39.6473C102.395 39.4776 102.502 39.3251 102.617 39.1874C102.732 39.0502 102.846 38.9517 102.961 38.8918C102.956 38.9737 102.944 39.0902 102.925 39.2413C102.906 39.391 102.878 39.5541 102.842 39.7298C102.807 39.9049 102.763 40.0839 102.711 40.2676C102.659 40.4513 102.599 40.6157 102.53 40.7608C102.462 40.9059 102.387 41.0224 102.305 41.1096C102.223 41.1975 102.135 41.2327 102.042 41.2168C101.949 41.2055 101.893 41.1482 101.874 41.0444ZM108.219 33.6376C108.137 33.4599 108.026 33.3214 107.887 33.2236C107.747 33.1244 107.587 33.0665 107.406 33.0505C107.226 33.0339 107.043 33.0585 106.856 33.1244C106.632 33.201 106.442 33.3254 106.286 33.4978C106.13 33.6709 106 33.8706 105.896 34.0982C105.792 34.3252 105.709 34.5701 105.65 34.8337C105.589 35.0959 105.545 35.3548 105.518 35.6098C105.491 35.864 105.476 36.109 105.473 36.3406C105.47 36.5736 105.474 36.7726 105.485 36.9363C105.502 37.2811 105.568 37.5746 105.686 37.8156C105.804 38.0565 105.964 38.2435 106.167 38.374C106.37 38.5058 106.608 38.5777 106.881 38.5916C107.155 38.6056 107.452 38.555 107.776 38.4399C108.017 38.352 108.226 38.2435 108.404 38.1111C108.582 37.98 108.742 37.8196 108.884 37.6305C109.027 37.4415 109.156 37.2238 109.274 36.9776C109.392 36.7306 109.511 36.4491 109.631 36.1309C109.653 36.0437 109.633 35.9659 109.57 35.8973C109.506 35.8287 109.43 35.7808 109.339 35.7535C109.249 35.7262 109.164 35.7236 109.081 35.7449C108.999 35.7668 108.947 35.8248 108.925 35.9173C108.882 36.093 108.811 36.272 108.716 36.4557C108.62 36.6394 108.503 36.8132 108.363 36.9776C108.223 37.142 108.066 37.2871 107.891 37.4129C107.716 37.5387 107.532 37.6292 107.341 37.6838C107.148 37.745 106.991 37.751 106.865 37.7044C106.739 37.6578 106.639 37.5793 106.565 37.4668C106.491 37.355 106.438 37.2185 106.405 37.0594C106.372 36.901 106.353 36.7366 106.347 36.5669C106.66 36.5889 106.938 36.5323 107.181 36.3985C107.424 36.264 107.631 36.0863 107.801 35.864C107.97 35.6424 108.099 35.3934 108.187 35.1166C108.274 34.8403 108.323 34.5648 108.334 34.2912C108.339 34.0336 108.302 33.816 108.219 33.6376ZM107.452 34.3897C107.471 34.5481 107.452 34.7179 107.394 34.8989C107.337 35.0799 107.234 35.2497 107.087 35.4081C106.939 35.5672 106.739 35.671 106.487 35.7209C106.476 35.6437 106.479 35.5425 106.495 35.4167C106.511 35.2903 106.536 35.1578 106.568 35.018C106.602 34.8783 106.643 34.7425 106.692 34.6114C106.741 34.4796 106.799 34.3664 106.865 34.2706C106.93 34.1747 107 34.1062 107.074 34.0649C107.147 34.0236 107.223 34.029 107.3 34.0776C107.382 34.1268 107.432 34.2306 107.452 34.3897ZM109.31 35.8853C109.285 36.3013 109.263 36.6341 109.241 36.8837C109.219 37.132 109.202 37.321 109.192 37.4495C109.181 37.5793 109.178 37.6924 109.184 37.7909C109.211 37.944 109.275 38.0485 109.376 38.1038C109.477 38.1577 109.583 38.1796 109.692 38.1683C109.802 38.1577 109.903 38.1237 109.996 38.0658C110.089 38.0086 110.143 37.9414 110.161 37.8648C110.166 37.6951 110.189 37.4881 110.23 37.2451C110.271 37.0009 110.327 36.7499 110.399 36.4923C110.469 36.2354 110.554 35.9832 110.653 35.7369C110.751 35.4906 110.86 35.273 110.977 35.0839C111.095 34.8949 111.222 34.7511 111.359 34.6526C111.496 34.5541 111.637 34.5235 111.786 34.5621C111.895 34.5894 111.966 34.6593 111.998 34.7718C112.032 34.8836 112.046 35.022 112.04 35.1864C112.035 35.3508 112.016 35.5346 111.983 35.7369C111.95 35.9392 111.92 36.1476 111.893 36.3612C111.865 36.5749 111.849 36.7845 111.843 36.9896C111.838 37.1952 111.859 37.3849 111.909 37.5566C111.958 37.729 112.042 37.8768 112.159 37.9999C112.276 38.1237 112.445 38.2069 112.663 38.2509C112.883 38.2948 113.092 38.2688 113.292 38.173C113.492 38.0778 113.676 37.9334 113.847 37.7417C114.016 37.55 114.171 37.3184 114.31 37.0475C114.45 36.7759 114.572 36.4844 114.675 36.1722C114.709 36.0737 114.695 35.9778 114.634 35.8853C114.574 35.7915 114.501 35.7216 114.412 35.675C114.325 35.6291 114.236 35.6124 114.146 35.6257C114.056 35.6397 113.996 35.7043 113.969 35.8188C113.904 36.0763 113.825 36.2993 113.732 36.4884C113.639 36.6774 113.543 36.8338 113.444 36.9569C113.346 37.0801 113.247 37.1693 113.153 37.2238C113.057 37.2784 112.967 37.3004 112.885 37.2897C112.836 37.2844 112.81 37.2305 112.808 37.1293C112.804 37.0282 112.813 36.895 112.832 36.7306C112.852 36.5669 112.875 36.3792 112.902 36.1682C112.93 35.9572 112.95 35.7409 112.964 35.5192C112.977 35.2976 112.979 35.0766 112.967 34.8576C112.957 34.6393 112.922 34.4376 112.86 34.2539C112.801 34.0702 112.709 33.9145 112.586 33.7854C112.463 33.6569 112.3 33.571 112.098 33.5278C111.901 33.4885 111.717 33.4925 111.548 33.5391C111.378 33.5857 111.223 33.6596 111.083 33.7607C110.944 33.8626 110.814 33.979 110.694 34.1108C110.574 34.242 110.464 34.3731 110.365 34.5049V34.3238C110.36 34.1428 110.312 34.0037 110.222 33.9045C110.131 33.806 110.029 33.7527 109.914 33.7448C109.799 33.7361 109.69 33.7734 109.586 33.8552C109.482 33.9378 109.416 34.0689 109.388 34.2506C109.361 34.9235 109.335 35.4693 109.31 35.8853ZM117.261 38.2262C117.359 38.2981 117.471 38.3381 117.597 38.3494C117.723 38.36 117.842 38.3381 117.954 38.2835C118.066 38.2289 118.131 38.1337 118.147 37.9959C118.163 37.739 118.195 37.4648 118.242 37.1746C118.288 36.8851 118.345 36.5968 118.414 36.312C118.482 36.0271 118.56 35.7562 118.648 35.4993C118.735 35.241 118.832 35.0141 118.939 34.817C119.046 34.6194 119.157 34.4623 119.272 34.3445C119.387 34.2267 119.507 34.1674 119.633 34.1674C119.786 34.1674 119.905 34.2373 119.99 34.3771C120.075 34.5169 120.135 34.6966 120.171 34.9155C120.207 35.1345 120.222 35.3741 120.22 35.6344C120.217 35.8946 120.207 36.1449 120.187 36.3865C120.168 36.6268 120.145 36.8418 120.121 37.0308C120.097 37.2198 120.079 37.3496 120.068 37.4209C120.068 37.5473 120.116 37.6472 120.212 37.721C120.308 37.7949 120.414 37.8389 120.532 37.8522C120.65 37.8661 120.761 37.8442 120.864 37.7869C120.968 37.729 121.029 37.6325 121.045 37.4954C121.1 37.1007 121.174 36.7047 121.271 36.308C121.366 35.9106 121.476 35.5545 121.599 35.2397C121.722 34.9249 121.859 34.6673 122.01 34.4676C122.16 34.2679 122.32 34.1674 122.49 34.1674C122.578 34.1674 122.645 34.228 122.691 34.3485C122.737 34.4689 122.761 34.6333 122.761 34.8417C122.761 34.9948 122.749 35.1525 122.723 35.3136C122.699 35.4753 122.67 35.6424 122.638 35.8148C122.605 35.9872 122.576 36.1642 122.552 36.3446C122.527 36.5256 122.514 36.7147 122.514 36.9117C122.514 37.0488 122.528 37.2072 122.556 37.3882C122.583 37.5686 122.635 37.7403 122.711 37.9014C122.789 38.0632 122.893 38.2003 123.027 38.3121C123.162 38.4246 123.332 38.4805 123.541 38.4805C123.853 38.4805 124.129 38.4139 124.37 38.2795C124.61 38.1457 124.817 37.97 124.99 37.7537C125.162 37.5373 125.306 37.2951 125.421 37.0268C125.535 36.7586 125.626 36.4897 125.691 36.2215C125.708 36.101 125.69 35.9985 125.639 35.9133C125.586 35.8287 125.521 35.7695 125.44 35.7369C125.362 35.7043 125.28 35.6983 125.195 35.7209C125.109 35.7422 125.049 35.8001 125.01 35.8926C124.961 36.0025 124.894 36.1549 124.809 36.3492C124.724 36.5436 124.626 36.734 124.514 36.9197C124.401 37.1067 124.276 37.2624 124.139 37.3882C124.003 37.514 123.86 37.558 123.713 37.5194C123.626 37.4981 123.578 37.3962 123.569 37.2165C123.561 37.0348 123.571 36.8105 123.598 36.5423C123.626 36.274 123.657 35.9832 123.692 35.671C123.728 35.3595 123.746 35.0606 123.746 34.7764C123.746 34.5295 123.7 34.2925 123.607 34.0649C123.513 33.8379 123.386 33.6489 123.224 33.4978C123.063 33.3474 122.876 33.2476 122.662 33.1983C122.448 33.149 122.219 33.1817 121.973 33.2968C121.726 33.412 121.53 33.5737 121.386 33.7814C121.241 33.9897 121.108 34.2087 120.987 34.439C120.943 34.2639 120.88 34.1009 120.795 33.9498C120.71 33.7993 120.606 33.6682 120.482 33.5557C120.36 33.4432 120.221 33.356 120.068 33.2928C119.915 33.2296 119.754 33.1983 119.584 33.1983C119.42 33.1983 119.268 33.2296 119.128 33.2928C118.989 33.356 118.862 33.4366 118.747 33.5351C118.632 33.6336 118.528 33.7448 118.435 33.8679C118.342 33.991 118.259 34.1128 118.188 34.2333C118.177 34.0909 118.165 33.9664 118.151 33.8606C118.137 33.7527 118.113 33.6622 118.078 33.5883C118.041 33.5145 117.991 33.4586 117.925 33.4199C117.86 33.382 117.766 33.3634 117.647 33.3634C117.586 33.3634 117.526 33.3747 117.466 33.3993C117.405 33.4239 117.352 33.4586 117.306 33.5025C117.259 33.5464 117.224 33.5997 117.199 33.6622C117.174 33.7255 117.168 33.798 117.178 33.8799C117.183 33.9404 117.199 34.013 117.224 34.0982C117.248 34.1827 117.271 34.2939 117.293 34.4303C117.315 34.5674 117.333 34.7332 117.346 34.9275C117.361 35.1219 117.365 35.3602 117.359 35.6424C117.354 35.9246 117.333 36.2547 117.297 36.6321C117.262 37.0102 117.206 37.4488 117.128 37.9467C117.118 38.0618 117.162 38.155 117.261 38.2262ZM128.092 33.6376C128.01 33.4599 127.899 33.3214 127.76 33.2236C127.621 33.1244 127.46 33.0665 127.28 33.0505C127.099 33.0339 126.916 33.0585 126.73 33.1244C126.505 33.201 126.315 33.3254 126.159 33.4978C126.003 33.6709 125.873 33.8706 125.769 34.0982C125.664 34.3252 125.583 34.5701 125.522 34.8337C125.462 35.0959 125.419 35.3548 125.392 35.6098C125.364 35.864 125.349 36.109 125.347 36.3406C125.344 36.5736 125.348 36.7726 125.358 36.9363C125.375 37.2811 125.442 37.5746 125.56 37.8156C125.678 38.0565 125.837 38.2435 126.04 38.374C126.242 38.5058 126.481 38.5777 126.755 38.5916C127.028 38.6056 127.325 38.555 127.649 38.4399C127.89 38.352 128.099 38.2435 128.277 38.1111C128.455 37.98 128.615 37.8196 128.757 37.6305C128.9 37.4415 129.03 37.2238 129.148 36.9776C129.264 36.7306 129.384 36.4491 129.504 36.1309C129.526 36.0437 129.505 35.9659 129.443 35.8973C129.38 35.8287 129.303 35.7808 129.213 35.7535C129.123 35.7262 129.037 35.7236 128.954 35.7449C128.872 35.7668 128.82 35.8248 128.798 35.9173C128.755 36.093 128.684 36.272 128.589 36.4557C128.493 36.6394 128.375 36.8132 128.236 36.9776C128.097 37.142 127.939 37.2871 127.764 37.4129C127.589 37.5387 127.406 37.6292 127.214 37.6838C127.022 37.745 126.864 37.751 126.738 37.7044C126.612 37.6578 126.512 37.5793 126.437 37.4668C126.364 37.355 126.311 37.2185 126.278 37.0594C126.244 36.901 126.226 36.7366 126.22 36.5669C126.532 36.5889 126.81 36.5323 127.054 36.3985C127.297 36.264 127.504 36.0863 127.674 35.864C127.843 35.6424 127.972 35.3934 128.06 35.1166C128.147 34.8403 128.197 34.5648 128.207 34.2912C128.212 34.0336 128.175 33.816 128.092 33.6376ZM127.324 34.3897C127.344 34.5481 127.324 34.7179 127.267 34.8989C127.21 35.0799 127.107 35.2497 126.959 35.4081C126.812 35.5672 126.612 35.671 126.36 35.7209C126.35 35.6437 126.352 35.5425 126.368 35.4167C126.384 35.2903 126.409 35.1578 126.443 35.018C126.475 34.8783 126.516 34.7425 126.566 34.6114C126.615 34.4796 126.672 34.3664 126.738 34.2706C126.804 34.1747 126.874 34.1062 126.947 34.0649C127.021 34.0236 127.096 34.029 127.173 34.0776C127.255 34.1268 127.305 34.2306 127.324 34.3897ZM129.347 33.8799C129.422 33.8859 129.492 33.8859 129.557 33.8799C129.503 34.22 129.452 34.5621 129.405 34.9069C129.359 35.2523 129.326 35.5851 129.307 35.9053C129.288 36.2254 129.29 36.5256 129.315 36.8052C129.34 37.0841 129.397 37.3283 129.487 37.536C129.578 37.745 129.708 37.9074 129.881 38.0246C130.054 38.1424 130.28 38.2016 130.559 38.2016C130.931 38.2016 131.259 38.1484 131.544 38.0412C131.829 37.9347 132.073 37.7856 132.279 37.5932C132.484 37.4022 132.653 37.1733 132.788 36.9077C132.921 36.6421 133.025 36.3479 133.096 36.0251C133.117 35.9259 133.091 35.8394 133.017 35.7655C132.943 35.6916 132.856 35.6437 132.755 35.6217C132.653 35.5998 132.556 35.6111 132.463 35.655C132.369 35.6983 132.315 35.7888 132.299 35.9259C132.25 36.1995 132.168 36.4245 132.053 36.5995C131.938 36.7746 131.809 36.9143 131.667 37.0182C131.525 37.1227 131.374 37.1952 131.215 37.2365C131.057 37.2771 130.909 37.2951 130.773 37.2897C130.619 37.2844 130.506 37.2132 130.436 37.0761C130.365 36.939 130.32 36.7639 130.304 36.5509C130.288 36.3366 130.29 36.0996 130.312 35.8394C130.334 35.5791 130.365 35.3236 130.402 35.0713C130.441 34.8197 130.479 34.5867 130.518 34.3731C130.556 34.1594 130.581 33.995 130.592 33.8799H131.971C132.075 33.8366 132.151 33.7641 132.2 33.6622C132.25 33.5611 132.272 33.4585 132.266 33.354C132.261 33.2509 132.229 33.157 132.172 33.0752C132.115 32.9926 132.034 32.9467 131.93 32.9354H130.723L130.961 31.5057C130.977 31.3473 130.945 31.2308 130.862 31.1569C130.781 31.083 130.683 31.0418 130.571 31.0338C130.459 31.0251 130.351 31.0484 130.247 31.1037C130.143 31.1582 130.077 31.2374 130.05 31.3413L129.762 32.9354C129.637 32.9467 129.533 32.9467 129.45 32.9354C129.368 32.9247 129.264 32.9247 129.138 32.9354C129.035 32.9574 128.954 33.0166 128.896 33.1124C128.839 33.2076 128.808 33.3095 128.802 33.4166C128.796 33.5231 128.82 33.623 128.875 33.7161C128.93 33.8093 129.019 33.8639 129.138 33.8799C129.204 33.8745 129.274 33.8745 129.347 33.8799ZM138.308 33.6376C138.226 33.4599 138.115 33.3214 137.975 33.2236C137.835 33.1244 137.676 33.0665 137.494 33.0505C137.315 33.0339 137.131 33.0585 136.945 33.1244C136.72 33.201 136.53 33.3254 136.374 33.4978C136.218 33.6709 136.088 33.8706 135.984 34.0982C135.881 34.3252 135.798 34.5701 135.738 34.8337C135.678 35.0959 135.634 35.3548 135.607 35.6098C135.579 35.864 135.564 36.109 135.561 36.3406C135.558 36.5736 135.563 36.7726 135.574 36.9363C135.59 37.2811 135.657 37.5746 135.775 37.8156C135.893 38.0565 136.052 38.2435 136.255 38.374C136.458 38.5058 136.696 38.5777 136.969 38.5916C137.243 38.6056 137.541 38.555 137.864 38.4399C138.104 38.352 138.314 38.2435 138.492 38.1111C138.67 37.98 138.83 37.8196 138.973 37.6305C139.115 37.4415 139.245 37.2238 139.362 36.9776C139.48 36.7306 139.599 36.4491 139.72 36.1309C139.741 36.0437 139.721 35.9659 139.657 35.8973C139.595 35.8287 139.518 35.7808 139.428 35.7535C139.338 35.7262 139.251 35.7236 139.17 35.7449C139.088 35.7668 139.035 35.8248 139.013 35.9173C138.97 36.093 138.9 36.272 138.804 36.4557C138.709 36.6394 138.591 36.8132 138.451 36.9776C138.312 37.142 138.155 37.2871 137.979 37.4129C137.804 37.5387 137.621 37.6292 137.429 37.6838C137.237 37.745 137.078 37.751 136.953 37.7044C136.827 37.6578 136.727 37.5793 136.653 37.4668C136.579 37.355 136.526 37.2185 136.493 37.0594C136.461 36.901 136.441 36.7366 136.436 36.5669C136.747 36.5889 137.025 36.5323 137.269 36.3985C137.513 36.264 137.718 36.0863 137.889 35.864C138.058 35.6424 138.187 35.3934 138.275 35.1166C138.362 34.8403 138.411 34.5648 138.423 34.2912C138.428 34.0336 138.389 33.816 138.308 33.6376ZM137.54 34.3897C137.559 34.5481 137.54 34.7179 137.483 34.8989C137.425 35.0799 137.323 35.2497 137.175 35.4081C137.027 35.5672 136.827 35.671 136.576 35.7209C136.564 35.6437 136.567 35.5425 136.583 35.4167C136.6 35.2903 136.625 35.1578 136.657 35.018C136.689 34.8783 136.731 34.7425 136.78 34.6114C136.829 34.4796 136.887 34.3664 136.953 34.2706C137.019 34.1747 137.088 34.1062 137.162 34.0649C137.236 34.0236 137.311 34.029 137.388 34.0776C137.47 34.1268 137.521 34.2306 137.54 34.3897ZM142.121 33.6376C142.038 33.4599 141.927 33.3214 141.788 33.2236C141.648 33.1244 141.488 33.0665 141.308 33.0505C141.126 33.0339 140.943 33.0585 140.758 33.1244C140.533 33.201 140.343 33.3254 140.187 33.4978C140.031 33.6709 139.901 33.8706 139.796 34.0982C139.693 34.3252 139.611 34.5701 139.551 34.8337C139.49 35.0959 139.447 35.3548 139.42 35.6098C139.392 35.864 139.377 36.109 139.374 36.3406C139.372 36.5736 139.376 36.7726 139.386 36.9363C139.403 37.2811 139.47 37.5746 139.588 37.8156C139.706 38.0565 139.865 38.2435 140.068 38.374C140.27 38.5058 140.508 38.5777 140.782 38.5916C141.056 38.6056 141.354 38.555 141.677 38.4399C141.918 38.352 142.127 38.2435 142.305 38.1111C142.483 37.98 142.643 37.8196 142.785 37.6305C142.927 37.4415 143.058 37.2238 143.175 36.9776C143.293 36.7306 143.412 36.4491 143.533 36.1309C143.554 36.0437 143.533 35.9659 143.471 35.8973C143.408 35.8287 143.331 35.7808 143.241 35.7535C143.15 35.7262 143.064 35.7236 142.982 35.7449C142.9 35.7668 142.848 35.8248 142.826 35.9173C142.782 36.093 142.713 36.272 142.617 36.4557C142.521 36.6394 142.403 36.8132 142.264 36.9776C142.124 37.142 141.967 37.2871 141.791 37.4129C141.617 37.5387 141.433 37.6292 141.242 37.6838C141.051 37.745 140.892 37.751 140.765 37.7044C140.64 37.6578 140.54 37.5793 140.466 37.4668C140.392 37.355 140.339 37.2185 140.306 37.0594C140.273 36.901 140.254 36.7366 140.248 36.5669C140.56 36.5889 140.838 36.5323 141.082 36.3985C141.325 36.264 141.532 36.0863 141.702 35.864C141.871 35.6424 142 35.3934 142.087 35.1166C142.175 34.8403 142.224 34.5648 142.234 34.2912C142.24 34.0336 142.202 33.816 142.121 33.6376ZM141.352 34.3897C141.372 34.5481 141.352 34.7179 141.295 34.8989C141.237 35.0799 141.135 35.2497 140.987 35.4081C140.84 35.5672 140.64 35.671 140.388 35.7209C140.377 35.6437 140.379 35.5425 140.397 35.4167C140.413 35.2903 140.437 35.1578 140.471 35.018C140.503 34.8783 140.544 34.7425 140.594 34.6114C140.643 34.4796 140.7 34.3664 140.765 34.2706C140.832 34.1747 140.902 34.1062 140.975 34.0649C141.049 34.0236 141.124 34.029 141.201 34.0776C141.283 34.1268 141.334 34.2306 141.352 34.3897ZM143.211 35.8853C143.187 36.3013 143.164 36.6341 143.142 36.8837C143.12 37.132 143.104 37.321 143.092 37.4495C143.082 37.5793 143.079 37.6924 143.084 37.7909C143.112 37.944 143.176 38.0485 143.277 38.1038C143.378 38.1577 143.484 38.1796 143.593 38.1683C143.702 38.1577 143.804 38.1237 143.897 38.0658C143.99 38.0086 144.045 37.9414 144.061 37.8648C144.067 37.6951 144.089 37.4881 144.131 37.2451C144.172 37.0009 144.228 36.7499 144.3 36.4923C144.37 36.2354 144.455 35.9832 144.554 35.7369C144.653 35.4906 144.761 35.273 144.878 35.0839C144.996 34.8949 145.123 34.7511 145.26 34.6526C145.397 34.5541 145.539 34.5235 145.687 34.5621C145.796 34.5894 145.867 34.6593 145.901 34.7718C145.933 34.8836 145.946 35.022 145.941 35.1864C145.936 35.3508 145.916 35.5346 145.884 35.7369C145.851 35.9392 145.821 36.1476 145.793 36.3612C145.766 36.5749 145.75 36.7845 145.744 36.9896C145.739 37.1952 145.761 37.3849 145.809 37.5566C145.859 37.729 145.942 37.8768 146.059 37.9999C146.178 38.1237 146.346 38.2069 146.566 38.2509C146.784 38.2948 146.993 38.2688 147.193 38.173C147.393 38.0778 147.578 37.9334 147.747 37.7417C147.916 37.55 148.071 37.3184 148.211 37.0475C148.351 36.7759 148.472 36.4844 148.577 36.1722C148.609 36.0737 148.596 35.9778 148.536 35.8853C148.475 35.7915 148.401 35.7216 148.314 35.675C148.226 35.6291 148.137 35.6124 148.047 35.6257C147.957 35.6397 147.898 35.7043 147.871 35.8188C147.804 36.0763 147.726 36.2993 147.632 36.4884C147.539 36.6774 147.443 36.8338 147.345 36.9569C147.247 37.0801 147.15 37.1693 147.054 37.2238C146.958 37.2784 146.869 37.3004 146.787 37.2897C146.738 37.2844 146.712 37.2305 146.709 37.1293C146.706 37.0282 146.715 36.895 146.734 36.7306C146.752 36.5669 146.776 36.3792 146.803 36.1682C146.831 35.9572 146.851 35.7409 146.864 35.5192C146.878 35.2976 146.88 35.0766 146.869 34.8576C146.858 34.6393 146.822 34.4376 146.763 34.2539C146.702 34.0702 146.61 33.9145 146.487 33.7854C146.363 33.6569 146.201 33.571 145.999 33.5278C145.802 33.4885 145.618 33.4925 145.448 33.5391C145.279 33.5857 145.124 33.6596 144.985 33.7607C144.846 33.8626 144.715 33.979 144.595 34.1108C144.475 34.242 144.365 34.3731 144.266 34.5049V34.3238C144.261 34.1428 144.213 34.0037 144.123 33.9045C144.033 33.806 143.93 33.7527 143.815 33.7448C143.7 33.7361 143.59 33.7734 143.487 33.8552C143.382 33.9378 143.317 34.0689 143.289 34.2506C143.261 34.9235 143.236 35.4693 143.211 35.8853ZM154.375 38.378C154.536 38.3314 154.69 38.2535 154.836 38.1437C154.98 38.0345 155.114 37.9014 155.237 37.7457C155.36 37.5893 155.476 37.4282 155.583 37.2611C155.689 37.094 155.785 36.9296 155.874 36.7679C155.961 36.6068 156.038 36.4651 156.104 36.3446C156.159 36.2135 156.169 36.0957 156.137 35.9918C156.104 35.8873 156.05 35.8081 155.976 35.7535C155.903 35.6983 155.821 35.6737 155.73 35.6797C155.64 35.685 155.562 35.7289 155.496 35.8108C155.474 35.8654 155.438 35.9426 155.386 36.0411C155.333 36.1396 155.271 36.2481 155.197 36.3652C155.122 36.483 155.045 36.6022 154.963 36.7226C154.88 36.8431 154.8 36.9529 154.721 37.0515C154.641 37.15 154.566 37.2278 154.498 37.2857C154.429 37.343 154.373 37.3689 154.33 37.3636C154.303 37.2485 154.296 37.1054 154.31 36.9323C154.324 36.7599 154.345 36.5736 154.375 36.3739C154.405 36.1735 154.437 35.9672 154.47 35.7535C154.503 35.5399 154.523 35.3329 154.532 35.1332C154.539 34.9329 154.529 34.7491 154.498 34.5788C154.469 34.409 154.41 34.2666 154.322 34.1514C154.246 34.0583 154.142 33.9897 154.01 33.9458C153.879 33.9018 153.728 33.8845 153.559 33.8925C153.389 33.9005 153.209 33.9364 153.021 33.9997C152.832 34.0622 152.645 34.1514 152.458 34.2666L152.934 31.5057C152.961 31.4291 152.957 31.3566 152.923 31.288C152.887 31.2195 152.834 31.1609 152.763 31.1116C152.691 31.0624 152.611 31.0265 152.52 31.0052C152.43 30.9832 152.342 30.9799 152.258 30.9965C152.173 31.0131 152.096 31.0511 152.028 31.1116C151.959 31.1722 151.917 31.2594 151.901 31.3746C151.796 32.0209 151.705 32.5933 151.625 33.0918C151.545 33.5897 151.475 34.0363 151.412 34.4303C151.349 34.825 151.293 35.1785 151.243 35.4906C151.194 35.8028 151.15 36.0957 151.108 36.3692C151.067 36.6434 151.031 36.909 150.997 37.1666C150.964 37.4235 150.929 37.6951 150.891 37.98C150.864 38.0785 150.891 38.155 150.973 38.2096C151.055 38.2642 151.152 38.2948 151.264 38.3001C151.376 38.3054 151.483 38.2848 151.585 38.2382C151.685 38.1916 151.744 38.1191 151.761 38.0212L152.196 35.5891C152.212 35.5066 152.269 35.4121 152.368 35.3056C152.467 35.1984 152.584 35.0999 152.721 35.0101C152.858 34.9195 153.002 34.8496 153.152 34.8004C153.303 34.7511 153.441 34.7458 153.567 34.7838C153.654 34.811 153.697 34.9109 153.694 35.0839C153.692 35.2563 153.671 35.466 153.632 35.7123C153.595 35.9585 153.551 36.2254 153.501 36.513C153.452 36.8005 153.424 37.0721 153.419 37.3263C153.414 37.5813 153.442 37.8042 153.505 37.9959C153.567 38.1876 153.69 38.3108 153.871 38.366C154.046 38.4206 154.214 38.4246 154.375 38.378ZM157.56 37.9959C157.696 37.936 157.823 37.8648 157.938 37.7823C158.053 37.7004 158.154 37.6139 158.242 37.524C158.33 37.4335 158.398 37.3583 158.447 37.2977C158.485 37.4954 158.548 37.6618 158.636 37.7989C158.723 37.936 158.823 38.0485 158.935 38.1357C159.048 38.2236 159.165 38.2875 159.289 38.3287C159.412 38.37 159.531 38.3906 159.646 38.3906C159.902 38.3906 160.143 38.3028 160.368 38.1277C160.592 37.952 160.794 37.737 160.971 37.4828C161.149 37.2278 161.296 36.9596 161.41 36.6774C161.525 36.3958 161.602 36.1449 161.64 35.9259C161.679 35.8434 161.672 35.7575 161.62 35.667C161.568 35.5765 161.499 35.5099 161.414 35.466C161.329 35.4221 161.242 35.4121 161.152 35.4367C161.062 35.4613 160.997 35.5452 160.959 35.6876C160.937 35.8407 160.888 36.0218 160.811 36.2301C160.735 36.4378 160.64 36.6361 160.528 36.8212C160.415 37.0075 160.287 37.1619 160.142 37.2857C159.996 37.4089 159.843 37.4648 159.678 37.4541C159.541 37.4428 159.445 37.3729 159.39 37.2451C159.336 37.116 159.307 36.9543 159.305 36.7599C159.302 36.5656 159.321 36.3459 159.362 36.1023C159.404 35.8594 159.453 35.6164 159.51 35.3755C159.568 35.1345 159.626 34.9029 159.686 34.6813C159.747 34.4596 159.796 34.2719 159.834 34.1182C159.878 33.9817 159.865 33.8652 159.793 33.7694C159.722 33.6735 159.633 33.605 159.526 33.5637C159.419 33.5231 159.312 33.5118 159.202 33.5311C159.093 33.5504 159.022 33.609 158.989 33.7075C158.666 33.4286 158.355 33.2782 158.056 33.2555C157.759 33.2342 157.483 33.2995 157.232 33.4532C156.979 33.6063 156.757 33.828 156.562 34.1182C156.368 34.409 156.211 34.7252 156.09 35.0673C155.97 35.4094 155.895 35.7589 155.865 36.115C155.835 36.471 155.858 36.7952 155.935 37.0881C156.012 37.3816 156.147 37.6212 156.341 37.8069C156.535 37.9939 156.8 38.0865 157.134 38.0865C157.281 38.0865 157.423 38.0565 157.56 37.9959ZM156.923 36.8791C156.878 36.7692 156.853 36.6295 156.85 36.4597C156.848 36.29 156.862 36.1036 156.895 35.9013C156.928 35.6983 156.978 35.4999 157.047 35.3056C157.115 35.1112 157.199 34.9315 157.298 34.7671C157.396 34.6034 157.509 34.4756 157.638 34.3857C157.767 34.2952 157.908 34.2526 158.061 34.2579C158.214 34.2639 158.379 34.3405 158.554 34.4882C158.543 34.5594 158.524 34.6759 158.496 34.837C158.469 34.9994 158.432 35.1771 158.385 35.3715C158.338 35.5658 158.28 35.7668 158.209 35.9752C158.138 36.1835 158.05 36.3705 157.946 36.5376C157.842 36.7047 157.723 36.8378 157.589 36.9363C157.455 37.0348 157.301 37.0761 157.125 37.0594C157.038 37.0488 156.971 36.9882 156.923 36.8791ZM161.591 37.9879C161.62 37.9114 161.669 37.7743 161.734 37.5779C161.799 37.3803 161.888 37.1034 161.996 36.7473C162.106 36.3912 162.257 35.9119 162.449 35.3096C162.558 35.3921 162.689 35.4647 162.843 35.5272C162.996 35.5905 163.136 35.649 163.261 35.7043C163.163 36.0983 163.102 36.4943 163.081 36.891C163.059 37.2884 163.111 37.6758 163.237 38.0538C163.296 38.2395 163.394 38.392 163.528 38.5098C163.662 38.6276 163.811 38.7095 163.976 38.756C164.14 38.8026 164.308 38.8106 164.48 38.7807C164.652 38.7507 164.813 38.6835 164.96 38.5797C165.158 38.4426 165.33 38.2655 165.478 38.0492C165.625 37.8335 165.753 37.6032 165.86 37.3596C165.966 37.116 166.053 36.8704 166.118 36.6241C166.184 36.3779 166.232 36.1529 166.266 35.9506C166.287 35.858 166.264 35.7782 166.196 35.7123C166.128 35.6464 166.045 35.6051 165.95 35.5891C165.854 35.5725 165.76 35.5865 165.671 35.6297C165.581 35.6737 165.521 35.7615 165.494 35.8926C165.309 36.6162 165.114 37.136 164.911 37.4541C164.708 37.7723 164.493 37.9087 164.263 37.8648C164.192 37.8542 164.137 37.8056 164.098 37.721C164.06 37.6358 164.034 37.532 164.021 37.4089C164.007 37.2857 164.003 37.15 164.008 37.0022C164.014 36.8544 164.024 36.7107 164.037 36.5709C164.051 36.4311 164.069 36.304 164.091 36.1888C164.112 36.0737 164.131 35.9858 164.148 35.9259C164.181 35.8221 164.216 35.7242 164.255 35.6344C164.292 35.5439 164.318 35.4587 164.329 35.3795C164.339 35.3003 164.329 35.225 164.295 35.1538C164.263 35.0833 164.192 35.0114 164.082 34.9402C163.924 34.8962 163.783 34.8536 163.659 34.8124C163.537 34.7718 163.422 34.7239 163.315 34.6686C163.208 34.614 163.106 34.5468 163.011 34.4676C162.915 34.3891 162.818 34.2912 162.719 34.1761C162.741 34.0776 162.741 33.9884 162.719 33.9092C162.697 33.8293 162.663 33.7607 162.617 33.7035C162.57 33.6463 162.514 33.6023 162.449 33.5724C162.382 33.5418 162.314 33.5244 162.243 33.5185C162.123 33.5078 162.012 33.5404 161.91 33.617C161.809 33.6942 161.748 33.82 161.726 33.995C161.584 34.7125 161.457 35.3029 161.344 35.7655C161.232 36.2288 161.132 36.6008 161.044 36.8837C160.957 37.1653 160.883 37.3803 160.823 37.528C160.763 37.6758 160.714 37.7963 160.675 37.8894C160.648 37.9553 160.667 38.0239 160.733 38.0944C160.798 38.1657 160.88 38.2222 160.975 38.2628C161.071 38.3041 161.17 38.3207 161.271 38.3121C161.372 38.3041 161.45 38.2535 161.505 38.1603C161.532 38.1224 161.561 38.0645 161.591 37.9879ZM165.954 33.8799C166.028 33.8859 166.097 33.8859 166.163 33.8799C166.108 34.22 166.057 34.5621 166.01 34.9069C165.964 35.2523 165.931 35.5851 165.912 35.9053C165.893 36.2254 165.896 36.5256 165.92 36.8052C165.945 37.0841 166.003 37.3283 166.093 37.536C166.183 37.745 166.315 37.9074 166.487 38.0246C166.659 38.1424 166.886 38.2016 167.164 38.2016C167.536 38.2016 167.865 38.1484 168.15 38.0412C168.434 37.9347 168.679 37.7856 168.884 37.5932C169.089 37.4022 169.259 37.1733 169.392 36.9077C169.527 36.6421 169.63 36.3479 169.701 36.0251C169.723 35.9259 169.696 35.8394 169.623 35.7655C169.549 35.6916 169.462 35.6437 169.36 35.6217C169.259 35.5998 169.162 35.6111 169.069 35.655C168.975 35.6983 168.921 35.7888 168.905 35.9259C168.856 36.1995 168.774 36.4245 168.659 36.5995C168.544 36.7746 168.415 36.9143 168.273 37.0182C168.131 37.1227 167.979 37.1952 167.821 37.2365C167.662 37.2771 167.515 37.2951 167.378 37.2897C167.225 37.2844 167.112 37.2132 167.041 37.0761C166.97 36.939 166.925 36.7639 166.91 36.5509C166.893 36.3366 166.896 36.0996 166.918 35.8394C166.94 35.5791 166.97 35.3236 167.008 35.0713C167.046 34.8197 167.085 34.5867 167.124 34.3731C167.162 34.1594 167.186 33.995 167.197 33.8799H168.576C168.681 33.8366 168.756 33.7641 168.806 33.6622C168.856 33.5611 168.878 33.4585 168.872 33.354C168.866 33.2509 168.835 33.157 168.778 33.0752C168.72 32.9926 168.639 32.9467 168.535 32.9354H167.328L167.566 31.5057C167.583 31.3473 167.55 31.2308 167.468 31.1569C167.386 31.083 167.288 31.0418 167.176 31.0338C167.064 31.0251 166.956 31.0484 166.852 31.1037C166.749 31.1582 166.683 31.2374 166.655 31.3413L166.368 32.9354C166.242 32.9467 166.139 32.9467 166.056 32.9354C165.974 32.9247 165.87 32.9247 165.744 32.9354C165.64 32.9574 165.559 33.0166 165.502 33.1124C165.445 33.2076 165.413 33.3095 165.408 33.4166C165.402 33.5231 165.427 33.623 165.481 33.7161C165.536 33.8093 165.623 33.8639 165.744 33.8799C165.81 33.8745 165.88 33.8745 165.954 33.8799Z" fill="#E23447"></path></svg> 