<svg width="109" height="38" viewBox="0 0 109 38" xmlns="http://www.w3.org/2000/svg" fill="white">
    <path d="M25.1844 1.0003V9.2518H24.9291C24.4866 8.4283 21.2543 3.5128 14.619 3.5128H9.40811V18.0208H12.1661C18.1625 18.0208 19.7801 15.9673 20.552 15.4978H20.8072V22.8448H20.552C19.7786 22.3903 18.1625 20.2693 12.1661 20.2693H9.40811V28.6963C9.40811 32.2693 10.6331 36.1588 10.7856 36.7903V37.0003H0.12207V36.7903C0.274622 36.1603 1.49957 32.2708 1.49957 28.6963V9.30431C1.49957 5.7313 0.274622 1.8418 0.12207 1.2103V1.0003H25.1844ZM32.735 0.151304C30.2488 0.151304 28.2339 2.1523 28.2339 4.6213C28.2339 7.0903 30.2488 9.0913 32.735 9.0913C35.2211 9.0913 37.236 7.0903 37.236 4.6213C37.236 2.1523 35.2211 0.151304 32.735 0.151304ZM28.0361 36.7903C28.1388 36.1603 29.3622 32.2708 29.3622 28.6963V19.4293C29.3622 15.8563 28.1886 11.9668 28.0361 11.3353V11.1253H36.7618V28.6963C36.7618 32.2693 37.9867 36.1588 38.1393 36.7903V37.0003H28.0361V36.7903ZM108.875 33.1633C108.519 35.5813 106.631 37.3678 103.722 37.3678C100.967 37.3678 99.0785 35.8963 98.3641 33.2683C97.0878 35.3173 94.5367 37.4728 90.6081 37.4728C85.2507 37.4728 82.393 33.2683 82.393 29.1688C82.393 23.5453 87.8018 20.1823 93.9748 20.7598C95.301 20.8123 96.8839 21.0748 98.1073 21.5488V18.4483C98.1073 14.6638 97.2403 12.5098 95.4535 12.5098C92.4433 12.5098 85.1978 18.5008 84.5846 19.3948H84.3293V12.1423C88.8198 10.8283 93.1048 10.1983 95.9112 10.1983C102.646 10.1983 105.555 13.8778 105.555 18.9223V29.8003C105.555 32.7958 106.422 34.1098 108.769 33.0058L108.875 33.1633ZM98.1088 23.1253C97.8022 23.1253 97.4458 23.1253 97.038 23.0728C92.4463 22.4953 90.1505 24.9643 90.1505 28.1188C90.1505 31.1143 91.9871 33.2698 94.6908 33.2698C95.9671 33.2698 97.1407 32.6923 98.1088 31.6408V30.9058V23.1253ZM77.8617 28.6558V0.112305H74.3228L74.1627 0.386805L70.4123 6.83681V28.0543C69.3158 29.0488 66.6106 31.0693 63.2363 31.1533C61.4827 31.1968 59.2096 30.7093 57.3563 29.2963L56.1374 31.3933L53.689 35.6008H53.6905C55.1677 36.5923 57.3563 37.4728 60.3832 37.4728C66.6786 37.4728 69.6209 32.0923 70.4123 30.3748C70.4229 34.0228 71.8427 35.6503 72.3517 36.9598H79.1894V36.7498C79.0368 36.1198 77.8617 32.2303 77.8617 28.6558ZM67.3718 12.0688L63.7061 18.3778C61.8543 16.9618 59.5796 16.4728 57.8245 16.5163C54.4502 16.6018 51.7451 18.6208 50.65 19.6153V28.6963C50.65 32.2693 51.875 36.1588 52.0275 36.7903V37.0003H41.9244V36.7903C42.0256 36.1603 43.2505 32.2708 43.2505 28.6963V19.4293C43.2505 15.8563 42.0256 11.9668 41.9244 11.3353V11.1253H50.65V17.2948C51.44 15.5788 54.3823 10.1968 60.6777 10.1968C63.7076 10.1968 65.8947 11.0788 67.3718 12.0688Z" />
</svg>
