<svg width="200" height="133" xmlns="http://www.w3.org/2000/svg" xmlns:xlink="http://www.w3.org/1999/xlink"><defs><path id="a" d="M0 132.314h199.614V.31H0z"/></defs><g fill="none" fill-rule="evenodd"><path fill="#D91E57" d="M40.931 111.112H53.45v-1.873H40.931zM9.073 107.465v-7.841H3.765v7.841H.785V89.784h2.98v7.167h5.308v-7.167h2.978v17.681zM35.871 107.465L30.84 94.978h-.075l.05 12.487H28.11V89.784h3.43l4.982 12.562h.076l-.026-12.562h2.604v17.681zM18.488 100.653l1.764-7.058h.178l1.478 5.913-3.42 1.145zm3.717-10.869h-3.728l-2.966 11.866-2.488.833.78 2.319 1.004-.336-.75 3h2.728l1-3.998 4.718-1.58 1.394 5.578h2.728l-4.42-17.682z"/><g transform="translate(0 .376)"><path d="M66.47 103.443c-.2.816-.526 1.528-.977 2.135a4.737 4.737 0 0 1-1.74 1.436c-.71.35-1.574.524-2.59.524-1.02 0-1.88-.174-2.58-.524a4.648 4.648 0 0 1-1.715-1.436c-.442-.607-.76-1.32-.951-2.135a11.43 11.43 0 0 1-.288-2.622V89.407h3.004v11.139c0 .55.038 1.078.113 1.585.075.51.208.954.4 1.337.192.383.455.687.79.911.333.225.759.338 1.276.338s.943-.113 1.277-.338c.334-.224.596-.528.789-.91.191-.384.325-.829.4-1.338.075-.507.113-1.036.113-1.585V89.407h2.979v11.414c0 .933-.1 1.807-.3 2.622M77.585 107.09l-5.032-12.488h-.075l.05 12.487h-2.703V89.407h3.43l4.981 12.562h.076l-.026-12.562h2.605v17.682z" fill="#FFFFFE"/><mask id="b" fill="#fff"><use xlink:href="#a"/></mask><path fill="#FFFFFE" mask="url(#b)" d="M84.082 107.09h3.005V89.408h-3.005zM96.978 107.09h-3.805l-4.331-17.683h3.354l2.955 14.186h.075l2.954-14.186h3.205zM103.142 107.09V89.406h7.936v2.648h-5.057v4.695h4.682v2.447h-4.682v5.22h5.308v2.672zM120.788 94.602c0-.533-.076-.974-.226-1.324a2.157 2.157 0 0 0-.588-.824c-.243-.2-.513-.34-.814-.424-.3-.083-.6-.125-.901-.125h-1.703v5.444h1.703c.734 0 1.34-.229 1.815-.687.476-.457.714-1.144.714-2.06zm.2 12.487l-2.754-7.542h-1.678v7.542h-2.904V89.408h5.057c.734 0 1.41.096 2.029.287a4.038 4.038 0 0 1 1.59.911c.441.417.788.941 1.038 1.573.25.634.376 1.391.376 2.273 0 .683-.088 1.287-.263 1.81-.175.526-.397.97-.664 1.337a3.728 3.728 0 0 1-.888.887 3.089 3.089 0 0 1-.964.461l3.18 8.142h-3.155zM133.556 92.829c-.651-.782-1.47-1.174-2.454-1.174-.284 0-.56.046-.826.137-.268.092-.51.238-.726.438a2.06 2.06 0 0 0-.513.774c-.125.316-.189.69-.189 1.124 0 .749.226 1.327.677 1.735.45.408 1.043.796 1.778 1.162.433.216.876.466 1.326.749.45.283.86.624 1.227 1.024.367.4.667.874.902 1.423.233.55.35 1.199.35 1.948 0 .866-.137 1.632-.413 2.298a5.116 5.116 0 0 1-1.102 1.686c-.459.458-.997.803-1.615 1.036a5.483 5.483 0 0 1-1.952.35 6.46 6.46 0 0 1-2.73-.575c-.834-.383-1.501-.865-2.002-1.449l1.627-2.197c.384.466.847.832 1.39 1.098.542.268 1.097.4 1.664.4.635 0 1.16-.216 1.578-.648.417-.434.626-1.041.626-1.824 0-.765-.251-1.374-.751-1.823-.501-.45-1.136-.865-1.903-1.25-.484-.232-.939-.49-1.365-.773a5.201 5.201 0 0 1-1.126-1.011 4.578 4.578 0 0 1-.777-1.374c-.192-.525-.288-1.153-.288-1.886 0-.915.147-1.702.439-2.36a4.82 4.82 0 0 1 1.151-1.636 4.653 4.653 0 0 1 1.615-.96 5.563 5.563 0 0 1 1.828-.313c.901 0 1.706.146 2.416.437.71.292 1.306.72 1.79 1.286l-1.652 2.148zM137.403 107.09h3.005V89.408h-3.005zM148.392 91.955v15.134h-2.955V91.955h-3.33v-2.548h9.615v2.548zM159.943 100.321v6.769h-2.954v-6.769l-4.431-10.914h3.255l2.653 7.893.075-.05 2.705-7.843h3.179zM9.664 123c0-.9-.071-1.745-.213-2.535-.142-.791-.35-1.474-.626-2.049-.275-.574-.617-1.027-1.026-1.36-.41-.333-.88-.5-1.415-.5-.55 0-1.03.167-1.44.5-.409.333-.75.786-1.026 1.36-.275.575-.48 1.258-.613 2.049-.134.79-.2 1.635-.2 2.534 0 .9.066 1.744.2 2.535.133.791.338 1.478.613 2.06.276.583.617 1.041 1.026 1.374.41.333.89.5 1.44.5.55 0 1.03-.167 1.44-.5.408-.333.751-.79 1.026-1.373.276-.583.48-1.27.613-2.061.134-.79.201-1.635.201-2.535m3.104 0c0 1.399-.146 2.669-.438 3.809-.291 1.14-.713 2.119-1.264 2.934-.551.816-1.223 1.448-2.016 1.898-.792.45-1.682.674-2.666.674-1.001 0-1.895-.224-2.679-.674-.785-.45-1.452-1.082-2.003-1.898-.55-.815-.972-1.794-1.264-2.934-.292-1.14-.438-2.41-.438-3.809 0-1.398.142-2.663.425-3.796.284-1.132.702-2.106 1.252-2.922.551-.815 1.223-1.444 2.016-1.885.792-.441 1.69-.662 2.691-.662.984 0 1.874.22 2.666.662.793.44 1.465 1.07 2.016 1.885.55.816.973 1.79 1.264 2.922.292 1.133.438 2.398.438 3.796M18.301 116.88v4.846h4.557v2.547h-4.532v7.592h-3.03v-17.681h7.937v2.697zM35.676 117.006h-.1l-1.928 8.765h3.906l-1.878-8.765zm3.13 14.86l-.877-3.747h-4.656l-.902 3.746h-3.004l4.406-17.681h3.831l4.331 17.681h-3.13zM50.74 119.44c0-.944-.225-1.631-.675-2.063-.451-.43-1.027-.646-1.728-.646h-1.702v5.594h1.702c.701 0 1.277-.244 1.728-.734.45-.488.675-1.205.675-2.15m2.83-.038c0 .899-.137 1.686-.412 2.36-.275.674-.636 1.236-1.086 1.686-.448.45-.964.783-1.546.999a5.11 5.11 0 0 1-1.796.325h-2.095v7.092H43.68v-17.681h4.894c.566 0 1.149.083 1.748.249.6.166 1.136.454 1.61.862.475.408.867.945 1.174 1.61.308.666.462 1.5.462 2.498M62.668 119.44c0-.944-.226-1.631-.676-2.063-.451-.43-1.027-.646-1.728-.646H58.56v5.594h1.703c.7 0 1.277-.244 1.728-.734.45-.488.676-1.205.676-2.15m2.829-.038c0 .899-.137 1.686-.412 2.36-.274.674-.636 1.236-1.085 1.686-.449.45-.964.783-1.547.999a5.112 5.112 0 0 1-1.795.325H58.56v7.092h-2.954v-17.681h4.895c.566 0 1.15.083 1.748.249.6.166 1.136.454 1.611.862.474.408.865.945 1.174 1.61.308.666.462 1.5.462 2.498M67.535 131.865v-17.681h3.03v14.909h4.88v2.772zM77.236 131.865h3.005v-17.681h-3.005zM83.432 131.865v-17.681h7.937v2.647h-5.058v4.694h4.682v2.449h-4.682v5.219h5.308v2.672zM102.33 123.05c0-1.05-.096-1.965-.288-2.748-.193-.782-.463-1.431-.814-1.948-.35-.516-.768-.903-1.252-1.161a3.307 3.307 0 0 0-1.577-.387h-1.427v12.437h1.427c.567 0 1.093-.13 1.577-.387.484-.259.902-.645 1.252-1.161.35-.517.621-1.162.814-1.936.192-.775.288-1.677.288-2.71m3.004 0c0 2.797-.588 4.966-1.765 6.506s-2.909 2.31-5.195 2.31h-4.432v-17.682H98.4c2.27 0 3.993.78 5.17 2.335 1.177 1.557 1.765 3.734 1.765 6.531M120.53 117.605c-.65-.782-1.469-1.174-2.453-1.174-.284 0-.56.046-.826.137-.267.092-.51.237-.726.438a2.06 2.06 0 0 0-.513.774c-.126.316-.188.69-.188 1.124 0 .749.225 1.328.676 1.735.45.408 1.042.795 1.777 1.161.434.217.876.467 1.327.75.451.283.86.624 1.227 1.024.367.4.667.873.902 1.423.233.55.35 1.199.35 1.949 0 .865-.138 1.631-.413 2.297a5.114 5.114 0 0 1-1.101 1.686c-.46.458-.998.803-1.616 1.036a5.486 5.486 0 0 1-1.953.35 6.457 6.457 0 0 1-2.728-.575c-.835-.383-1.503-.865-2.003-1.448l1.627-2.198a4.15 4.15 0 0 0 1.39 1.099c.542.267 1.097.4 1.665.4.633 0 1.16-.217 1.576-.65.417-.433.626-1.04.626-1.823 0-.765-.25-1.373-.75-1.823-.501-.45-1.136-.865-1.903-1.25a11.26 11.26 0 0 1-1.365-.773 5.22 5.22 0 0 1-1.127-1.011 4.592 4.592 0 0 1-.776-1.374c-.191-.525-.288-1.153-.288-1.886 0-.915.146-1.701.439-2.36a4.81 4.81 0 0 1 1.151-1.635 4.638 4.638 0 0 1 1.615-.962c.601-.208 1.21-.312 1.828-.312.901 0 1.706.146 2.416.437.709.292 1.305.72 1.79 1.287l-1.652 2.147zM133.026 131.665c-.726.433-1.64.65-2.742.65-1.001 0-1.907-.234-2.716-.7-.81-.465-1.494-1.111-2.053-1.935-.56-.824-.993-1.802-1.302-2.934-.309-1.133-.463-2.373-.463-3.722 0-1.348.154-2.592.463-3.733.309-1.14.747-2.123 1.315-2.947.567-.825 1.255-1.465 2.065-1.923.81-.458 1.707-.687 2.691-.687 1.018 0 1.912.187 2.68.562a4.815 4.815 0 0 1 1.877 1.61l-1.728 2.099c-.684-.983-1.569-1.474-2.653-1.474-.601 0-1.127.171-1.578.512-.45.341-.826.803-1.126 1.386-.3.583-.526 1.27-.676 2.06-.15.791-.225 1.636-.225 2.535 0 .883.075 1.72.225 2.51.15.79.376 1.478.676 2.06.3.584.68 1.045 1.139 1.387.459.341.997.512 1.615.512.584 0 1.088-.15 1.515-.45.425-.3.78-.666 1.064-1.099l1.727 2.023a5.533 5.533 0 0 1-1.79 1.698M136.711 131.865h3.004v-17.681h-3.004zM142.907 131.865v-17.681h7.937v2.647h-5.058v4.694h4.682v2.449h-4.682v5.219h5.308v2.672zM161.179 131.865l-5.033-12.487h-.075l.05 12.487h-2.703v-17.681h3.43l4.981 12.561h.076l-.025-12.561h2.604v17.681zM176.258 131.665c-.726.433-1.64.65-2.741.65-1.002 0-1.908-.234-2.717-.7-.81-.465-1.494-1.111-2.053-1.935-.56-.824-.993-1.802-1.302-2.934-.308-1.133-.463-2.373-.463-3.722 0-1.348.155-2.592.463-3.733.309-1.14.747-2.123 1.315-2.947.567-.825 1.256-1.465 2.065-1.923.81-.458 1.707-.687 2.692-.687 1.018 0 1.91.187 2.679.562a4.82 4.82 0 0 1 1.877 1.61l-1.728 2.099c-.684-.983-1.569-1.474-2.653-1.474-.6 0-1.127.171-1.577.512-.451.341-.827.803-1.127 1.386-.3.583-.526 1.27-.676 2.06-.15.791-.226 1.636-.226 2.535 0 .883.075 1.72.226 2.51.15.79.376 1.478.676 2.06.3.584.68 1.045 1.139 1.387.459.341.997.512 1.615.512.584 0 1.089-.15 1.514-.45.426-.3.78-.666 1.065-1.099l1.727 2.023a5.533 5.533 0 0 1-1.79 1.698M179.946 131.865v-17.681h7.936v2.647h-5.057v4.694h4.681v2.449h-4.681v5.219h5.308v2.672zM197.961 117.605c-.65-.782-1.468-1.174-2.453-1.174-.284 0-.56.046-.826.137-.268.092-.51.237-.726.438a2.06 2.06 0 0 0-.514.774c-.125.316-.187.69-.187 1.124 0 .749.225 1.328.675 1.735.451.408 1.044.795 1.778 1.161.434.217.877.467 1.327.75.45.283.86.624 1.227 1.024.367.4.667.873.901 1.423.233.55.351 1.199.351 1.949 0 .865-.138 1.631-.413 2.297a5.105 5.105 0 0 1-1.102 1.686c-.459.458-.997.803-1.615 1.036a5.483 5.483 0 0 1-1.953.35 6.46 6.46 0 0 1-2.729-.575c-.834-.383-1.501-.865-2.002-1.448l1.627-2.198c.384.466.847.833 1.39 1.099a3.73 3.73 0 0 0 1.664.4c.634 0 1.16-.217 1.578-.65.417-.433.626-1.04.626-1.823 0-.765-.251-1.373-.751-1.823-.501-.45-1.136-.865-1.904-1.25a11.25 11.25 0 0 1-1.364-.773 5.204 5.204 0 0 1-1.126-1.011 4.578 4.578 0 0 1-.777-1.374c-.192-.525-.288-1.153-.288-1.886 0-.915.147-1.701.439-2.36.291-.657.675-1.203 1.151-1.635a4.635 4.635 0 0 1 1.615-.962 5.563 5.563 0 0 1 1.828-.312c.901 0 1.706.146 2.416.437.71.292 1.306.72 1.79 1.287l-1.653 2.147z"/><path fill="#D91E57" mask="url(#b)" d="M191.732 27.521L55.33 71.73l-8.863-27.212 136.4-44.21z"/></g></g></svg>