<svg xmlns="http://www.w3.org/2000/svg" xml:space="preserve" style="fill-rule:evenodd;clip-rule:evenodd;stroke-linejoin:round;stroke-miterlimit:2" viewBox="0 0 204 66"><path d="M17.494 36.104 6.456 49.028V36.09H0v29.174h6.456V56.45l2.028-2.319 5.464 7.423c1.821 2.49 3.558 4.22 6.953 4.22 1.366 0 2.771-.464 3.436-1.053l.206-.464-1.035-4.511-.412-.21c-.248.126-.622.38-1.367.38-.908 0-1.695-.421-3.02-2.234l-5.548-7.46 11.613-13.601-.29-.506H17.49l.005-.012-.001.001Zm33.784 8.074-.29.464c1.408 2.026 2.401 5.86 2.359 9.7-.084 3.583-1.821 5.902-4.223 5.902-2.234 0-3.516-1.391-3.516-3.84V44.179h-5.834v12.185c0 2.36-1.41 3.877-3.559 3.877-2.15 0-3.478-1.433-3.478-3.626V44.178h-6.373v12.394c0 6.533 4.303 9.194 9.767 9.194 2.856 0 5.047-1.053 6.578-2.74 1.452 1.771 3.68 2.74 6.499 2.74 6.415 0 10.347-4.428 10.431-11.805.042-3.287-.702-6.955-1.947-9.783h-6.414ZM86.87 60.114l-.496-.25c-.122.125-.29.213-.58.213-.539 0-.825-.339-.825-1.14v-14.76h-3.348l-1.91 1.947s-.071.142-.109.108l-.1.105a.396.396 0 0 1-.569 0l-.723-.74a5.96 5.96 0 0 0-2.743-1.604 10.064 10.064 0 0 0-2.544-.321c-6.04 0-10.385 4.845-10.385 11.044 0 6.2 4.345 11.05 10.385 11.05a9.71 9.71 0 0 0 6.953-2.912c.786 1.984 2.401 2.911 4.307 2.911 1.156 0 2.233-.297 3.062-.886l.29-.463-.665-4.303v.001Zm-12.955.088c-3.02 0-5.047-2.406-5.047-5.485 0-3.078 2.027-5.48 5.047-5.48 2.819 0 5.01 2.068 5.01 5.48 0 3.413-2.191 5.485-5.01 5.485Zm84.73-.167-.497-.255c-.126.13-.294.213-.58.213-.539 0-.829-.338-.829-1.14V44.095h-3.344l-1.914 1.95s-.071.142-.105.11l-.101.103a.405.405 0 0 1-.572 0l-.723-.739a5.96 5.96 0 0 0-2.743-1.604 9.855 9.855 0 0 0-2.54-.326c-6.044 0-10.389 4.85-10.389 11.049s4.345 11.045 10.389 11.045a9.715 9.715 0 0 0 6.953-2.908c.786 1.98 2.401 2.908 4.303 2.908 1.161 0 2.233-.293 3.062-.886l.29-.464-.66-4.298Zm-12.955.084c-3.02 0-5.048-2.402-5.048-5.481 0-3.079 2.028-5.48 5.048-5.48 2.813 0 5.009 2.063 5.009 5.48 0 3.417-2.196 5.48-5.009 5.48v.001Zm-15.53-16.446c-2.359 0-4.265 1.224-5.67 3.162-.66-2.11-2.233-3.162-4.635-3.162-1.119 0-2.195.292-3.02.885l-.29.464.665 4.298.454.255a.93.93 0 0 1 .622-.209c.497 0 .829.339.829 1.14v14.759h6.372v-11.3c0-2.782 1.653-4.72 4.223-4.72.871 0 1.658.084 2.444.506l.412-.213 1.325-4.683-.248-.464a8.582 8.582 0 0 0-3.478-.714l-.005-.004Zm45.482 0c-2.856 0-5.006 1.224-6.415 3.037-.786-2.026-2.523-3.037-4.719-3.037-1.115 0-2.191.292-3.02.885l-.29.464.66 4.298.454.255a.928.928 0 0 1 .623-.209c.496 0 .829.339.829 1.14v14.759h6.372V53.247c0-2.448 1.615-4.048 3.891-4.048 2.443 0 3.806 1.688 3.806 4.048v12.018h6.415V52.783c0-5.355-3.479-9.106-8.61-9.106l.004-.004Zm-61.579 16.441-.5-.25c-.122.125-.286.213-.576.213-.539 0-.829-.339-.829-1.14l-.042-21.66c-.004-1.04-1.22-1.612-2.032-.956l-4.298 3.475v5.648c-1.616-1.099-3.517-1.771-5.67-1.771-6.045 0-10.39 4.845-10.39 11.044 0 6.2 4.345 11.049 10.39 11.049 2.729 0 4.925-1.099 6.536-2.74.871 1.854 2.566 2.74 4.719 2.74 1.157 0 2.234-.297 3.062-.886l.291-.463-.661-4.303Zm-12.955.088c-3.062 0-5.051-2.364-5.051-5.485 0-3.12 1.99-5.48 5.051-5.48 2.856 0 5.01 2.067 5.01 5.48 0 3.413-2.154 5.485-5.01 5.485Zm89.394-2.318c0 5.522 3.643 7.882 7.698 7.882 1.985 0 3.806-.63 5.215-1.688l.206-.505-1.737-3.922-.496-.213c-.581.505-1.409.802-2.07.802-1.446 0-2.481-.802-2.481-2.995v-8.263h6.082v-4.808h-6.082l-.013-5.61v-1.353c-.008-1.04-1.224-1.613-2.036-.957l-4.277 3.476v3.049h.004l-.008 1.395h-3.601v4.808h3.601v8.898l-.005.004Z" style="fill:#16a575;fill-rule:nonzero"/><path d="m96.763.672-6.931 16.112-3.534-8.38a2.374 2.374 0 0 1 .732-2.782L93.714.476a2.309 2.309 0 0 1 2.184-.343c.066.026.226.1.47.239.093.054.156.104.231.167l.164.133Zm1.17 1.082 3.827 7.941-.088.071-10.949 8.751 7.21-16.763Zm6.822 5.51-1.796 1.458-2.355-4.879 4.151 3.421Z" style="fill:#74c8aa;fill-rule:nonzero"/><path d="m104.696 27.645 3.088-.15-.034.029-3.062 2.518.008-2.36v-.037Zm.034-11.78 4.875 10.092-4.905.242.03-9.845v-.489Zm13.14 2.915s0 .043-.008.063c-.005.03-.009.059-.017.088a.935.935 0 0 1-.051.146.613.613 0 0 1-.033.08c-.026.05-.055.1-.084.142-.017.025-.03.046-.047.067a1.04 1.04 0 0 1-.168.17l-.008.01-6.638 5.459-6.078-12.578v-.012l.017-5.15 12.699 10.471c.328.268.458.665.416 1.045v-.001Z" style="fill:#008789;fill-rule:nonzero"/><path d="m100.229 26.42-13.186.648.08-.184 3.537-8.224 9.569 7.76Zm4.459 3.627L96.599 36.7a2.3 2.3 0 0 1-2.885.067l-6.684-5.146a2.374 2.374 0 0 1-.732-2.783l.093-.217.034-.08 15.487-.76.05.042 2.726 2.223v.001Z" style="fill:#eb5c2e;fill-rule:nonzero"/><path d="m101.912 27.783 2.784-.138v.037l-.008 2.36v.005l-2.726-2.223-.05-.041Zm-.152-18.088 2.97 6.157v.502l-.03 9.845-4.471.222-9.569-7.761.063-.143m14.032-11.253-.017 5.15-1.779-3.692 1.796-1.458Z" style="fill:#b82879;fill-rule:nonzero"/></svg>