<?xml version="1.0" encoding="utf-8"?>
<!-- Generator: Adobe Illustrator 27.1.1, SVG Export Plug-In . SVG Version: 6.00 Build 0)  -->
<svg version="1.1" id="Laag_1" xmlns="http://www.w3.org/2000/svg" xmlns:xlink="http://www.w3.org/1999/xlink" x="0px" y="0px"
	 viewBox="0 0 839.7 462.1" style="enable-background:new 0 0 839.7 462.1;" xml:space="preserve">
<style type="text/css">
	.st0{fill:#82A5FF;}
	.st1{fill:#320064;}
	.st2{fill:#FFD237;}
</style>
<g transform="translate(-90, 0)">
	<g>
		<g>
			<path class="st0" d="M638.3,284c14.9,20.8,26,44.5,32.3,70.1c34.5-15.7,61.3-45.2,73.4-81.5c-13.2-6.5-28.1-10.1-43.8-10.1
				C676.8,262.5,655.3,270.6,638.3,284z"/>
			<path class="st1" d="M638.3,284c-35.8-49.7-93.5-82.6-159-84.5c-2.1,9.5-3.2,19.4-3.2,29.5c0,71.5,54.6,130.3,124.4,136.8
				c4.3,0.4,8.7,0.6,13.1,0.6c20.3,0,39.6-4.5,57-12.4C664.4,328.5,653.3,304.8,638.3,284z"/>
			<path class="st2" d="M590.3,167.3c0,40.8,33.1,73.9,73.9,73.9c39.8,0,72.2-31.4,73.8-70.7c-17.4-37-50.9-65-91.5-75
				C614.3,103.4,590.3,132.6,590.3,167.3z"/>
		</g>
		<g>
			<path class="st1" d="M217.9,187.9c-3.1,2.3-7.7,4.4-13.7,4.4c-9.2,0-13.5-5.6-13.5-17.1v-73.1h-9.4v-6.4h18V172
				c0,9,2.2,13.1,8.2,13.1c3.1,0,6.3-1.4,8.3-2.9L217.9,187.9z"/>
			<path class="st1" d="M242.8,192.1c-12.8,0-20.5-7.4-20.5-18.3c0-12.4,10.1-19,23.9-19c5.3,0,12.4,1.1,17.1,3.8
				c0.1-2.2,0.1-4.1,0.1-7c0-10-3.7-16.7-15.3-16.7c-5.9,0-10.1,1.9-12.3,3.4c0.7,0.5,1.5,2.2,1.5,3.8c0,2.9-2.2,4.9-5.5,4.9
				c-3.7,0-5.5-2.7-5.5-5.6c0-7.8,10.7-13.1,22.1-13.1c16.7,0,22.8,8.3,22.8,23.5c0,9.6-0.3,14.8-0.3,25.8c0,3,0,7.4,3.7,7.4
				c2,0,4.1-1.2,4.1-1.2l1.9,5.3c-1.5,1.4-4.1,2.9-8.1,2.9c-5.7,0-9.4-3.8-9.4-9.7C259.9,187.3,253,192.1,242.8,192.1z M245.1,185.1
				c9.4,0,15-5.5,17.9-10v-9.8c-4.2-2.6-9.4-4-15.3-4c-9.6,0-16.3,3.7-16.3,12C231.4,180.1,236.4,185.1,245.1,185.1z"/>
			<path class="st1" d="M286.9,184.7h8.2v-48.5h-8.2v-6.4h16.7v8.2c4.5-5.1,13-9.3,21.3-9.3c16.4,0,25.7,8.1,25.7,27.3v28.7h7.7v6.6
				h-23.9v-6.6h7.8v-27.6c0-14.2-6.4-20.9-19.3-20.9c-7.9,0-15.3,4.1-19.3,8.9v39.6h7.7v6.6h-24.3V184.7z"/>
			<path class="st1" d="M429.7,184.7v6.6h-16.5v-8.5c-4.6,5.2-12,9.6-20.6,9.6c-18,0-29.9-12.4-29.9-31.6c0-19,14.3-32.4,33.6-32.4
				c6.8,0,12.2,1.5,16.9,4.9v-31.3h-9.6v-6.4h18v89.1H429.7z M413.2,175.7v-34.4c-5.9-3.8-11.3-5.3-16.7-5.3
				c-13.7,0-24.7,10.1-24.7,24.7c0,14.8,9.3,24.2,22.4,24.2C402,184.9,409.3,180.1,413.2,175.7z"/>
		</g>
		<g>
			<path class="st1" d="M229.1,224.1h-6v-6.4h23.8v6.4h-8.7l12.6,27.9c2.7,5.9,5.5,12.2,7.9,18.4c2.6-6.3,6-13.7,8.1-18.6l12-27.7
				h-10.1v-6.4h24.2v6.4h-6l-24.5,55.7h-7.7L229.1,224.1z"/>
			<path class="st1" d="M314.2,280c-12.8,0-20.5-7.4-20.5-18.3c0-12.4,10.1-19,23.9-19c5.3,0,12.4,1.1,17.1,3.8
				c0.1-2.2,0.1-4.1,0.1-7c0-10-3.7-16.7-15.3-16.7c-5.9,0-10.1,1.9-12.3,3.4c0.7,0.5,1.5,2.2,1.5,3.8c0,2.9-2.2,4.9-5.5,4.9
				c-3.7,0-5.5-2.7-5.5-5.6c0-7.8,10.7-13.1,22.1-13.1c16.7,0,22.8,8.3,22.8,23.5c0,9.6-0.3,14.8-0.3,25.8c0,3,0,7.4,3.7,7.4
				c2,0,4.1-1.2,4.1-1.2l1.9,5.3c-1.5,1.4-4.1,2.9-8.1,2.9c-5.7,0-9.4-3.8-9.4-9.7C331.3,275.2,324.5,280,314.2,280z M316.6,273
				c9.4,0,15-5.5,17.9-10v-9.8c-4.2-2.6-9.4-4-15.3-4c-9.6,0-16.3,3.7-16.3,12C302.9,268,307.8,273,316.6,273z"/>
			<path class="st1" d="M358.4,272.6h8.2v-48.5h-8.2v-6.4H375v8.2c4.5-5.1,13-9.3,21.3-9.3c16.4,0,25.7,8.1,25.7,27.3v28.7h7.7v6.6
				h-23.9v-6.6h7.8V245c0-14.2-6.4-20.9-19.3-20.9c-7.9,0-15.3,4.1-19.3,8.9v39.6h7.7v6.6h-24.3V272.6z"/>
		</g>
		<g>
			<g>
				<path class="st1" d="M96.7,359.9h8.5v-82.7h-9.6v-6.4h18v41.9c4.6-5.1,13.1-8.9,21.3-8.9c16.4,0,25.7,8.2,25.7,27.5v28.6h7.7
					v6.6h-23.9v-6.6h7.8v-27.3c0-13.8-6.4-21.2-19.1-21.2c-7.8,0-15.6,4.1-19.4,8.7v39.8h7v6.6H96.7V359.9z"/>
				<g>
					<path class="st1" d="M244.9,359.9h8.2v-48.5h-8.2V305h16.7v7.8c3.3-4.9,8.2-8.9,16.1-8.9c7,0,10.4,3.3,10.4,8.3
						c0,3.4-2.9,6.1-6.3,6.1c-3.3,0-6-2.5-6-5.7c0-0.3,0.3-1,0.7-1.1c-0.3-0.4-1.1-0.7-2.2-0.7c-6.8,0.7-10.2,5.5-12.7,10v39.1h11.3
						v6.6h-28V359.9z"/>
					<path class="st1" d="M295.9,359.9h8.2v-48.5h-8.2V305h16.7v8.2c4.5-5.1,13-9.3,21.3-9.3c16.4,0,25.7,8.1,25.7,27.3v28.7h7.7
						v6.6h-23.9v-6.6h7.8v-27.6c0-14.2-6.4-20.9-19.3-20.9c-7.9,0-15.3,4.1-19.3,8.9v39.6h7.7v6.6h-24.3V359.9z"/>
					<path class="st1" d="M380.7,337.9c0.5,14.1,10.5,22.3,24.2,22.3c8.2,0,14.6-2.9,18.7-7l3.6,6c-5.7,5.7-14.6,8.6-22.8,8.6
						c-19.7,0-32.8-12.7-32.8-32.1c0-17.9,11.1-32.1,31.3-32.1c15.8,0,28.3,11.2,28.3,28c0,2.5-0.3,4.6-0.5,6.3H380.7z M422.2,331.5
						c-0.3-11.9-7-20.4-19.9-20.4c-13.8,0-21.5,9.6-21.6,20.4H422.2z"/>
				</g>
			</g>
			<g>
				<path class="st1" d="M206,318.3c-19.4,0-32.6,13.7-32.6,32.1c0,5.9,1.3,11.4,3.6,16h10.5c-3.1-4.1-5-9.5-5-16
					c0-15.2,10-24.6,23.4-24.6c13.7,0,23.4,9.4,23.4,24.6c0,6.5-1.8,12-4.9,16h10.1c2.5-4.7,3.9-10.1,3.9-16
					C238.4,332,226,318.3,206,318.3z"/>
			</g>
		</g>
	</g>
</g>
</svg>
