<?xml version="1.0" encoding="UTF-8"?>
<svg width="165px" height="93px" viewBox="0 0 165 93" version="1.1" xmlns="http://www.w3.org/2000/svg" xmlns:xlink="http://www.w3.org/1999/xlink">
    <title>Logo-LRJG</title>
    <g id="Symbols" stroke="none" stroke-width="1" fill="none" fill-rule="evenodd">
        <g id="Menu" transform="translate(-99.000000, -24.000000)" fill-rule="nonzero">
            <g id="Logo-LRJG" transform="translate(99.000000, 24.000000)">
                <g id="Group" transform="translate(118.365769, 0.257332)">
                    <path d="M0.212439991,92.3420891 C0.140982903,88.2222611 0.071457088,84.1004989 0,79.9806709 C1.38472249,80.1044591 4.73354926,80.2166422 6.80194227,78.0464793 C8.36627311,76.4062849 8.48794329,74.2051749 8.54008765,72.9537529 C8.92441091,63.7450669 8.58450692,49.8266245 8.54974401,48.3953227 C9.5462807,48.8537261 11.1782061,49.4475229 13.2562555,49.5113512 C16.5297626,49.6138634 18.9631661,48.3430995 19.9925345,47.7241582 L19.9925345,79.305638 C19.8708643,81.1643961 19.3725959,84.0502099 17.4278044,86.7309994 C13.9225445,91.5664783 7.19399061,93.6960232 0.210508719,92.3420891 L0.212439991,92.3420891 Z" id="Path" fill="#0067B2"></path>
                    <ellipse id="Oval" fill="#0067B2" cx="33.4457797" cy="12.533477" rx="8.93599854" ry="8.94950435"></ellipse>
                    <ellipse id="Oval" fill="#0067B2" cx="13.9746889" cy="37.6682963" rx="8.93599854" ry="8.94950435"></ellipse>
                    <path d="M19.9944657,77.2824736 L31.3175173,77.2824736 L31.3175173,32.2274155 C32.9108172,32.1713239 35.0931553,31.8928003 37.4454454,30.9024942 C43.6583495,28.2894014 47.1481592,22.3649727 46.5726399,21.7615049 C46.0743716,21.2392732 43.1504248,25.3397593 37.1847236,26.5931154 C36.0220974,26.8368236 29.7937431,28.1462713 24.643039,24.2082572 C24.0868325,23.7827351 21.3869133,21.6473876 20.0157097,17.7190446 C18.4822792,13.3264955 19.6062799,9.54515103 19.9732217,8.37496513 C21.6862606,2.90313721 25.8674658,0.466055846 25.5314244,0.0560072351 C25.0775753,-0.497171551 16.695852,3.03659643 12.0183097,11.1389249 C8.24846548,17.6706898 8.56905674,24.256612 8.889648,27.1153472 C13.7931493,25.2449839 19.1195992,26.1501856 22.4510445,29.4653899 C25.5043866,32.5040048 25.7071702,36.3975325 25.7322768,37.0686969 C25.9756171,43.6449482 20.3498199,47.4901211 19.9944657,47.722224 L19.9944657,77.2786053 L19.9944657,77.2824736 Z" id="Path" fill="#F3204E"></path>
                </g>
                <g id="Group" transform="translate(1.023575, 61.352556)" fill="#F3204E">
                    <path d="M7.33111097,8.54138993 C6.9970008,8.97658303 6.53542664,9.30732979 5.94445721,9.53169601 C5.35348778,9.75606223 4.68333617,9.86824534 3.93207111,9.86824534 C3.18080605,9.86824534 2.47589153,9.69223391 1.88105956,9.34214523 C1.28622758,8.99205656 0.826584693,8.48916676 0.504062161,7.8373442 C0.181539629,7.18358745 0.0135189085,6.42151598 0,5.55112978 L0,4.82774213 C0,3.43319002 0.334110168,2.34424017 1.00039923,1.5589584 C1.6666883,0.775610816 2.59756171,0.382969929 3.79301948,0.382969929 C4.81852526,0.382969929 5.63352231,0.638283215 6.23607938,1.1469756 C6.83863645,1.65760217 7.2017157,2.38872658 7.32531715,3.34421721 L5.75519249,3.34421721 C5.57751541,2.23205706 4.93440162,1.67694408 3.82391984,1.67694408 C3.10548642,1.67694408 2.56086753,1.93612575 2.18813191,2.4525549 C1.81539629,2.97091824 1.62226902,3.72912133 1.60875012,4.73103256 L1.60875012,5.44088086 C1.60875012,6.43698951 1.81925883,7.21066614 2.238345,7.76191073 C2.65743116,8.31315532 3.24260678,8.58781053 3.98807802,8.58781053 C4.80693762,8.58781053 5.39018196,8.40212814 5.73587976,8.03076336 L5.73587976,6.22422844 L3.83743875,6.22422844 L3.83743875,5.00762195 L7.33304224,5.00762195 L7.33304224,8.54525831 L7.33111097,8.54138993 Z" id="Path"></path>
                    <path d="M11.9603715,9.86824534 C10.9850788,9.86824534 10.1951883,9.56070888 9.5887687,8.94563596 C8.98234909,8.33056305 8.68107055,7.51240002 8.68107055,6.48921268 L8.68107055,6.29966191 C8.68107055,5.6149581 8.81239709,5.00375357 9.07698145,4.46411412 C9.3415658,3.92447468 9.71043887,3.50475511 10.1874632,3.20495541 C10.6644876,2.90515572 11.1955875,2.75428878 11.7826944,2.75428878 C12.7154991,2.75428878 13.4358638,3.05215428 13.9437885,3.64788528 C14.4517132,4.24361628 14.7066412,5.0869238 14.7066412,6.17780784 L14.7066412,6.79868333 L10.2299512,6.79868333 C10.2763018,7.36540146 10.4655665,7.8141339 10.7958141,8.14294647 C11.127993,8.47369322 11.5432166,8.63809951 12.0472788,8.63809951 C12.7521933,8.63809951 13.3257813,8.35377335 13.769974,7.78125265 L14.6004212,8.57427119 C14.3261805,8.9843198 13.9592387,9.3034614 13.5015271,9.52782762 C13.0438155,9.75412804 12.5300969,9.86824534 11.9603715,9.86824534 Z M11.7769006,3.99023719 C11.3539519,3.99023719 11.0140479,4.13723575 10.7552574,4.43316706 C10.4964668,4.72909836 10.3303774,5.14108117 10.2589203,5.66911546 L13.1905922,5.66911546 L13.1905922,5.55499816 C13.1577606,5.03856901 13.0206402,4.64979651 12.7792311,4.38481227 C12.537822,4.11982802 12.2056431,3.988303 11.7788319,3.988303 L11.7769006,3.99023719 Z" id="Shape"></path>
                    <polygon id="Path" points="17.5436807 8.51044286 21.1899235 8.51044286 21.1899235 9.7405887 15.6317208 9.7405887 15.6317208 8.73287489 19.1080116 4.12369641 15.6954528 4.12369641 15.6954528 2.88001123 21.058597 2.88001123 21.058597 3.85677797 17.545612 8.51044286"></polygon>
                    <path d="M22.0319584,6.24743874 C22.0319584,5.57627427 22.1652162,4.97087231 22.4317318,4.43123286 C22.6982474,3.89352761 23.0709831,3.47767642 23.5518699,3.18948188 C24.0327568,2.89935315 24.5870321,2.75428878 25.2108331,2.75428878 C26.1359127,2.75428878 26.8852465,3.05215428 27.4607658,3.64788528 C28.036285,4.24361628 28.3472199,5.03470063 28.3935705,6.01920413 L28.3993643,6.38089796 C28.3993643,7.057865 28.269969,7.66133277 28.0092472,8.19323545 C27.7504567,8.72707232 27.3777211,9.13905512 26.8949029,9.42918385 C26.4120847,9.72124678 25.8539469,9.86631115 25.2204895,9.86631115 C24.2548532,9.86631115 23.4804129,9.54330116 22.8990998,8.89921537 C22.319718,8.25512958 22.0280958,7.39634853 22.0280958,6.32287221 L22.0280958,6.24550455 L22.0319584,6.24743874 Z M23.5711827,6.38089796 C23.5711827,7.08687788 23.7160281,7.64005666 24.0076503,8.03850012 C24.2992725,8.43887778 24.7048397,8.63809951 25.2224208,8.63809951 C25.7400019,8.63809951 26.1455691,8.43500939 26.43526,8.02882917 C26.7249509,7.62264894 26.8697964,7.02885213 26.8697964,6.24743874 C26.8697964,5.55499816 26.7210884,5.00568776 26.4236724,4.59950753 C26.1262564,4.1933273 25.7226204,3.99023719 25.2108331,3.99023719 C24.6990459,3.99023719 24.3089288,4.18945892 24.0134441,4.58983657 C23.7179594,4.98828003 23.5711827,5.58594523 23.5711827,6.38089796 L23.5711827,6.38089796 Z" id="Shape"></path>
                    <path d="M31.1301838,2.88001123 L31.1746031,3.67302977 C31.6805965,3.05989105 32.3449543,2.75428878 33.1696077,2.75428878 C34.5968182,2.75428878 35.3210455,3.57245181 35.3480833,5.20877787 L35.3480833,9.74252289 L33.808859,9.74252289 L33.808859,5.29775068 C33.808859,4.86255758 33.7142266,4.53954759 33.5268932,4.3306549 C33.3395597,4.12176221 33.0324874,4.01731587 32.6056761,4.01731587 C31.9857376,4.01731587 31.5222322,4.29777365 31.2190224,4.86062339 L31.2190224,9.74252289 L29.6797981,9.74252289 L29.6797981,2.88194542 L31.1301838,2.88194542 L31.1301838,2.88001123 Z" id="Path"></path>
                    <path d="M36.6265858,6.25904389 C36.6265858,5.2029753 36.8718574,4.3538652 37.3604694,3.7136478 C37.8490814,3.07343039 38.5057141,2.75235459 39.3303675,2.75235459 C40.056526,2.75235459 40.6436329,3.00573368 41.0897569,3.51249187 L41.0897569,0 L42.6289812,0 L42.6289812,9.7386545 L41.2365336,9.7386545 L41.1612139,9.0288062 C40.7015711,9.58585337 40.0874264,9.86631115 39.3187798,9.86631115 C38.5501333,9.86631115 37.8683941,9.54330116 37.372057,8.89534698 C36.8757199,8.249327 36.628517,7.36926984 36.628517,6.2571097 L36.6265858,6.25904389 Z M38.1658101,6.39250311 C38.1658101,7.09074626 38.2990679,7.63425409 38.5675148,8.02496078 C38.8359617,8.41566748 39.2164224,8.61102082 39.7108282,8.61102082 C40.3404231,8.61102082 40.800066,8.33056305 41.0916881,7.7677133 L41.0916881,4.83741309 C40.8097223,4.28810269 40.353942,4.01344749 39.7243471,4.01344749 C39.2260788,4.01344749 38.8417555,4.21073503 38.5713773,4.6053101 C38.3009992,4.99988518 38.1658101,5.59561618 38.1658101,6.39056891 L38.1658101,6.39250311 Z" id="Shape"></path>
                    <path d="M45.7479865,3.62854337 C46.2501174,3.04441752 46.8855061,2.75428878 47.6541526,2.75428878 C49.1141947,2.75428878 49.8558034,3.58985954 49.8770474,5.25906685 L49.8770474,9.74252289 L48.3378231,9.74252289 L48.3378231,5.3170926 C48.3378231,4.84321567 48.2354657,4.50860053 48.0307508,4.31131299 C47.8260359,4.11402545 47.5247573,4.01731587 47.1288464,4.01731587 C46.5127705,4.01731587 46.0531276,4.29197107 45.7479865,4.84128147 L45.7479865,9.74252289 L44.2087622,9.74252289 L44.2087622,0.00386838312 L45.7479865,0.00386838312 L45.7479865,3.63047756 L45.7479865,3.62854337 Z" id="Path"></path>
                    <path d="M54.4483698,9.86824534 C53.4730771,9.86824534 52.6831866,9.56070888 52.076767,8.94563596 C51.4703473,8.33056305 51.1690688,7.51240002 51.1690688,6.48921268 L51.1690688,6.29966191 C51.1690688,5.6149581 51.3003953,5.00375357 51.5649797,4.46411412 C51.8295641,3.92447468 52.1984371,3.50475511 52.6754615,3.20495541 C53.1524858,2.90515572 53.6835858,2.75428878 54.2706927,2.75428878 C55.2034974,2.75428878 55.9238621,3.05215428 56.4317868,3.64788528 C56.9397115,4.24361628 57.1946395,5.0869238 57.1946395,6.17780784 L57.1946395,6.79868333 L52.7179495,6.79868333 C52.7643,7.36540146 52.9535647,7.8141339 53.2838124,8.14294647 C53.6159913,8.47369322 54.0312149,8.63809951 54.535277,8.63809951 C55.2401916,8.63809951 55.8137795,8.35377335 56.2579722,7.78125265 L57.0884195,8.57427119 C56.8141788,8.9843198 56.447237,9.3034614 55.9895253,9.52782762 C55.5318137,9.75412804 55.0180952,9.86824534 54.4483698,9.86824534 L54.4483698,9.86824534 Z M54.2648989,3.99023719 C53.8419502,3.99023719 53.5020462,4.13723575 53.2432556,4.43316706 C52.9844651,4.72909836 52.8183756,5.14108117 52.7469186,5.66911546 L55.6785904,5.66911546 L55.6785904,5.55499816 C55.6457588,5.03856901 55.5086384,4.64979651 55.2672294,4.38481227 C55.0258203,4.11982802 54.6936414,3.988303 54.2668301,3.988303 L54.2648989,3.99023719 Z" id="Shape"></path>
                    <path d="M58.3920285,1.09862081 C58.3920285,0.862649436 58.4673481,0.665361897 58.6160561,0.50869238 C58.7647641,0.352022864 58.9810667,0.274655202 59.2591699,0.274655202 C59.5372732,0.274655202 59.7535757,0.352022864 59.904215,0.50869238 C60.0548543,0.665361897 60.1321052,0.862649436 60.1321052,1.09862081 C60.1321052,1.33459218 60.0567855,1.52414295 59.904215,1.67887827 C59.7516445,1.8336136 59.5372732,1.91098126 59.2591699,1.91098126 C58.9810667,1.91098126 58.7666954,1.8336136 58.6160561,1.67887827 C58.4654169,1.52414295 58.3920285,1.33072379 58.3920285,1.09862081 Z M60.0258852,9.7405887 L58.4866609,9.7405887 L58.4866609,2.88001123 L60.0258852,2.88001123 L60.0258852,9.7405887 L60.0258852,9.7405887 Z" id="Shape"></path>
                    <path d="M61.4106077,6.25904389 C61.4106077,5.2029753 61.6558793,4.3538652 62.1444913,3.7136478 C62.6331032,3.07343039 63.2897359,2.75235459 64.1143894,2.75235459 C64.8405479,2.75235459 65.4276548,3.00573368 65.8737788,3.51249187 L65.8737788,0 L67.4130031,0 L67.4130031,9.7386545 L66.0205555,9.7386545 L65.9452358,9.0288062 C65.4855929,9.58585337 64.8714482,9.86631115 64.1028017,9.86631115 C63.3341552,9.86631115 62.652416,9.54330116 62.1560789,8.89534698 C61.6597418,8.24739281 61.4125389,7.36926984 61.4125389,6.2571097 L61.4106077,6.25904389 Z M62.949832,6.39250311 C62.949832,7.09074626 63.0830898,7.63425409 63.3515367,8.02496078 C63.6199836,8.41566748 64.0004443,8.61102082 64.4948501,8.61102082 C65.124445,8.61102082 65.5840879,8.33056305 65.87571,7.7677133 L65.87571,4.83741309 C65.5937442,4.28810269 65.1379639,4.01344749 64.508369,4.01344749 C64.0101006,4.01344749 63.6257774,4.21073503 63.3553992,4.6053101 C63.085021,4.99988518 62.949832,5.59561618 62.949832,6.39056891 L62.949832,6.39250311 Z" id="Shape"></path>
                    <path d="M72.8572606,7.87602803 C72.8572606,7.60137283 72.7452468,7.39248014 72.5192879,7.24934997 C72.293329,7.10621979 71.9186621,6.97856315 71.3952873,6.86831423 C70.8719124,6.75806531 70.4354447,6.61880352 70.0839531,6.45052885 C69.3153066,6.07916407 68.9309834,5.53952463 68.9309834,4.83354471 C68.9309834,4.24168209 69.1801175,3.74652905 69.6783859,3.35001978 C70.1766542,2.95351051 70.8101116,2.75428878 71.5768269,2.75428878 C72.3956865,2.75428878 73.0561817,2.9573789 73.5621752,3.36355912 C74.0662373,3.76973935 74.319234,4.29583945 74.319234,4.94185944 L72.7800097,4.94185944 C72.7800097,4.64592813 72.6699272,4.4002858 72.4516934,4.20299826 C72.2315283,4.00571072 71.9418374,3.90900114 71.5787582,3.90900114 C71.2407854,3.90900114 70.9665447,3.98636881 70.7521735,4.14303832 C70.5397335,4.29970784 70.4315822,4.50860053 70.4315822,4.77165058 C70.4315822,5.00762195 70.5300771,5.19137015 70.7289982,5.32289517 C70.9279193,5.4544202 71.3276927,5.58594523 71.932181,5.71940444 C72.5347381,5.85286366 73.0098312,6.01146737 73.3535977,6.19521557 C73.6973642,6.37896376 73.9522922,6.5994616 74.120313,6.85864327 C74.2864024,7.11589075 74.3713784,7.42922978 74.3713784,7.79672618 C74.3713784,8.41373329 74.1164504,8.9146889 73.6046632,9.29572464 C73.0928759,9.67676037 72.4246556,9.87017953 71.5980709,9.87017953 C71.0360705,9.87017953 70.5358709,9.76766738 70.097472,9.56457726 C69.6590731,9.36148715 69.3172379,9.08296357 69.0719663,8.72707232 C68.8266946,8.37118107 68.7050245,7.98821114 68.7050245,7.58009672 L70.1998295,7.58009672 C70.2210735,7.94372474 70.3581938,8.22418251 70.6111906,8.41953586 C70.8641873,8.6168234 71.2002287,8.71546717 71.6173836,8.71546717 C72.0345385,8.71546717 72.3300232,8.63809951 72.5424632,8.48336418 C72.7529719,8.32862886 72.8591919,8.12747293 72.8591919,7.87796222 L72.8572606,7.87602803 Z" id="Path"></path>
                    <path d="M78.5236146,8.63809951 C78.9079379,8.63809951 79.2265978,8.5259164 79.4795946,8.30155018 C79.7325913,8.07718395 79.8677804,7.80059456 79.8851618,7.471782 L81.3355476,7.471782 C81.3181661,7.89923833 81.1849083,8.29768179 80.9377054,8.66711238 C80.6885712,9.03654297 80.3505985,9.33054009 79.9237873,9.54523535 C79.496976,9.75993061 79.0373331,9.86824534 78.5429273,9.86824534 C77.5850161,9.86824534 76.8260259,9.5568405 76.2640256,8.93596501 C75.7020253,8.31508952 75.4219907,7.45630846 75.4219907,6.36155604 L75.4219907,6.20295233 C75.4219907,5.15848889 75.700094,4.32291814 76.2582318,3.69430588 C76.8144383,3.06762781 77.5753597,2.75235459 78.5371335,2.75235459 C79.3521306,2.75235459 80.0145571,2.99026015 80.5282756,3.46607128 C81.0400629,3.9418824 81.310441,4.56662627 81.3355476,5.3403029 L79.8851618,5.3403029 C79.8677804,4.94766201 79.7345225,4.62271783 79.4834571,4.36933873 C79.2323917,4.11595964 78.9118004,3.988303 78.5236146,3.988303 C78.0253463,3.988303 77.641023,4.16818281 77.3706448,4.52987663 C77.1002667,4.89157046 76.9631463,5.43894667 76.9592837,6.17587365 L76.9592837,6.42345017 C76.9592837,7.16811392 77.0925416,7.72129271 77.3609885,8.0887891 C77.6294354,8.45435131 78.0156899,8.63616532 78.5216833,8.63616532 L78.5236146,8.63809951 Z" id="Path"></path>
                    <path d="M85.5128903,9.86824534 C84.5375976,9.86824534 83.7477071,9.56070888 83.1412875,8.94563596 C82.5348679,8.33056305 82.2335894,7.51240002 82.2335894,6.48921268 L82.2335894,6.29966191 C82.2335894,5.6149581 82.3649159,5.00375357 82.6295002,4.46411412 C82.8940846,3.92447468 83.2629577,3.50475511 83.739982,3.20495541 C84.2170064,2.90515572 84.7481063,2.75428878 85.3352132,2.75428878 C86.2680179,2.75428878 86.9883826,3.05215428 87.4963073,3.64788528 C88.004232,4.24361628 88.25916,5.0869238 88.25916,6.17780784 L88.25916,6.79868333 L83.78247,6.79868333 C83.8288206,7.36540146 84.0180853,7.8141339 84.3483329,8.14294647 C84.6805118,8.47369322 85.0957354,8.63809951 85.5997976,8.63809951 C86.3047121,8.63809951 86.8783001,8.35377335 87.3224928,7.78125265 L88.15294,8.57427119 C87.8786993,8.9843198 87.5117575,9.3034614 87.0540459,9.52782762 C86.5963343,9.75412804 86.0826157,9.86824534 85.5128903,9.86824534 L85.5128903,9.86824534 Z M85.3294194,3.99023719 C84.9064707,3.99023719 84.5665667,4.13723575 84.3077762,4.43316706 C84.0489856,4.72909836 83.8828962,5.14108117 83.8114391,5.66911546 L86.743111,5.66911546 L86.743111,5.55499816 C86.7102793,5.03856901 86.573159,4.64979651 86.3317499,4.38481227 C86.0903408,4.11982802 85.7581619,3.988303 85.3313507,3.988303 L85.3294194,3.99023719 Z" id="Shape"></path>
                    <path d="M90.8818283,2.88001123 L90.9262475,3.67302977 C91.432241,3.05989105 92.0965988,2.75428878 92.9212522,2.75428878 C94.3484627,2.75428878 95.0726899,3.57245181 95.0997277,5.20877787 L95.0997277,9.74252289 L93.5605034,9.74252289 L93.5605034,5.29775068 C93.5605034,4.86255758 93.4658711,4.53954759 93.2785376,4.3306549 C93.0912042,4.12176221 92.7841318,4.01731587 92.3573206,4.01731587 C91.7373821,4.01731587 91.2738766,4.29777365 90.9706668,4.86062339 L90.9706668,9.74252289 L89.4314425,9.74252289 L89.4314425,2.88194542 L90.8818283,2.88194542 L90.8818283,2.88001123 Z" id="Path"></path>
                    <path d="M98.5934,1.21273811 L98.5934,2.88001123 L99.8023766,2.88001123 L99.8023766,4.02118425 L98.5934,4.02118425 L98.5934,7.85088354 C98.5934,8.11393359 98.6455443,8.30155018 98.7479018,8.41760167 C98.8502592,8.53365316 99.0356614,8.59167891 99.302177,8.59167891 C99.4798541,8.59167891 99.6594625,8.5704028 99.8410021,8.52785059 L99.8410021,9.71931259 C99.4914417,9.81602217 99.153469,9.86631115 98.8270839,9.86631115 C97.6451451,9.86631115 97.0541757,9.2125544 97.0541757,7.9069751 L97.0541757,4.01925006 L95.9263124,4.01925006 L95.9263124,2.87807704 L97.0541757,2.87807704 L97.0541757,1.21080392 L98.5934,1.21080392 L98.5934,1.21273811 Z" id="Path"></path>
                    <path d="M104.562964,4.28810269 C104.36018,4.25328724 104.151603,4.23781371 103.9353,4.23781371 C103.230386,4.23781371 102.755293,4.50860053 102.510021,5.05017416 L102.510021,9.74252289 L100.970797,9.74252289 L100.970797,2.88194542 L102.438564,2.88194542 L102.477189,3.64981947 C102.847994,3.05408847 103.363643,2.75622297 104.022207,2.75622297 C104.242372,2.75622297 104.423912,2.78523585 104.566826,2.84519578 L104.561032,4.29197107 L104.562964,4.28810269 Z" id="Path"></path>
                    <path d="M109.439427,9.7405887 C109.371833,9.60906367 109.313894,9.3963026 109.26175,9.10037129 C108.771207,9.61099786 108.172512,9.86824534 107.463735,9.86824534 C106.754958,9.86824534 106.214202,9.6709578 105.779665,9.27831691 C105.345129,8.88567603 105.126895,8.39825975 105.126895,7.81993648 C105.126895,7.08881207 105.397273,6.52789651 105.939961,6.13718982 C106.482649,5.74648312 107.257089,5.55112978 108.267145,5.55112978 L109.211537,5.55112978 L109.211537,5.10046314 C109.211537,4.7445719 109.111111,4.46024574 108.914121,4.24748467 C108.717131,4.03472359 108.413921,3.92640887 108.008354,3.92640887 C107.658794,3.92640887 107.371034,4.01538168 107.147007,4.18945892 C106.922979,4.36547035 106.810965,4.58790238 106.810965,4.8586892 L105.271741,4.8586892 C105.271741,4.48345604 105.397273,4.12949898 105.644476,3.80262061 C105.893611,3.47574223 106.231583,3.21849476 106.660326,3.03281237 C107.089068,2.84712998 107.566093,2.75428878 108.09333,2.75428878 C108.894808,2.75428878 109.53406,2.9554447 110.011084,3.35969074 C110.488108,3.76393678 110.73338,4.3306549 110.744967,5.06177931 L110.744967,8.15648581 C110.744967,8.77349292 110.829943,9.26671176 111.003758,9.63420816 L111.003758,9.74252289 L109.433633,9.74252289 L109.439427,9.7405887 Z M107.749564,8.63036274 C108.052773,8.63036274 108.338602,8.55686346 108.607049,8.40793071 C108.875496,8.26093215 109.076348,8.06171042 109.211537,7.81219971 L109.211537,6.51822556 L108.38109,6.51822556 C107.811364,6.51822556 107.382622,6.61686933 107.096793,6.81609106 C106.810965,7.01531279 106.66612,7.29577056 106.66612,7.65939858 C106.66612,7.95532989 106.764615,8.19130126 106.959673,8.36731269 C107.156663,8.54332412 107.419316,8.63036274 107.747632,8.63036274 L107.749564,8.63036274 Z" id="Shape"></path>
                </g>
                <g id="Group" transform="translate(0.000000, 20.185223)" fill="#0067B2">
                    <path d="M13.8626751,2.40033173 L18.9959978,2.40033173 L18.9959978,22.9665906 C18.9959978,29.2643183 15.1025521,32.9083352 8.76990909,32.9083352 C2.78103261,32.9083352 0,27.8949107 0,27.8949107 L3.76405039,24.7247707 C3.76405039,24.7247707 5.64704122,28.0245015 8.76990909,28.0245015 C12.7058428,28.0245015 13.8607438,25.4539609 13.8607438,23.1406678 L13.8607438,2.40033173 L13.8626751,2.40033173 Z" id="Path"></path>
                    <path d="M24.728015,25.2373315 L24.728015,12.0828947 L29.8613377,12.0828947 L29.8613377,23.8234374 C29.8613377,26.8233686 31.273098,28.1076717 33.8822473,28.1076717 C36.4913967,28.1076717 37.903157,25.6222356 37.903157,25.6222356 L37.903157,12.0828947 L43.0364797,12.0828947 L43.0364797,32.3919061 L38.2449922,32.3919061 L38.2449922,29.4364614 C38.2449922,29.4364614 36.3195134,32.906401 32.1692085,32.906401 C28.2757628,32.906401 24.7241524,30.1211652 24.7241524,25.2353973 L24.728015,25.2373315 Z" id="Path"></path>
                    <polygon id="Path" points="48.7704282 0 53.9037509 0 53.9037509 32.3938402 48.7704282 32.3938402 48.7704282 0"></polygon>
                    <path d="M63.0154952,2.14308425 C64.8984861,2.14308425 66.3952224,3.64208271 66.3952224,5.52791948 C66.3952224,7.41375625 64.8984861,8.91275471 63.0154952,8.91275471 C61.1325044,8.91275471 59.6357681,7.41375625 59.6357681,5.52791948 C59.6357681,3.64208271 61.1325044,2.14308425 63.0154952,2.14308425 Z M60.4488339,12.0848289 L65.5821566,12.0848289 L65.5821566,32.3938402 L60.4488339,32.3938402 L60.4488339,12.0848289 L60.4488339,12.0848289 Z" id="Shape"></path>
                    <path d="M71.5285451,25.2373315 L71.5285451,12.0828947 L76.6618678,12.0828947 L76.6618678,23.8234374 C76.6618678,26.8233686 78.0736281,28.1076717 80.6827774,28.1076717 C83.2919268,28.1076717 84.7036871,25.6222356 84.7036871,25.6222356 L84.7036871,12.0828947 L89.8370098,12.0828947 L89.8370098,32.3919061 L85.0455223,32.3919061 L85.0455223,29.4364614 C85.0455223,29.4364614 83.1200435,32.906401 78.9697386,32.906401 C75.0762929,32.906401 71.5246825,30.1211652 71.5246825,25.2353973 L71.5285451,25.2373315 Z" id="Path"></path>
                    <path d="M96.5559073,25.494579 C96.5559073,25.494579 99.2519639,28.4074714 102.674179,28.4074714 C104.76961,28.4074714 106.525137,27.8078721 106.525137,26.5641869 C106.525137,25.2353973 105.584607,24.9781498 102.504227,24.3359982 C98.4833174,23.4791513 94.974195,21.7654576 94.974195,17.9086797 C94.974195,14.7385397 98.1395509,11.5664655 103.701616,11.5664655 C108.278732,11.5664655 111.316624,14.0519017 111.316624,14.0519017 L108.749963,17.8235752 C108.749963,17.8235752 106.440161,16.0673293 103.701616,16.0673293 C101.776137,16.0673293 100.022542,16.7520331 100.022542,17.9957183 C100.022542,19.2394034 101.391814,19.5372689 104.814029,20.2664592 C108.834939,21.123306 111.700947,22.4520956 111.700947,26.6512255 C111.700947,30.1211652 108.021873,32.906401 102.844131,32.906401 C96.8977426,32.906401 93.6879674,29.2217661 93.6879674,29.2217661 L96.553976,25.494579 L96.5559073,25.494579 Z" id="Path"></path>
                </g>
                <g id="Group" transform="translate(2.512586, 0.000000)" fill="#0067B2">
                    <polygon id="Path" points="2.31752718 12.2414984 8.3739982 12.2414984 8.3739982 14.0944539 0 14.0944539 0 0.734992793 2.31752718 0.734992793"></polygon>
                    <path d="M14.3030052,14.2801363 C12.8912449,14.2801363 11.7479315,13.8352722 10.8711337,12.9455441 C9.99433595,12.055816 9.55593706,10.8701566 9.55593706,9.38856583 L9.55593706,9.11391063 C9.55593706,8.12360455 9.74713305,7.23774482 10.1275938,6.45633143 C10.5099858,5.67685223 11.0449483,5.06951608 11.7363439,4.63432298 C12.4258082,4.19912988 13.196386,3.98250042 14.046146,3.98250042 C15.3961055,3.98250042 16.4389928,4.41382514 17.1748077,5.27647458 C17.9106225,6.13912401 18.2794956,7.35959889 18.2794956,8.9378992 L18.2794956,9.83729827 L11.8020072,9.83729827 C11.8696017,10.6573955 12.1419111,11.3053497 12.622798,11.783095 C13.1017536,12.2608403 13.706242,12.4987459 14.4324005,12.4987459 C15.4521125,12.4987459 16.2825597,12.0848289 16.9237422,11.2608633 L18.1249938,12.4078389 C17.7271516,13.0016357 17.1979829,13.4619733 16.5355564,13.7888516 C15.8731299,14.11573 15.1295899,14.2801363 14.3049365,14.2801363 L14.3030052,14.2801363 Z M14.0364896,5.77356181 C13.4262074,5.77356181 12.9318017,5.98825707 12.5571348,6.4157134 C12.1824679,6.84316974 11.9410588,7.44083493 11.8367701,8.2048406 L16.0797761,8.2048406 L16.0797761,8.04043431 C16.0314943,7.29383637 15.8325732,6.72905244 15.4849441,6.3480167 C15.137315,5.96698096 14.6544969,5.775496 14.0364896,5.775496 L14.0364896,5.77356181 Z" id="Shape"></path>
                    <path d="M20.0118472,1.58797127 C20.0118472,1.24561936 20.1199984,0.961293205 20.336301,0.734992793 C20.5526035,0.50869238 20.8635384,0.39650927 21.2671744,0.39650927 C21.6708104,0.39650927 21.9817453,0.50869238 22.2019104,0.734992793 C22.4220754,0.961293205 22.532158,1.24561936 22.532158,1.58797127 C22.532158,1.93032318 22.4220754,2.20497838 22.2019104,2.42741041 C21.9817453,2.65177663 21.6708104,2.76202555 21.2671744,2.76202555 C20.8635384,2.76202555 20.5545348,2.64984244 20.336301,2.42741041 C20.1199984,2.20497838 20.0118472,1.9245206 20.0118472,1.58797127 Z M22.3757249,14.0963881 L20.1489675,14.0963881 L20.1489675,4.16624862 L22.3757249,4.16624862 L22.3757249,14.0963881 Z" id="Shape"></path>
                    <path d="M24.3823172,9.05781908 C24.3823172,7.52787355 24.7357401,6.29966191 25.4445171,5.37318415 C26.1532942,4.4467064 27.1034803,3.98250042 28.2950756,3.98250042 C29.3456879,3.98250042 30.1954479,4.34999682 30.8424242,5.08305542 L30.8424242,0 L33.0691816,0 L33.0691816,14.0963881 L31.0529329,14.0963881 L30.9428504,13.0693324 C30.2765613,13.8778244 29.3881759,14.2801363 28.2757628,14.2801363 C27.1633498,14.2801363 26.1764695,13.8120619 25.458036,12.8759132 C24.7396026,11.9397645 24.3803859,10.6670665 24.3803859,9.05781908 L24.3823172,9.05781908 Z M26.6090745,9.25123823 C26.6090745,10.2608862 26.8022018,11.0481022 27.1903876,11.6148203 C27.5785734,12.1815384 28.1289861,12.4639304 28.843557,12.4639304 C29.7531864,12.4639304 30.4194755,12.0577502 30.8404929,11.2434555 L30.8404929,7.00370764 C30.4310631,6.20875491 29.7705679,5.81031145 28.8609385,5.81031145 C28.1405738,5.81031145 27.5843672,6.0965718 27.1923189,6.6690925 C26.8022018,7.2416132 26.605212,8.10232844 26.605212,9.25317242 L26.6090745,9.25123823 Z" id="Shape"></path>
                    <path d="M40.948774,11.3981909 C40.948774,10.9997474 40.7846158,10.6980135 40.4582307,10.4891208 C40.1318456,10.2802281 39.589158,10.0984141 38.8320991,9.93787623 C38.0750403,9.77927253 37.4415828,9.57618241 36.9355894,9.33247428 C35.8231763,8.79476902 35.2669698,8.01335563 35.2669698,6.99210249 C35.2669698,6.13525563 35.6281178,5.41960475 36.3484825,4.84514986 C37.0688472,4.27069496 37.9862017,3.98250042 39.0966835,3.98250042 C40.2824849,3.98250042 41.2384649,4.27649754 41.9684859,4.86449177 C42.698507,5.45248601 43.0635175,6.21262329 43.0635175,7.14877201 L40.8367601,7.14877201 C40.8367601,6.72131567 40.6783958,6.36349023 40.3597358,6.07916407 C40.0430071,5.79483791 39.6200584,5.65170774 39.0947522,5.65170774 C38.6061402,5.65170774 38.2063668,5.76582504 37.8992944,5.99212545 C37.5902908,6.21842587 37.435789,6.52209394 37.435789,6.90119549 C37.435789,7.24354739 37.5787032,7.51046583 37.8664628,7.7000166 C38.1542224,7.88956737 38.7336042,8.08105234 39.6065395,8.2725373 C40.4794747,8.46595646 41.1650765,8.69419106 41.6633448,8.9611095 C42.1616132,9.22802793 42.5304863,9.54716954 42.7718953,9.92046851 C43.0133044,10.2937675 43.1330433,10.7463683 43.1330433,11.278271 C43.1330433,12.1718675 42.7641702,12.8952551 42.0244928,13.4484339 C41.2848154,14.0016127 40.3172478,14.2782021 39.1198588,14.2782021 C38.306793,14.2782021 37.5825657,14.1312035 36.9491083,13.8372064 C36.3137196,13.5432093 35.8193138,13.1389633 35.4639596,12.6264025 C35.1086055,12.1138417 34.9328597,11.5587288 34.9328597,10.964932 L37.095885,10.964932 C37.1267854,11.4910321 37.3257065,11.8972123 37.690717,12.1815384 C38.0576588,12.4658646 38.5424082,12.6089948 39.1468966,12.6089948 C39.7513849,12.6089948 40.1781962,12.4968117 40.4852685,12.2743796 C40.7904096,12.0519476 40.9429801,11.7579505 40.9429801,11.3981909 L40.948774,11.3981909 Z" id="Path"></path>
                    <path d="M49.1508889,12.4987459 C49.7070954,12.4987459 50.1686696,12.3362738 50.5336801,12.0132638 C50.9006219,11.6883196 51.0956804,11.2879419 51.120787,10.8121308 L53.2181491,10.8121308 C53.1930425,11.4310721 53.0018466,12.0074612 52.6406986,12.5412981 C52.2795506,13.0770691 51.7909386,13.5006571 51.1748626,13.8120619 C50.5568554,14.1234668 49.8924976,14.2801363 49.1779267,14.2801363 C47.7912729,14.2801363 46.6923788,13.8294697 45.879313,12.9320048 C45.0662472,12.0326057 44.66068,10.7908547 44.66068,9.20675183 L44.66068,8.97658303 C44.66068,7.46597942 45.064316,6.2551755 45.8696567,5.34610547 C46.6769286,4.43703544 47.7758228,3.98250042 49.1682703,3.98250042 C50.3482779,3.98250042 51.3081204,4.32678652 52.0497291,5.01535871 C52.7913378,5.70393091 53.1814549,6.60719837 53.2181491,7.72709528 L51.120787,7.72709528 C51.0956804,7.15844296 50.9025532,6.69036861 50.5394739,6.32287221 C50.1763947,5.95537581 49.7128892,5.77162761 49.1508889,5.77162761 C48.4305242,5.77162761 47.8743177,6.03274348 47.4822693,6.55690939 C47.090221,7.07914111 46.8932312,7.87409384 46.8874373,8.9378992 L46.8874373,9.29572464 C46.8874373,10.3730693 47.0805646,11.1757588 47.4687504,11.7037931 C47.8569362,12.2337616 48.4170053,12.4968117 49.1508889,12.4968117 L49.1508889,12.4987459 Z" id="Path"></path>
                    <path d="M57.0961446,5.24939589 C57.8223031,4.40415418 58.7415889,3.98250042 59.8540019,3.98250042 C61.9668142,3.98250042 63.0406018,5.19137015 63.0695709,7.60717541 L63.0695709,14.0944539 L60.8428135,14.0944539 L60.8428135,7.69034564 C60.8428135,7.00564183 60.6941055,6.52015975 60.3986208,6.23583359 C60.1031361,5.95150743 59.6666685,5.80837725 59.0930805,5.80837725 C58.2008325,5.80837725 57.5345435,6.20682072 57.0961446,7.00177345 L57.0961446,14.0963881 L54.8693872,14.0963881 L54.8693872,0 L57.0961446,0 L57.0961446,5.24939589 Z" id="Path"></path>
                    <path d="M69.686111,14.2801363 C68.2743507,14.2801363 67.1310372,13.8352722 66.2542395,12.9455441 C65.3774417,12.055816 64.9390428,10.8701566 64.9390428,9.38856583 L64.9390428,9.11391063 C64.9390428,8.12360455 65.1302388,7.23774482 65.5106995,6.45633143 C65.8930915,5.67685223 66.428054,5.06951608 67.1194496,4.63432298 C67.8089139,4.19912988 68.5794917,3.98250042 69.4292517,3.98250042 C70.7792113,3.98250042 71.8220985,4.41382514 72.5579134,5.27647458 C73.2937283,6.13912401 73.6626013,7.35959889 73.6626013,8.9378992 L73.6626013,9.83729827 L67.1851129,9.83729827 C67.2527074,10.6573955 67.5250169,11.3053497 68.0059038,11.783095 C68.4848594,12.2608403 69.0893477,12.4987459 69.8155062,12.4987459 C70.8352182,12.4987459 71.6656654,12.0848289 72.3068479,11.2608633 L73.5080995,12.4078389 C73.1102574,13.0016357 72.5810887,13.4619733 71.9186621,13.7888516 C71.2562356,14.11573 70.5126957,14.2801363 69.6880422,14.2801363 L69.686111,14.2801363 Z M69.4195953,5.77356181 C68.8093132,5.77356181 68.3149074,5.98825707 67.9402405,6.4157134 C67.5655736,6.84316974 67.3241645,7.44083493 67.2198758,8.2048406 L71.4628818,8.2048406 L71.4628818,8.04043431 C71.4146,7.29383637 71.2156789,6.72905244 70.8680498,6.3480167 C70.5204207,5.96698096 70.0376026,5.775496 69.4195953,5.775496 L69.4195953,5.77356181 Z" id="Shape"></path>
                    <path d="M85.1807114,8.95724111 L82.5966686,8.95724111 L82.5966686,14.0963881 L80.2791414,14.0963881 L80.2791414,0.734992793 L84.9702027,0.734992793 C86.509427,0.734992793 87.6971597,1.08121308 88.535332,1.77365366 C89.3715731,2.46609424 89.7906592,3.46607128 89.7906592,4.77745315 C89.7906592,5.67104965 89.576288,6.41958179 89.1436829,7.02304955 C88.7130091,7.62651732 88.1123833,8.0907233 87.3437368,8.41373329 L90.3410719,13.9784024 L90.3410719,14.0983223 L87.8574553,14.0983223 L85.1826427,8.95917531 L85.1807114,8.95724111 Z M82.5966686,7.08494368 L84.9798591,7.08494368 C85.7620245,7.08494368 86.3723066,6.88765614 86.8126368,6.49308107 C87.252967,6.09850599 87.473132,5.55886654 87.473132,4.87416273 C87.473132,4.18945892 87.2703484,3.60533307 86.8647812,3.21269218 C86.4592139,2.82198549 85.8527943,2.61889537 85.0455223,2.60729022 L82.5985999,2.60729022 L82.5985999,7.08494368 L82.5966686,7.08494368 Z" id="Shape"></path>
                    <path d="M91.7779388,1.58797127 C91.7779388,1.24561936 91.88609,0.961293205 92.1023926,0.734992793 C92.3186951,0.50869238 92.62963,0.39650927 93.033266,0.39650927 C93.436902,0.39650927 93.7478369,0.50869238 93.968002,0.734992793 C94.188167,0.961293205 94.2982496,1.24561936 94.2982496,1.58797127 C94.2982496,1.93032318 94.188167,2.20497838 93.968002,2.42741041 C93.7478369,2.65177663 93.436902,2.76202555 93.033266,2.76202555 C92.62963,2.76202555 92.3206264,2.64984244 92.1023926,2.42741041 C91.88609,2.20497838 91.7779388,1.9245206 91.7779388,1.58797127 Z M94.1418165,14.0963881 L91.9150591,14.0963881 L91.9150591,4.16624862 L94.1418165,4.16624862 L94.1418165,14.0963881 Z" id="Shape"></path>
                    <path d="M98.8888847,4.16624862 L98.8888847,14.9764452 C98.8888847,15.9918958 98.6378192,16.7675066 98.1337571,17.3032777 C97.6296949,17.8390488 96.8919487,18.1059672 95.9205186,18.1059672 C95.5110888,18.1059672 95.1171092,18.053744 94.7385797,17.9492977 L94.7385797,16.1872492 C94.9703325,16.2433407 95.2329855,16.2704194 95.526539,16.2704194 C96.2662164,16.2704194 96.6447459,15.8661734 96.6621273,15.0596155 L96.6621273,4.16624862 L98.8888847,4.16624862 Z M96.469,1.58797127 C96.469,1.24561936 96.5771513,0.961293205 96.7934538,0.734992793 C97.0097564,0.50869238 97.3206913,0.39650927 97.7243273,0.39650927 C98.1279632,0.39650927 98.4388981,0.50869238 98.6590632,0.734992793 C98.8792283,0.961293205 98.9893108,1.24561936 98.9893108,1.58797127 C98.9893108,1.93032318 98.8792283,2.20497838 98.6590632,2.42741041 C98.4388981,2.65177663 98.1279632,2.76202555 97.7243273,2.76202555 C97.3206913,2.76202555 97.0116877,2.64984244 96.7934538,2.42741041 C96.5771513,2.20497838 96.469,1.9245206 96.469,1.58797127 Z" id="Shape"></path>
                    <path d="M103.332743,4.16624862 L103.396475,5.31322422 C104.130359,4.42543029 105.092132,3.98250042 106.283728,3.98250042 C108.348258,3.98250042 109.39887,5.16622566 109.435565,7.53367613 L109.435565,14.0944539 L107.208807,14.0944539 L107.208807,7.66326696 C107.208807,7.03272051 107.071687,6.56658035 106.801309,6.26291227 C106.528999,5.9592442 106.084807,5.80837725 105.466799,5.80837725 C104.568758,5.80837725 103.900537,6.21455748 103.460207,7.02885213 L103.460207,14.0944539 L101.23345,14.0944539 L101.23345,4.16624862 L103.330812,4.16624862 L103.332743,4.16624862 Z" id="Path"></path>
                </g>
            </g>
        </g>
    </g>
</svg>