<svg xmlns="http://www.w3.org/2000/svg" viewBox="0 0 340.2 378.9">
    <path fill="#007b85" class="background"
          d="M333.1 378.9H7.1c-3.9 0-7.1-3.2-7.1-7.1V7.1C0 3.2 3.2 0 7.1 0h326.1c3.9 0 7.1 3.2 7.1 7.1v364.7c-.1 3.9-3.2 7.1-7.2 7.1z"/>
    <g fill="#FFF" class="foreground">
        <path d="M54.8 214.5c.2.3.5.7.7 1 .1.1.2.2.2.3l.2.2c.1.1.2.3.4.4l.1.1.5.5.1.1.5.5c10.9 10.4 35 10.6 62.8 1.8 1.2-.4 1.7-.5 2.9-.9 1.1-.4.9-.3 2.1-.7 1.2-.5 1.7-1.7 1.1-3l-1-2.3c-.7-1.8-1.4-1.9-4.4-1.1 0 0-1.4.4-1.5.4-.4.1-1.5.4-2.1.5-18.9 4.3-33.2 2.7-40.1-5.6-.3-.4-.6-.7-.9-1.1-14.1-20.3 19-68.6 73.9-107.9 29.3-21 58.8-35.1 82.2-40.7 0 0 .9-.2 1.7-.4 1.7-.4 1.9-1 1.6-1.9l-1.1-2.6c-.4-.9-.6-1.5-2.1-1.3-.3 0-.6.1-1 .2-1.5.2-2.5.4-2.5.4-26.8 4.6-61.4 19.8-95.3 43.7-60.4 42.3-95.7 95.8-79 119.4z"/>
        <path d="M282.9 85.7c-.2-.3-.5-.7-.7-1-.1-.1-.2-.2-.2-.3l-.2-.2c-.1-.1-.2-.3-.4-.4l-.1-.1-.5-.5-.1-.1-.5-.5c-10.9-10.4-35-10.6-62.8-1.8-1.2.4-1.6.5-2.9.9-1.1.4-.9.3-2.1.7-1.2.5-1.7 1.7-1.1 3l1 2.3c.7 1.8 1.4 1.9 4.4 1.1 0 0 1.4-.4 1.5-.4.4-.1 1.5-.4 2.1-.5 18.9-4.3 33.2-2.7 40.1 5.6.3.4.6.7.9 1.1 14.1 20.3-19 68.6-73.9 107.9-29.3 21-58.8 35.1-82.2 40.7 0 0-.9.2-1.7.4-1.7.4-1.9 1-1.6 1.9l1.1 2.6c.4.9.6 1.5 2.1 1.3.3 0 .6-.1 1-.2 1.5-.2 2.5-.4 2.5-.4 26.8-4.6 61.4-19.8 95.3-43.7 60.5-42.2 95.8-95.8 79-119.4zM72.9 269.2c6.6 0 12.5 2.2 16.7 6.3 4.2 4 6.5 9.8 6.5 16.1 0 6.3-2.3 12.1-6.5 16.1-4.2 4.1-10.1 6.3-16.7 6.3s-12.5-2.2-16.7-6.3c-4.2-4-6.5-9.8-6.5-16.1 0-6.3 2.3-12.1 6.5-16.1 4.2-4.1 10.1-6.3 16.7-6.3m0 38.3c4.4 0 8.4-1.6 11.3-4.5 2.8-2.9 4.4-7 4.4-11.5s-1.6-8.6-4.4-11.5c-2.8-2.9-6.8-4.5-11.3-4.5-4.4 0-8.4 1.6-11.3 4.5-2.8 2.9-4.4 7-4.4 11.5s1.6 8.6 4.4 11.5c2.8 2.9 6.9 4.5 11.3 4.5"/>
        <path d="M101.6 288.9zM101.9 289.2c0 .1 0 .1 0 0 0 .1 0 .1 0 0zM144.9 282.8c-4.6 0-8.5 1.6-11.1 4.5l-.2.2-.2-.3c-2.3-2.9-5.7-4.4-9.8-4.4-4.2 0-7.9 1.3-10.3 3.7l-.3.3-.2-.3c-1.2-2.3-3.6-3.6-6.8-3.6-1.3 0-2.7.2-3.7.6-.4.1-.6.4-.6.9v4.4c0 .1 0 .5.6.5h.2c.4-.1 1.3-.2 1.8-.2 1.9 0 2.9.8 2.9 2.6v20.9c0 .4.3.7.7.7h5.7c.4 0 .7-.3.7-.7v-15.8c0-4.7 3.1-7.9 7.7-7.9 4.3 0 7.2 3.3 7.2 8.3v15.3c0 .4.3.7.7.7h5.7c.4 0 .7-.3.7-.7v-15.8c0-4.7 2.8-7.9 6.9-7.9 4.7 0 7.9 3.3 7.9 8.3v15.3c0 .4.3.7.7.7h5.7c.4 0 .7-.3.7-.7v-15.8c.1-8.2-5.3-13.8-13.3-13.8zM101.7 289.1c0-.1 0-.1 0 0 0-.1 0-.1 0 0zM101.8 289.1c0 .1 0 .1 0 0 0 .1 0 .1 0 0zM102.1 289.3zM102.5 289.4zM102.3 289.4s-.1 0 0 0c-.1 0 0 0 0 0z"/>
        <path d="M191.7 284.2l-.7 4.7c-.1.5-.3.6-.6.6h-.2c-.8-.1-2.1-.3-3.6-.3-2.7 0-5 .9-6.7 2.6-1.7 1.7-2.6 4-2.6 6.7v14c0 .4-.3.7-.7.7h-5.7c-.4 0-.7-.3-.7-.7v-20.9c0-1.7-.9-2.6-2.9-2.6-.5 0-1.4.1-1.8.2h-.2c-.6 0-.6-.3-.6-.5v-4.4c0-.5.2-.7.6-.9 1.2-.4 2.6-.6 3.7-.6 3.4 0 6.1 1.6 7 4.3l.2.4.3-.3c2.6-2.9 6.1-4.4 10.1-4.4 1.6 0 3.4.2 4.6.6.4.2.5.4.5.8zM205.1 283.7c.4 0 .7.3.7.7v28c0 .4-.3.7-.7.7h-5.7c-.4 0-.7-.3-.7-.7v-28c0-.4.3-.7.7-.7h5.7M202.3 268.5c2.5 0 4.5 1.8 4.5 4.1s-2 4.1-4.5 4.1-4.5-1.8-4.5-4.1 2-4.1 4.5-4.1M235.8 282.8c8 0 13.4 5.6 13.4 13.9v15.8c0 .4-.3.7-.7.7h-5.7c-.4 0-.7-.3-.7-.7v-15.3c0-5-3.2-8.3-7.9-8.3-2.4 0-4.5.7-6 2.2-1.5 1.4-2.3 3.4-2.3 5.7v15.8c0 .4-.3.7-.7.7h-5.7c-.4 0-.7-.3-.7-.7v-20.9c0-1.7-.9-2.6-2.9-2.6-.5 0-1.4.1-1.8.2h-.2c-.6 0-.6-.3-.6-.5v-4.4c0-.5.2-.7.6-.9 1-.4 2.4-.6 3.7-.6 3.2 0 5.7 1.4 6.9 3.8l.2.3.3-.3c2.4-2.6 6.2-3.9 10.8-3.9M287.5 283.7h-5.7c-.4 0-.7.3-.7.7v1.4l-.4-.3c-2.5-1.8-5.4-2.7-8.6-2.7-4.6 0-8.7 1.6-11.7 4.4-2.9 2.8-4.5 6.8-4.5 11.2 0 4.4 1.6 8.4 4.5 11.2 2.9 2.8 7.1 4.4 11.7 4.4 3.2 0 6.1-.9 8.6-2.7l.4-.3v2.9c0 5-3.4 8.4-8.6 8.4-4.1 0-7.3-1.8-8.3-4.7 0-.1 0 .1 0 0-.2-.4-.4-.6-.8-.6h-5.9c-.2 0-.4.1-.5.2-.1.1-.1.3-.1.5v.2c1.2 6.2 7.4 10.6 15.6 10.6 4.6 0 8.5-1.4 11.3-4 2.8-2.6 4.3-6.2 4.3-10.5v-29.5c.1-.5-.2-.8-.6-.8zm-8.9 21.9c-1.6 1.8-3.9 2.8-6.5 2.8s-5-1-6.6-2.8c-1.7-1.8-2.6-4.3-2.6-7.1s.9-5.3 2.6-7.1c1.7-1.8 4-2.8 6.6-2.8 2.5 0 4.9 1 6.5 2.8 1.6 1.8 2.5 4.3 2.5 7.1 0 2.7-.9 5.3-2.5 7.1z"/>
    </g>
</svg>
