<?xml version="1.0" encoding="utf-8"?>
<!-- Generator: Adobe Illustrator 16.0.3, SVG Export Plug-In . SVG Version: 6.00 Build 0)  -->
<!DOCTYPE svg PUBLIC "-//W3C//DTD SVG 1.1//EN" "http://www.w3.org/Graphics/SVG/1.1/DTD/svg11.dtd">
<svg version="1.1" id="Layer_1" xmlns="http://www.w3.org/2000/svg" xmlns:xlink="http://www.w3.org/1999/xlink" x="0px" y="0px"
	 width="209.293px" height="49.4px" viewBox="0 0 209.293 49.4" enable-background="new 0 0 209.293 49.4" xml:space="preserve">
<g>
	<path fill="#CC0000" d="M149.038,31.112h0.599c0.646,0,0.725,0.146,0.725,1.228v3.941c0,0.742-0.077,1.017-0.901,1.017h-0.519
		v0.792h4.521v-0.792h-0.227c-0.822,0-0.902-0.271-0.902-1.017v-2.649c0-1.519,0.809-2.354,1.984-2.354
		c0.871,0,1.42,0.517,1.42,1.662v3.345c0,0.742-0.078,1.017-0.902,1.017h-0.227v0.792h4.426V37.3h-0.422
		c-0.822,0-0.902-0.271-0.902-1.017v-3.813c0-1.743-1.229-2.453-2.811-2.453c-1.311,0-2.229,0.549-2.777,1.855h-0.033v-1.793
		c-0.791,0.097-2.229,0.192-3.051,0.192L149.038,31.112L149.038,31.112z M147.762,34.31v-0.372c0-2.713-1.082-3.924-3.684-3.924
		c-2.713,0-3.875,1.774-3.875,4.167c0,2.392,1.162,4.166,3.875,4.166c2.697,0,3.506-1.391,3.521-2.777h-1.648
		c-0.016,1.213-0.5,1.843-1.68,1.843c-1.986,0-2.002-2.003-2.002-3.103H147.762z M142.27,33.373c0-1.355,0.404-2.472,1.793-2.472
		c1.391,0,1.729,1.146,1.729,2.472H142.27z M136.118,32.824c0,1.403-0.404,2.083-1.277,2.083c-0.854,0-1.403-0.613-1.403-2.067
		c0-1.403,0.483-1.938,1.39-1.938C135.6,30.902,136.118,31.354,136.118,32.824 M136.795,39.445c0,0.742-0.5,1.52-2.033,1.52
		c-1.357,0-1.891-0.646-1.891-1.438c0-0.855,0.484-1.565,1.938-1.565C136.213,37.96,136.795,38.622,136.795,39.445 M139.137,30.143
		l-2.391,0.21c-0.451-0.129-1.195-0.339-1.873-0.339c-2.115,0-3.504,1.211-3.504,2.776c0,1.469,0.92,2.195,2.131,2.584v0.032
		c-1.113,0.097-1.582,0.501-1.582,1.017c0,0.551,0.371,0.824,1.453,1.034v0.032c-1.131,0.111-2.471,0.711-2.471,2.019
		c0,1.311,1.113,2.344,3.666,2.344c2.713,0,4.199-0.89,4.199-2.392c0-1.904-1.52-2.132-3.037-2.245
		c-1.775-0.129-2.066-0.291-2.066-0.741c0-0.532,0.727-0.613,1.26-0.693l0.389-0.064c2.26-0.372,2.973-1.583,2.973-2.875
		c0-0.692-0.309-1.322-0.713-1.631v-0.03h1.566V30.143z M120.064,31.112h0.599c0.646,0,0.726,0.146,0.726,1.228v3.941
		c0,0.742-0.08,1.017-0.904,1.017h-0.517v0.792h4.521v-0.792h-0.225c-0.824,0-0.904-0.271-0.904-1.017v-2.649
		c0-1.519,0.809-2.354,1.986-2.354c0.871,0,1.42,0.517,1.42,1.662v3.345c0,0.742-0.08,1.017-0.904,1.017h-0.225v0.792h4.424V37.3
		h-0.42c-0.824,0-0.904-0.271-0.904-1.017v-3.813c0-1.743-1.229-2.453-2.811-2.453c-1.309,0-2.229,0.549-2.777,1.855h-0.029v-1.793
		c-0.793,0.097-2.229,0.192-3.055,0.192V31.112L120.064,31.112z M115.688,27.51c0,0.694,0.42,1.213,1.18,1.213
		s1.18-0.519,1.18-1.213c0-0.692-0.42-1.212-1.18-1.212C116.107,26.299,115.688,26.816,115.688,27.51 M114.588,31.112h0.6
		c0.646,0,0.729,0.146,0.729,1.228v3.941c0,0.742-0.082,1.017-0.906,1.017h-0.516v0.792h4.715v-0.792h-0.42
		c-0.822,0-0.904-0.271-0.904-1.017v-6.202c-1.031,0.097-2.471,0.192-3.295,0.192L114.588,31.112L114.588,31.112z M103.737,31.112
		h0.597c0.646,0,0.727,0.146,0.727,1.228v3.941c0,0.742-0.081,1.017-0.904,1.017h-0.517v0.792h4.522v-0.792h-0.227
		c-0.824,0-0.904-0.271-0.904-1.017v-2.649c0-1.519,0.807-2.354,1.986-2.354c0.871,0,1.42,0.517,1.42,1.662v3.345
		c0,0.742-0.08,1.017-0.902,1.017h-0.229v0.792h4.426V37.3h-0.42c-0.822,0-0.904-0.271-0.904-1.017v-3.813
		c0-1.743-1.227-2.453-2.811-2.453c-1.309,0-2.229,0.549-2.777,1.855h-0.031v-1.793c-0.791,0.097-2.229,0.192-3.053,0.192
		L103.737,31.112L103.737,31.112z M94.903,34.181c0,2.392,1.162,4.166,3.876,4.166c2.713,0,3.876-1.774,3.876-4.166
		c0-2.393-1.163-4.167-3.876-4.167C96.065,30.014,94.903,31.79,94.903,34.181 M96.97,34.181c0-2.196,0.484-3.229,1.809-3.229
		c1.324,0,1.808,1.032,1.808,3.229c0,2.195-0.484,3.229-1.808,3.229C97.454,37.411,96.97,36.377,96.97,34.181 M86.905,31.112h0.694
		c0.646,0,0.727,0.146,0.727,1.228v3.941c0,0.742-0.081,1.017-0.904,1.017h-0.517v0.792h5.152v-0.792h-0.856
		c-0.824,0-0.905-0.271-0.905-1.017v-2.649c0-1.354,0.743-2.354,1.486-2.354c0.63,0,0.808,0.451,0.824,1.26h1.55v-2.325
		c-0.371-0.13-0.823-0.192-1.292-0.192c-1.308,0-2.228,0.549-2.778,1.855h-0.032v-1.793c-0.791,0.098-2.229,0.192-3.149,0.192
		V31.112z M83.142,32.824c0,1.403-0.404,2.083-1.276,2.083c-0.856,0-1.405-0.613-1.405-2.067c0-1.403,0.485-1.938,1.389-1.938
		C82.625,30.902,83.142,31.354,83.142,32.824 M83.82,39.445c0,0.742-0.5,1.52-2.035,1.52c-1.356,0-1.889-0.646-1.889-1.438
		c0-0.855,0.484-1.565,1.938-1.565C83.239,37.96,83.82,38.622,83.82,39.445 M86.162,30.143l-2.39,0.21
		c-0.452-0.129-1.195-0.339-1.874-0.339c-2.115,0-3.504,1.211-3.504,2.776c0,1.469,0.92,2.195,2.132,2.584v0.032
		c-1.115,0.097-1.583,0.501-1.583,1.017c0,0.551,0.371,0.824,1.453,1.034v0.032c-1.13,0.111-2.471,0.711-2.471,2.019
		c0,1.311,1.115,2.344,3.667,2.344c2.713,0,4.199-0.89,4.199-2.392c0-1.904-1.519-2.132-3.037-2.245
		c-1.776-0.129-2.067-0.291-2.067-0.741c0-0.532,0.727-0.613,1.26-0.693l0.387-0.064c2.261-0.372,2.972-1.583,2.972-2.875
		c0-0.692-0.307-1.322-0.711-1.631v-0.03h1.567V30.143z"/>
	<path fill="#CC0000" d="M202.868,15.059h1.42v4.636c0,2.004,0.903,2.535,2.537,2.535c1.565,0,2.469-0.774,2.469-2.504v-0.354
		h-1.354v0.823c0,0.693-0.258,1.002-0.84,1.002c-0.58,0-0.841-0.309-0.841-1.002v-5.137h2.584V14.12h-2.584v-2.277h-1.403
		c-0.129,1.633-0.483,2.103-1.985,2.277L202.868,15.059L202.868,15.059z M198.586,11.361c0,0.693,0.42,1.212,1.18,1.212
		s1.18-0.519,1.18-1.212c0-0.694-0.42-1.212-1.18-1.212S198.586,10.666,198.586,11.361 M197.488,14.962h0.599
		c0.646,0,0.728,0.146,0.728,1.229v3.938c0,0.743-0.08,1.019-0.901,1.019h-0.519v0.793h4.715v-0.793h-0.42
		c-0.823,0-0.903-0.272-0.903-1.019v-6.202c-1.033,0.1-2.472,0.194-3.295,0.194L197.488,14.962L197.488,14.962z M196.213,18.16
		v-0.372c0-2.713-1.082-3.924-3.684-3.924c-2.713,0-3.877,1.774-3.877,4.167c0,2.39,1.164,4.166,3.877,4.166
		c2.697,0,3.506-1.391,3.521-2.778h-1.646c-0.016,1.212-0.5,1.842-1.68,1.842c-1.986,0-2.002-2.003-2.002-3.101H196.213z
		 M190.723,17.223c0-1.355,0.402-2.473,1.793-2.473c1.389,0,1.729,1.146,1.729,2.473H190.723z M181.081,15.059h1.422v4.636
		c0,2.004,0.904,2.535,2.535,2.535c1.565,0,2.471-0.774,2.471-2.504v-0.354h-1.354v0.823c0,0.693-0.26,1.002-0.84,1.002
		c-0.582,0-0.84-0.309-0.84-1.002v-5.137h2.584V14.12h-2.584v-2.277h-1.406c-0.129,1.633-0.481,2.103-1.983,2.277v0.938
		L181.081,15.059L181.081,15.059z M176.801,11.361c0,0.693,0.42,1.212,1.18,1.212c0.758,0,1.18-0.519,1.18-1.212
		c0-0.694-0.422-1.212-1.18-1.212C177.221,10.149,176.801,10.666,176.801,11.361 M175.704,14.962h0.596
		c0.646,0,0.728,0.146,0.728,1.229v3.938c0,0.743-0.08,1.019-0.901,1.019h-0.519v0.793h4.715v-0.793h-0.42
		c-0.821,0-0.903-0.272-0.903-1.019v-6.202c-1.033,0.1-2.472,0.194-3.293,0.194L175.704,14.962L175.704,14.962z M167.967,21.68
		c0.469,0.192,1.646,0.519,2.971,0.519c1.695,0,3.488-0.729,3.488-2.616c0-1.229-0.613-1.694-2.002-2.146l-1.324-0.438
		c-0.742-0.242-1.162-0.679-1.162-1.292c0-0.646,0.47-0.953,1.211-0.953c1.162,0,1.471,0.519,1.471,1.762h1.355V14.3
		c-0.469-0.21-1.551-0.436-2.776-0.436c-1.905,0-3.229,0.888-3.229,2.354c0,1.262,0.904,1.938,2.777,2.505
		c1.484,0.45,1.713,0.809,1.713,1.403c0,0.743-0.682,1.181-1.713,1.181c-1.115,0-1.424-0.742-1.424-1.892h-1.354L167.967,21.68
		L167.967,21.68z M159.583,14.962h0.694c0.646,0,0.726,0.146,0.726,1.229v3.938c0,0.743-0.08,1.019-0.903,1.019h-0.517v0.793h5.151
		v-0.793h-0.856c-0.823,0-0.903-0.272-0.903-1.019v-2.646c0-1.355,0.743-2.356,1.485-2.356c0.629,0,0.808,0.452,0.824,1.259h1.549
		V14.06c-0.371-0.13-0.822-0.192-1.291-0.192c-1.31,0-2.229,0.549-2.776,1.855h-0.033V13.93c-0.791,0.098-2.229,0.192-3.147,0.192
		L159.583,14.962L159.583,14.962z M158.402,18.16v-0.372c0-2.713-1.082-3.924-3.682-3.924c-2.714,0-3.875,1.774-3.875,4.167
		c0,2.39,1.161,4.166,3.875,4.166c2.696,0,3.506-1.391,3.521-2.778h-1.648c-0.016,1.212-0.5,1.842-1.68,1.842
		c-1.986,0-2.002-2.003-2.002-3.101H158.402z M152.913,17.223c0-1.355,0.403-2.473,1.793-2.473s1.728,1.146,1.728,2.473H152.913z
		 M146.936,14.914h0.678c0.371,0,0.471,0.096,0.471,0.21c0,0.129-0.033,0.29-0.082,0.402l-1.679,4.798h-0.032l-1.553-4.556
		c-0.047-0.161-0.145-0.354-0.145-0.564c0-0.178,0.16-0.29,0.646-0.29h0.531v-0.792h-4.037v0.792h0.192
		c0.354,0,0.452,0.096,0.661,0.629l2.504,6.493H147l2.502-6.573c0.162-0.42,0.309-0.549,0.646-0.549h0.209v-0.792h-3.424v0.792
		H146.936z M137.956,11.361c0,0.693,0.42,1.212,1.178,1.212c0.761,0,1.181-0.519,1.181-1.212c0-0.694-0.42-1.212-1.181-1.212
		C138.375,10.149,137.956,10.666,137.956,11.361 M136.857,14.962h0.597c0.646,0,0.728,0.146,0.728,1.229v3.938
		c0,0.743-0.08,1.019-0.904,1.019h-0.517v0.793h4.716v-0.793h-0.42c-0.824,0-0.904-0.272-0.904-1.019v-6.202
		c-1.032,0.1-2.471,0.194-3.295,0.194V14.962L136.857,14.962z M126.004,14.962h0.598c0.646,0,0.729,0.146,0.729,1.229v3.938
		c0,0.743-0.08,1.019-0.904,1.019h-0.518v0.793h4.521v-0.793h-0.227c-0.824,0-0.904-0.272-0.904-1.019v-2.646
		c0-1.521,0.807-2.356,1.986-2.356c0.871,0,1.42,0.518,1.42,1.663v3.343c0,0.743-0.08,1.019-0.904,1.019h-0.225v0.793H136v-0.793
		h-0.42c-0.824,0-0.904-0.272-0.904-1.019V16.32c0-1.744-1.227-2.454-2.811-2.454c-1.309,0-2.229,0.549-2.777,1.855h-0.031v-1.795
		c-0.791,0.1-2.229,0.194-3.053,0.194V14.962L126.004,14.962z M122.096,21.939h3.053v-0.793h-0.42c-0.824,0-0.902-0.272-0.902-1.019
		v-6.202c-1.035,0.1-2.473,0.194-3.297,0.194v0.84h0.6c0.646,0,0.729,0.146,0.729,1.229v2.213c0,1.663-0.6,2.535-1.973,2.535
		c-0.92,0-1.438-0.471-1.438-1.422v-5.59c-1.032,0.1-2.471,0.194-3.295,0.194v0.84h0.599c0.646,0,0.728,0.146,0.728,1.229v3.777
		c0,1.501,0.97,2.229,2.567,2.229c1.631,0,2.647-0.711,3.021-1.792h0.033v1.534L122.096,21.939L122.096,21.939z M107.417,21.68
		c0.467,0.192,1.646,0.519,2.972,0.519c1.694,0,3.487-0.729,3.487-2.616c0-1.229-0.612-1.694-2.002-2.146l-1.324-0.438
		c-0.743-0.242-1.163-0.679-1.163-1.292c0-0.646,0.469-0.953,1.211-0.953c1.164,0,1.471,0.519,1.471,1.762h1.354V14.3
		c-0.467-0.21-1.549-0.436-2.776-0.436c-1.903,0-3.229,0.888-3.229,2.354c0,1.262,0.902,1.938,2.775,2.505
		c1.486,0.45,1.713,0.809,1.713,1.403c0,0.743-0.678,1.181-1.713,1.181c-1.113,0-1.42-0.742-1.42-1.892h-1.355L107.417,21.68
		L107.417,21.68z M97.047,11.183h0.598c0.646,0,0.727,0.146,0.727,1.229v7.72c0,0.743-0.081,1.019-0.905,1.019H96.95v0.793h4.522
		V21.15h-0.226c-0.823,0-0.904-0.272-0.904-1.019v-9.979c-1.034,0.098-2.471,0.191-3.295,0.191V11.183z M101.731,14.914h0.807
		c0.113,0,0.259,0.063,0.259,0.228c0,0.129-0.113,0.259-0.792,0.951l-1.485,1.552c2.293,2.986,2.357,3.103,2.357,3.229
		c0,0.161-0.161,0.272-0.403,0.272h-0.323v0.793h4.085v-0.793c-0.661-0.018-0.87-0.111-1.453-0.839l-2.342-2.956l2.084-2.065
		c0.307-0.291,0.5-0.371,0.774-0.371h0.533v-0.792h-4.102L101.731,14.914L101.731,14.914z M92.671,11.361
		c0,0.693,0.42,1.212,1.179,1.212c0.759,0,1.179-0.519,1.179-1.212c0-0.694-0.42-1.212-1.179-1.212
		C93.091,10.149,92.671,10.666,92.671,11.361 M89.441,25.411c0.323,0.081,1.13,0.291,2.131,0.291c2.714,0,3.295-1.696,3.295-3.313
		v-8.465c-1.066,0.1-2.503,0.194-3.634,0.194v0.84h0.905c0.646,0,0.759,0.146,0.759,1.229v6.54c0,1.503-0.469,1.938-1.179,1.938
		c-0.727,0-0.921-0.5-0.921-1.26h-1.356V25.411z M87.196,11.361c0,0.693,0.42,1.212,1.179,1.212s1.179-0.519,1.179-1.212
		c0-0.694-0.42-1.212-1.179-1.212S87.196,10.666,87.196,11.361 M86.098,14.962h0.597c0.646,0,0.727,0.146,0.727,1.229v3.938
		c0,0.743-0.081,1.019-0.904,1.019h-0.517v0.793h4.716v-0.793h-0.42c-0.824,0-0.905-0.272-0.905-1.019v-6.202
		c-1.033,0.1-2.471,0.194-3.294,0.194V14.962z M77.845,14.962h0.694c0.646,0,0.727,0.146,0.727,1.229v3.938
		c0,0.743-0.081,1.019-0.904,1.019h-0.517v0.793h5.152v-0.793h-0.856c-0.824,0-0.905-0.272-0.905-1.019v-2.646
		c0-1.355,0.743-2.356,1.486-2.356c0.63,0,0.808,0.452,0.824,1.259h1.55V14.06c-0.371-0.13-0.823-0.192-1.292-0.192
		c-1.308,0-2.228,0.549-2.777,1.855h-0.033V13.93c-0.791,0.098-2.228,0.192-3.149,0.192V14.962z"/>
</g>
<polygon fill="#CC0000" points="69.197,14.005 40.518,49.401 38.239,49.399 66.915,14.007 "/>
<g>
	<path fill="#CC0000" d="M13.854,7.112c-0.208,0.031-0.502,0.114-0.674-0.258c-0.155-0.337,0.428-0.883,0.621-1.061
		c0.25-0.229-0.075-0.475-0.266-0.207c-0.053,0.074-0.51,0.722-0.869,0.722c-0.556,0-0.524-0.651-0.524-0.651
		s-0.621-0.396-0.621-1.653c0-1.118,0.739-1.651,0.739-1.651s0.005-0.639,0.503-0.621c0.497,0.018,0.819,0.701,0.851,0.748
		c0.251,0.378,0.567,0.058,0.347-0.213C13.44,1.629,13.33,1.128,13.9,0.861c0.207-0.473,0.832-0.805,1.514-0.856l0.023-0.001
		L15.458,0c0.682,0.058,1.307,0.39,1.514,0.859c0.57,0.269,0.46,0.77-0.061,1.403c-0.22,0.271,0.096,0.591,0.348,0.213
		c0.031-0.049,0.353-0.73,0.851-0.748c0.497-0.018,0.503,0.621,0.503,0.621S19.351,2.882,19.351,4c0,1.258-0.621,1.653-0.621,1.653
		s0.032,0.651-0.524,0.651c-0.358,0-0.815-0.646-0.869-0.722c-0.19-0.268-0.516-0.021-0.266,0.207
		c0.193,0.176,0.777,0.724,0.621,1.061c-0.171,0.372-0.465,0.289-0.674,0.258c0,0-0.191,0.332-0.48,0.333
		c1.444,1.079,3.711,0.469,4.015-0.321c0,0-0.384,0.076-0.38-0.326c0.003-0.244,0.251-0.376,0.586-0.425
		c-0.07-0.154-0.105-0.339-0.093-0.54c0.033-0.564,0.423-1.041,0.873-1.063c0.449-0.021,0.786,0.424,0.753,0.987
		c-0.016,0.285-0.124,0.547-0.284,0.74c0.329,0.111,0.561,0.28,0.53,0.479c-0.08,0.521-0.561,0.393-0.561,0.393
		c-0.058,1.188,1.752,1.414,2.215,1.106c-0.183-0.687,0.09-0.893,0.299-1.075c0.149-0.132,0.592-0.403,0.653-0.443
		c0.138-0.09,0.21-0.282,0.123-0.354c-0.081-0.065-0.262,0.049-0.348,0.146c-0.122,0.138-0.337,0.464-0.674,0.375
		c-0.407-0.105-0.231-0.573-0.3-0.824c-0.434-1.583-0.063-2.688,1.52-3.35c0,0,0.602-0.635,1.142-0.35
		c0.517,0.272,0.196,1.117,0.196,1.117l0.16,0.075c0.578-1.049,1.414-1.811,2.613-1.84c0.85-0.021,1.26,0.479,1.293,1.166
		c0.074,1.527-1.488,0.959-1.366,0.388c0,0-0.378,0.039-0.586,0.371c0-0.096,0.012-1.003-0.798-0.521
		c-0.231,0.138-0.639,0.82-0.669,0.909c-0.101,0.301,0.045,0.349-0.112,0.644c-0.123,0.229-0.295,0.282-0.369,0.442
		c-0.075,0.158,0.032,0.478-0.07,0.681c-0.124,0.248-0.295,0.268-0.407,0.492c-0.089,0.179-1.22,3.062-1.22,3.062
		s0.45,0.288,0.364,0.716c-0.114,0.574-0.479,0.45-0.673,0.827C18.821,9.547,12.464,9.538,5.894,11.1
		c-0.197-0.346-0.547-0.239-0.659-0.802C5.149,9.873,5.6,9.585,5.6,9.585S4.469,6.702,4.38,6.524
		C4.268,6.299,4.097,6.281,3.973,6.031C3.871,5.828,3.978,5.51,3.903,5.35C3.829,5.19,3.657,5.135,3.535,4.908
		C3.377,4.615,3.522,4.566,3.421,4.266c-0.028-0.087-0.438-0.772-0.669-0.91C1.943,2.877,1.956,3.784,1.955,3.88
		C1.748,3.548,1.369,3.509,1.369,3.509C1.491,4.08-0.071,4.65,0.003,3.121c0.033-0.688,0.443-1.188,1.293-1.166
		c1.2,0.029,2.035,0.791,2.613,1.84l0.16-0.075c0,0-0.321-0.845,0.196-1.117c0.539-0.285,1.141,0.35,1.141,0.35
		C6.989,3.613,7.36,4.717,6.926,6.3c-0.069,0.251,0.107,0.719-0.3,0.824C6.29,7.212,6.076,6.885,5.953,6.748
		C5.868,6.652,5.687,6.537,5.604,6.604C5.519,6.674,5.589,6.867,5.728,6.957C5.789,6.997,6.231,7.27,6.38,7.401
		c0.209,0.186,0.482,0.392,0.3,1.075C7.142,8.784,8.952,8.555,8.895,7.37c0,0-0.482,0.128-0.562-0.393
		C8.304,6.781,8.535,6.612,8.863,6.5C8.704,6.307,8.597,6.045,8.58,5.76C8.546,5.194,8.883,4.752,9.333,4.771
		c0.449,0.021,0.84,0.495,0.873,1.063c0.011,0.201-0.024,0.386-0.094,0.54c0.335,0.049,0.584,0.183,0.586,0.425
		c0.004,0.402-0.38,0.326-0.38,0.326c0.304,0.79,2.571,1.4,4.016,0.321C14.044,7.444,13.854,7.112,13.854,7.112 M14.375,4.156
		c0,0.586,0.475,1.062,1.061,1.062c0.587,0,1.062-0.476,1.062-1.062c0-0.587-0.475-1.063-1.062-1.063
		C14.85,3.094,14.375,3.57,14.375,4.156 M20.232,8.76c0.457-0.013,1.351,0.176,1.351,0.176s-0.38-0.427-0.554-0.716
		c0,0-0.203,0.19-0.326,0.279C20.607,8.569,20.232,8.76,20.232,8.76 M15.437,7.829c-0.179,0.198-0.525,0.54-0.901,0.669
		c0,0,0.619-0.017,0.887-0.021h0.027c0.268,0.005,0.888,0.021,0.888,0.021C15.96,8.369,15.614,8.028,15.437,7.829 M10.64,8.76
		c0,0-0.375-0.188-0.471-0.261c-0.124-0.089-0.327-0.28-0.327-0.28c-0.174,0.29-0.553,0.716-0.553,0.716S10.183,8.747,10.64,8.76
		 M24.692,11.628c0.294,0.079,0.708,0.369,0.594,0.794c-0.114,0.428-0.617,0.472-0.912,0.393c-0.295-0.078-0.708-0.368-0.594-0.794
		C23.895,11.593,24.397,11.549,24.692,11.628 M20.833,11.513l-0.895,0.752l-0.751-0.896l0.895-0.751L20.833,11.513z M6.601,12.813
		c-0.295,0.079-0.798,0.035-0.912-0.393c-0.114-0.425,0.3-0.715,0.594-0.794c0.295-0.079,0.798-0.035,0.912,0.393
		C7.309,12.444,6.896,12.734,6.601,12.813 M14.555,11.229c0-0.337,0.418-0.609,0.933-0.609c0.515,0,0.933,0.272,0.933,0.609
		c0,0.339-0.418,0.61-0.933,0.61C14.973,11.842,14.555,11.568,14.555,11.229 M10.142,11.513l0.751-0.896l0.895,0.751l-0.751,0.896
		L10.142,11.513z M2.484,38.536c0.102-0.407,0.536-0.316,0.536-0.316s-0.103-0.375,0.279-0.547c0.424-0.188,0.635,0.278,0.635,0.278
		l0.178,1.205l-1.285-0.044C2.827,39.113,2.372,38.987,2.484,38.536 M4.305,36.541c0.101-0.406,0.535-0.313,0.535-0.313
		s-0.103-0.375,0.279-0.547c0.424-0.189,0.634,0.275,0.634,0.275l0.178,1.206l-1.284-0.043C4.646,37.119,4.191,36.992,4.305,36.541
		 M6.124,34.546c0.102-0.404,0.535-0.313,0.535-0.313s-0.103-0.375,0.279-0.548c0.424-0.188,0.635,0.276,0.635,0.276l0.178,1.205
		l-1.285-0.043C6.465,35.124,6.011,34.997,6.124,34.546 M15.447,16.074c0.102-0.407,0.535-0.316,0.535-0.316
		s-0.103-0.375,0.279-0.547c0.424-0.188,0.634,0.278,0.634,0.278l0.179,1.204l-1.285-0.043
		C15.79,16.651,15.334,16.524,15.447,16.074 M17.226,22.877c0.102-0.407,0.535-0.314,0.535-0.314s-0.103-0.375,0.279-0.546
		c0.424-0.189,0.634,0.275,0.634,0.275l0.179,1.205l-1.285-0.042C17.567,23.455,17.112,23.328,17.226,22.877 M19.36,20.616
		c0.102-0.407,0.535-0.315,0.535-0.315s-0.102-0.376,0.28-0.547c0.424-0.189,0.634,0.277,0.634,0.277l0.178,1.205l-1.284-0.043
		C19.704,21.194,19.249,21.067,19.36,20.616 M21.497,18.354c0.102-0.404,0.535-0.313,0.535-0.313s-0.103-0.375,0.28-0.547
		c0.423-0.191,0.634,0.275,0.634,0.275l0.178,1.206l-1.284-0.043C21.839,18.933,21.383,18.806,21.497,18.354 M23.632,16.094
		c0.102-0.404,0.535-0.313,0.535-0.313s-0.103-0.375,0.279-0.548c0.424-0.19,0.635,0.275,0.635,0.275l0.178,1.205l-1.285-0.043
		C23.975,16.672,23.52,16.545,23.632,16.094 M1.275,31.314C1.377,30.909,1.81,31,1.81,31s-0.103-0.376,0.279-0.547
		c0.424-0.189,0.635,0.275,0.635,0.275l0.178,1.206l-1.285-0.043C1.618,31.892,1.163,31.765,1.275,31.314 M6.234,43.416
		c0.102-0.406,0.535-0.313,0.535-0.313s-0.103-0.375,0.279-0.547c0.424-0.189,0.635,0.276,0.635,0.276l0.178,1.205l-1.285-0.043
		C6.577,43.994,6.122,43.867,6.234,43.416 M8.346,41.12c0.102-0.406,0.535-0.313,0.535-0.313s-0.102-0.375,0.28-0.549
		c0.423-0.188,0.634,0.278,0.634,0.278l0.178,1.205l-1.284-0.043C8.688,41.698,8.232,41.571,8.346,41.12 M10.458,38.824
		c0.102-0.406,0.535-0.315,0.535-0.315s-0.103-0.375,0.279-0.547c0.424-0.189,0.634,0.277,0.634,0.277l0.179,1.205L10.8,39.402
		C10.799,39.402,10.345,39.275,10.458,38.824 M12.568,36.528c0.102-0.406,0.535-0.315,0.535-0.315S13,35.837,13.382,35.666
		c0.424-0.189,0.635,0.276,0.635,0.276l0.178,1.206l-1.285-0.043C12.911,37.106,12.456,36.979,12.568,36.528 M21.868,26.766
		c0.102-0.406,0.535-0.314,0.535-0.314s-0.103-0.375,0.28-0.546c0.423-0.191,0.634,0.275,0.634,0.275l0.178,1.206l-1.284-0.045
		C22.21,27.344,21.754,27.217,21.868,26.766 M23.771,24.689c0.102-0.405,0.535-0.314,0.535-0.314s-0.103-0.376,0.279-0.547
		c0.424-0.189,0.635,0.275,0.635,0.275l0.178,1.206l-1.285-0.043C24.113,25.267,23.659,25.14,23.771,24.689 M25.675,22.612
		c0.102-0.405,0.535-0.314,0.535-0.314s-0.103-0.375,0.279-0.547c0.424-0.189,0.635,0.277,0.635,0.277l0.178,1.205l-1.285-0.043
		C26.018,23.19,25.563,23.063,25.675,22.612 M27.58,20.535c0.102-0.406,0.535-0.315,0.535-0.315s-0.103-0.375,0.279-0.547
		c0.424-0.188,0.635,0.278,0.635,0.278l0.178,1.205l-1.285-0.044C27.921,21.113,27.466,20.986,27.58,20.535 M12.801,45.454
		c0.102-0.406,0.535-0.313,0.535-0.313s-0.103-0.375,0.279-0.549c0.424-0.188,0.635,0.278,0.635,0.278l0.178,1.205l-1.285-0.043
		C13.144,46.032,12.688,45.906,12.801,45.454 M27.59,29.087c0.102-0.405,0.535-0.314,0.535-0.314s-0.103-0.375,0.279-0.547
		c0.424-0.188,0.635,0.276,0.635,0.276l0.178,1.205l-1.285-0.042C27.933,29.665,27.478,29.538,27.59,29.087 M13.286,30.729
		c0-0.063,0.101-0.055,0.293-0.085c0.192-0.031,0.363-0.098,0.363-0.031c0,0.097-0.133,0.021-0.133,0.177v1.5
		c0,0.075,0.101,0.021,0.101,0.08c0,0.074-0.181,0.043-0.315,0.043c-0.139,0-0.315,0.031-0.315-0.027c0-0.101,0.123,0,0.123-0.096
		v-1.425C13.402,30.714,13.286,30.853,13.286,30.729 M11.657,31.379c0-0.042,0.053-0.047,0.149-0.096
		c0.097-0.048,0.155-0.103,0.241-0.026c0.085,0.075,0.549,0.608,0.549,0.608v-0.759c0-0.086-0.149,0.024-0.149-0.061
		c0-0.063,0.064-0.063,0.17-0.104c0.107-0.043,0.262-0.159,0.262-0.086c0,0.092-0.112,0.063-0.112,0.183V32.5
		c0,0.123-0.011,0.123-0.064,0.123c-0.032,0-0.771-0.932-0.771-0.932v0.992c0,0.091,0.179-0.034,0.179,0.051
		c0,0.049-0.107,0.074-0.214,0.117c-0.107,0.042-0.256,0.11-0.256,0.06c0-0.091,0.133-0.06,0.133-0.147v-1.286
		C11.773,31.379,11.657,31.454,11.657,31.379 M11.079,32.294c0-0.619-0.395-0.389-0.395-0.389v1.271
		C10.684,33.177,11.079,33.17,11.079,32.294 M10.155,32.038c0-0.045,0.192-0.116,0.32-0.177c0.23-0.106,0.972-0.485,0.972,0.428
		c0,0.838-0.588,0.979-0.774,1.063c-0.187,0.086-0.44,0.209-0.459,0.168c-0.033-0.064,0.101-0.076,0.101-0.228v-1.041
		C10.315,31.99,10.155,32.126,10.155,32.038 M12.741,28.256c-0.004-0.039,0.151-0.063,0.23-0.087
		c0.134-0.036,0.219-0.063,0.275-0.006c0.056,0.057,0.33,0.499,0.33,0.499s0.353-0.499,0.381-0.532
		c0.028-0.032,0.039-0.081,0.18-0.084c0.162-0.003,0.235-0.021,0.235,0.016c0,0.063-0.101,0.029-0.107,0.158
		c-0.004,0.103,0,1.296,0,1.361c0,0.151,0.104,0.103,0.104,0.151s-0.067,0.027-0.305,0.025c-0.196-0.003-0.328,0.025-0.328-0.012
		c0-0.065,0.104-0.012,0.104-0.146v-0.91c0,0-0.342,0.499-0.359,0.499c-0.02,0-0.437-0.639-0.437-0.639v1.092
		c0,0.175,0.173,0.07,0.173,0.142c0,0.033-0.132,0.049-0.229,0.072c-0.112,0.025-0.21,0.067-0.222,0.038
		c-0.024-0.066,0.121-0.029,0.121-0.229c0-0.174,0.002-1.174,0-1.247C12.88,28.228,12.747,28.312,12.741,28.256 M12.248,28.446
		c0.058-0.026,0.211-0.109,0.229-0.085c0.027,0.037-0.061,0.046-0.122,0.31c-0.023,0.098-0.31,1.606-0.417,1.66
		c-0.034,0.02-0.521-1.188-0.566-1.286c-0.08-0.171-0.165-0.057-0.181-0.117c-0.01-0.037,0.123-0.089,0.234-0.139
		c0.059-0.025,0.274-0.157,0.297-0.131c0.045,0.051-0.118,0.053-0.04,0.236c0.052,0.124,0.325,0.727,0.325,0.727
		s0.16-0.679,0.209-0.907c0.047-0.229-0.128-0.113-0.134-0.165c-0.003-0.027,0.085-0.064,0.16-0.099L12.248,28.446z M10.378,30.032
		v0.829c0,0,0.427-0.089,0.427-0.605C10.806,29.813,10.378,30.032,10.378,30.032 M10.373,29.304v0.55c0,0,0.31-0.114,0.31-0.383
		C10.683,29.151,10.373,29.304,10.373,29.304 M10.405,29.161c0.181-0.069,0.656-0.165,0.656,0.246c0,0.294-0.192,0.361-0.192,0.361
		s0.347,0.063,0.347,0.354c0,0.331-0.16,0.563-0.341,0.656c-0.093,0.05-0.662,0.324-0.716,0.354c-0.053,0.032-0.18,0.104-0.194,0.07
		c-0.033-0.072,0.093-0.061,0.093-0.271V29.6c0-0.282-0.133-0.157-0.133-0.23C9.925,29.324,10.22,29.232,10.405,29.161
		 M13.368,25.414v0.672c0,0,0.316-0.021,0.316-0.384C13.684,25.27,13.368,25.414,13.368,25.414 M14.203,26.914
		c0.096,0.012,0.139-0.024,0.139-0.024s-0.032,0.238-0.283,0.238c-0.341,0-0.336-0.587-0.432-0.758s-0.257-0.08-0.257-0.08v0.6
		c0,0.19,0.12,0.107,0.12,0.18c0,0.028-0.093,0.045-0.093,0.045s-0.261,0.074-0.357,0.097c-0.096,0.021-0.138,0.043-0.138,0
		c0-0.076,0.095-0.025,0.095-0.235V25.74c0-0.239-0.138-0.159-0.141-0.229c-0.002-0.039,0.096-0.059,0.192-0.083
		c0.161-0.038,0.222-0.09,0.451-0.144c0.221-0.053,0.609,0.054,0.609,0.361c0,0.343-0.193,0.411-0.299,0.489
		C14.203,26.327,14.026,26.893,14.203,26.914 M11.609,26.036c0.16-0.054,0.443-0.174,0.747-0.345
		c0.041-0.022,0.165-0.103,0.224,0.012c0.061,0.114,0.107,0.267,0.07,0.282c-0.055,0.021-0.091-0.021-0.16-0.062
		c-0.061-0.03-0.139-0.066-0.214-0.048C12.202,25.9,12.1,25.945,12.1,25.945l0.001,0.523c0,0,0.186,0,0.208-0.101
		c0.017-0.081,0.05-0.188,0.109-0.203c0.034-0.009,0.024,0.101,0.028,0.25c0.002,0.052,0.005,0.081,0.006,0.108
		c0.004,0.187-0.007,0.247-0.034,0.252c-0.051,0.011-0.094-0.125-0.106-0.156c-0.022-0.057-0.211-0.005-0.211,0.024V27.4
		c0,0,0.144-0.076,0.208-0.114c0.087-0.052,0.234-0.221,0.291-0.32c0.056-0.099,0.078-0.18,0.13-0.171
		c0.033,0.005-0.037,0.331-0.037,0.331s-0.005,0.128-0.112,0.183c-0.106,0.055-0.703,0.333-0.755,0.356
		c-0.102,0.048-0.225,0.136-0.227,0.088c-0.003-0.073,0.099-0.035,0.099-0.256l-0.003-1.263c0,0-0.004-0.105-0.085-0.12
		C11.547,26.106,11.489,26.077,11.609,26.036 M10.213,26.616c0.086-0.03,0.329-0.135,0.342-0.105
		c0.034,0.076-0.126,0.062-0.073,0.213c0.045,0.128,0.326,0.796,0.326,0.796l0.246-0.961c0.053-0.208-0.115-0.138-0.129-0.188
		c-0.009-0.035,0.123-0.075,0.198-0.105c0.061-0.028,0.259-0.113,0.27-0.09c0.026,0.067-0.075,0.067-0.128,0.256
		c-0.064,0.222-0.438,1.727-0.542,1.78c-0.059,0.032-0.574-1.266-0.614-1.366c-0.04-0.1-0.179-0.063-0.192-0.121
		C9.912,26.698,10.127,26.645,10.213,26.616 M16.976,30.781c-0.003-0.04,0.058-0.024,0.149,0.004c0.091,0.025,0.2,0.054,0.275,0.176
		c0.074,0.122,0.637,1.084,0.637,1.084l-0.004-0.868c0-0.113-0.102-0.116-0.102-0.166c0-0.044,0.078,0,0.16,0.028
		c0.081,0.026,0.2,0.04,0.2,0.078c0,0.036-0.105-0.019-0.105,0.084v1.637c0,0,0,0.071-0.048,0.006
		c-0.038-0.052-0.881-1.407-0.881-1.407s0.003,0.852,0,0.938c-0.003,0.103,0.109,0.091,0.109,0.144c0,0.052-0.119,0.022-0.193,0.011
		c-0.075-0.015-0.187-0.003-0.187-0.067c0-0.063,0.102,0.034,0.102-0.118V30.95C17.087,30.842,16.979,30.835,16.976,30.781
		 M17.771,28.274c0-0.063,0.268,0.047,0.478,0.105c0.21,0.063,0.606,0.126,0.606,0.254c0,0.158,0.041,0.312-0.01,0.312
		c-0.031,0-0.095-0.199-0.159-0.266c-0.098-0.1-0.298-0.144-0.352-0.151c-0.055-0.011-0.041-0.008-0.041,0.03v0.509
		c0,0,0.135,0.064,0.21,0.033c0.075-0.033,0.085-0.151,0.129-0.145c0.043,0.01,0.027,0.104,0.02,0.277
		c-0.007,0.177,0.014,0.336-0.031,0.316c-0.043-0.017-0.047-0.166-0.138-0.255c-0.092-0.088-0.193-0.101-0.193-0.101v0.829
		c0,0,0.101,0.109,0.311,0.044c0.21-0.067,0.359-0.21,0.393-0.177c0.034,0.032,0.017,0.081-0.084,0.238
		c-0.102,0.16-0.156,0.264-0.258,0.219s-0.332-0.134-0.474-0.194c-0.142-0.065-0.437-0.138-0.437-0.197
		c0-0.061,0.145,0.051,0.145-0.125v-1.42C17.887,28.344,17.771,28.323,17.771,28.274 M17.429,28.031c0.075,0,0.06,0.274,0.071,0.364
		c0.021,0.172,0.072,0.32,0.018,0.323c-0.081,0.006-0.178-0.269-0.309-0.401c-0.123-0.127-0.575-0.357-0.575,0.599
		c0,0.817,0.355,0.801,0.549,0.74c0.19-0.063,0.269-0.211,0.291-0.195c0.023,0.017-0.157,0.404-0.553,0.449
		c-0.396,0.044-0.784-0.345-0.784-0.953c0-0.607,0.299-0.98,0.676-0.98c0.303,0,0.392,0.209,0.522,0.209
		C17.421,28.184,17.342,28.031,17.429,28.031 M18.45,25.862c0.015-0.076,0.152,0.021,0.376,0.11c0.223,0.093,0.386,0.14,0.373,0.178
		c-0.014,0.036-0.173-0.023-0.153,0.081c0.02,0.104,0.271,0.929,0.271,0.929s0.291-0.69,0.298-0.719
		c0.021-0.085-0.078-0.101-0.068-0.142c0.011-0.043,0.099,0.017,0.17,0.057c0.071,0.04,0.186,0.077,0.166,0.126
		c-0.02,0.047-0.105-0.063-0.139,0.021c-0.034,0.081-0.617,1.391-0.617,1.391l-0.583-1.88C18.511,25.902,18.439,25.912,18.45,25.862
		 M17.118,25.357c0-0.045,0.082-0.008,0.082-0.008l0.518,0.188c0,0,0.091,0.03,0.088,0.071c-0.003,0.04-0.176-0.052-0.176,0.104
		v1.46c0,0,0.037,0.1,0.21,0.027c0.173-0.071,0.43-0.241,0.43-0.241s0.122-0.062,0.092,0.023c-0.031,0.085-0.153,0.354-0.153,0.354
		s-0.027,0.104-0.166,0.081c-0.139-0.022-0.481-0.129-0.576-0.156c-0.095-0.024-0.359-0.104-0.359-0.104s-0.054-0.012-0.054-0.053
		c0-0.04,0.166,0.004,0.166-0.129V25.55C17.22,25.421,17.118,25.418,17.118,25.357 M19.125,30.516c0-0.103,0.139,0.038,0.139-0.122
		v-1.409c0-0.177-0.08-0.17-0.08-0.239s0.155,0.031,0.192,0.049c0.037,0.017,0.443,0.226,0.486,0.245
		c0.042,0.021,0.475,0.197,0.475,0.672c0,0.326-0.272,0.272-0.272,0.272s0.272,0.159,0.287,0.397
		c0.017,0.24,0.049,0.443,0.049,0.478c0,0.031,0.048,0.172,0.197,0.043c0,0,0.017,0.286-0.309,0.182
		c-0.213-0.067-0.273-0.268-0.288-0.398c-0.017-0.136-0.091-0.776-0.38-0.77v0.646c0,0.172,0.101,0.123,0.101,0.226
		c0,0.063-0.149-0.038-0.282-0.093C19.243,30.604,19.125,30.575,19.125,30.516 M19.623,29.081v0.655
		c0.043,0.017,0.368,0.225,0.368-0.182C19.991,29.147,19.623,29.081,19.623,29.081 M18.908,31.539
		c0.031-0.104-0.065-0.131-0.046-0.174c0.014-0.032,0.147,0.04,0.227,0.076c0.08,0.037,0.203,0.067,0.235,0.18
		c0.032,0.107,0.451,1.538,0.491,1.671c0.045,0.148,0.133,0.106,0.107,0.176c-0.011,0.027-0.134-0.03-0.377-0.128
		c-0.202-0.08-0.302-0.104-0.302-0.138c0-0.066,0.204,0.043,0.156-0.097c-0.032-0.096-0.102-0.339-0.102-0.339l-0.563-0.185
		l-0.08,0.271c-0.04,0.137,0.088,0.111,0.064,0.164c-0.013,0.026-0.093-0.01-0.197-0.053c-0.1-0.04-0.143-0.048-0.139-0.075
		c0.005-0.05,0.085,0.021,0.122-0.076C18.542,32.718,18.879,31.626,18.908,31.539 M18.997,31.726L18.8,32.358l0.438,0.146
		L18.997,31.726z M30.276,14.05v18.732c0.208,11.188-8.946,15.159-14.985,15.159c-6.04,0-15.194-3.973-14.986-15.159V14.05h5.586
		c-0.03-0.346,0.064-0.587,0.073-0.598c7.631-1.528,11.322-1.602,18.947,0.004c0.164,0.197,0.195,0.41,0.167,0.594H30.276z
		 M3.099,41.202l5.85-6.229v-1.819L8.286,33.13c0,0-0.456-0.127-0.343-0.578c0.102-0.405,0.535-0.313,0.535-0.313
		s-0.102-0.375,0.28-0.546c0.069-0.031,0.133-0.046,0.191-0.047l0.001-1.207l-7.31,7.784C2.015,39.327,2.511,40.318,3.099,41.202
		 M10.379,25.282c0.079-0.036,0.159-0.073,0.239-0.113c0.282-0.143,0.79-0.408,1.337-0.639c0.538-0.229,1.174-0.449,1.684-0.449
		c0.513,0,0.925,0.153,1.208,0.308c0.142,0.074,0.253,0.151,0.33,0.212l0.028,0.021c0.01-0.016,0.022-0.031,0.036-0.048
		c0.059-0.072,0.145-0.155,0.269-0.233c0.25-0.156,0.632-0.279,1.21-0.279c0.606,0,1.286,0.24,1.834,0.488l0.126,0.061l9.399-10.01
		h-4.258l-8.278,8.813v-4.243l4.293-4.57H0.854v18.188c-0.012,0.68,0.011,1.331,0.067,1.957l4.095-4.362H8.95v-3.476
		c-0.073,0.102-0.185,0.083-0.185,0.083s0.099-0.301-0.174-0.345C8.57,26.642,8.548,26.64,8.523,26.64
		c-0.155,0-0.242,0.076-0.335,0.15c-0.145,0.116-0.575,0.62-0.659,0.702c-0.084-0.082-0.515-0.586-0.661-0.702
		c-0.092-0.074-0.18-0.15-0.334-0.15c-0.025,0-0.048,0.002-0.068,0.005c-0.274,0.044-0.174,0.345-0.174,0.345
		s-0.248,0.04-0.248-0.337c0-0.269,0.212-0.424,0.4-0.474c0.284-0.063,0.565-0.087,0.618-0.557c0.003-0.095-0.013-0.113-0.013-0.113
		s-0.102,0.155-0.354,0.275c-0.292,0.151-1.081,0.142-1.061,0.594c-0.006,0.183,0.192,0.164,0.192,0.164s-0.01,0.082-0.143,0.104
		c-0.029,0.005-0.064,0.007-0.106,0.004c-0.183-0.025-0.244-0.22-0.231-0.464c0.011-0.151-0.091-0.354-0.289-0.325
		C5.023,25.868,4.985,25.88,4.945,25.9c-0.151,0.088-0.098,0.229-0.098,0.229s-0.171-0.096-0.145-0.295
		c0.023-0.171,0.136-0.249,0.296-0.313c0.02-0.004,0.039-0.008,0.058-0.013c0.205-0.029,0.377,0.03,0.377,0.03
		S5.381,25.384,5.4,25.228c0.017-0.136,0.087-0.27,0.287-0.307c0.298-0.056,0.362,0.146,0.317,0.254
		c-0.016,0.013-0.069-0.066-0.154-0.056c-0.012,0.002-0.025,0.006-0.039,0.012c-0.05,0.026-0.079,0.062-0.094,0.097
		c-0.05,0.118,0.048,0.269,0.065,0.292c0.06,0.08,0.244,0.137,0.473,0.093c0.266-0.058,0.455-0.229,0.547-0.385
		c0.049-0.079,0.07-0.153,0.063-0.204l0.145-1.609c0,0,0.046-0.414-0.236-0.462c-0.033-0.008-0.066-0.008-0.1-0.002
		c-0.238,0.037-0.486,0.354-0.408,0.752c0.06,0.305-0.096,0.538-0.246,0.571c-0.191,0.045-0.307,0.008-0.374-0.133
		c0.333-0.021,0.312-0.289,0.207-0.387c-0.045-0.04-0.11-0.051-0.185-0.04c-0.311,0.051-0.803,0.479-0.882,0.733
		c-0.071,0.229,0.101,0.171,0.174,0.364c0.059,0.153-0.073,0.277-0.073,0.277c-0.004,0.055-0.011,0.1-0.02,0.136
		c-0.036,0.136-0.106,0.181-0.171,0.188c-0.051,0.008-0.099-0.006-0.124-0.015c0.083-0.035,0.108-0.112,0.115-0.176
		c0.005-0.045,0.001-0.079,0.001-0.079s-0.093,0.011-0.174-0.114c-0.094-0.146,0.022-0.192-0.081-0.352
		c-0.105-0.156-0.395-0.324-0.622-0.354c-0.015-0.002-0.029-0.001-0.043,0.001c-0.044,0.006-0.086,0.028-0.154,0.039
		c-0.019,0.004-0.041,0.006-0.066,0.006c-0.179,0.004-0.13-0.104-0.277-0.093c-0.076,0.016-0.12,0.088-0.095,0.189
		c0.004,0.019-0.008,0.025-0.008,0.025c-0.081-0.056-0.115-0.13-0.121-0.219c-0.001-0.231,0.147-0.396,0.287-0.408
		c0.166-0.017,0.243,0.087,0.256,0.104c0.091-0.387-0.211-0.256-0.357-0.438c-0.098-0.128-0.059-0.192-0.046-0.238
		c0.02-0.067-0.101-0.078-0.193-0.063c-0.026,0.005-0.05,0.011-0.067,0.017c-0.018-0.018,0.029-0.197,0.219-0.226
		c0.065-0.013,0.148-0.003,0.253,0.036c0.098-0.028,0.192,0.02,0.227,0.086c0.042,0.08,0.007,0.172,0.018,0.271
		c0.03,0.256,0.187,0.249,0.211,0.246c-0.139-0.366,0.036-0.476,0.054-0.532c0.018-0.058-0.004-0.135-0.095-0.167
		c-0.019-0.007-0.045-0.021-0.015-0.028c0,0,0.351-0.018,0.405,0.214c0,0,0.151,0.08,0.155,0.271
		c0.004,0.236-0.124,0.258-0.173,0.307c0.036,0.246,0.182,0.287,0.319,0.269c0.134-0.021,0.258-0.102,0.258-0.102
		c0.231-0.094,0.71-0.39,0.581-0.632c-0.059-0.108-0.156-0.155-0.263-0.142c-0.051,0.008-0.103,0.029-0.154,0.065
		c-0.139,0.133-0.07,0.308-0.07,0.308c-0.211,0.056-0.31-0.313-0.178-0.467c0.092-0.108,0.205-0.151,0.326-0.174
		c0.138-0.023,0.287-0.021,0.429-0.05c0.169-0.031,0.298-0.139,0.423-0.354c0.092-0.153,0.095-0.364,0.015-0.532
		c-0.082-0.185-0.251-0.414-0.488-0.457c-0.045,0.396-0.264,0.71-0.532,0.9c-0.066,0.047-0.153,0.07-0.211,0.081
		c-0.047,0.008-0.077,0.004-0.066-0.013c0.349-0.405,0.259-0.836,0.249-0.877c-0.025,0.049-0.298,0.55-0.785,0.765
		c-0.047,0.021-0.096,0.031-0.146,0.041c-0.262,0.041-0.524-0.081-0.42-0.097c0.173-0.021,0.871-0.429,0.661-1.288
		c-0.027,0.051-0.334,0.599-0.712,0.855c-0.161,0.11-0.329,0.166-0.478,0.188c-0.298,0.048-0.524-0.035-0.482-0.074
		c0,0,0.822-0.392,0.832-0.762c-0.027,0.021-0.249,0.192-0.508,0.232c-0.035,0.005-0.071,0.008-0.106,0.008
		c-0.701,0-0.701-0.504-0.701-0.504c0.049,0.005,0.704,0.048,1.239-1.088c0,0-0.349,0.123-0.751,0.167
		c-0.238,0.026-0.338-0.123-0.31-0.121c0.042,0.015,0.089,0.021,0.149,0.009c0.132-0.021,0.32-0.104,0.559-0.286
		c-0.064-0.027-0.923-0.408-0.591-0.999c0,0,0.237,0.207,0.529,0.232c0.215,0.021,0.589-0.021,0.68-0.237
		c0,0-0.463-0.024-0.917-0.313c-0.268-0.167-0.373-0.564-0.275-0.449c0.1,0.118,0.203,0.152,0.357,0.191
		c0.12,0.028,0.202,0.002,0.202,0.002S2.183,17.389,2.605,16.9c0,0,0.225,0.629,0.778,0.631c0,0-0.28-0.261-0.336-0.572
		c-0.039-0.214-0.023-0.498,0.016-0.417C3.09,16.6,3.15,16.699,3.189,16.771c0.069,0.124,0.216,0.29,0.334,0.393
		c0,0-0.084-0.329,0.031-0.628c0.017-0.046,0.171-0.297,0.182-0.233c0,0,0.002,0.196,0.013,0.262
		c0.034,0.213,0.115,0.479,0.515,0.886c0.507,0.517,1.057,0.513,1.061,0.836c-0.02,0.385-0.494,0.335-0.805,0.309
		c-0.108,0-0.094,0.165-0.004,0.282c0.259,0.349,1.357,0.433,1.701-0.132c0.122-0.197,0.155-0.434,0.073-0.651
		c-0.104-0.292-0.34-0.302-0.788-0.396C5.184,17.632,5.27,17.49,5.317,17.49c0,0,0.097,0.055,0.191,0.055
		c0.235,0.002,0.092-0.301,0.067-0.297c-0.06,0.009-0.314,0.11-0.533,0.13c-0.278,0.023-0.611-0.087-0.611-0.278
		c0-0.23,0.291-0.299,0.278-0.235c-0.003,0.016-0.175,0.329,0.338,0.313c0.162-0.005,0.489-0.021,0.488-0.036
		c-0.01-0.088-0.162-0.209-0.278-0.209c-0.086,0-0.165,0.021-0.322,0.006c-0.056-0.14,0.094-0.276,0.197-0.329
		c0.103-0.052,0.177-0.026,0.222-0.044c0.06-0.021,0.096-0.21,0.439-0.215c0.18-0.005,0.441,0.12,0.562,0.12
		c0.12,0,0.334-0.076,0.356-0.038c0.021,0.038-0.086,0.161-0.065,0.271c-0.01,0.251,0.424,1.242,0.882,1.337
		c0.457-0.095,0.893-1.086,0.882-1.337c0.021-0.108-0.086-0.23-0.065-0.271c0.022-0.038,0.237,0.038,0.357,0.038
		c0.12,0,0.381-0.125,0.562-0.12c0.343,0.005,0.379,0.192,0.439,0.215c0.045,0.018,0.118-0.008,0.221,0.044
		c0.103,0.053,0.253,0.189,0.197,0.329c-0.156,0.018-0.236-0.006-0.322-0.006c-0.116,0-0.268,0.121-0.277,0.209
		c-0.002,0.015,0.325,0.031,0.488,0.036c0.513,0.02,0.341-0.297,0.337-0.313c-0.013-0.063,0.279,0.005,0.279,0.235
		c0,0.191-0.334,0.305-0.612,0.278c-0.218-0.02-0.472-0.121-0.532-0.13c-0.025-0.004-0.169,0.299,0.067,0.297
		c0.094,0,0.191-0.055,0.191-0.055c0.047,0,0.133,0.143-0.185,0.211c-0.449,0.1-0.685,0.108-0.789,0.4
		c-0.081,0.22-0.048,0.455,0.073,0.65c0.344,0.563,1.443,0.479,1.702,0.132c0.089-0.116,0.104-0.281-0.005-0.281
		c-0.31,0.025-0.784,0.077-0.805-0.31c0.005-0.321,0.555-0.317,1.062-0.836c0.399-0.407,0.481-0.673,0.515-0.885
		c0.01-0.063,0.013-0.262,0.013-0.262c0.01-0.063,0.165,0.188,0.182,0.232c0.114,0.299,0.03,0.628,0.03,0.628
		c0.118-0.102,0.266-0.268,0.334-0.392c0.04-0.073,0.1-0.175,0.126-0.23c0.039-0.081,0.055,0.203,0.017,0.417
		c-0.056,0.313-0.336,0.572-0.336,0.572c0.553-0.002,0.777-0.631,0.777-0.631c0.422,0.489-0.245,1.122-0.245,1.122
		s0.082,0.027,0.203-0.002c0.154-0.039,0.256-0.074,0.356-0.192c0.099-0.113-0.006,0.282-0.274,0.449
		c-0.454,0.286-0.917,0.313-0.917,0.313c0.09,0.216,0.465,0.256,0.679,0.235c0.292-0.024,0.53-0.231,0.53-0.231
		c0.331,0.59-0.528,0.972-0.591,0.999c0.238,0.185,0.427,0.268,0.558,0.287c0.06,0.01,0.108,0.005,0.15-0.011
		c0.028-0.002-0.072,0.147-0.311,0.121c-0.401-0.044-0.75-0.167-0.75-0.167c0.535,1.136,1.189,1.093,1.239,1.088
		c0,0,0,0.504-0.701,0.504c-0.036,0-0.071-0.003-0.106-0.008c-0.259-0.04-0.482-0.212-0.509-0.231
		c0.011,0.371,0.832,0.762,0.832,0.762c0.043,0.038-0.184,0.121-0.481,0.073c-0.15-0.021-0.317-0.077-0.478-0.188
		c-0.379-0.259-0.686-0.808-0.713-0.854c-0.21,0.858,0.488,1.267,0.661,1.289c0.104,0.014-0.158,0.136-0.42,0.095
		c-0.049-0.009-0.098-0.021-0.145-0.041c-0.488-0.215-0.76-0.716-0.785-0.763c-0.01,0.041-0.101,0.47,0.248,0.877
		c0.012,0.016-0.018,0.019-0.065,0.011c-0.059-0.01-0.145-0.034-0.211-0.08c-0.268-0.191-0.487-0.505-0.533-0.901
		c-0.237,0.043-0.405,0.272-0.487,0.457c-0.08,0.168-0.077,0.379,0.014,0.532c0.126,0.219,0.255,0.323,0.424,0.356
		c0.141,0.027,0.29,0.021,0.428,0.048c0.122,0.021,0.235,0.063,0.327,0.175c0.132,0.154,0.032,0.521-0.179,0.466
		c0,0,0.07-0.174-0.069-0.308c-0.051-0.036-0.104-0.061-0.155-0.065c-0.106-0.017-0.204,0.031-0.263,0.144
		c-0.129,0.24,0.351,0.538,0.581,0.63c0,0,0.124,0.079,0.259,0.102c0.136,0.021,0.283-0.021,0.318-0.269
		c-0.049-0.047-0.177-0.067-0.173-0.307c0.004-0.188,0.156-0.271,0.156-0.271c0.054-0.229,0.404-0.214,0.404-0.214
		c0.031,0.009,0.004,0.021-0.015,0.028c-0.09,0.032-0.112,0.109-0.094,0.167c0.017,0.06,0.193,0.166,0.054,0.532
		c0.023,0.003,0.181,0.01,0.21-0.246c0.011-0.099-0.023-0.188,0.019-0.271c0.035-0.066,0.128-0.114,0.227-0.086
		c0.104-0.039,0.187-0.048,0.253-0.036c0.19,0.027,0.236,0.208,0.236,0.208s0.003,0.021-0.018,0.018
		c-0.017-0.006-0.04-0.012-0.066-0.016c-0.092-0.016-0.213-0.007-0.193,0.063c0.013,0.048,0.052,0.11-0.047,0.238
		c-0.145,0.188-0.447,0.055-0.356,0.439c0.012-0.021,0.089-0.122,0.256-0.105c0.14,0.014,0.287,0.177,0.286,0.409
		c-0.005,0.088-0.039,0.162-0.12,0.218c0,0-0.013-0.01-0.009-0.023c0.025-0.104-0.018-0.179-0.095-0.191
		c-0.146-0.014-0.098,0.097-0.277,0.093c-0.024,0-0.046-0.002-0.066-0.006c-0.068-0.011-0.11-0.033-0.154-0.039
		c-0.014-0.002-0.028-0.003-0.042-0.001c-0.227,0.028-0.517,0.196-0.622,0.354c-0.104,0.155,0.013,0.203-0.082,0.351
		c-0.081,0.125-0.174,0.114-0.174,0.114s-0.004,0.035,0.001,0.079C10.371,25.247,10.374,25.264,10.379,25.282 M9.779,25.508
		c0.142-0.042,0.298-0.098,0.459-0.165c-0.019-0.025-0.036-0.063-0.049-0.111c-0.01-0.036-0.017-0.081-0.02-0.134
		c0,0-0.132-0.124-0.073-0.279c0.073-0.193,0.245-0.136,0.174-0.364c-0.08-0.257-0.572-0.686-0.883-0.732
		c-0.075-0.012-0.139,0-0.184,0.039c-0.105,0.098-0.126,0.363,0.207,0.387c-0.068,0.141-0.183,0.179-0.374,0.133
		c-0.151-0.033-0.307-0.27-0.247-0.571c0.079-0.396-0.169-0.714-0.408-0.752c-0.033-0.005-0.067-0.005-0.099,0.002
		c-0.282,0.046-0.236,0.46-0.236,0.46l0.145,1.609c-0.008,0.051,0.014,0.125,0.062,0.204c0.093,0.152,0.281,0.327,0.548,0.386
		c0.229,0.043,0.412-0.014,0.473-0.094c0.016-0.023,0.115-0.174,0.065-0.292c-0.016-0.035-0.045-0.067-0.094-0.097
		c-0.014-0.006-0.027-0.01-0.04-0.012c-0.084-0.014-0.138,0.065-0.154,0.058c-0.044-0.109,0.02-0.312,0.317-0.256
		c0.201,0.037,0.271,0.173,0.287,0.307c0.02,0.153-0.033,0.313-0.033,0.313S9.686,25.519,9.779,25.508 M8.95,26.082
		c-0.003-0.021-0.006-0.071,0.002-0.128c-0.218-0.063-0.457-0.098-0.591-0.167c-0.251-0.12-0.354-0.273-0.354-0.273
		s-0.015,0.021-0.012,0.111c0.053,0.47,0.334,0.49,0.617,0.557c0.125,0.031,0.261,0.112,0.338,0.241V26.082z M19.093,35.14
		c-0.044,0.092-0.042,0.266,0.022,0.351c0.235,0.313,1.16,0.41,1.587,0.008C20.149,35.411,19.628,35.268,19.093,35.14
		 M21.668,34.274c0.138,0.187,0.297,0.332,0.459,0.364c0.458-0.095,0.893-1.088,0.882-1.339c0.021-0.104-0.085-0.229-0.064-0.271
		c0.022-0.037,0.236,0.04,0.356,0.04c0.12,0,0.382-0.125,0.562-0.121c0.343,0.005,0.379,0.192,0.439,0.215
		c0.045,0.018,0.119-0.009,0.221,0.044c0.104,0.051,0.254,0.19,0.198,0.329c-0.157,0.016-0.236-0.007-0.322-0.007
		c-0.116,0-0.268,0.123-0.278,0.21c-0.001,0.014,0.326,0.032,0.488,0.037c0.513,0.018,0.341-0.297,0.337-0.313
		c-0.012-0.061,0.279,0.004,0.279,0.236c0,0.192-0.334,0.304-0.611,0.279c-0.219-0.021-0.473-0.121-0.533-0.131
		c-0.025-0.006-0.168,0.3,0.067,0.298c0.094,0,0.191-0.058,0.191-0.058c0.047,0,0.133,0.146-0.185,0.211
		c-0.448,0.101-0.684,0.107-0.789,0.399c-0.081,0.219-0.048,0.455,0.073,0.651c0.344,0.563,1.443,0.479,1.702,0.133
		c0.089-0.118,0.104-0.283-0.005-0.283c-0.31,0.026-0.784,0.076-0.805-0.31c0.005-0.322,0.555-0.317,1.062-0.837
		c0.4-0.405,0.481-0.674,0.515-0.886c0.01-0.063,0.013-0.26,0.013-0.26c0.01-0.063,0.165,0.188,0.182,0.233
		c0.114,0.299,0.03,0.628,0.03,0.628c0.118-0.104,0.266-0.271,0.335-0.395c0.039-0.072,0.099-0.174,0.125-0.229
		c0.039-0.082,0.056,0.202,0.017,0.416c-0.056,0.313-0.336,0.57-0.336,0.57c0.553-0.003,0.778-0.632,0.778-0.632
		c0.421,0.49-0.246,1.122-0.246,1.122s0.083,0.029,0.203-0.001c0.154-0.04,0.257-0.075,0.357-0.19
		c0.098-0.115-0.007,0.279-0.275,0.446c-0.454,0.286-0.917,0.313-0.917,0.313c0.09,0.215,0.465,0.256,0.679,0.235
		c0.292-0.024,0.53-0.231,0.53-0.231c0.332,0.589-0.528,0.97-0.591,0.999c0.238,0.183,0.427,0.266,0.559,0.286
		c0.059,0.01,0.107,0.006,0.149-0.01c0.028-0.002-0.072,0.146-0.311,0.121c-0.401-0.045-0.75-0.167-0.75-0.167
		c0.535,1.137,1.189,1.094,1.239,1.088c0,0,0,0.505-0.701,0.505c-0.036,0-0.071-0.003-0.106-0.009
		c-0.259-0.04-0.482-0.214-0.509-0.231c0.011,0.37,0.832,0.76,0.832,0.76c0.043,0.039-0.184,0.122-0.481,0.075
		c-0.15-0.023-0.317-0.078-0.478-0.189c-0.378-0.259-0.685-0.807-0.712-0.854c-0.21,0.858,0.487,1.265,0.661,1.289
		c0.104,0.013-0.158,0.135-0.42,0.094c-0.05-0.007-0.099-0.021-0.146-0.041c-0.488-0.214-0.76-0.715-0.785-0.763
		c-0.01,0.041-0.1,0.47,0.249,0.879c0.011,0.013-0.019,0.016-0.066,0.009c-0.058-0.009-0.145-0.035-0.211-0.081
		c-0.268-0.188-0.487-0.504-0.533-0.898c-0.237,0.043-0.405,0.271-0.487,0.455c-0.08,0.17-0.077,0.381,0.015,0.531
		c0.125,0.222,0.254,0.324,0.423,0.359c0.141,0.026,0.29,0.021,0.428,0.047c0.122,0.021,0.235,0.063,0.327,0.173
		c0.132,0.156,0.033,0.521-0.179,0.466c0,0,0.07-0.174-0.069-0.306c-0.051-0.037-0.104-0.06-0.154-0.067
		c-0.107-0.016-0.204,0.031-0.264,0.146c-0.129,0.241,0.351,0.537,0.581,0.63c0,0,0.125,0.079,0.259,0.1
		c0.137,0.021,0.283-0.02,0.319-0.267c-0.05-0.048-0.178-0.069-0.173-0.306c0.003-0.188,0.155-0.271,0.155-0.271
		c0.054-0.229,0.405-0.214,0.405-0.214c0.03,0.008,0.004,0.023-0.016,0.03c-0.09,0.03-0.112,0.106-0.094,0.167
		c0.018,0.058,0.193,0.166,0.054,0.53c0.024,0.005,0.181,0.012,0.21-0.244c0.012-0.102-0.023-0.19,0.019-0.271
		c0.035-0.066,0.128-0.115,0.227-0.086c0.105-0.039,0.187-0.047,0.253-0.036c0.19,0.028,0.237,0.208,0.237,0.208
		s0.002,0.022-0.018,0.021c-0.017-0.01-0.041-0.016-0.067-0.02c-0.092-0.014-0.213-0.006-0.193,0.063
		c0.013,0.047,0.052,0.107-0.047,0.235c-0.145,0.188-0.447,0.058-0.356,0.441c0.013-0.021,0.089-0.123,0.256-0.107
		c0.14,0.016,0.288,0.18,0.286,0.41c-0.005,0.087-0.039,0.162-0.12,0.218c0,0-0.012-0.011-0.009-0.021
		c0.026-0.106-0.018-0.179-0.095-0.194c-0.146-0.012-0.097,0.1-0.277,0.094c-0.024,0-0.046-0.002-0.066-0.006
		c-0.067-0.011-0.109-0.031-0.154-0.04c-0.013-0.002-0.027-0.003-0.042-0.001c-0.227,0.029-0.517,0.197-0.622,0.355
		c-0.104,0.157,0.013,0.202-0.082,0.349c-0.08,0.125-0.174,0.116-0.174,0.116s-0.004,0.035,0.001,0.079
		c0.008,0.063,0.033,0.14,0.113,0.156c0,0,0.025,0.013,0.003,0.019c-0.025,0.008-0.073,0.021-0.125,0.015
		c-0.064-0.011-0.135-0.055-0.17-0.188c-0.01-0.037-0.017-0.082-0.02-0.135c0,0-0.132-0.124-0.073-0.279
		c0.073-0.194,0.245-0.136,0.174-0.365c-0.079-0.256-0.572-0.684-0.883-0.73c-0.075-0.014-0.139,0-0.184,0.041
		c-0.105,0.096-0.126,0.359,0.207,0.385c-0.067,0.139-0.183,0.177-0.374,0.133c-0.15-0.035-0.307-0.269-0.247-0.572
		c0.079-0.396-0.169-0.715-0.407-0.753c-0.034-0.005-0.068-0.005-0.1,0.002c-0.282,0.05-0.236,0.464-0.236,0.464l0.145,1.608
		c-0.008,0.05,0.014,0.125,0.062,0.205c0.093,0.153,0.282,0.327,0.548,0.384c0.229,0.043,0.413-0.012,0.473-0.092
		c0.016-0.024,0.115-0.174,0.065-0.292c-0.016-0.036-0.045-0.069-0.094-0.096c-0.014-0.006-0.027-0.012-0.039-0.015
		c-0.085-0.012-0.138,0.066-0.155,0.059c-0.044-0.109,0.02-0.313,0.318-0.253c0.2,0.037,0.27,0.17,0.287,0.305
		c0.019,0.154-0.034,0.313-0.034,0.313s0.173-0.063,0.378-0.029c0.019,0.004,0.038,0.008,0.058,0.013
		c0.16,0.064,0.273,0.145,0.296,0.313c0.026,0.196-0.145,0.295-0.145,0.295s0.053-0.146-0.098-0.23
		c-0.041-0.021-0.078-0.034-0.113-0.039c-0.198-0.028-0.299,0.172-0.288,0.325c0.013,0.244-0.048,0.438-0.231,0.463
		c-0.042,0.003-0.077,0.001-0.106-0.003c-0.133-0.021-0.143-0.103-0.143-0.103s0.198,0.019,0.192-0.164
		c0.02-0.451-0.77-0.441-1.062-0.597c-0.251-0.118-0.353-0.272-0.353-0.272s-0.016,0.02-0.013,0.112
		c0.053,0.471,0.334,0.488,0.617,0.557c0.188,0.05,0.401,0.206,0.401,0.473c0,0.377-0.248,0.336-0.248,0.336s0.099-0.3-0.174-0.343
		c-0.02-0.003-0.043-0.005-0.068-0.005c-0.154,0-0.242,0.077-0.335,0.15c-0.145,0.114-0.575,0.618-0.659,0.7
		c-0.084-0.082-0.515-0.586-0.66-0.7c-0.093-0.073-0.181-0.15-0.335-0.15c-0.025,0-0.047,0.002-0.068,0.005
		c-0.273,0.043-0.174,0.343-0.174,0.343s-0.248,0.041-0.248-0.336c0-0.267,0.213-0.423,0.401-0.473
		c0.283-0.065,0.564-0.086,0.617-0.557c0.003-0.096-0.013-0.112-0.013-0.112s-0.102,0.154-0.353,0.272
		c-0.292,0.152-1.082,0.146-1.062,0.597c-0.006,0.183,0.192,0.164,0.192,0.164s-0.01,0.081-0.143,0.103
		c-0.029,0.004-0.064,0.006-0.106,0.003c-0.183-0.024-0.244-0.219-0.231-0.463c0.011-0.153-0.09-0.354-0.288-0.325
		c-0.035,0.005-0.072,0.021-0.113,0.039c-0.151,0.088-0.098,0.23-0.098,0.23s-0.171-0.099-0.145-0.295
		c0.023-0.172,0.136-0.249,0.296-0.313c0.02-0.005,0.039-0.009,0.058-0.013c0.206-0.03,0.378,0.029,0.378,0.029
		S19.98,41.988,20,41.833c0.017-0.134,0.087-0.268,0.288-0.305c0.297-0.06,0.361,0.144,0.317,0.254
		c-0.017,0.01-0.07-0.068-0.155-0.058c-0.012,0.002-0.025,0.007-0.039,0.013c-0.049,0.025-0.078,0.06-0.094,0.096
		c-0.05,0.118,0.049,0.269,0.065,0.292c0.06,0.08,0.244,0.135,0.473,0.092c0.266-0.057,0.455-0.229,0.548-0.384
		c0.048-0.08,0.07-0.155,0.062-0.205l0.145-1.608c0,0,0.046-0.414-0.236-0.462c-0.032-0.009-0.066-0.009-0.099-0.002
		c-0.239,0.036-0.487,0.354-0.408,0.753c0.06,0.305-0.096,0.535-0.247,0.57c-0.191,0.044-0.307,0.006-0.374-0.133
		c0.333-0.021,0.312-0.289,0.207-0.385c-0.045-0.041-0.109-0.053-0.184-0.041c-0.311,0.05-0.804,0.478-0.883,0.73
		c-0.071,0.23,0.101,0.173,0.174,0.365c0.059,0.156-0.073,0.28-0.073,0.28c-0.003,0.052-0.01,0.097-0.02,0.134
		c-0.035,0.135-0.106,0.179-0.17,0.188c-0.052,0.009-0.1-0.006-0.125-0.016c0.083-0.035,0.108-0.111,0.116-0.175
		c0.005-0.044,0.001-0.079,0.001-0.079s-0.094,0.009-0.174-0.116c-0.095-0.146,0.022-0.188-0.082-0.349
		c-0.105-0.158-0.395-0.326-0.622-0.354c-0.015-0.003-0.029-0.001-0.042,0.001c-0.045,0.007-0.087,0.027-0.154,0.04
		c-0.02,0.003-0.042,0.005-0.066,0.005c-0.18,0.005-0.131-0.104-0.277-0.095c-0.077,0.019-0.121,0.09-0.095,0.194
		c0.003,0.014-0.009,0.022-0.009,0.022c-0.081-0.057-0.115-0.132-0.12-0.219c-0.002-0.23,0.146-0.396,0.286-0.408
		c0.167-0.018,0.244,0.088,0.256,0.105c0.091-0.387-0.211-0.255-0.356-0.439c-0.099-0.13-0.06-0.19-0.047-0.237
		c0.02-0.069-0.101-0.077-0.193-0.063c-0.026,0.004-0.05,0.012-0.066,0.02c-0.019-0.021,0.028-0.197,0.218-0.229
		c0.066-0.011,0.149-0.003,0.253,0.036c0.099-0.028,0.192,0.021,0.227,0.086c0.042,0.08,0.007,0.172,0.019,0.271
		c0.029,0.256,0.186,0.249,0.21,0.245c-0.139-0.365,0.036-0.477,0.054-0.531c0.018-0.061-0.004-0.136-0.094-0.167
		c-0.02-0.007-0.046-0.022-0.016-0.03c0,0,0.351-0.016,0.405,0.214c0,0,0.152,0.081,0.155,0.271
		c0.005,0.233-0.123,0.259-0.173,0.306c0.036,0.247,0.182,0.288,0.319,0.269c0.134-0.021,0.259-0.102,0.259-0.102
		c0.23-0.092,0.71-0.389,0.581-0.63c-0.06-0.111-0.157-0.158-0.264-0.144c-0.05,0.009-0.103,0.028-0.154,0.065
		c-0.139,0.132-0.069,0.307-0.069,0.307c-0.212,0.058-0.311-0.311-0.179-0.467c0.092-0.106,0.205-0.149,0.327-0.173
		c0.138-0.022,0.287-0.02,0.428-0.047c0.169-0.035,0.298-0.141,0.423-0.359c0.092-0.15,0.095-0.361,0.015-0.53
		c-0.082-0.186-0.25-0.413-0.487-0.456c-0.046,0.396-0.265,0.71-0.533,0.898c-0.066,0.046-0.153,0.072-0.211,0.081
		c-0.047,0.007-0.077,0.004-0.066-0.009c0.35-0.409,0.259-0.837,0.249-0.878c-0.025,0.047-0.297,0.548-0.785,0.762
		c-0.047,0.021-0.096,0.034-0.146,0.041c-0.261,0.041-0.523-0.081-0.42-0.094c0.174-0.024,0.871-0.43,0.661-1.289
		c-0.027,0.049-0.333,0.597-0.712,0.854c-0.161,0.109-0.328,0.165-0.478,0.188c-0.297,0.047-0.524-0.036-0.481-0.075
		c0,0,0.821-0.389,0.832-0.76c-0.027,0.021-0.25,0.192-0.509,0.232c-0.035,0.005-0.07,0.008-0.106,0.008
		c-0.701,0-0.701-0.504-0.701-0.504c0.05,0.005,0.704,0.049,1.239-1.088c0,0-0.349,0.122-0.75,0.167
		c-0.239,0.024-0.339-0.123-0.311-0.121c0.042,0.015,0.09,0.019,0.149,0.01c0.132-0.021,0.321-0.104,0.559-0.287
		c-0.063-0.029-0.923-0.41-0.591-0.999c0,0,0.238,0.207,0.53,0.232c0.214,0.02,0.589-0.021,0.679-0.236c0,0-0.463-0.027-0.917-0.313
		c-0.014-0.009-0.028-0.018-0.041-0.025c-0.207-0.001-0.421,0.011-0.643,0.032c-0.147,0.573-0.624,0.996-1.189,0.996
		c-0.563,0-1.038-0.418-1.187-0.987c-0.367-0.064-0.72-0.073-1.065-0.046l-8.05,8.57c0.777,0.729,1.627,1.346,2.514,1.857
		l7.527-8.016v4.24l-4.727,5.034c1.719,0.581,3.452,0.845,4.987,0.845c5.87,0,14.637-3.847,14.437-14.604V25.86l-3.761,4.007h-3.985
		l7.746-8.25v-4.535l-8.121,8.648c0.037,0.028,0.059,0.063,0.059,0.104L21.668,34.274z M20.792,36.869h2.672v-1.074h-2.673
		L20.792,36.869z M22.128,38.965c1.201,0,1.306-1.135,1.306-1.135h-2.621C20.813,37.83,20.926,38.965,22.128,38.965 M6.192,20.266
		h2.672v-1.073H6.191L6.192,20.266z M7.528,22.362c1.201,0,1.306-1.136,1.306-1.136H6.213C6.213,21.227,6.327,22.362,7.528,22.362
		 M14.736,34.715c0,0.317,0.258,0.575,0.575,0.575c0.318,0,0.575-0.258,0.575-0.575c0-0.314-0.257-0.573-0.575-0.573
		C14.995,34.14,14.736,34.398,14.736,34.715 M9.315,26.057v8.813c0,0,0.096,0.117,0.685-0.043c0.678-0.187,1.519-1.05,2.697-1.308
		c0.884-0.19,2.076,0.087,2.354,0.277v-8.828c0,0-0.534-0.521-1.412-0.521c-0.857,0-2.302,0.77-2.858,1.049
		c-0.484,0.24-0.993,0.424-1.364,0.46C9.306,25.966,9.315,26.057,9.315,26.057 M17.042,33.5c1.531,0,2.328,0.949,2.847,1.156
		c1.209,0.479,1.412,0.233,1.412,0.233v-8.858c0-0.087-0.128-0.087-0.128-0.087s-1.179-0.182-1.584-0.429
		c-0.385-0.233-1.819-1.094-2.868-1.094c-1.052,0-1.241,0.45-1.241,0.45v8.945C15.479,33.821,15.972,33.5,17.042,33.5"/>
</g>
</svg>
