<?xml version="1.0" encoding="utf-8"?>
<!-- Generator: Adobe Illustrator 26.0.1, SVG Export Plug-In . SVG Version: 6.00 Build 0)  -->
<svg version="1.1" id="Layer_1" xmlns="http://www.w3.org/2000/svg" xmlns:xlink="http://www.w3.org/1999/xlink" x="0px" y="0px"
	 viewBox="0 0 403.8 71.5" style="enable-background:new 0 0 403.8 71.5;" xml:space="preserve">
<style type="text/css">
	.st0{fill:#EE7203;}
	.st1{fill:#B1AAA6;}
</style>
<g>
	<path class="st0" d="M174.6,22.8v7.5h-12.4v20.6c0,5.1,0,10.5,6.5,10.5c2,0,4.4-0.3,6.1-1.3v7.9c-2,1.2-6,1.5-7.8,1.5
		c-13.3,0-13.5-8.2-13.5-15.5V30.2h-10v-7.5h10V10h8.6v12.8"/>
	<path class="st0" d="M99.5,68.2V22.8h8.6v7h0.2c2.2-4.8,8-8.2,15-8.2c8.8,0,16.5,5.3,16.5,17.4v29.3h-8.6V41.4
		c0-8.5-4.9-11.7-10.4-11.7c-7.2,0-12.7,4.6-12.7,15.2v23.4"/>
	<path class="st0" d="M58.2,33.7l-5.2-5.4c4.8-4.5,11.7-6.7,18-6.7c13.4,0,19,7.3,19,15.2V60c0,3.2,0.1,5.9,0.4,8.3h-7.7
		c-0.2-2.3-0.3-4.6-0.3-6.9h-0.2c-3.8,5.9-9,8.1-15.9,8.1c-8.4,0-15.7-4.8-15.7-13.6c0-11.7,11.2-15.7,25-15.7H82v-1.9
		c0-4.7-3.5-9.6-10.8-9.6C64.6,28.5,61.4,31.3,58.2,33.7 M82,46.4h-4.6c-8.2,0-18.1,1.4-18.1,8.7c0,5.2,3.8,7.4,9.8,7.4
		c9.6,0,13-7.1,13-13.2"/>
	<path class="st0" d="M187.5,43.2h25.7c-0.2-7.1-4.2-12.5-12.4-12.5C192.8,30.7,187.5,37.5,187.5,43.2 M221.8,49.7h-34.3
		c0,7.5,7,12.5,14.5,12.5c5,0,8.6-2.5,11.7-6.4l6.1,4.7c-4.5,5.9-10.8,8.8-19,8.8c-13.6,0-22-9.8-22-22.5c0-12.8,9.3-22.5,22.1-22.5
		c15.1,0,20.9,11.6,20.9,22.6"/>
	<path class="st0" d="M0,62.2l7.3-6.3c8.7,9.9,24.4,10.6,36.6-0.4C42.8,72.7,11.4,77.8,0,62.2"/>
	<path class="st0" d="M234.4,4.3l-6,5.7c-8.9-5.3-21.1-2.6-28.5,8.2C197.5,4.1,222.1-6.2,234.4,4.3"/>
	<path class="st0" d="M37,51.7C37,36.4,4.2,45.9,4.2,20c0-7.8,6.6-18.6,22.5-18.6C34,1.4,40.9,2.9,45.9,9l-7.3,6.7
		c-2.3-3.5-6.7-5.8-11.8-5.8c-10,0-13,6-13,10.1c0,4.2,2,6.7,5.1,8.5C28.7,35,44,33.9,44,44.4c0,5-3.4,8.4-7.4,10
		C36.8,53.6,37,52.7,37,51.7"/>
	<path class="st1" d="M241.8,37.6h7.2c0.9,0,1.8-0.1,2.6-0.3c0.9-0.2,1.6-0.5,2.3-1c0.7-0.5,1.2-1.1,1.6-1.8
		c0.4-0.8,0.6-1.7,0.6-2.8c0-1.1-0.2-2-0.6-2.8c-0.4-0.8-1-1.4-1.7-1.9c-0.7-0.5-1.5-0.9-2.4-1.1c-0.9-0.2-1.8-0.3-2.7-0.3h-7V37.6z
		 M238.7,22.7h9.8c1.2,0,2.4,0.1,3.7,0.4c1.3,0.3,2.5,0.7,3.5,1.4c1.1,0.7,1.9,1.6,2.6,2.8c0.7,1.2,1,2.6,1,4.4c0,1.5-0.3,2.9-0.8,4
		c-0.6,1.1-1.3,2-2.2,2.8c-0.9,0.7-2,1.3-3.3,1.6c-1.2,0.4-2.5,0.5-3.8,0.5h-7.3v16.1h-3.2V22.7z"/>
	<path class="st1" d="M274.1,45.5c-1.2,0-2.4,0.1-3.5,0.2c-1.1,0.2-2.2,0.4-3.1,0.8c-0.9,0.4-1.6,0.9-2.2,1.5
		c-0.5,0.6-0.8,1.4-0.8,2.4c0,0.7,0.2,1.3,0.5,1.8c0.3,0.5,0.7,1,1.2,1.3c0.5,0.3,1,0.6,1.6,0.8c0.6,0.2,1.2,0.3,1.8,0.3
		c1.5,0,2.8-0.2,3.8-0.7c1-0.4,1.8-1,2.4-1.7c0.6-0.7,1-1.5,1.2-2.4c0.2-0.9,0.3-1.8,0.3-2.7v-1.5H274.1z M279.8,47.3
		c0,1.1,0,2.1,0,2.9c0,0.9,0,1.7,0.1,2.4c0,0.7,0.1,1.4,0.1,2.1c0,0.6,0.1,1.3,0.2,1.9h-2.7c-0.2-1.1-0.3-2.3-0.3-3.6h-0.1
		c-0.8,1.4-1.9,2.5-3.1,3.2c-1.2,0.7-2.8,1-4.7,1c-1,0-1.9-0.1-2.8-0.4c-0.9-0.2-1.8-0.6-2.5-1.1c-0.7-0.5-1.3-1.2-1.8-2
		c-0.5-0.8-0.7-1.8-0.7-3c0-1.7,0.4-3,1.3-4c0.9-1,1.9-1.7,3.2-2.2c1.3-0.5,2.6-0.8,4-1c1.4-0.1,2.7-0.2,3.8-0.2h3.3v-1.3
		c0-1.9-0.6-3.3-1.8-4.1c-1.2-0.8-2.7-1.2-4.4-1.2c-2.6,0-4.8,0.8-6.7,2.5l-1.7-2c1.1-1,2.4-1.8,3.9-2.3s3.1-0.8,4.5-0.8
		c2.7,0,4.8,0.6,6.4,1.9c1.6,1.3,2.4,3.3,2.4,6.1V47.3z"/>
	<path class="st1" d="M287.5,40.7c0-0.4,0-0.9,0-1.5c0-0.6-0.1-1.2-0.1-1.8c0-0.6,0-1.2-0.1-1.7c0-0.5,0-0.9,0-1.2h2.9
		c0,0.8,0.1,1.6,0.1,2.4c0,0.8,0.1,1.3,0.1,1.5c0.7-1.3,1.7-2.4,2.8-3.2c1.1-0.8,2.5-1.2,4.2-1.2c0.3,0,0.6,0,0.8,0.1
		c0.3,0,0.5,0.1,0.8,0.2l-0.3,2.8c-0.4-0.1-0.7-0.2-1.1-0.2c-1.2,0-2.3,0.2-3.2,0.6c-0.9,0.4-1.7,0.9-2.2,1.6
		c-0.6,0.7-1,1.5-1.3,2.5c-0.3,0.9-0.4,2-0.4,3v12.1h-2.9V40.7z"/>
	<path class="st1" d="M315.2,37.1h-6.3v14.4c0,1,0.3,1.8,0.8,2.3c0.5,0.5,1.3,0.8,2.2,0.8c0.5,0,1.1-0.1,1.6-0.2
		c0.6-0.1,1.1-0.3,1.6-0.6l0.2,2.6c-0.5,0.2-1.2,0.4-1.9,0.5c-0.7,0.2-1.3,0.2-1.9,0.2c-1,0-1.9-0.2-2.6-0.5
		c-0.7-0.3-1.3-0.7-1.8-1.2c-0.4-0.5-0.8-1.1-1-1.8c-0.2-0.7-0.3-1.4-0.3-2.2V37.1h-4.8v-2.6h4.8v-6.4h2.9v6.4h6.3V37.1z"/>
	<path class="st1" d="M320.3,40.7c0-0.4,0-0.9,0-1.5c0-0.6-0.1-1.2-0.1-1.8c0-0.6,0-1.2-0.1-1.7c0-0.5,0-0.9,0-1.2h2.9
		c0,0.8,0.1,1.6,0.1,2.4c0,0.8,0.1,1.3,0.1,1.5h0.1c0.6-1.2,1.5-2.3,2.9-3.1s2.9-1.3,4.7-1.3c1.7,0,3.1,0.3,4.2,0.8
		c1.1,0.5,1.9,1.3,2.6,2.1c0.6,0.9,1.1,1.9,1.3,3c0.2,1.1,0.4,2.3,0.4,3.5v13.2h-2.9v-13c0-0.9-0.1-1.8-0.2-2.6
		c-0.2-0.8-0.4-1.6-0.8-2.3c-0.4-0.7-1-1.2-1.7-1.6c-0.7-0.4-1.7-0.6-2.8-0.6c-1.1,0-2,0.2-3,0.6c-0.9,0.4-1.8,0.9-2.4,1.7
		c-0.7,0.8-1.2,1.7-1.6,2.8c-0.4,1.1-0.6,2.5-0.6,4v11h-2.9V40.7z"/>
	<path class="st1" d="M364.2,43.7c0-1-0.2-1.9-0.6-2.8c-0.4-0.9-0.9-1.6-1.6-2.3c-0.7-0.7-1.5-1.2-2.4-1.6c-0.9-0.4-1.9-0.6-3-0.6
		c-1.6,0-2.9,0.3-3.9,1c-1,0.6-1.9,1.4-2.5,2.2c-0.6,0.8-1,1.6-1.3,2.4c-0.3,0.8-0.4,1.3-0.4,1.6H364.2z M366.4,52.4
		c-1.1,1.7-2.5,2.9-4.1,3.6c-1.6,0.7-3.5,1.1-5.4,1.1c-1.7,0-3.2-0.3-4.6-0.9c-1.4-0.6-2.6-1.4-3.5-2.4c-1-1-1.7-2.3-2.3-3.7
		c-0.5-1.4-0.8-3-0.8-4.7c0-1.7,0.3-3.2,0.8-4.6c0.5-1.4,1.3-2.6,2.3-3.7c1-1,2.2-1.8,3.5-2.4c1.3-0.6,2.8-0.9,4.4-0.9
		c1.7,0,3.2,0.3,4.5,0.9c1.3,0.6,2.4,1.4,3.3,2.3c0.9,1,1.5,2.1,2,3.3c0.4,1.2,0.7,2.5,0.7,3.8v2h-18.6c0,0.6,0.1,1.4,0.4,2.3
		c0.2,0.9,0.7,1.9,1.3,2.8c0.6,0.9,1.5,1.7,2.6,2.3s2.4,1,4.1,1c1.5,0,2.9-0.4,4.3-1.1c1.4-0.7,2.4-1.7,3.2-2.9L366.4,52.4z"/>
	<path class="st1" d="M373.5,40.7c0-0.4,0-0.9,0-1.5c0-0.6-0.1-1.2-0.1-1.8c0-0.6,0-1.2-0.1-1.7c0-0.5,0-0.9,0-1.2h2.9
		c0,0.8,0.1,1.6,0.1,2.4c0,0.8,0.1,1.3,0.1,1.5c0.7-1.3,1.7-2.4,2.8-3.2c1.1-0.8,2.5-1.2,4.2-1.2c0.3,0,0.6,0,0.8,0.1
		c0.3,0,0.5,0.1,0.8,0.2l-0.3,2.8c-0.4-0.1-0.7-0.2-1.1-0.2c-1.2,0-2.3,0.2-3.2,0.6c-0.9,0.4-1.7,0.9-2.2,1.6
		c-0.6,0.7-1,1.5-1.3,2.5c-0.3,0.9-0.4,2-0.4,3v12.1h-2.9V40.7z"/>
	<path class="st1" d="M389.5,50.9c0.6,1.2,1.5,2.1,2.7,2.7c1.2,0.6,2.4,0.9,3.7,0.9c0.6,0,1.2-0.1,1.8-0.3c0.6-0.2,1.1-0.5,1.6-0.8
		c0.5-0.4,0.9-0.8,1.2-1.3c0.3-0.5,0.5-1.1,0.5-1.7c0-1-0.3-1.8-1-2.3c-0.7-0.5-1.5-0.9-2.4-1.2c-1-0.3-2-0.5-3.2-0.7
		c-1.1-0.2-2.2-0.5-3.2-1c-1-0.4-1.8-1-2.4-1.8c-0.7-0.8-1-1.8-1-3.3c0-1.1,0.2-2,0.7-2.8c0.4-0.8,1-1.5,1.7-2
		c0.7-0.5,1.5-0.9,2.4-1.2c0.9-0.3,1.8-0.4,2.7-0.4c1.8,0,3.4,0.3,4.7,1c1.3,0.7,2.4,1.7,3.1,3.2l-2.6,1.5c-0.5-1-1.2-1.8-2-2.3
		c-0.8-0.5-1.9-0.8-3.2-0.8c-0.5,0-1,0.1-1.6,0.2c-0.6,0.2-1.1,0.4-1.5,0.7c-0.4,0.3-0.8,0.7-1.1,1.1c-0.3,0.4-0.5,1-0.5,1.5
		c0,1,0.3,1.7,1,2.2c0.7,0.5,1.5,0.9,2.4,1.1c1,0.3,2,0.5,3.2,0.7c1.1,0.2,2.2,0.5,3.2,0.9c1,0.4,1.8,1.1,2.4,1.9c0.7,0.8,1,2,1,3.5
		c0,1.1-0.2,2.1-0.6,3c-0.4,0.8-1,1.6-1.8,2.1c-0.7,0.6-1.6,1-2.6,1.3c-1,0.3-2,0.4-3,0.4c-1.9,0-3.7-0.4-5.2-1.1
		c-1.6-0.7-2.8-1.9-3.7-3.4L389.5,50.9z"/>
</g>
</svg>
