<?xml version="1.0" encoding="utf-8"?>
<!-- Generator: Adobe Illustrator 25.4.1, SVG Export Plug-In . SVG Version: 6.00 Build 0)  -->
<svg version="1.1" id="Layer_1" xmlns="http://www.w3.org/2000/svg" xmlns:xlink="http://www.w3.org/1999/xlink" x="0px" y="0px"
	 viewBox="0 0 192.1 136.6" style="enable-background:new 0 0 192.1 136.6;" xml:space="preserve">
<style type="text/css">
	.st0{fill:#F28C00;}
</style>
<g>
	<path class="st0" d="M84.1,108.9H72.5c0.2,3.5,2.3,5.5,5.7,5.5c1.6,0,3-0.4,4.5-1.2v2.6c-1.5,0.7-3.3,0.9-5.2,0.9
		c-4.9,0-8-3.3-8-8.7c0-5.1,3.1-8.4,7.6-8.4c4.2,0,6.9,3,6.9,8V108.9z M77,101.8c-2.4,0-4.1,1.9-4.5,5.1h8.6
		C81,103.6,79.5,101.8,77,101.8"/>
	<polygon class="st0" points="88.5,100 92.8,113.6 97.2,100 100.2,100 94.4,116.3 90.9,116.3 85.3,100 	"/>
	<path class="st0" d="M115.1,116.3h-2.7v-2.7c-1.3,2-3.1,3-5.6,3c-3.1,0-5.2-2-5.2-4.8c0-3.5,2.9-5.5,8.4-5.5h2.1v-0.3
		c0-2.5-1.5-4-4-4c-1.4,0-2.9,0.5-4.6,1.4l0-2.5c1.7-0.8,3.5-1.2,5.5-1.2c4.1,0,6.1,2.3,6.1,6.8V116.3z M104.7,111.6
		c0,1.6,1.2,2.8,3,2.8c2.7,0,4.6-1.9,4.6-4.9v-1.2h-1.9C106.6,108.3,104.7,109.5,104.7,111.6"/>
	<path class="st0" d="M131.5,100h2.8v14.5c0,6-2.7,9-8.1,9c-2,0-3.8-0.4-5.5-1l0.2-2.7c1.7,0.9,3.3,1.3,4.8,1.3c3.6,0,5.7-2.2,5.7-6
		v-2c-1.3,2.2-3.2,3.3-5.5,3.3c-4,0-6.8-3.2-6.8-8.2c0-5.3,2.8-8.5,6.8-8.5c2.5,0,4.4,1.2,5.6,3.3V100z M122.3,107.9
		c0,3.8,1.8,5.9,4.4,5.9c2.6,0,4.5-2.2,4.5-5.9c0-3.9-1.8-6-4.6-6C124.1,102,122.3,104.2,122.3,107.9"/>
	<path class="st0" d="M148.1,102.7c-0.5-0.1-0.8-0.2-1.3-0.2c-2.7,0-4.3,2-4.3,5.6v8.2h-3V100h2.7v3.3c0.9-2.3,2.6-3.6,4.7-3.6
		c0.4,0,0.8,0,1.3,0.1L148.1,102.7z"/>
	<path class="st0" d="M163.3,116.3h-2.7v-2.7c-1.3,2-3.1,3-5.6,3c-3.1,0-5.2-2-5.2-4.8c0-3.5,2.9-5.5,8.4-5.5h2.1v-0.3
		c0-2.5-1.5-4-4-4c-1.4,0-2.9,0.5-4.5,1.4l0-2.5c1.7-0.8,3.5-1.2,5.5-1.2c4.1,0,6.1,2.3,6.1,6.8V116.3z M152.8,111.6
		c0,1.6,1.2,2.8,3,2.8c2.7,0,4.6-1.9,4.6-4.9v-1.2h-1.9C154.7,108.3,152.8,109.5,152.8,111.6"/>
	<path class="st0" d="M186.8,99.6c3.4,0,5.2,2.3,5.2,6.8v9.8h-3v-9.2c0-3.3-1-4.8-3.2-4.8c-2.5,0-4.2,2-4.2,5.7v8.3h-3v-9.2
		c0-3.3-0.9-4.8-3.3-4.8c-2.3,0-4.1,2-4.1,5.7v8.3h-3V100h2.8v3c1.2-2.2,3.1-3.4,5.4-3.4c2.3,0,4,1.2,4.8,3.5
		C182.5,100.8,184.4,99.6,186.8,99.6"/>
	<path class="st0" d="M98.1,62.1c-10.2-12.2-23.9-24-38.8-29.6c-7.5-2.8-15.4-2.3-20,4.9c-5.6,8.8-2.7,19.6,2.1,27.8
		C47,75,56.4,82.5,60.8,93c4.1,9.7,1.2,19.2-6.4,26c-13.2,12-37.4,16.1-54.5,12.6c0.2,0,1.7,3.7,3,4c27.4,5.5,81.3-12.1,56.4-47.6
		c-6.7-9.6-16.2-17.9-19.3-29.5c-2.4-8.9,1.2-21,10.9-23.4c8.4-2.1,18.3,4.2,24.9,8.6c7.9,5.2,15.5,11.7,21.6,19
		C99.4,64.9,100,64.4,98.1,62.1"/>
	<path d="M59.2,0.5c-5.8,6.1-13.6,10.8-12,20.4c0.2,1,2.2,3.6,3.2,3.8c7.5,1.4,14.4-5,16.6-11.8c1.8-5.6-2.9-11.5-8.2-13
		c0.3,0.1,1.7,3.6,3,3.9c0.6,0.1,1.1,0.3,1.6,0.5c1.3,0.8,1.4,0.8,0.3,0c0.4,1.2,0.3,2.6,0.1,3.8c-0.4,2.3-1.8,4.5-3.2,6.3
		c-3.1,4-8.2,7.2-13.3,6.2c1.1,1.3,2.1,2.5,3.2,3.8c-1.6-9.5,6.2-14.1,12-20.2C63,3.9,59.5,0.2,59.2,0.5"/>
</g>
</svg>
