<svg width="153" height="64" viewBox="0 0 153 64" fill="none" xmlns="http://www.w3.org/2000/svg">
<g clip-path="url(#clip0_2002_11856)">
<path d="M94.0755 23.7896C98.9095 29.0007 96.8209 32.9171 96.8209 32.9171C96.8209 32.9171 92.9127 35.0101 87.7126 30.1659C87.4542 37.2758 83.2123 38.5651 83.2123 38.5651C83.2123 38.5651 78.9758 37.2758 78.7174 30.1659C73.5173 35.0101 69.6092 32.9171 69.6092 32.9171C69.6092 32.9171 67.5259 29.0007 72.3546 23.7896C65.2596 23.5307 63.973 19.2799 63.973 19.2799C63.973 19.2799 65.2596 15.029 72.3546 14.7701C67.5259 9.55903 69.6092 5.64264 69.6092 5.64264C69.6092 5.64264 73.5173 3.54959 78.7174 8.39382C78.9758 1.28391 83.2123 -0.00537109 83.2123 -0.00537109C83.2123 -0.00537109 87.4542 1.28391 87.7126 8.39382C92.9127 3.54959 96.8209 5.64264 96.8209 5.64264C96.8209 5.64264 98.9095 9.55903 94.0755 14.7701C101.17 15.029 102.457 19.2799 102.457 19.2799C102.457 19.2799 101.17 23.5307 94.0755 23.7896ZM77.2909 18.584C77.2909 18.584 77.5869 20.4936 80.3646 21.3999C80.4346 24.3291 82.1788 25.1598 82.1788 25.1598C82.1788 25.1598 84.079 24.8631 84.9888 22.0796C87.9118 22.0041 88.7354 20.2617 88.7354 20.2617C88.7354 20.2617 88.4393 18.352 85.6616 17.4457C85.5917 14.5165 83.8475 13.6858 83.8475 13.6858C83.8475 13.6858 81.9419 13.9825 81.0375 16.766C78.1199 16.8416 77.2909 18.584 77.2909 18.584Z" fill="#EEDC2A"/>
<path d="M22.636 63.7249V63.5145C23.2443 62.4841 23.3466 61.8314 23.3466 57.5914H17.269V60.4288C17.269 62.3816 17.3713 62.5489 18.168 62.6729L18.421 62.7161V63.7249H14.6905V63.5145C15.2988 62.4626 15.4011 61.8746 15.4011 57.4025V54.0849C15.4011 51.8786 15.2773 51.7977 14.3352 51.7114L14.0015 51.6898V50.681H17.9634V50.8914C17.4197 51.8139 17.2906 52.2994 17.269 56.3506H23.3466V54.0849C23.3466 52.0081 23.2228 51.857 22.383 51.733L22.1515 51.6898V50.681H25.9036V50.8914C25.3383 51.857 25.2145 52.3425 25.2145 57.0249V60.4288C25.2145 62.3816 25.3814 62.6136 26.2212 62.6945L26.5764 62.7161V63.7249H22.636Z" fill="#C61D4F"/>
<path d="M34.3928 57.7424C34.3928 58.0984 34.2474 58.2279 33.7199 58.2279H30.3877C30.4093 56.5502 31.1414 55.4551 32.3149 55.4551C33.4884 55.4551 34.3874 56.0863 34.3874 57.7424M36.4384 59.4039V58.6702C36.4384 55.0344 34.4251 54.0472 32.7294 54.0472C30.8668 54.0472 28.3475 55.6439 28.3475 59.447C28.3475 61.8206 29.8333 64.0054 32.5195 64.0054C34.5112 64.0054 35.7063 63.0182 36.3738 61.6534L35.534 61.211C35.0711 61.8422 34.2959 62.468 33.1654 62.468C31.572 62.468 30.5008 61.4592 30.377 59.3176C31.2975 59.3607 32.7671 59.4039 33.4992 59.4039H36.433H36.4384Z" fill="#C61D4F"/>
<path d="M42.166 63.9137C40.3411 63.9137 39.4422 62.7809 39.4422 60.677C39.4422 59.5226 39.6736 56.6042 39.7974 55.5954H37.7411L37.8272 54.7107C38.9146 54.5004 39.862 53.9771 40.761 51.7708H41.8484C41.7246 52.5691 41.66 53.4916 41.5954 54.2684H44.4485C44.3247 54.7701 44.2601 55.234 44.1955 55.7788C43.5441 55.671 42.5213 55.59 41.5739 55.59C41.4877 56.9333 41.4716 58.9076 41.4716 60.5691C41.4716 62.1012 42.0584 62.3763 42.812 62.3763C43.4418 62.3763 43.9209 62.1875 44.3408 61.9339L44.6369 62.8132C44.0286 63.466 43.1888 63.9083 42.166 63.9083" fill="#C61D4F"/>
<path d="M59.2682 53.3297C58.7029 52.2994 58.1162 51.9649 55.7476 51.9649C54.8056 51.9649 54.278 52.0296 53.9658 52.0296C53.8204 53.0168 53.7343 54.4841 53.7343 56.2481H55.4946C56.8565 56.2481 57.0665 56.0593 57.2549 55.5738H57.9493C58.0139 56.2481 58.1377 58.0499 58.2615 58.5785H57.4218C57.1311 57.6777 56.582 57.4673 54.6118 57.4673H53.7289V60.4288C53.7289 62.3816 53.9173 62.6136 54.7571 62.6945L55.1124 62.7161V63.7249H51.0697V63.5145C51.678 62.4626 51.7802 61.8746 51.7802 57.4025V54.0849C51.7802 51.8786 51.6564 51.7977 50.709 51.7114L50.3752 51.6898V50.681H59.6181C59.7419 51.269 59.9949 52.6123 60.2264 53.3243H59.2628L59.2682 53.3297Z" fill="#C61D4F"/>
<path d="M67.5475 56.5232C67.3376 56.1241 66.9392 55.8921 66.4601 55.8921C65.8734 55.8921 65.2435 56.4585 64.8882 57.2569C64.6998 57.6777 64.6352 57.9905 64.6352 58.7458V61.0978C64.6352 62.4194 64.7806 62.5866 65.6204 62.6945L66.2502 62.7808V63.7249H62.1859C62.5197 62.7377 62.8157 61.8368 62.8157 60.1537V56.7714C62.8157 55.6386 62.6273 55.385 61.8737 55.3041L61.2008 55.2178V54.2738H64.0915C64.2154 54.7377 64.3661 55.5522 64.4468 56.1834C65.0551 54.9049 66.0833 54.1443 67.0254 54.1443C67.4237 54.1443 67.6982 54.1443 68.0751 54.1874C68.1612 54.797 68.2635 55.7842 68.4088 56.4369L67.5475 56.5232Z" fill="#C61D4F"/>
<path d="M70.6482 63.7249V63.5792C71.1919 62.1928 71.2996 61.2272 71.2996 59.528V56.5233C71.2996 55.6386 71.0681 55.4713 70.336 55.3473L69.4962 55.2232V54.2792H73.7274C73.1837 55.8975 73.0598 56.5502 73.0598 58.4815V61.4862C73.0598 62.263 73.1837 62.5381 73.9212 62.6406L74.7394 62.7862V63.7303H70.6536L70.6482 63.7249ZM72.2201 52.3857C71.4449 52.3857 70.8581 51.733 70.8581 51.0209C70.8581 50.3088 71.4449 49.6345 72.1985 49.6345C72.9522 49.6345 73.5605 50.2873 73.5605 50.9993C73.5605 51.7114 72.9737 52.3857 72.2201 52.3857Z" fill="#C61D4F"/>
<path d="M82.3619 57.7424C82.3619 58.0984 82.2165 58.2279 81.689 58.2279H78.3568C78.3784 56.5502 79.1105 55.4551 80.284 55.4551C81.4575 55.4551 82.3565 56.0863 82.3565 57.7424M84.4129 59.4039V58.6702C84.4129 55.0344 82.3996 54.0472 80.7039 54.0472C78.8413 54.0472 76.322 55.6439 76.322 59.447C76.322 61.8206 77.8078 64.0054 80.4939 64.0054C82.4857 64.0054 83.6808 63.0182 84.3483 61.6534L83.5085 61.211C83.0455 61.8422 82.2704 62.468 81.1399 62.468C79.5465 62.468 78.4753 61.4592 78.3515 59.3176C79.272 59.3607 80.7416 59.4039 81.4737 59.4039H84.4075H84.4129Z" fill="#C61D4F"/>
<path d="M89.3652 64C88.3586 64 87.3519 63.6224 86.706 63.3688C86.6414 62.7377 86.496 61.7721 86.3076 60.9953H87.1689C87.5673 61.88 88.2402 62.6568 89.4944 62.6568C90.668 62.6568 91.0878 62.0688 91.0878 61.2704C91.0878 60.472 90.711 60.1807 88.9938 59.5927C87.2766 59.0047 86.4583 58.1632 86.4583 56.9224C86.4583 55.3904 87.8418 54.0472 90.318 54.0472C91.1955 54.0472 92.0353 54.3007 92.6866 54.6352C92.7728 55.2663 92.9396 56.3182 93.0419 56.8847H92.1806C91.8469 56.0647 91.0717 55.3958 90.065 55.3958C88.9346 55.3958 88.4286 56.0054 88.4286 56.739C88.4286 57.4727 88.7246 57.7262 90.4419 58.3358C92.3044 58.9885 93.085 59.8678 93.085 61.0654C93.085 62.7862 91.68 64.0054 89.376 64.0054" fill="#C61D4F"/>
<path d="M101.079 57.7424C101.079 58.0984 100.934 58.2279 100.406 58.2279H97.0739C97.0954 56.5502 97.8275 55.4551 99.001 55.4551C100.175 55.4551 101.074 56.0863 101.074 57.7424M103.13 59.4039V58.6702C103.13 55.0344 101.117 54.0472 99.4209 54.0472C97.553 54.0472 95.0391 55.6439 95.0391 59.447C95.0391 61.8206 96.5248 64.0054 99.211 64.0054C101.203 64.0054 102.398 63.0182 103.065 61.6534L102.226 61.211C101.763 61.8422 100.987 62.468 99.857 62.468C98.2636 62.468 97.1977 61.4592 97.0685 59.3176C97.989 59.3607 99.4586 59.4039 100.191 59.4039H103.125H103.13Z" fill="#C61D4F"/>
<path d="M118.203 63.7249H110.176V63.5145C110.785 62.4626 110.887 61.8746 110.887 57.4025V54.0849C110.887 51.8786 110.763 51.7977 109.816 51.7114L109.482 51.6898V50.681H113.444V50.8914C112.879 51.857 112.755 52.3425 112.755 57.0249V60.4288C112.755 62.3816 113.654 62.4464 114.494 62.4464H114.994C116.9 62.4464 117.341 61.8584 117.971 60.8928H119.021C118.768 61.5023 118.327 63.1207 118.203 63.7303" fill="#C61D4F"/>
<path d="M125.954 60.3425C125.954 60.5745 125.933 60.7849 125.911 60.9737C125.788 61.8152 125.093 62.5057 124.065 62.5057C123.123 62.5057 122.558 62.0634 122.558 60.9089C122.558 59.857 123.231 59.269 124.905 59.269H125.954V60.3425ZM129.308 63.7249V62.7808L128.555 62.6568C127.989 62.5704 127.822 62.3223 127.822 61.1895V57.8287C127.822 55.1638 126.713 54.0472 124.345 54.0472C122.859 54.0472 121.917 54.5704 121.266 55.1207L120.91 57.0735H121.853C122.229 56.0647 122.881 55.563 124.011 55.563C125.352 55.563 125.938 56.1079 125.938 57.7046V58.0607H124.975C121.933 58.0607 120.555 59.4039 120.555 61.2326C120.555 62.8887 121.75 64.0054 123.634 64.0054C124.829 64.0054 125.669 63.3526 126.256 62.263C126.358 62.851 126.487 63.3526 126.633 63.7303H129.314L129.308 63.7249Z" fill="#C61D4F"/>
<path d="M137.254 63.7249V63.5792C137.716 62.1497 137.819 61.3729 137.819 59.6952V57.6345C137.819 56.1241 137.167 55.5954 135.994 55.5954C134.82 55.5954 134.088 56.8362 133.733 57.8018V61.5833C133.733 62.3817 133.835 62.6514 134.465 62.7161L134.95 62.7809V63.7249H131.241V63.5792C131.763 62.0688 131.892 61.0816 131.892 59.6305V56.6258C131.892 55.6817 131.747 55.4066 131.074 55.3257L130.153 55.2232V54.2792H133.507C133.593 54.7431 133.674 55.5199 133.717 56.1295C134.535 54.7647 135.31 54.0526 136.548 54.0526C138.75 54.0526 139.671 54.851 139.671 58.7566V61.5293C139.671 62.3925 139.902 62.6244 140.338 62.6622L141.259 62.7863V63.7303H137.259L137.254 63.7249Z" fill="#C61D4F"/>
<path d="M149.134 59.2313C149.134 60.1969 149.07 60.5152 148.989 60.7418C148.526 61.9178 147.901 62.5058 147.019 62.5058C145.592 62.5058 144.397 61.4754 144.397 58.7458C144.397 56.3938 145.404 55.4714 146.534 55.4714C147.918 55.4714 149.156 56.2266 149.156 59.2313H149.134ZM152.59 63.7249V62.7809L151.67 62.6568C151.126 62.5921 150.894 62.4033 150.894 61.4161V55.9353C150.894 52.4936 151.104 51.0641 151.357 49.8665H147.395V50.8105L148.214 50.913C148.946 50.9994 149.118 51.2097 149.118 52.4235V55.1747C148.467 54.4788 147.735 54.0418 146.771 54.0418C144.026 54.0418 142.373 56.437 142.373 59.2313C142.373 62.0257 144.112 64 146.459 64C147.654 64 148.66 63.3473 149.269 62.0257C149.333 62.5489 149.457 63.2826 149.559 63.7249H152.595H152.59Z" fill="#C61D4F"/>
<path d="M7.3695 34.7458C7.12188 34.0499 6.64816 33.5536 5.73303 33.5536H4.79098C4.67255 34.2657 4.62949 35.1072 4.62949 37.0924V39.4444C4.62949 40.793 4.74792 40.9548 5.32391 41.0142L5.57154 41.0304V41.7263H2.84767V41.5806C3.26756 40.8577 3.33754 40.4478 3.33754 37.3567V35.0641C3.33754 34.7027 3.32139 33.9312 3.29447 33.5536H2.41164C1.57187 33.5536 1.03356 34.0931 0.629826 34.789H0C0.145344 34.2225 0.333754 33.2785 0.403735 32.7121H7.76247C7.78938 33.3379 7.8809 34.1632 7.99394 34.7296L7.3695 34.7458Z" fill="#C61D4F"/>
<path d="M13.1509 41.7262V41.6237C13.4093 40.8847 13.4685 40.6365 13.4685 39.4875V37.4969C13.4685 36.4504 13.0917 36.1052 12.2789 36.1052C11.466 36.1052 10.9331 36.7741 10.7016 37.5833C10.6424 37.7882 10.6316 38.0202 10.6316 38.5435V40.0108C10.6316 40.8253 10.6909 40.9818 11.1969 41.0249L11.5575 41.0681V41.7208H8.9521C9.21049 40.9926 9.35584 40.6311 9.35584 39.18V33.8826C9.35584 32.9656 9.25356 32.8685 8.7314 32.8091L8.37073 32.7822V32.1456H10.8739C10.6693 32.9602 10.6155 33.4673 10.6155 35.0802V36.472C11.1807 35.528 11.8052 35.0371 12.6557 35.0371C14.1791 35.0371 14.7443 35.6628 14.7443 38.4356V40.205C14.7443 40.7984 14.9058 40.9602 15.2073 40.9872L15.8479 41.0735V41.7262H13.1563H13.1509Z" fill="#C61D4F"/>
<path d="M21.6078 41.7262C21.5379 41.408 21.4464 40.9117 21.4194 40.5341C20.8704 41.4511 20.2028 41.9151 19.3631 41.9151C17.409 41.9151 17.2044 40.027 17.2044 39.083C17.2044 38.878 17.2044 38.6028 17.2206 38.2684C17.2206 37.8908 17.2475 37.1787 17.2475 36.9198C17.2475 36.0351 17.086 35.9326 16.6123 35.8894L16.1763 35.8463V35.1935H18.9432C18.6687 35.9326 18.5233 36.3857 18.5233 37.3837V39.1855C18.5233 40.2913 18.9701 40.8254 19.783 40.8254C20.5958 40.8254 20.9403 40.1996 21.2902 39.4875C21.3495 39.385 21.3764 39.1855 21.3764 38.7485V36.6608C21.3764 36.0513 21.2902 35.9218 20.8273 35.8894L20.4343 35.8463V35.1935H22.9536C22.706 36.0782 22.636 36.5314 22.636 37.5186V39.795C22.636 40.7391 22.7491 40.944 23.2012 40.998L23.8257 41.0681V41.7208H21.6078V41.7262Z" fill="#C61D4F"/>
<path d="M25.1607 41.7262V41.6237C25.5375 40.6635 25.6075 40 25.6075 38.824V36.7471C25.6075 36.1376 25.446 36.0189 24.94 35.9326L24.3586 35.8463V35.1935H27.2817C26.9049 36.3102 26.8187 36.7633 26.8187 38.0958V40.1726C26.8187 40.7121 26.9049 40.9009 27.4109 40.971L27.9761 41.0735V41.7262H25.15H25.1607ZM26.2481 33.8881C25.7098 33.8881 25.3061 33.4403 25.3061 32.944C25.3061 32.4477 25.7098 31.9838 26.232 31.9838C26.7541 31.9838 27.174 32.4316 27.174 32.9279C27.174 33.4241 26.7703 33.8881 26.2481 33.8881Z" fill="#C61D4F"/>
<path d="M30.9369 41.915C30.2424 41.915 29.548 41.6561 29.0958 41.4781C29.0528 41.0411 28.9505 40.3722 28.8213 39.8381H29.4134C29.688 40.4477 30.1509 40.9818 31.023 40.9818C31.8358 40.9818 32.1211 40.5772 32.1211 40.027C32.1211 39.4767 31.8628 39.2717 30.6731 38.8671C29.4834 38.4626 28.9182 37.88 28.9182 37.0222C28.9182 35.9595 29.8764 35.0317 31.5828 35.0317C32.1911 35.0317 32.7671 35.2043 33.2193 35.4363C33.2785 35.8732 33.3916 36.5961 33.4669 36.9899H32.8748C32.6433 36.4234 32.105 35.9595 31.4106 35.9595C30.63 35.9595 30.2801 36.3803 30.2801 36.8874C30.2801 37.3945 30.4847 37.5671 31.669 37.9878C32.9555 38.4356 33.4938 39.0452 33.4938 39.8759C33.4938 41.0681 32.5249 41.9096 30.9315 41.9096" fill="#C61D4F"/>
<path d="M39.7436 41.7262H34.7588C34.7588 41.176 34.9634 40.8092 35.6417 39.8705L37.5527 37.1733C37.9295 36.65 38.091 36.3749 38.1879 36.0566H37.332C35.7978 36.0566 35.5771 36.2454 35.2003 36.7957H34.7373C34.8396 36.4342 35.028 35.5496 35.0549 35.1989H39.7759C39.7759 35.8948 39.6037 36.2724 39.0815 37.0115L37.2135 39.6224C36.9229 40.027 36.6322 40.4046 36.4438 40.8685H37.3697C38.7477 40.8685 39.1676 40.6204 39.6144 40.0432H40.1043C39.9428 40.6096 39.8028 41.2461 39.7275 41.7262" fill="#C61D4F"/>
<path d="M45.8535 38.619C45.8535 40.1403 45.1591 40.9548 44.3355 40.9548C43.2212 40.9548 42.5537 40.1133 42.5537 38.2684C42.5537 36.7579 43.2642 35.9758 44.0717 35.9758C45.1268 35.9758 45.8535 36.731 45.8535 38.619ZM47.2424 38.2738C47.2424 36.2401 45.9989 35.0371 44.2709 35.0371C42.4299 35.0371 41.1541 36.5044 41.1541 38.6352C41.1541 40.766 42.4299 41.9151 44.1255 41.9151C45.9773 41.9151 47.237 40.4208 47.237 38.2738" fill="#C61D4F"/>
<path d="M52.6039 36.7472C52.4586 36.472 52.184 36.3102 51.8503 36.3102C51.4466 36.3102 51.0105 36.704 50.7629 37.2542C50.6337 37.5455 50.5906 37.7613 50.5906 38.2846V39.9083C50.5906 40.82 50.6929 40.9387 51.2689 41.0088L51.7049 41.0681V41.7209H48.8949C49.1264 41.0358 49.331 40.4154 49.331 39.2556V36.9198C49.331 36.1376 49.2018 35.965 48.6796 35.9056L48.2167 35.8463V35.1935H50.2138C50.2999 35.5118 50.4022 36.0782 50.4614 36.5152C50.8813 35.6305 51.5919 35.1072 52.2433 35.1072C52.5178 35.1072 52.7062 35.1072 52.9646 35.1342C53.0238 35.555 53.0938 36.2347 53.1961 36.6878L52.6039 36.7472Z" fill="#C61D4F"/>
<path d="M57.9655 37.4592C57.9655 38.1983 57.4433 38.7053 56.7758 38.7053C55.8499 38.7053 55.3008 38.1551 55.3008 37.1787C55.3008 36.5098 55.7799 35.9434 56.4905 35.9434C57.3302 35.9434 57.9708 36.348 57.9708 37.4538M59.9141 35.1881H57.8309C57.5563 35.118 57.1203 35.0263 56.8188 35.0263C55.0101 35.0263 53.9658 36.1753 53.9658 37.5078C53.9658 38.1443 54.4287 38.9589 55.1662 39.2771C54.5418 39.6548 54.2565 39.973 54.2565 40.3938C54.2565 40.7714 54.4018 41.0465 55.037 41.3486C54.2242 41.7964 53.7612 42.379 53.7612 42.9292C53.7612 44.0728 54.7194 44.6824 56.5282 44.6824C58.6007 44.6824 59.8172 43.6521 59.8172 42.4599C59.8172 41.4727 59.182 40.8038 57.8309 40.6743L56.5874 40.5718C55.7315 40.5017 55.5323 40.3129 55.5323 39.9622C55.5323 39.8166 55.6507 39.6278 55.823 39.5145C56.0544 39.5415 56.4043 39.5738 56.6035 39.5738C58.3154 39.5738 59.252 38.4842 59.252 37.1517C59.252 36.7579 58.9775 36.1645 58.7137 36.0351H59.8011C59.8172 35.8193 59.8711 35.4417 59.9195 35.1774M58.5307 42.708C58.5307 43.3014 58.0677 43.679 56.8673 43.679C55.753 43.679 54.9401 43.2745 54.9401 42.6919C54.9401 42.1524 55.2577 41.8503 55.7799 41.6615L57.6909 41.8503C58.2292 41.8935 58.5307 42.2279 58.5307 42.708Z" fill="#C61D4F"/>
</g>
<defs>
<clipPath id="clip0_2002_11856">
<rect width="152.59" height="64" fill="white"/>
</clipPath>
</defs>
</svg>
