<svg xmlns="http://www.w3.org/2000/svg" width="208.4" height="190.3" viewBox="0 0 208.4 190.3"><g fill="none"><path fill="#A20D51" d="M167.7,24.8 C151.2,24.8 141,34.6 141,34.6 C141,34.6 131.1,25 115.6,25 L113.2,25 C113.2,35.8 107.1,45.3 98.1,49.9 L112.8,49.9 C119.5,49.9 126.8,54.9 126.8,64.4 L126.8,109.9 L155.2,109.9 L155.2,62.2 C155.2,54.3 162,49.8 167.6,49.8 C174.5,49.8 180,55.7 180,62 L180,82 C180,97.3 193,109.9 208.4,109.9 L208.4,65.7 C208.4,43.1 190.1,24.8 167.7,24.8"/><path fill="#F19142" d="M110.5,24.9 L76.5,24.9 C56,24.9 47,37.6 47,50.5 C47,74 74.1,76.2 83.5,78.8 C85.2,79.3 87,80.1 87,82 C87,84.7 84.3,84.8 84.3,84.8 L77,84.8 C64.5,85 53.9,94.9 52.6,107.2 C52.5,108 52.5,108.9 52.5,109.8 L87.3,109.8 C110.6,109.8 115.8,92.2 115.8,83.6 C115.8,60.8 88.2,59.4 79.1,55.9 C76.9,55.1 75.7,54.3 75.7,52.6 C75.7,49.9 78.4,49.8 78.4,49.8 L85.7,49.8 C99.4,49.9 110.5,38.5 110.5,24.9"/><path fill="#A20D51" d="M65.1,84.9 L42.8,84.9 C34.7,85 28.5,78.6 28.5,71 L28.5,49.9 L36.9,49.9 C44.8,44.6 50.2,35.2 50.2,24.9 L28.1,24.9 C26.8,10.3 14.7,0.5 0,2.84217094e-14 L0,69.1 C0,92 18.6,109.8 40.7,109.8 L49.9,109.8 C50,99 56.1,89.6 65.1,84.9"/><path fill="#F19142" d="M52.7,122.3 L86.4,122.3 L89.2,126.9 L68.8,159.9 L88.5,159.9 L88.5,171.1 L53.7,171.1 L50.9,166.4 L71.2,133.5 L52.7,133.5 L52.7,122.3 L52.7,122.3 Z M93.6,154.7 L93.6,138.8 C93.6,133.3 95.5,129.1 99.4,126 C103.3,122.9 107.9,121.4 113.2,121.3 C118.5,121.4 123.1,122.9 126.9,126 C130.7,129.1 132.7,133.3 132.7,138.8 L132.7,154.7 C132.7,160.2 130.8,164.5 126.9,167.5 C123.1,170.5 118.5,172 113.1,172.1 C107.8,172 103.2,170.5 99.3,167.5 C95.5,164.5 93.6,160.2 93.6,154.7 Z M113.2,133.1 C111.5,133.1 110,133.5 108.7,134.4 C107.4,135.3 106.7,136.4 106.7,137.9 L106.7,155 C106.7,156.5 107.4,157.8 108.7,158.8 C110,159.8 111.5,160.3 113.2,160.3 C114.8,160.3 116.2,159.8 117.6,158.8 C119,157.8 119.6,156.5 119.6,155 L119.6,137.9 C119.6,136.5 118.9,135.3 117.6,134.4 C116.3,133.5 114.8,133.1 113.2,133.1 Z M160.1,121.3 C161.9,121.3 164.2,121.6 167,122.2 L167,132.8 C164,132 161.1,132.1 158.3,133.2 C155.5,134.3 154.1,136.2 154.1,138.8 L154.1,171 L141,171 L141,138.6 C141,133.1 142.9,128.9 146.8,125.8 C150.7,122.8 155.1,121.3 160.1,121.3 Z M171.3,183.7 L177.3,175.9 C179.8,178.2 183.1,179.4 187.2,179.4 C192.6,179.4 195.3,176.3 195.3,170 C193,171.4 190.3,172.1 187.4,172.1 C182.4,172.1 178.2,170.7 174.7,167.9 C171.2,165.1 169.5,161.2 169.5,156.3 L169.5,137.8 C169.5,132.2 171.4,128.1 175.2,125.4 C179,122.7 183.7,121.4 189.5,121.4 C196.4,121.4 202.7,122.8 208.4,125.5 L208.4,171 C208.4,177.2 206.5,182 202.7,185.3 C198.9,188.6 194.1,190.3 188.2,190.3 C181.5,190.3 175.9,188.1 171.3,183.7 L171.3,183.7 Z M195.2,160.3 L195.2,132.7 C193.6,131.9 191.7,131.5 189.6,131.5 C187.5,131.5 185.8,132 184.3,133.1 C182.9,134.2 182.1,135.6 182.1,137.5 L182.1,156.1 C182.4,157.9 183.2,159.2 184.7,160.2 C186.2,161.1 187.9,161.6 189.9,161.6 C191.9,161.5 193.7,161.1 195.2,160.3 Z"/></g></svg>