<svg id="a98c196c-9ace-4c3f-b11e-c1c388f1dd33" data-name="Laag 1" xmlns="http://www.w3.org/2000/svg" viewBox="0 0 277.8 56.69"><defs><style>.ad03ec84-32d5-407a-86ff-738aa837453f{fill:#005689;}.ec84db2e-817e-4ccb-8d34-3d58111f78de{fill:#009b93;}</style></defs><title>logo_ukon</title><path class="ad03ec84-32d5-407a-86ff-738aa837453f" d="M72.78,2.13A1,1,0,0,0,72,.57H60L42.79,25.14V6.7A6.13,6.13,0,0,0,36.66.57h-.07A6.14,6.14,0,0,0,30.46,6.7V34.91c0,6.66-3.08,10.1-9,10.1s-9.17-3.44-9.17-10.1V6.7A6.13,6.13,0,0,0,0,6.7V35.19C0,48.52,7.6,54.9,21.43,54.9c13.4,0,21.36-6.52,21.36-19.71V29.76L60,54.33H72a1,1,0,0,0,.81-1.55L56.14,29a2.69,2.69,0,0,1,0-3.09ZM148.8,0c-13.4,0-21.36,6.52-21.36,19.71V48.2a6.12,6.12,0,0,0,6.13,6.13h.07a6.12,6.12,0,0,0,6.13-6.13V20c0-6.67,3.08-10.11,9-10.11S158,13.33,158,20V48.2a6.12,6.12,0,0,0,6.12,6.13h0a6.12,6.12,0,0,0,6.13-6.13V19.71C170.23,6.38,162.63,0,148.8,0Z"/><path class="ec84db2e-817e-4ccb-8d34-3d58111f78de" d="M117.49,21.57C116.29,7.71,108.86,0,94.61,0S73,7.82,71.79,21.57H65.43V33.9h6.44c1.42,13.33,8.78,21,22.74,21s21.37-7.76,22.81-21h6.43V21.57Zm-12.27,7.31c0,9.9-2.44,16.13-10.61,16.13S84.07,38.78,84.07,28.88V25.73c0-9.89,2.37-15.91,10.54-15.91s10.61,6,10.61,15.91Z"/><path class="ec84db2e-817e-4ccb-8d34-3d58111f78de" d="M207.4,1.79h-1.17V3.1h1.17Zm-1.17,10.45h1.17V4.62h-2.26V5.68h1.09Zm-7-5.14.35-.36c.55-.55,1.2-1.17,1.86-1.17s1.06.28,1.06,1.39v5.28h1.17V6.72c0-1.64-.81-2.21-1.9-2.21a2.78,2.78,0,0,0-2.13,1l-.41.41V4.62h-1.17v7.62h1.17Zm13.43,5.14a8.54,8.54,0,0,0,2.09-5.66v-2H213.6v2a7.49,7.49,0,0,1-1.52,4.8,7.49,7.49,0,0,1-1.52-4.8v-2h-1.17v2a8.69,8.69,0,0,0,2,5.66Zm.35,7.63V18.56h-1.17v7.63H213V21l.35-.36c.54-.54,1.2-1.17,1.85-1.17s1.06.28,1.06,1.39v5.29h1.17V20.67c0-1.65-.81-2.22-1.89-2.22a2.78,2.78,0,0,0-2.14,1Zm39-7.63h1.17V4.62H250.9V5.68H252ZM240.55,26.3a5.7,5.7,0,0,0,2-.46V24.76h-.11a4.45,4.45,0,0,1-1.91.48,1.68,1.68,0,0,1-1.92-1.83v-.6h2.12A2,2,0,0,0,243,20.64c0-1.51-1-2.19-2.48-2.19a2.89,2.89,0,0,0-3.06,3.08v1.88C237.49,25.48,238.82,26.3,240.55,26.3Zm-1.89-4.77c0-1.41.69-2,1.89-2,.83,0,1.31.32,1.31,1.13s-.3,1.2-1.4,1.2h-1.8Zm14.5-19.74H252V3.1h1.17Zm-64.5,13.94V26.19H190V21.28h.59l3.64,4.91h1.42v-.11l-4-5.44,3.89-4.79v-.12h-1.34l-3.56,4.46H190V15.73Zm3.51-3.38a3.25,3.25,0,0,0,3.57-3.48V1.79h-1.29V8.87a2.31,2.31,0,1,1-4.62,0V1.79h-1.28V8.87C188.55,11.11,189.9,12.35,192.17,12.35Zm2.56,38.92-5.21-7.65h-.86V54.07H190V46.45l5.19,7.62H196V43.62h-1.27ZM230.22,8.7l.95.25c.68.17,1.17.42,1.17,1.12s-.59,1.22-1.71,1.22a7.45,7.45,0,0,1-2-.3h-.09v1.06a7.28,7.28,0,0,0,2.09.3c1.49,0,2.88-.64,2.88-2.34,0-1.5-1-1.89-2-2.14l-.9-.24c-.59-.17-.95-.35-.95-1,0-.77.58-1.1,1.6-1.1a8.74,8.74,0,0,1,1.77.22h.11V4.73a7.75,7.75,0,0,0-1.85-.22c-1.72,0-2.8.81-2.8,2.21A1.94,1.94,0,0,0,230.22,8.7Zm6.46-6.91h-1.17V3.1h1.17ZM224.83,22.65l.94.25c.69.16,1.17.42,1.17,1.11s-.58,1.23-1.71,1.23a7.32,7.32,0,0,1-2-.31h-.1V26a6.94,6.94,0,0,0,2.09.31c1.49,0,2.89-.64,2.89-2.34,0-1.51-1-1.9-2-2.15l-.91-.24c-.58-.16-.95-.35-.95-1s.59-1.1,1.61-1.1a8.83,8.83,0,0,1,1.77.22h.11V18.67a8.46,8.46,0,0,0-1.86-.22c-1.71,0-2.8.81-2.8,2.22A2,2,0,0,0,224.83,22.65Zm10.68-10.41h1.17V4.62h-2.26V5.68h1.09Zm-10.63-4.9.87-.87a1.84,1.84,0,0,1,1.35-.57h.44V4.62h-.4a2.44,2.44,0,0,0-2,1.35l-.24.31V4.62h-1.17v7.62h1.17Zm14.31,2.28c0,1.86.9,2.62,2.52,2.62h.82V11.18h-.6c-1.19,0-1.57-.3-1.57-1.77V5.68h2V4.62h-2V2.88h-1.17V4.62H238.1V5.68h1.09Zm8.36,16.57h.82V25.13h-.59c-1.2,0-1.58-.31-1.58-1.77V19.62h2V18.56h-2V16.82H245v1.74h-1.09v1.06H245v3.95C245,25.42,245.94,26.19,247.55,26.19Zm-55.24,3.38c-2.66,0-4.08,1.85-4.08,4.9v.86c0,3.17,1.42,4.91,4.08,4.91s4.08-1.85,4.08-4.91v-.86C196.39,31.31,195,29.57,192.31,29.57Zm2.8,5.76c0,2.64-1,3.8-2.8,3.8s-2.82-1.16-2.82-3.8v-.86c0-2.65,1-3.79,2.82-3.79s2.8,1.14,2.8,3.79Zm26.06-19.6H220V17h1.17Zm0,10.46V18.56h-2.25v1.06H220v6.57Zm24.57-13.84a2.65,2.65,0,0,0,2-.92l.49-.47v1.28h1.17V4.62h-2a3.61,3.61,0,0,0-3.7,3.62V10C243.73,11.66,244.64,12.35,245.74,12.35Zm-.84-4.11a2.44,2.44,0,0,1,2.56-2.56h.79v4.1l-.38.4A3.34,3.34,0,0,1,246,11.29c-.58,0-1.09-.29-1.09-1.33Zm-25.56,4.11a5.64,5.64,0,0,0,2-.46V10.82h-.11a4.63,4.63,0,0,1-1.91.47,1.68,1.68,0,0,1-1.92-1.82v-.6h2.12a2,2,0,0,0,2.26-2.17c0-1.51-1-2.19-2.49-2.19a2.89,2.89,0,0,0-3.06,3.08V9.47C216.28,11.53,217.62,12.35,219.34,12.35Zm-1.89-4.76c0-1.41.7-2,1.89-2,.83,0,1.32.32,1.32,1.13s-.31,1.19-1.41,1.19h-1.8Zm38.9,18.6a9.39,9.39,0,0,0,1.74-5.66v-2h-1.17v2a8.44,8.44,0,0,1-1.25,4.79,8.31,8.31,0,0,1-1.31-4.79v-2h-1.17v2a8.31,8.31,0,0,1-1.31,4.79,8.53,8.53,0,0,1-1.24-4.79v-2h-1.17v2a9.19,9.19,0,0,0,1.75,5.66h1.26a7.63,7.63,0,0,0,1.28-2.62,7.84,7.84,0,0,0,1.31,2.62ZM236.8,32.4a2.76,2.76,0,0,0-2.13,1l-.4.41V32.51H233.1v7.62h1.17V35l.35-.37c.54-.54,1.19-1.17,1.85-1.17s1.06.28,1.06,1.4v5.28h1.17V34.61C238.7,33,237.89,32.4,236.8,32.4Zm6.82,13.94a2.76,2.76,0,0,0-2.13,1l-.41.4V46.45h-1.17v7.62h1.17V48.93l.35-.36c.55-.54,1.2-1.17,1.86-1.17s1.06.28,1.06,1.39v5.28h1.17V48.55C245.52,46.91,244.71,46.34,243.62,46.34Zm2.08-12.89v-.94h-5.12v1.06h3.84a31.35,31.35,0,0,1-4.06,5.61v1h5.39V39.07h-3.94A22.9,22.9,0,0,0,245.7,33.45ZM234.38,20.9v5.29h1.17V20.67c0-1.65-.81-2.22-1.9-2.22a2.76,2.76,0,0,0-2.13,1l-.41.4V18.56h-1.17v7.63h1.17V21l.35-.36c.55-.54,1.2-1.17,1.86-1.17S234.38,19.79,234.38,20.9ZM250,32.4c-2.06,0-3.06,1.53-3.06,3.81,0,2.5.9,4,3.06,4s3.08-1.53,3.08-4C253.1,33.93,252.2,32.4,250,32.4Zm0,6.78c-1.45,0-1.89-1.27-1.89-3s.44-2.76,1.89-2.76,1.91,1.06,1.91,2.76S251.5,39.18,250,39.18ZM235.77,50.7A2,2,0,0,0,238,48.53c0-1.51-1-2.19-2.48-2.19a2.89,2.89,0,0,0-3.07,3.08V51.3c0,2.06,1.34,2.89,3.07,2.89a5.51,5.51,0,0,0,2-.47V52.65h-.12a4.4,4.4,0,0,1-1.9.48,1.69,1.69,0,0,1-1.93-1.83v-.6Zm-2.12-1.28c0-1.41.7-2,1.9-2,.82,0,1.31.32,1.31,1.13s-.31,1.2-1.41,1.2h-1.8ZM275.08,22l2.67-3.29v-.11h-1.31l-2.31,2.94h-.68V15.73h-1.17V26.19h1.17v-3.6h.68l2.37,3.6h1.3v-.11Zm-18.66,11.9-.23.31V32.51H255v7.62h1.18V35.22l.86-.86a1.86,1.86,0,0,1,1.35-.57h.45V32.51h-.41A2.44,2.44,0,0,0,256.42,33.86Zm12.06-13.95-.23.31V18.56h-1.17v7.63h1.17V21.28l.86-.86a1.82,1.82,0,0,1,1.35-.57h.45V18.56h-.41A2.48,2.48,0,0,0,268.48,19.91ZM229,36.76a2,2,0,0,0,2.26-2.18c0-1.5-1-2.18-2.48-2.18a2.89,2.89,0,0,0-3.07,3.08v1.88c0,2.06,1.34,2.88,3.07,2.88a5.7,5.7,0,0,0,2.05-.46V38.71h-.11a4.68,4.68,0,0,1-1.91.47c-1.12,0-1.93-.5-1.93-1.82v-.6Zm-2.12-1.28c0-1.41.7-2,1.9-2,.82,0,1.31.33,1.31,1.13s-.31,1.2-1.41,1.2h-1.8Zm32.81.65v1c0,1.76,1,2.57,2.21,2.57a4.24,4.24,0,0,0,2.06-.57l.25-.14v.26c0,1.77-.82,2.43-2.83,2.43h-1.09v1.07h1.09c2.5,0,4-1,4-3.6V32.51h-2.1A3.49,3.49,0,0,0,259.64,36.13Zm4.52-2.56V38l-.22.1a4.14,4.14,0,0,1-1.86.5c-.78,0-1.26-.46-1.26-1.53v-1a2.34,2.34,0,0,1,2.43-2.56ZM257,6l-.24.31V4.62h-1.17v7.62h1.17V7.34l.86-.87a1.87,1.87,0,0,1,1.35-.57h.45V4.62H259A2.44,2.44,0,0,0,257,6Zm5.74,20.33a5.7,5.7,0,0,0,2.05-.46V24.76h-.11a4.5,4.5,0,0,1-1.91.48,1.68,1.68,0,0,1-1.93-1.83v-.6h2.12a2,2,0,0,0,2.26-2.17c0-1.51-1-2.19-2.48-2.19a2.9,2.9,0,0,0-3.07,3.08v1.88C259.64,25.48,261,26.3,262.71,26.3Zm-1.9-4.77c0-1.41.7-2,1.9-2,.82,0,1.31.32,1.31,1.13s-.31,1.2-1.41,1.2h-1.8Zm-58.39,23.4h1.17V43.62h-1.17Zm22.41,5.14v1c0,1.75,1,2.56,2.2,2.56a4.1,4.1,0,0,0,2.06-.57l.25-.14v.27c0,1.77-.82,2.42-2.83,2.42h-1.08v1.07h1.08c2.5,0,4-1,4-3.59V46.45h-2.1A3.48,3.48,0,0,0,224.83,50.07Zm4.51-2.56V52l-.22.1a3.94,3.94,0,0,1-1.85.5c-.78,0-1.27-.46-1.27-1.53v-1a2.34,2.34,0,0,1,2.44-2.56Zm-26.53-9.87-.35.37c-.54.55-1.2,1.17-1.85,1.17s-1.06-.28-1.06-1.39V32.51h-1.17v5.42c0,1.71.82,2.31,1.9,2.31a2.75,2.75,0,0,0,2.12-1l.41-.4v1.31H204V32.51h-1.17Zm-1.49,9.87h1.1v5.91c0,1.42-.45,2.2-1.86,2.2H200v1.07h.32c2.3,0,3.25-1.08,3.25-3.48V46.45h-2.27Zm-3.78,0h1.09v6.56h1.17V46.45h-2.26Zm1.09-2.58h1.17V43.62h-1.17Zm9.69-24v5.29h1.17V20.67c0-1.65-.81-2.22-1.9-2.22a2.77,2.77,0,0,0-2.13,1l-.4.4V18.56h-1.18v7.63h1.18V21l.34-.36c.55-.54,1.2-1.17,1.86-1.17S208.32,19.79,208.32,20.9Zm-6.75,4.94V24.76h-.12a4.4,4.4,0,0,1-1.9.48,1.68,1.68,0,0,1-1.93-1.83v-.6h2.12A2,2,0,0,0,202,20.64c0-1.51-1-2.19-2.48-2.19a2.9,2.9,0,0,0-3.07,3.08v1.88c0,2.07,1.34,2.89,3.07,2.89A5.75,5.75,0,0,0,201.57,25.84Zm-3.95-4.31c0-1.41.7-2,1.9-2,.82,0,1.31.32,1.31,1.13s-.31,1.2-1.41,1.2h-1.8ZM208,40.24a2.69,2.69,0,0,0,2-.92l.48-.47v1.28h1.17V29.68h-1.17v2.83h-.82A3.61,3.61,0,0,0,206,36.13v1.71C206,39.54,206.85,40.24,208,40.24Zm-.83-4.11a2.43,2.43,0,0,1,2.55-2.56h.79v4.09l-.37.41a3.41,3.41,0,0,1-1.88,1.11c-.59,0-1.09-.29-1.09-1.34Zm17.75-3.62h-.41a2.45,2.45,0,0,0-2,1.35l-.23.31V32.51H221v7.62h1.18V35.22l.86-.86a1.86,1.86,0,0,1,1.35-.57h.45ZM221.2,50.7a2,2,0,0,0,2.26-2.17c0-1.51-1-2.19-2.48-2.19a2.89,2.89,0,0,0-3.07,3.08V51.3c0,2.06,1.34,2.89,3.07,2.89a5.51,5.51,0,0,0,2.05-.47V52.65h-.12a4.41,4.41,0,0,1-1.91.48,1.68,1.68,0,0,1-1.92-1.83v-.6Zm-2.12-1.28c0-1.41.7-2,1.9-2,.82,0,1.31.32,1.31,1.13s-.31,1.2-1.41,1.2h-1.8Zm-5-3.08a2.72,2.72,0,0,0-2.11,1l-.43.4h-.1a1.65,1.65,0,0,0-1.77-1.42,2.77,2.77,0,0,0-2.13,1l-.4.4V46.45H206v7.62h1.18V48.93l.34-.36c.55-.54,1.2-1.17,1.83-1.17s1.07.28,1.07,1.39v5.28h1.16V48.93l.36-.36c.54-.54,1.2-1.17,1.83-1.17s1.06.28,1.06,1.39v5.28H216V48.65C216,46.94,215.17,46.34,214.09,46.34Zm4.63-7.63h-.12a4.58,4.58,0,0,1-1.9.47c-1.12,0-1.93-.5-1.93-1.82v-.6h2.12a2,2,0,0,0,2.26-2.18c0-1.5-1-2.18-2.48-2.18a2.89,2.89,0,0,0-3.07,3.08v1.88c0,2.06,1.34,2.88,3.07,2.88a5.75,5.75,0,0,0,2.05-.46Zm-3.95-3.23c0-1.41.7-2,1.9-2,.82,0,1.31.33,1.31,1.13s-.31,1.2-1.41,1.2h-1.8Z"/></svg>