<?xml version="1.0" encoding="UTF-8"?>
<svg width="262px" height="54px" viewBox="0 0 262 54" version="1.1" xmlns="http://www.w3.org/2000/svg" xmlns:xlink="http://www.w3.org/1999/xlink">
    <title>Group</title>
    <defs>
        <polygon id="path-1" points="0.0370754717 0.160660377 137.609321 0.160660377 137.609321 27.5402783 0.0370754717 27.5402783"></polygon>
    </defs>
    <g id="Page-1" stroke="none" stroke-width="1" fill="none" fill-rule="evenodd">
        <g id="Zorggroep-Meander-+-espria">
            <g id="Group" transform="translate(0.000000, 0.646000)">
                <g id="Group-3" transform="translate(0.000000, 6.397991)">
                    <mask id="mask-2" fill="white">
                        <use xlink:href="#path-1"></use>
                    </mask>
                    <g id="Clip-2"></g>
                    <path d="M11.7065802,0.580231132 L1.75366981,0.580231132 C0.838523585,0.580231132 0.380641509,1.03687736 0.380641509,1.95264151 L0.380641509,3.05934434 C0.380641509,3.97387264 0.838523585,4.43175472 1.75366981,4.43175472 L8.122,4.43175472 L0.571580189,16.5195943 C0.190320755,17.1288679 0,17.6639906 0,18.5025142 L0,19.3033443 C0,20.2184906 0.457264151,20.6763726 1.37241038,20.6763726 L11.7065802,20.6763726 C12.6211085,20.6763726 13.0789906,20.2184906 13.0789906,19.3033443 L13.0789906,18.1972594 C13.0789906,17.2821132 12.6211085,16.8248491 11.7065802,16.8248491 L4.95637264,16.8248491 L12.5067925,4.73639151 C12.8886698,4.12711792 13.0789906,3.59261321 13.0789906,2.75285377 L13.0789906,1.95264151 C13.0789906,1.03687736 12.6211085,0.580231132 11.7065802,0.580231132 L11.7065802,0.580231132 Z M29.3699528,14.3457358 C29.3699528,18.921467 26.5101981,21.0953255 22.6969858,21.0953255 C18.8831557,21.0953255 16.0234009,18.921467 16.0234009,14.3457358 L16.0234009,6.91025 C16.0234009,2.40990566 18.8831557,0.160660377 22.6969858,0.160660377 C26.5101981,0.160660377 29.3699528,2.40990566 29.3699528,6.91025 L29.3699528,14.3457358 Z M25.2514858,7.1771934 C25.2514858,4.73639151 24.1077075,4.01218396 22.6969858,4.01218396 C21.2856462,4.01218396 20.1418679,4.73639151 20.1418679,7.1771934 L20.1418679,14.0787925 C20.1418679,16.5195943 21.2856462,17.2438019 22.6969858,17.2438019 C24.1077075,17.2438019 25.2514858,16.5195943 25.2514858,14.0787925 L25.2514858,7.1771934 Z M39.8264717,4.24019811 C40.2077311,4.24019811 40.5506792,4.27850943 41.0085613,4.35513208 C41.9237075,4.50714151 42.3815896,3.93556132 42.3815896,3.02041509 L42.3815896,1.91494811 C42.3815896,0.998566038 41.9237075,0.693929245 41.1995,0.542537736 C40.4363632,0.388674528 39.8264717,0.388674528 39.2548915,0.388674528 C35.4410613,0.388674528 33.2295094,1.99157075 33.2295094,6.33805189 L33.2295094,19.3033443 C33.2295094,20.2184906 33.6867736,20.6763726 34.6019198,20.6763726 L35.9749481,20.6763726 C36.8900943,20.6763726 37.3479764,20.2184906 37.3479764,19.3033443 L37.3479764,6.64268868 C37.3479764,4.85008962 38.072184,4.24019811 39.8264717,4.24019811 L39.8264717,4.24019811 Z M53.562316,20.9050047 L53.562316,17.5113632 C52.6471698,18.6168302 51.3501462,19.1130236 49.7867972,19.1130236 C46.6600991,19.1130236 44.3342311,17.0911745 44.3342311,12.8206981 L44.3342311,6.91025 C44.3342311,2.40990566 47.1939858,0.160660377 51.0071981,0.160660377 C54.8204104,0.160660377 57.680783,2.40990566 57.680783,6.91025 L57.680783,20.9803915 C57.680783,25.4807358 54.8204104,27.5402783 51.0071981,27.5402783 C46.9276604,27.5402783 44.5245519,25.0624009 44.5245519,22.0481651 C44.5245519,21.1336368 44.982434,20.6763726 45.8975802,20.6763726 L47.4609292,20.6763726 C48.2234481,20.6763726 48.6430189,21.0953255 48.6430189,21.8590802 C48.6430189,22.9645472 49.3678443,23.8796934 51.0071981,23.8796934 C52.4185377,23.8796934 53.562316,23.3458066 53.562316,20.9050047 L53.562316,20.9050047 Z M53.562316,12.0964906 L53.562316,7.1771934 C53.562316,4.73639151 52.4185377,4.01218396 51.0071981,4.01218396 C49.5964764,4.01218396 48.4526981,4.73639151 48.4526981,7.1771934 L48.4526981,12.0964906 C48.4526981,14.5366745 49.5964764,15.2615 51.0071981,15.2615 C52.4185377,15.2615 53.562316,14.5366745 53.562316,12.0964906 L53.562316,12.0964906 Z M70.7301132,20.9050047 L70.7301132,17.5113632 C69.814967,18.6168302 68.5185613,19.1130236 66.9552123,19.1130236 C63.8285142,19.1130236 61.5020283,17.0911745 61.5020283,12.8206981 L61.5020283,6.91025 C61.5020283,2.40990566 64.3624009,0.160660377 68.1756132,0.160660377 C71.9888255,0.160660377 74.8485802,2.40990566 74.8485802,6.91025 L74.8485802,20.9803915 C74.8485802,25.4807358 71.9888255,27.5402783 68.1756132,27.5402783 C64.0948396,27.5402783 61.692967,25.0624009 61.692967,22.0481651 C61.692967,21.1336368 62.1502311,20.6763726 63.0653774,20.6763726 L64.6287264,20.6763726 C65.3918632,20.6763726 65.810816,21.0953255 65.810816,21.8590802 C65.810816,22.9645472 66.5356415,23.8796934 68.1756132,23.8796934 C69.5863349,23.8796934 70.7301132,23.3458066 70.7301132,20.9050047 L70.7301132,20.9050047 Z M70.7301132,12.0964906 L70.7301132,7.1771934 C70.7301132,4.73639151 69.5863349,4.01218396 68.1756132,4.01218396 C66.7642736,4.01218396 65.6204953,4.73639151 65.6204953,7.1771934 L65.6204953,12.0964906 C65.6204953,14.5366745 66.7642736,15.2615 68.1756132,15.2615 C69.5863349,15.2615 70.7301132,14.5366745 70.7301132,12.0964906 L70.7301132,12.0964906 Z M85.6486651,4.24019811 C86.0293066,4.24019811 86.3722547,4.27850943 86.8301368,4.35513208 C87.7459009,4.50714151 88.2031651,3.93556132 88.2031651,3.02041509 L88.2031651,1.91494811 C88.2031651,0.998566038 87.7459009,0.693929245 87.0210755,0.542537736 C86.2579387,0.388674528 85.6486651,0.388674528 85.076467,0.388674528 C81.2632547,0.388674528 79.0510849,1.99157075 79.0510849,6.33805189 L79.0510849,19.3033443 C79.0510849,20.2184906 79.508967,20.6763726 80.4234953,20.6763726 L81.7971415,20.6763726 C82.7116698,20.6763726 83.1695519,20.2184906 83.1695519,19.3033443 L83.1695519,6.64268868 C83.1695519,4.85008962 83.8943774,4.24019811 85.6486651,4.24019811 L85.6486651,4.24019811 Z M103.54067,14.3457358 C103.54067,18.921467 100.680297,21.0953255 96.8670849,21.0953255 C93.0538726,21.0953255 90.1941179,18.921467 90.1941179,14.3457358 L90.1941179,6.91025 C90.1941179,2.40990566 93.0538726,0.160660377 96.8670849,0.160660377 C100.680297,0.160660377 103.54067,2.40990566 103.54067,6.91025 L103.54067,14.3457358 Z M99.4222028,7.1771934 C99.4222028,4.73639151 98.2784245,4.01218396 96.8670849,4.01218396 C95.4563632,4.01218396 94.3125849,4.73639151 94.3125849,7.1771934 L94.3125849,14.0787925 C94.3125849,16.5195943 95.4563632,17.2438019 96.8670849,17.2438019 C98.2784245,17.2438019 99.4222028,16.5195943 99.4222028,14.0787925 L99.4222028,7.1771934 Z M116.094425,15.1088726 C116.094425,14.3457358 116.513995,13.926783 117.276514,13.926783 L118.839863,13.926783 C119.755009,13.926783 120.212274,14.3840472 120.212274,15.2998113 C120.212274,18.7317642 117.619462,21.0953255 113.729627,21.0953255 C109.916415,21.0953255 107.057278,18.8448443 107.057278,14.3457358 L107.057278,6.91025 C107.057278,2.40990566 109.916415,0.160660377 113.729627,0.160660377 C117.543458,0.160660377 120.403212,2.40990566 120.403212,6.91025 L120.403212,10.1512642 C120.403212,11.0670283 119.945948,11.5236745 119.030802,11.5236745 L111.175127,11.5236745 L111.175127,14.0787925 C111.175127,16.5195943 112.319524,17.2438019 113.729627,17.2438019 C115.179278,17.2438019 116.094425,16.4046604 116.094425,15.1088726 L116.094425,15.1088726 Z M111.175127,7.1771934 L111.175127,8.43528774 L116.284745,8.43528774 L116.284745,7.1771934 C116.284745,4.73639151 115.140967,4.01218396 113.729627,4.01218396 C112.319524,4.01218396 111.175127,4.73639151 111.175127,7.1771934 L111.175127,7.1771934 Z M137.609321,6.91025 L137.609321,14.8036179 C137.609321,19.0747123 135.283453,21.0953255 132.156755,21.0953255 C130.592788,21.0953255 129.296382,20.5991321 128.380618,19.494283 L128.380618,25.7476792 C128.380618,26.6628255 127.923354,27.1207075 127.008208,27.1207075 L125.635797,27.1207075 C124.720033,27.1207075 124.262769,26.6628255 124.262769,25.7476792 L124.262769,6.91025 C124.262769,2.33513679 127.123142,0.160660377 130.936354,0.160660377 C134.749566,0.160660377 137.609321,2.33513679 137.609321,6.91025 L137.609321,6.91025 Z M133.490854,14.0787925 L133.490854,7.1771934 C133.490854,4.73639151 132.347075,4.01218396 130.936354,4.01218396 C129.525014,4.01218396 128.380618,4.73639151 128.380618,7.1771934 L128.380618,14.0787925 C128.380618,16.5195943 129.525014,17.2438019 130.936354,17.2438019 C132.347075,17.2438019 133.490854,16.5195943 133.490854,14.0787925 L133.490854,14.0787925 Z" id="Fill-1" fill="#A9B62C" mask="url(#mask-2)"></path>
                </g>
                <path d="M163.521368,12.6223443 C163.521368,8.57988208 160.966868,6.55865094 157.534915,6.55865094 C155.246741,6.55865094 153.493071,7.58811321 152.538995,9.41902358 C151.586156,7.58811321 149.793557,6.55865094 147.544311,6.55865094 C144.111741,6.55865094 141.557241,8.57988208 141.557241,12.6223443 L141.557241,25.7013349 C141.557241,26.6170991 142.014505,27.0737453 142.929651,27.0737453 L144.302061,27.0737453 C145.217825,27.0737453 145.67509,26.6170991 145.67509,25.7013349 L145.67509,13.3842453 C145.67509,11.0966887 146.742863,10.4101745 148.07758,10.4101745 C149.412297,10.4101745 150.480071,11.0966887 150.480071,13.3842453 L150.480071,25.7013349 C150.480071,26.6170991 150.937335,27.0737453 151.852481,27.0737453 L153.225509,27.0737453 C154.140656,27.0737453 154.598538,26.6170991 154.598538,25.7013349 L154.598538,13.3842453 C154.598538,11.0966887 155.665693,10.4101745 157.001028,10.4101745 C158.335127,10.4101745 159.402901,11.0966887 159.402901,13.3842453 L159.402901,25.7013349 C159.402901,26.6170991 159.860783,27.0737453 160.775929,27.0737453 L162.148958,27.0737453 C163.064104,27.0737453 163.521368,26.6170991 163.521368,25.7013349 L163.521368,12.6223443 Z M176.418071,21.5068632 C176.418071,20.7437264 176.838259,20.3253915 177.600778,20.3253915 L179.164127,20.3253915 C180.079274,20.3253915 180.537156,20.7820377 180.537156,21.6978019 C180.537156,25.1297547 177.943726,27.493934 174.054509,27.493934 C170.241297,27.493934 167.380925,25.2434528 167.380925,20.7437264 L167.380925,13.3088585 C167.380925,8.80789623 170.241297,6.55865094 174.054509,6.55865094 C177.867722,6.55865094 180.727476,8.80789623 180.727476,13.3088585 L180.727476,16.5492547 C180.727476,17.4650189 180.269594,17.9216651 179.354448,17.9216651 L171.498774,17.9216651 L171.498774,20.4774009 C171.498774,22.9175849 172.64317,23.6424104 174.054509,23.6424104 C175.503542,23.6424104 176.418071,22.8026509 176.418071,21.5068632 L176.418071,21.5068632 Z M171.498774,13.575184 L171.498774,14.8332783 L176.609009,14.8332783 L176.609009,13.575184 C176.609009,11.135 175.465231,10.4101745 174.054509,10.4101745 C172.64317,10.4101745 171.498774,11.135 171.498774,13.575184 L171.498774,13.575184 Z M197.208759,13.3088585 L197.208759,20.7437264 C197.208759,25.2434528 194.348387,27.493934 190.535792,27.493934 C186.684269,27.493934 183.862208,25.2434528 183.862208,21.4302406 L183.862208,21.3548538 C183.862208,17.5404057 186.226387,15.2911604 190.535792,15.2911604 L193.09091,15.2911604 L193.09091,13.575184 C193.09091,11.135 191.946514,10.4101745 190.535792,10.4101745 C189.086759,10.4101745 188.361934,11.3253208 188.361934,12.4307877 C188.361934,13.1939245 187.942363,13.6134953 187.179844,13.6134953 L185.616495,13.6134953 C184.701349,13.6134953 184.243467,13.1556132 184.243467,12.2410849 C184.243467,8.99945283 186.684269,6.55865094 190.535792,6.55865094 C194.348387,6.55865094 197.208759,8.80789623 197.208759,13.3088585 L197.208759,13.3088585 Z M190.535792,23.6424104 C191.946514,23.6424104 193.09091,22.9175849 193.09091,20.4774009 L193.09091,18.3795472 L190.535792,18.3795472 C189.124453,18.3795472 187.980675,19.1043726 187.980675,21.0112877 C187.980675,22.9175849 189.124453,23.6424104 190.535792,23.6424104 L190.535792,23.6424104 Z M214.414868,25.7013349 L214.414868,13.3088585 C214.414868,8.80789623 211.555113,6.55865094 207.741901,6.55865094 C203.928071,6.55865094 201.068316,8.80789623 201.068316,13.3088585 L201.068316,25.7013349 C201.068316,26.6170991 201.52558,27.0737453 202.441344,27.0737453 L203.813755,27.0737453 C204.729519,27.0737453 205.186783,26.6170991 205.186783,25.7013349 L205.186783,13.575184 C205.186783,11.135 206.331179,10.4101745 207.741901,10.4101745 C209.152623,10.4101745 210.296401,11.135 210.296401,13.575184 L210.296401,25.7013349 C210.296401,26.6170991 210.754283,27.0737453 211.669429,27.0737453 L213.04184,27.0737453 C213.956986,27.0737453 214.414868,26.6170991 214.414868,25.7013349 L214.414868,25.7013349 Z M218.274425,20.7437264 L218.274425,12.8509764 C218.274425,8.57988208 220.60091,6.55865094 223.727608,6.55865094 C225.252646,6.55865094 226.587363,7.05422642 227.502509,8.1596934 L227.502509,1.3730283 C227.502509,0.457264151 227.960392,0 228.875538,0 L230.248566,0 C231.163094,0 231.620976,0.457264151 231.620976,1.3730283 L231.620976,20.7437264 C231.620976,25.3200755 228.760604,27.493934 224.947392,27.493934 C221.134179,27.493934 218.274425,25.3200755 218.274425,20.7437264 L218.274425,20.7437264 Z M222.392892,13.575184 L222.392892,20.4774009 C222.392892,22.9175849 223.53667,23.6424104 224.947392,23.6424104 C226.358731,23.6424104 227.502509,22.9175849 227.502509,20.4774009 L227.502509,13.575184 C227.502509,11.135 226.358731,10.4101745 224.947392,10.4101745 C223.53667,10.4101745 222.392892,11.135 222.392892,13.575184 L222.392892,13.575184 Z M244.555991,21.5068632 C244.555991,20.7437264 244.975561,20.3253915 245.73808,20.3253915 L247.301429,20.3253915 C248.217193,20.3253915 248.674458,20.7820377 248.674458,21.6978019 C248.674458,25.1297547 246.081646,27.493934 242.191811,27.493934 C238.378599,27.493934 235.518226,25.2434528 235.518226,20.7437264 L235.518226,13.3088585 C235.518226,8.80789623 238.378599,6.55865094 242.191811,6.55865094 C246.005024,6.55865094 248.865396,8.80789623 248.865396,13.3088585 L248.865396,16.5492547 C248.865396,17.4650189 248.407514,17.9216651 247.492368,17.9216651 L239.636693,17.9216651 L239.636693,20.4774009 C239.636693,22.9175849 240.78109,23.6424104 242.191811,23.6424104 C243.640844,23.6424104 244.555991,22.8026509 244.555991,21.5068632 L244.555991,21.5068632 Z M239.636693,13.575184 L239.636693,14.8332783 L244.746311,14.8332783 L244.746311,13.575184 C244.746311,11.135 243.602533,10.4101745 242.191811,10.4101745 C240.78109,10.4101745 239.636693,11.135 239.636693,13.575184 L239.636693,13.575184 Z M259.282986,10.6388066 C259.664863,10.6388066 260.007811,10.6771179 260.465075,10.7537406 C261.38084,10.9051321 261.838722,10.3335519 261.838722,9.41902358 L261.838722,8.31293868 C261.838722,7.39717453 261.38084,7.09191981 260.656014,6.93991038 C259.893495,6.78728302 259.282986,6.78728302 258.711406,6.78728302 C254.898193,6.78728302 252.686642,8.38956132 252.686642,12.7360425 L252.686642,25.7013349 C252.686642,26.6170991 253.143906,27.0737453 254.059052,27.0737453 L255.43208,27.0737453 C256.347226,27.0737453 256.804491,26.6170991 256.804491,25.7013349 L256.804491,13.0406792 C256.804491,11.2486981 257.529316,10.6388066 259.282986,10.6388066 L259.282986,10.6388066 Z" id="Fill-4" fill="#621A5E"></path>
                <path d="M210.904439,42.3086745 L210.904439,42.8302028 C210.904439,43.6168208 210.491665,44.196434 209.53759,44.196434 L204.285849,44.196434 L204.285849,44.4133255 C204.285849,45.6621509 205.268967,46.3214764 206.577113,46.3214764 C207.393392,46.3214764 208.003283,46.1737925 208.485264,45.9575189 C208.829448,45.8098349 209.055608,45.7313585 209.291656,45.7313585 C209.900929,45.7313585 210.422458,46.2621557 210.422458,46.8918208 C210.422458,47.2953255 210.225958,47.7377594 209.616684,48.0331274 C208.917811,48.3674245 207.835825,48.6813302 206.478863,48.6813302 C203.764321,48.6813302 201.944533,46.9505236 201.738146,44.5016887 C201.679443,43.7342264 201.688712,42.5546085 201.738146,41.9348302 C201.964307,39.3772406 203.803868,37.7551887 206.380613,37.7551887 C209.064877,37.7551887 210.904439,39.5249245 210.904439,42.3086745 M204.285849,42.3673774 L208.249217,42.3673774 C208.396901,42.3673774 208.465491,42.3086745 208.465491,42.1220613 C208.524811,40.8330708 207.71842,39.9772453 206.419542,39.9772453 C204.935288,39.9772453 204.266075,40.921434 204.285849,42.3673774" id="Fill-5" fill="#636463"></path>
                <path d="M220.042307,38.669717 C220.346943,38.9354245 220.484741,39.2295566 220.484741,39.5842453 C220.484741,40.2528396 219.934788,40.7842547 219.275462,40.7842547 C218.980094,40.7842547 218.773708,40.7051604 218.449297,40.5482075 C217.98709,40.3214292 217.406858,40.1447028 216.796967,40.1447028 C215.803344,40.1447028 215.380684,40.5185472 215.380684,41.0301887 C215.380684,41.4528491 215.695208,41.698783 216.56092,41.9051698 L217.88884,42.2005377 C219.924901,42.6924057 220.888245,43.6563679 220.888245,45.3278538 C220.888245,47.4232358 219.049302,48.6813302 216.796967,48.6813302 C215.035882,48.6813302 213.70858,48.101717 213.000439,47.5412594 C212.685915,47.2755519 212.538231,46.9406368 212.538231,46.587184 C212.538231,45.9278585 213.059759,45.416217 213.689425,45.416217 C214.003948,45.416217 214.210335,45.4854245 214.514972,45.6522642 C215.095203,46.0162217 215.773684,46.3313632 216.826009,46.3313632 C217.829519,46.3313632 218.291726,45.9080849 218.291726,45.3766698 C218.291726,44.9638962 217.996976,44.6685283 217.160925,44.4720283 L215.665547,44.1278443 C214.131858,43.7447311 212.832981,42.8104292 212.832981,41.0691179 C212.832981,38.9743538 214.642882,37.7551887 216.934764,37.7551887 C218.105113,37.7551887 219.34467,38.0993726 220.042307,38.669717" id="Fill-6" fill="#636463"></path>
                <path d="M232.307491,41.7574858 C232.385967,42.5638774 232.37608,43.7836604 232.307491,44.5900519 C232.120877,46.9505236 230.537137,48.6325142 227.960392,48.6325142 C227.183042,48.6325142 226.298175,48.4162406 225.737099,48.1610377 L225.737099,51.0813491 C225.737099,51.8488113 225.117939,52.4587028 224.390024,52.4587028 C223.613292,52.4587028 223.042948,51.8488113 223.042948,51.0813491 L223.042948,39.6917642 C223.042948,39.3970142 223.121425,39.2005142 223.377245,39.0231698 C224.026066,38.5621981 225.590033,37.7551887 227.616208,37.7551887 C230.221995,37.7551887 232.091217,39.3970142 232.307491,41.7574858 M225.737099,40.9016604 L225.737099,45.5737877 C226.062127,45.7906792 226.858632,46.0650377 227.67491,46.0650377 C228.894693,46.0650377 229.563906,45.3470094 229.641764,44.1766604 C229.691198,43.4685189 229.691198,42.8302028 229.641764,42.2400849 C229.543514,41.1080472 228.855764,40.3220472 227.586547,40.3220472 C226.937108,40.3220472 226.101057,40.6174151 225.737099,40.9016604" id="Fill-7" fill="#636463"></path>
                <path d="M240.117439,37.9615755 C240.648854,38.1092594 241.208693,38.4330519 241.208693,39.2400613 C241.208693,39.9673585 240.726712,40.5580943 240.038962,40.5580943 C239.861618,40.5580943 239.625571,40.5086604 239.409297,40.4691132 C239.212797,40.430184 238.986019,40.3906368 238.641835,40.3906368 C237.91392,40.3906368 237.52092,40.7545943 237.52092,41.6400802 L237.52092,47.2360047 C237.52092,47.9836934 236.940071,48.592967 236.173226,48.592967 C235.445929,48.592967 234.826151,47.9836934 234.826151,47.2360047 L234.826151,41.1284387 C234.826151,39.062717 236.02616,37.7551887 238.297651,37.7551887 C239.025566,37.7551887 239.723821,37.8534387 240.117439,37.9615755" id="Fill-8" fill="#636463"></path>
                <path d="M245.615113,35.3644387 C245.615113,36.1417877 244.975561,36.8202689 244.189561,36.8202689 C243.373283,36.8202689 242.77266,36.1417877 242.77266,35.3644387 C242.77266,34.5685519 243.373283,33.9382689 244.189561,33.9382689 C244.975561,33.9382689 245.615113,34.5685519 245.615113,35.3644387 M245.536637,39.2301745 L245.536637,47.2069623 C245.536637,47.9738066 244.955788,48.5923491 244.179675,48.5923491 C243.451142,48.5923491 242.851755,47.9935802 242.851755,47.2069623 L242.851755,39.2301745 C242.851755,38.4725991 243.412212,37.8528208 244.189561,37.8528208 C244.945901,37.8528208 245.536637,38.4725991 245.536637,39.2301745" id="Fill-9" fill="#636463"></path>
                <path d="M245.615113,51.2865 C245.615113,52.0638491 244.975561,52.7423302 244.189561,52.7423302 C243.373283,52.7423302 242.77266,52.0638491 242.77266,51.2865 C242.77266,50.4899953 243.373283,49.8603302 244.189561,49.8603302 C244.975561,49.8603302 245.615113,50.4899953 245.615113,51.2865" id="Fill-10" fill="#636463"></path>
                <path d="M256.709948,41.7574858 L256.709948,46.685434 C256.709948,47.1284858 256.591307,47.3738019 256.237854,47.6197358 C255.686665,47.9830755 254.309929,48.6819481 252.087255,48.6819481 C249.225028,48.6819481 247.936656,47.1284858 247.936656,45.2790377 C247.936656,43.5976651 249.087231,42.0825142 251.861094,42.0825142 C252.736693,42.0825142 253.454104,42.190033 254.142472,42.3871509 L254.142472,41.6691226 C254.142472,40.6860047 253.660491,40.1447028 252.303528,40.1447028 C251.684368,40.1447028 250.975608,40.3115425 250.444811,40.4993915 C250.169217,40.57725 249.952943,40.6174151 249.746557,40.6174151 C249.107005,40.6174151 248.586094,40.0853821 248.586094,39.4859953 C248.586094,39.0818726 248.73316,38.5813538 249.461075,38.2859858 C250.002377,38.0499387 251.074476,37.7551887 252.303528,37.7551887 C255.165755,37.7551887 256.709948,38.9836226 256.709948,41.7574858 M250.474472,45.219717 C250.474472,46.1150896 251.172726,46.5470189 252.234321,46.5470189 C253.100033,46.5470189 253.798288,46.243 254.142472,46.0063349 L254.142472,44.1871651 C253.473877,43.991283 252.912802,43.8825283 252.214547,43.8825283 C251.025042,43.8825283 250.474472,44.4918019 250.474472,45.219717" id="Fill-11" fill="#636463"></path>
            </g>
        </g>
    </g>
</svg>