<?xml version="1.0" encoding="UTF-8"?>
<svg width="93px" height="93px" viewBox="0 0 93 93" version="1.1" xmlns="http://www.w3.org/2000/svg" xmlns:xlink="http://www.w3.org/1999/xlink">
    <!-- Generator: Sketch 59.1 (86144) - https://sketch.com -->
    <title>Group 5</title>
    <desc>Created with Sketch.</desc>
    <g id="Symbols" stroke="none" stroke-width="1" fill="none" fill-rule="evenodd">
        <g id="header" transform="translate(-143.000000, -12.000000)">
            <g id="Group-3">
                <g id="header-copy">
                    <g id="Group-5" transform="translate(143.000000, 12.000000)">
                        <rect id="Rectangle" fill="#5C267F" x="0" y="0" width="93" height="93"></rect>
                        <g id="Group-23" transform="translate(7.294118, 9.117647)" fill="#FFFFFF">
                            <path d="M31.9843812,1.99973223 C31.9814211,2.36916253 31.8156593,2.57899894 31.8038192,2.77701359 C31.4545353,3.45676535 30.714527,3.61635924 30.4777244,4.45274945 C30.0810799,4.43797223 30.0337194,4.89311037 29.6785154,4.93153112 C29.2433906,5.63788186 28.7253848,6.23783668 28.0860176,6.66637583 C27.6153724,7.31066228 27.1476872,7.95199329 26.5349603,8.40417598 C24.2794151,11.2236681 21.5857851,13.4461608 19.4012807,16.360227 C20.8901773,16.4252467 22.4649149,15.8371137 24.0100521,16.0617273 C24.175814,16.0853709 24.3445359,16.1208362 24.4954975,16.2390539 C24.8477415,15.4026637 24.4096566,14.128868 24.8507015,13.4284281 C26.7007222,13.8421901 28.4027412,13.4195618 30.3445229,13.0678641 C30.892129,12.9703345 31.9636609,12.6777457 32.1619832,13.3663638 C32.3011047,13.8717445 32.1856634,14.8559068 32.2063837,15.4026637 C32.2448641,16.5641525 32.2774244,17.9827649 32.3395851,19.3511348 C32.3839856,20.3293862 32.2922246,20.9441182 32.3839856,21.8662163 C32.2507842,21.7036669 32.3011047,21.9785231 32.2063837,22.0435428 C32.058382,22.138117 31.8422996,21.9667013 31.6291772,21.9223697 C30.359323,21.6682016 28.9000267,22.2267802 27.3726497,22.2238365 C26.594161,22.2208694 25.7623917,22.0346765 24.9395025,21.984434 C20.6385745,21.7213996 17.4535789,22.0730972 13.0224094,21.9223697 C12.3297617,21.9016816 11.7910357,22.0612755 11.2019891,22.0435428 C10.115657,22.0139884 8.99380444,22.0080775 7.969633,21.9430578 C7.16154397,21.8869044 6.24985379,22.0080775 5.31152331,21.8809935 C4.34359251,21.7479986 3.37270166,21.8662163 2.52021214,21.7627758 C1.71508315,21.6622907 1.02835548,21.0002716 0.610990823,20.3086981 C1.02835548,19.5432385 1.67956276,19.1442538 2.20644864,18.5738534 C2.73333452,18.0064084 3.24838028,17.4448744 3.76046599,16.8390087 C4.78759746,15.6154555 5.93017022,14.6815357 7.08162308,13.667819 C9.35492847,11.664029 11.3855111,9.21396721 13.5078548,7.02693981 C12.089999,6.85847959 10.4442206,6.32354451 8.94348387,6.90576667 C8.93756381,7.83673103 8.86948305,8.67903213 8.89908338,9.59817472 C8.40475786,9.97056047 7.90155224,9.60113017 7.34802606,9.53906587 C6.39785545,9.4297145 5.36776394,9.48291247 4.3791129,9.59817472 C3.46742272,9.70457065 2.42253105,10.0887782 1.71804319,9.41789274 C1.57004153,7.98450315 1.70620305,5.6822135 1.76540371,3.85279463 C1.79204401,3.04004796 1.92820553,2.39871696 1.67660272,1.81945024 C1.83348447,1.59483661 2.11468762,1.53277232 2.25380917,1.28155972 C7.32138576,0.903263084 11.4447118,0.8973522 17.0717346,1.03625799 C17.3055773,1.03921344 18.2054273,1.03034711 18.4422299,1.03625799 C19.9992073,1.08945596 21.3519424,1.09536684 22.9148399,1.03625799 C25.5640695,0.932817509 28.1570584,1.35840122 30.717487,1.03625799 C30.9957301,1.30224781 31.791979,1.35249033 31.9843812,1.99973223" id="Fill-1"></path>
                            <path d="M55.4882276,1.19880733 C55.3313459,1.68645533 55.3195058,2.24207851 55.4882276,2.71790474 C55.3846265,2.90409761 55.2573451,2.77405814 55.3491061,3.22624084 C55.0442227,3.22328539 54.6653385,3.29717146 54.268694,3.29126057 C54.2598139,4.92266479 53.9845309,6.66342039 54.2242935,8.23571576 C54.1058922,10.1124217 54.2390937,12.2344294 54.2242935,14.2589074 C54.2065333,16.2686083 53.9430904,18.2723983 54.6446182,19.8358273 C55.4349471,19.9244906 55.784231,19.2949813 56.3347971,19.8358273 C56.1956755,20.5067127 56.3022367,21.1894199 56.240076,21.8011965 C56.0417538,21.9548795 55.8375116,21.9164588 55.6776698,21.7361768 C52.2736318,21.8484836 48.3190276,21.9933003 45.3057139,21.8011965 C45.0896315,21.109623 45.0215508,20.0988617 45.0689113,19.3925109 C45.3678746,19.1560756 45.8325998,19.2536052 46.1493234,19.2654269 C46.6051685,18.7452691 46.4364466,17.8911462 46.4275665,16.8567413 C46.3979661,12.9289583 46.1611635,7.93130519 46.1966839,4.05080928 C46.1256431,3.97692322 45.9835615,3.99761131 46.0072418,3.79664123 C45.1458722,3.808463 44.6337864,3.74048782 44.1305808,3.29126057 C44.1779413,2.81838978 44.2608223,2.52580098 44.1749813,1.89629174 C44.506505,1.45593082 44.9978705,1.81058391 45.3945149,1.76920772 C45.6875582,1.73965329 46.0427622,1.64803458 46.3358054,1.5800594 C47.9223832,1.20471821 49.5918418,1.49435157 51.2642605,1.19880733 C52.2884319,1.34657945 53.2682029,1.61552471 54.3160546,1.26087162 C54.6416582,1.15152025 55.0797431,0.649095035 55.4882276,1.19880733" id="Fill-3"></path>
                            <path d="M36.2133804,1.38204476 C36.1630598,4.75716002 36.1156993,7.78648851 36.2133804,10.9044803 C36.269621,12.7693645 35.9854579,14.8174861 36.5064237,16.7887662 C36.7077059,17.5483149 37.4417941,18.4260813 38.0752412,18.6418286 C39.0550121,18.978749 39.8749413,18.0862054 40.4255074,17.4507853 C41.3312776,12.1989641 41.0234341,6.92941021 40.8635923,1.38204476 C41.3934383,0.959416491 42.2192875,1.25496073 42.8734548,1.38204476 C42.7580135,4.52959095 42.980016,8.46032939 42.8231342,11.764514 C42.8083341,12.1132562 42.6810526,12.4738202 42.6780926,12.8225624 C42.6721725,13.3013441 42.8349743,13.794903 42.8231342,14.2766401 C42.7668936,16.540509 42.4886505,18.7038929 41.7456822,20.6929056 C40.9731136,21.6800234 40.2419854,22.1351615 38.5636466,21.8839489 C36.9918691,21.6416026 35.7871356,20.749059 35.2336095,19.2358725 C34.7126436,17.8290819 34.2686387,14.97708 34.1561574,13.2185917 C34.028876,11.2000245 33.8897545,8.83862602 34.0111158,6.73730645 C34.0614364,5.79747575 34.2627186,4.92266479 34.203518,4.22518038 C34.1295171,3.28239424 33.6884722,2.20365776 34.0111158,1.51503967 C34.3663198,0.743669193 35.7042547,1.30520326 36.2133804,1.38204476" id="Fill-5"></path>
                            <path d="M14.8309896,43.5692122 C14.1087416,44.1809888 12.3475219,44.3405827 11.2907901,44.1514344 C9.57397091,43.8499793 7.54634827,41.7929913 7.01650235,40.528062 C6.64353819,39.6355184 6.57841746,39.0000982 6.60505776,38.3055693 C6.61689789,37.8326985 7.00170219,37.3716494 7.12306354,36.7864718 C7.28290533,35.9825915 7.38058642,35.0930033 7.95779287,34.5610237 C8.39587776,34.1561281 9.24836728,34.2388805 9.62133144,33.6271039 C10.115657,33.8960491 11.0806277,33.721678 11.4979924,34.209326 C12.1432796,35.4801663 10.6455029,36.2219823 11.4979924,37.4869117 C12.7323262,37.6258175 12.5547242,36.1806061 13.164491,35.6161166 C14.7392286,34.8092809 15.8314808,35.9796361 16.2843659,37.7203917 C16.743171,39.4670581 15.8107606,42.7387329 14.8309896,43.5692122 M21.0914595,34.8624788 C20.8990574,34.0970192 20.6089741,33.3640695 20.3011307,32.5779218 C19.9814471,31.7563088 19.792005,30.8430771 19.4634414,30.3199638 C19.3302399,30.0894393 19.0016762,29.7791178 18.6967928,29.3151134 C18.0396655,28.3013966 17.0865348,27.228571 16.296206,26.4719778 C16.2399654,26.3951362 15.9942826,26.3153393 15.6834791,26.072993 C15.3845158,25.7892706 15.2157939,25.48486 15.1980337,25.5055481 C14.8990704,25.2986671 14.2656233,25.0385882 13.6676966,24.7725984 C12.9513686,24.4356779 11.9775178,24.0426041 11.3647909,24.0541655 C11.2611898,24.0541655 11.1664687,24.0632922 11.0865478,24.0810248 C9.85221402,24.38248 8.66524077,24.6248262 7.71803019,25.0179001 C5.57200622,25.9015774 4.05350927,27.2433482 2.60309307,29.02548 C1.76836375,30.4943349 1.17043707,31.8538384 0.750112377,33.8251185 C0.738272244,35.364904 0.403788509,36.7184967 0.359369478,38.1607526 L0.359369478,38.3085247 C0.35642798,39.4049938 0.708671914,40.5871708 0.936594459,41.8166349 C1.05203575,42.4461441 1.1822772,43.0283663 1.35987919,43.6164993 C1.87788497,45.3099678 2.36333039,45.9424325 3.31942107,47.2339608 C3.80782652,47.89598 4.35247261,48.5668654 4.88527856,49.0013154 C6.10481217,50.0061658 7.67066966,51.0080608 8.98788437,51.2947388 C10.2577386,51.5725503 11.640074,51.8621837 12.898088,51.8621837 C13.7120971,51.8621837 14.4728256,51.7410106 15.1269929,51.4454663 C15.6953193,51.1883428 16.3198862,50.9282639 16.6898904,50.6593186 C17.731822,49.8997699 18.4540701,48.971761 19.2384788,47.8457374 C20.2212098,46.4419023 20.9375378,44.4588004 21.1891406,42.4431887 C21.2838617,41.7072835 21.316422,40.9477348 21.316422,40.167498 C21.316422,38.5006285 21.1595403,36.7332739 21.0914595,34.8624788" id="Fill-7"></path>
                            <path d="M50.146256,24.6011827 C50.0071344,26.2946512 50.2113767,29.02548 50.2528172,30.9642503 C50.2764974,32.004566 50.2942576,32.4183279 50.2912976,33.5413961 C50.2883376,34.1797716 50.3475382,34.6526424 50.1077756,34.8270135 C49.9360936,34.957053 49.5779296,34.3039002 49.3825675,34.0231332 C49.1132045,33.621193 48.9237623,33.1719657 48.7313602,32.8971096 C48.2103944,32.1257391 47.724949,31.6942445 47.2868641,30.9642503 C45.6174054,29.9800879 43.7289043,28.4757677 41.8611235,28.3871044 C40.7126306,28.330951 39.2681345,28.6501388 38.4600455,30.1574145 C38.5340463,31.7326653 38.8093294,31.7799524 39.4753368,32.2528232 C39.9489421,32.5867881 40.4047872,32.7552484 40.9908738,32.8173127 C43.1931383,33.0389708 44.7826761,33.4261338 46.8872596,33.9433362 C48.4531171,34.3245883 49.5483293,35.3501268 50.5458605,37.0022191 C50.7501027,37.6139957 50.9661852,38.2021288 51.2296281,38.6927322 C51.6085123,40.9477348 52.1057979,42.5850499 51.8097946,45.5375369 C51.1645074,47.9137126 50.1403359,49.766775 49.0599239,50.9312193 C47.0293412,51.9124262 44.8773972,52.1518171 42.5508112,51.4957088 C41.1092751,51.0908132 39.5404576,50.8602887 38.2439631,50.0445866 C37.8502787,49.7992849 37.4210739,49.3471022 37.0481097,49.0781569 C36.4768233,48.664395 36.0061781,49.2968597 35.4556119,49.8849927 C35.0500874,50.3194427 34.6741632,50.9253084 34.2656787,50.8514224 C34.2005579,48.1974351 34.2834389,44.349449 34.2656787,41.4294719 C34.2567986,40.1202109 34.0525563,39.3931721 34.5172815,39.1774248 C35.1270483,40.8827151 35.8640965,42.372258 36.7935469,43.5248806 C37.341153,44.1987215 37.9982803,44.8784732 38.5695667,45.2153937 C38.9040505,45.4104529 39.1911737,45.3897648 39.4398164,45.8596801 C39.8009405,45.6882645 40.0614234,46.3236846 40.3751869,46.5039666 C40.5853492,46.6221843 40.8162318,46.506922 41.0293542,46.5837635 C41.5118396,46.7581346 41.9913649,47.2664707 42.5123307,47.3078469 C42.6544123,47.3196687 42.799454,47.201451 42.9444956,47.22805 C43.2848994,47.2871588 43.610503,47.4763071 43.9597869,47.5501932 C44.4807527,47.6595446 45.0549991,47.4171983 45.6233255,47.4674408 C45.7446868,47.4792626 45.8690082,47.6329456 45.9874096,47.6299901 C46.6297367,47.609302 47.7012687,46.7551792 47.6894286,45.3749876 C47.6627883,43.6105884 46.1650115,43.8677119 45.2622015,43.6844745 C44.7323555,43.5780786 44.1018685,43.300267 43.4891417,43.2027374 C42.8675347,43.1022523 42.263688,43.1968265 41.7545623,42.9603911 C40.5261486,42.3929461 39.0194917,41.6688627 37.7703578,40.8679378 C37.4003537,40.628547 37.0096293,40.4393987 36.6869857,40.140899 C36.4975436,39.9665279 36.2844212,39.5734541 36.0712988,39.3370187 C35.5236927,38.7252421 35.1329683,38.063223 34.6948834,37.161813 C34.206478,35.7432007 33.9045546,34.209326 33.8275938,32.0104769 C33.943035,31.1267996 34.1768777,30.488424 34.1561574,29.513128 C34.4521607,28.2363769 35.0086469,27.4531846 35.5296128,26.613839 C35.7664154,26.2384978 35.9321773,25.712429 36.18082,25.4080185 C37.06883,24.3233711 38.5843669,24.2465296 39.7269396,24.0396486 C40.4077472,23.9125646 41.1536756,23.9302973 41.7545623,24.1194456 C41.9321643,24.175599 42.0979261,24.4386334 42.2962483,24.5213857 C42.7668936,24.7223558 43.2967395,24.7489548 43.7437045,25.0031229 C44.0959484,25.2070484 44.4452323,25.6089886 44.7885962,25.892711 C45.4605237,26.4365124 46.1087709,26.7350121 46.7806984,27.1812839 C47.3549448,26.6286162 47.9617516,26.1380128 48.6632794,25.5705678 C49.2079255,25.124296 49.6904109,24.5893609 50.146256,24.6011827" id="Fill-9"></path>
                            <path d="M26.7232184,27.2607853 C25.9891302,28.8035263 26.3561743,31.8151221 26.1963325,33.7745805 C26.3472942,34.6287033 26.3798546,35.7724595 26.412415,36.5408746 C26.4390553,37.2472253 26.2673733,37.779205 26.240733,38.4234914 C26.2200128,38.9791146 26.3857747,39.6706881 26.3857747,40.1790242 C26.3857747,40.3149746 26.2910536,40.4863902 26.2910536,40.6459841 C26.2821735,40.8528651 26.4005748,41.2104736 26.4064949,41.5296614 C26.415375,42.5286009 26.4420153,44.4171287 26.7350586,44.9047767 C26.9067405,45.1914546 27.5017071,45.6052165 27.6970693,45.5461077 C28.4193174,45.3303604 28.5229185,42.7591255 28.5288386,41.5326168 C28.5465988,38.5653526 28.7005205,35.340965 28.6235596,32.3766562 C28.6057994,31.8712755 28.6946004,31.4102265 28.6886804,30.9669101 C28.6768402,29.9295499 28.4666779,28.9512984 28.4370776,27.9287153 C28.0493132,27.3228496 27.4365864,26.9800183 26.7232184,27.2607853 M27.5934681,25.8776383 C27.584588,25.8185294 27.6082683,25.815574 27.6408287,25.8126185 C28.7834014,26.1672716 29.7454122,26.79087 30.4350999,27.7957204 C31.1484678,29.716758 31.8677559,31.6998599 32.0394378,34.2504067 C32.1992796,36.5526963 32.2496001,38.9968472 31.7256743,41.3759784 C31.4503912,41.9256907 31.2402289,42.6083979 30.9767859,43.3029269 C30.5179808,44.5146583 29.9881349,45.8593846 29.014284,46.3322554 C28.0552333,46.3352108 27.4247463,47.0622496 26.4775357,46.7814826 C26.0453709,46.6543986 25.4740845,46.0928645 25.0389596,45.6525036 C24.2012703,44.8131579 23.8253461,43.7757977 23.4168615,42.3660516 C23.011337,38.8786295 22.6117325,34.6050598 23.3280605,30.9816874 C23.5648632,29.7935995 23.7809456,28.8212589 24.269351,28.0498885 C24.4410329,27.7898095 24.9619988,27.1159687 25.2224817,26.9386421 C25.3616032,26.844068 25.5510453,26.8618006 25.7138472,26.7554047 C25.879609,26.6430979 26.0157705,26.4184842 26.1193717,26.3652863 C26.5722567,26.1377172 27.1405831,26.1731825 27.5934681,25.8776383" id="Fill-11"></path>
                            <path d="M78.6134859,40.4116175 C77.7225159,39.8353063 77.4501929,38.8215895 76.8818666,38.0177092 C76.3224203,37.2345169 75.671213,36.48679 75.1502472,35.6858651 C74.5878409,34.8228759 74.3125579,33.7589166 73.4837486,33.0525659 C73.2795063,34.8672075 73.0930242,38.3132534 72.8799019,40.5918995 C72.7703806,41.79772 72.977583,43.0124069 72.9479826,44.1827621 C72.9272624,45.084172 72.8088611,45.8969187 72.8147811,46.6948881 C72.8266213,48.01006 72.8414214,49.3370537 72.9479826,51.0630321 C71.7846896,51.1930715 70.1477914,50.9241263 68.6174543,51.0039232 C67.2647192,51.0718984 65.8794237,51.3526654 64.5474088,51.3615317 C63.3870759,51.3703981 62.0313807,51.11623 61.2173716,51.6600314 C60.9184083,51.5477246 60.530644,51.5211256 60.0807189,51.5418137 C59.8231961,51.0807647 59.9859979,50.5044534 60.0185582,49.9842956 C60.3056814,45.1964788 59.8291161,38.1713922 59.9475174,33.5313475 C59.27855,33.9864857 58.7694243,34.5834851 58.2839789,35.2070834 C56.3540373,36.7084482 54.7348992,38.4846691 53.281523,40.4116175 C52.6303157,40.334776 52.8286379,39.6875341 52.8167978,39.3358365 C52.7487171,37.0099033 52.6095955,34.1667677 52.6806363,31.37683 C53.7610484,30.8271177 55.4601073,31.0546868 56.8838832,30.9601126 C57.9080547,30.889182 58.9292661,30.7473208 59.8823967,30.9601126 C62.5257062,30.4783755 65.5212597,30.9394245 68.6174543,30.9601126 C70.112271,30.968979 71.7580493,30.9276028 73.2143856,30.7798306 C73.6406304,30.735499 74.0668751,30.6025041 74.4812797,30.5995487 C75.2420082,30.5965932 75.9612963,30.7768752 76.6805843,30.7207218 C77.547874,30.6527466 78.7585275,30.1266779 79.0160504,31.0192215 C78.7762877,31.8349236 79.0456507,32.8693284 79.0160504,33.6525207 C79.0071703,33.8653125 78.8325283,34.0721935 78.8118081,34.3086289 C78.7822078,34.6721483 78.9390895,35.1420637 78.9450096,35.5646919 C78.9627698,36.613874 79.0574909,38.0058874 79.0841312,39.0964457 C79.0930112,39.539762 79.1670121,40.1722267 78.6134859,40.4116175" id="Fill-13"></path>
                            <path d="M70.3665378,26.5754182 C71.2723079,26.4542451 71.8702346,25.7508498 72.447441,25.2602464 C73.1548889,23.8179904 73.3739314,21.5659433 73.4656924,19.7542571 C73.5900138,17.3426161 73.4360921,14.0206988 73.4242519,11.8573149 C73.4035317,8.61519457 72.8411254,5.59177696 71.5594311,3.84215504 C70.2540565,2.38216648 68.7918002,2.13390931 66.6842567,1.86791949 C66.6428162,1.86791949 66.6339361,1.91520657 66.5984157,1.92702834 L66.5984157,2.04524604 C66.6694565,3.63822951 66.358653,5.15732692 66.7760177,6.41338996 C66.6605764,7.26751282 66.9654598,8.0950367 66.9536197,8.92551603 C66.9476996,9.24470381 66.8618587,9.50478274 66.8618587,9.82397053 C66.8796189,11.4494639 67.0039402,13.033581 66.9980202,14.6708961 C66.9921001,16.2520578 67.0809011,17.5701851 66.9980202,18.858758 C66.9743399,19.192723 67.0513008,19.5444207 67.0424207,19.8754302 C66.9743399,22.1777199 66.7937779,24.4534106 67.0868212,26.8148091 C68.1228327,26.6167944 69.3275662,26.7202349 70.3665378,26.5754182 M58.2244822,26.1587009 C58.742488,25.6444539 59.4321757,25.9577308 59.9531415,25.739028 C59.8850608,23.6938619 59.7844196,21.4270375 59.6867385,19.5178217 C59.5742573,17.2716855 59.6748984,15.0757917 59.6867385,12.9360514 C59.6985787,11.2248502 59.725219,9.32154531 59.6867385,7.25273561 C59.6719384,6.51091956 59.5831374,5.76614806 59.553537,5.03910923 C59.5239367,4.29433773 59.731139,3.50819005 59.4203356,2.82548284 C58.7543281,2.76046311 58.3902441,2.76637399 57.7804772,2.82548284 C57.7982374,2.28463688 57.753837,1.91816202 57.4696738,1.56646437 C57.6739161,0.960598668 57.940319,1.31229632 58.2659227,1.32707353 C58.8431291,1.35662795 59.3848152,1.00197486 59.994582,0.789183007 C61.0157934,0.434529915 62.2175668,0.5379704 63.1440571,0.369510181 C65.011838,0.0296343012 67.6225872,0.0385006285 69.8337318,0.0710104952 C69.9521332,0.0710104952 70.1060549,-0.00287556561 70.2303763,0.0119016466 C70.4464587,0.0325897436 70.6803013,0.230604387 70.8963837,0.251292484 C71.0651056,0.269025138 71.2515877,0.162629211 71.4291897,0.192183635 C71.7399931,0.242426156 72.0359964,0.579346594 72.35864,0.668009867 C72.4948016,0.709386061 72.6398432,0.632544558 72.7582445,0.668009867 C73.1104884,0.786227564 73.518973,1.03448473 73.9096974,1.20885583 C74.3389022,1.40095959 74.8569079,1.64330587 75.2831527,1.92702834 C76.4878862,2.73090869 77.4439768,4.11996663 78.1632649,5.57404431 C78.355667,6.26561784 78.3408669,6.71780053 78.5184688,7.25273561 C78.5954297,7.48326012 78.7789517,7.66945299 78.8736728,7.90884383 C79.4952797,9.53138172 79.2999176,11.7065874 79.2288768,13.8936148 C79.163756,15.7880534 79.2821574,17.3633042 79.0068743,19.0981489 C78.8144721,20.3157912 78.4326279,21.6161858 78.0744639,22.8101846 C77.7133398,24.0130496 77.1479735,25.2927562 76.2599636,25.91931 C75.7626781,26.2680522 75.1410711,26.5163094 74.5757048,26.8148091 C74.0369788,27.101487 73.5515334,27.4945608 73.0660879,27.6541547 C71.2308675,28.2629759 69.5643688,27.9083228 67.6166671,28.2541095 C66.9476996,28.3693718 66.3290527,28.2659313 65.5357639,28.1920452 C63.7301437,28.023585 61.8357225,28.1240701 60.3083455,28.0738276 C59.9827418,28.0620058 59.6748984,28.0442731 59.4203356,28.0738276 C59.1776128,28.1004265 59.0000109,28.2659313 58.8460891,28.1920452 C58.3902441,27.976298 58.4464847,26.7350121 58.2244822,26.1587009" id="Fill-15"></path>
                            <path d="M28.6658881,69.0770448 C28.6629281,70.4306374 28.5741271,71.9674675 27.9969206,72.9309417 C27.7097974,73.4185897 27.3279532,73.6432033 26.9313087,73.6432033 L26.9253887,73.6432033 C25.9604179,73.6254707 25.0487277,72.45216 24.808965,71.4679977 C24.7438443,71.1783644 24.7349642,70.808934 24.6757636,70.5311225 C24.3027994,68.7076145 24.1399976,66.3225724 23.9653556,64.6379702 L23.9594356,64.6054604 L23.9742357,64.575906 C24.0304764,64.4635991 24.0482366,64.3512923 24.0482366,64.2360301 C24.0511966,63.9700403 23.9387153,63.6656297 23.9209551,63.3168875 C23.9179951,63.2932439 23.9179951,63.2725558 23.9179951,63.2548232 C23.9209551,62.9297245 24.0541566,62.6519129 24.0511966,62.3711459 L24.0511966,62.3681905 C24.0541566,62.1642649 23.9387153,61.9455622 23.9209551,61.6647952 C23.9179951,61.623419 23.9179951,61.5820428 23.9179951,61.5406666 C23.9179951,61.2392115 23.9653556,60.9348009 23.9653556,60.6422121 C23.9653556,60.6156131 23.9653556,60.5890141 23.9623956,60.5624151 C23.9268752,59.5339212 23.9002349,58.4758728 23.9002349,57.4326016 C23.9002349,55.0032279 24.0659968,52.6506957 24.7734447,50.8951629 L24.7823247,50.8744748 L24.7941649,50.8567422 C25.2648101,50.3661387 25.7236153,49.8223373 26.4369832,49.5622584 C26.5701847,49.5179268 26.6974661,49.4972387 26.8188275,49.4972387 C27.5321955,49.5090604 27.8607591,50.2065448 28.0946017,50.7267027 L28.1005218,50.7414799 L28.1034818,50.7562571 C28.2130031,51.4241871 28.4912462,52.124627 28.4912462,52.9432845 C28.4912462,53.0940121 28.4823661,53.2476951 28.4616458,53.407289 C28.6451679,54.075219 28.6658881,54.8495449 28.6806883,55.6090936 C28.6895684,56.0464991 28.6954884,56.4986818 28.6954884,56.9567754 C28.6954884,57.3468938 28.6895684,57.7429231 28.6806883,58.1448632 C28.6718082,58.4049422 28.6688482,58.670932 28.6688482,58.9369218 C28.6688482,60.7249645 28.7931695,62.6105367 28.7931695,64.4133566 C28.7931695,65.4211625 28.7546891,66.4053248 28.6333278,67.3185565 C28.6392478,67.7914273 28.6658881,68.4120702 28.6658881,69.0770448 L28.6658881,69.0770448 Z M33.760105,62.9208582 C33.757145,61.7830129 33.5736229,60.6806328 33.5381025,59.519144 C33.5321825,59.3654609 33.5292224,59.2147334 33.5292224,59.0610504 C33.5292224,58.7182191 33.5381025,58.3724323 33.5381025,58.0355119 C33.5381025,57.6838142 33.5292224,57.335072 33.493702,56.9981516 C33.2746596,54.9648072 32.6737729,53.1324329 31.8242434,51.7729293 C30.9983942,50.4459357 29.3999763,49.018457 27.9199598,48.8056651 C27.7778782,48.7820216 27.6446767,48.7731553 27.5173953,48.7731553 L27.5144353,48.7731553 C26.7951472,48.7731553 26.2949016,49.071655 25.699935,49.1898726 C24.9421665,49.3346893 24.4804014,49.3583329 23.8321541,49.7248077 C23.4503099,49.9435105 23.0329452,50.1710795 22.7339819,50.3779605 C20.5524375,51.9147906 19.785789,54.5924214 19.5045858,58.3162789 C19.4424251,59.1733572 19.3980246,60.0836335 19.3980246,60.9850434 C19.3980246,62.0283146 19.4572253,63.059764 19.5963468,64.0025501 C20.143953,67.7411848 21.1089237,70.8000677 22.8819835,72.892521 C24.0127162,73.8973714 25.5963338,74.5593905 27.1414711,74.5593905 C27.9525202,74.5593905 28.7517291,74.3791085 29.4739771,73.9742129 C30.447828,73.4363224 31.072395,72.2955216 31.5963208,71.1163001 L31.608161,71.0897011 L31.6288812,71.0719684 C32.3037687,70.5488551 32.5701717,69.4376088 33.0970576,68.5953077 C33.1621783,68.143125 33.3072199,67.655477 33.3072199,67.2624031 C33.3072199,67.1530518 33.2953798,67.0555222 33.2746596,66.9639034 L33.2598594,66.90775 L33.2924198,66.860463 C33.3901009,66.7481561 33.4137811,66.4614782 33.5381025,66.23982 C33.5647428,65.2024598 33.760105,64.1000797 33.760105,62.9356354 L33.760105,62.9208582 Z" id="Fill-17"></path>
                            <path d="M7.56973253,67.7207923 C8.75966582,67.8094555 9.89631851,67.8626535 11.1158521,67.4222926 C11.3467347,67.091283 11.0418513,65.9829921 11.2460936,65.5662747 C12.7349902,65.320973 15.5647818,65.3771264 17.1839199,65.267775 C17.5006434,65.6135618 17.2253604,66.0243683 17.1839199,66.4647292 C17.1572796,66.7898279 17.2608808,67.1385701 17.2727209,67.4814014 C17.3319215,68.9975434 17.2194403,70.8417395 17.4503229,72.3874359 C16.6955144,73.0346777 15.7512639,72.7539107 14.6619717,72.6859355 C13.8894031,72.6386485 13.0428337,72.7036682 12.2229045,72.7450444 C11.5953775,72.7775543 10.8553692,72.6711583 10.0976008,72.6859355 C9.44639349,72.6977573 8.76558589,72.9075937 8.14693898,72.9253264 C7.81837531,72.9341927 7.50757184,72.8455294 7.17012807,72.8662175 C6.1962772,72.9253264 5.36154787,73.0110342 4.51497842,72.9844352 C3.12672292,72.943059 1.72366725,72.5263416 0.658055349,73.2829349 C0.613654853,73.1026529 0.400532473,73.1558509 0.302851382,73.0464995 C0.131169465,71.2732341 0.530773927,69.8487108 0.391652374,68.3177916 C3.6092083,65.5219431 7.1997284,63.2344306 10.1390412,60.0602855 C8.69454509,59.7470086 7.41877085,59.5519494 6.02163524,59.6435681 C5.73451204,60.4504039 6.38571931,61.8069519 5.84107323,62.2739118 C5.57171022,62.3005108 5.39706827,62.2029812 5.22242632,62.0936299 C4.28409584,62.3921295 3.2954448,61.8631053 2.43407518,61.9163033 C1.8983092,61.9488132 1.47206444,62.2354911 0.924458324,62.1556941 C0.921498291,60.7666362 0.862297629,59.2268507 0.791256836,57.6693325 C0.758696473,57.0191352 0.809017034,56.4103141 0.838617365,55.8133147 C3.28952473,55.7305623 6.09267604,55.3581766 8.76558589,55.334533 C11.5095365,55.307934 14.1350858,55.4113745 16.745835,55.334533 C16.9826376,55.7276069 17.0743987,56.8299869 16.920477,57.3678774 C16.8938367,58.0830945 17.2756809,59.0140588 17.0507184,59.7617858 C16.8967967,60.2848991 15.8400649,60.8907648 15.5055812,61.1981308 C14.957975,61.6887342 14.3363681,62.0404319 13.8598028,62.4541938 C13.697001,62.5960551 13.5845197,62.8472677 13.4217179,62.9920844 C13.1789952,63.2019208 12.8829919,63.3230939 12.6195489,63.5299749 C12.3857063,63.7191232 12.1548237,63.9319151 11.9150611,64.1299297 C11.4444158,64.525959 10.9293701,64.7919488 10.4528047,65.1466019 C9.3842328,65.9416159 8.42814212,66.8903129 7.56973253,67.7207923" id="Fill-19"></path>
                            <path d="M52.8520222,60.9265256 C52.6448199,61.6860743 52.1504944,62.2062322 51.5880881,62.4810884 C51.0316019,62.7588999 50.4247951,62.8268751 49.877189,62.8298306 C49.6759067,62.8298306 49.4775845,62.8180088 49.2970225,62.8032316 L49.0246995,62.779588 L48.9003781,62.5401972 C48.4238128,61.6210546 48.5007736,60.8615059 48.4622932,59.7768585 L48.4534131,59.4665371 L48.7257361,59.3246758 C49.2082215,59.0793741 49.7528676,58.9463792 50.3063938,58.9463792 C51.312805,58.931602 52.4198574,59.445849 52.8401821,60.6250705 L52.8964227,60.7728426 L52.8520222,60.9265256 Z M77.1627737,63.3706765 C76.3458046,63.3706765 75.4666748,63.3529439 74.7089063,63.2967905 C74.4247431,63.2731469 74.1701803,63.2347262 73.9955383,63.2347262 C73.8416166,63.2435925 73.7764959,63.2495034 73.7380154,63.2761024 C73.7350554,63.8908344 73.6758548,64.5971851 73.6758548,65.2030508 C73.6758548,65.4365308 73.6847349,65.6493226 73.7084151,65.8325601 C73.9748181,65.8709808 74.2441811,65.9360006 74.4573035,65.9862431 L74.948669,66.1044608 L74.8154675,66.5921088 C74.7237065,66.8551432 74.8154675,67.6619789 74.5490645,68.3387753 C74.3625824,68.8293787 73.9570579,69.2135862 73.4745725,69.2017645 C72.7671246,69.1603883 72.3675201,68.6727403 71.997516,68.3269535 L71.9294353,68.2648892 L71.8968749,68.1850923 C71.5623912,67.4521425 71.281188,66.633485 71.1420665,65.8000502 C71.0739857,65.4187981 71.0591855,65.0848331 71.0591855,64.783378 C71.0591855,64.4169032 71.0828658,64.1065817 71.0828658,63.8021711 C71.0947059,62.8948503 71.4143895,61.757005 71.4528699,61.1008967 L71.45879,60.9945008 L71.5120706,60.8999267 C71.642312,60.6634913 71.7015127,60.52163 71.6985527,60.3975014 L71.6985527,60.3561253 L71.6896726,60.2467739 L71.731113,60.1433334 C72.1129573,59.165082 73.0246475,58.4203105 74.0843393,58.4055332 C74.5253842,58.4025778 74.9901094,58.5592163 75.3808338,58.8872704 L75.4311544,58.9286466 L75.4666748,58.9818445 C75.8189187,59.4842697 75.9846805,60.0990018 76.1001218,60.6871348 C76.3310044,60.6664467 76.561887,60.6546249 76.8016497,60.6546249 C77.1627737,60.6516695 77.5357379,60.6812239 77.9264622,60.7462437 C77.9294223,60.6812239 77.9294223,60.6102933 77.9294223,60.5423181 C77.9353423,59.0705078 77.4410168,57.1435593 77.4350967,55.438269 C77.4350967,55.3702939 77.4380568,55.2993632 77.4410168,55.2343435 C77.4498969,54.8885567 77.4942974,54.6284778 77.5298178,54.389087 C77.3196554,54.3802207 77.1065331,54.3743098 76.8934107,54.3743098 C76.2895639,54.3654434 75.7478779,54.4570622 75.4548346,54.6609877 C75.4666748,54.7851163 75.4933151,54.9594874 75.4962751,55.1634129 C75.4933151,55.2875415 75.484435,55.4264473 75.4400345,55.5742194 L75.2624325,56.1534861 L74.7325866,55.8638528 C74.1168997,55.5210214 73.1785692,55.104304 72.3704802,55.1102149 L72.3349598,55.1102149 C72.1247974,55.2786752 71.8909548,55.3555167 71.725193,55.3939374 C71.5061505,55.4441799 71.3818291,55.4678235 71.2930281,55.5210214 C71.1746268,55.5830857 70.9911048,55.798833 70.7839025,56.0648228 C70.5944603,56.2923919 70.387258,56.5672481 70.0557343,56.7563964 C69.3542065,57.8114893 68.6763589,59.472448 68.5105971,61.0240552 C68.4691566,61.3787083 68.4602765,61.7274505 68.4602765,62.0791482 C68.4602765,62.4544894 68.4721166,62.832786 68.4780367,63.2435925 L68.4780367,63.2761024 C68.4780367,63.6130228 68.4425163,63.9381215 68.4425163,64.1982004 L68.4425163,64.269131 C68.4513964,64.8661304 68.6526787,65.5399713 68.6615588,66.29952 C68.6615588,66.326119 68.6615588,66.3527179 68.6585987,66.3822724 C68.6437986,66.9290292 68.4957969,67.4905633 68.2175538,67.9575232 C67.9511508,68.4156168 67.4893857,68.8352896 66.8588986,68.838245 L66.4652142,68.838245 L66.3645731,68.4835919 C65.7459262,66.3083863 64.831276,64.6799375 63.4134202,63.9144779 L62.5786908,63.4593398 L63.4341404,63.0426224 C64.3576707,62.5933952 65.2220003,61.9697968 65.6452851,60.9117484 C65.7784866,60.5777834 66.0537696,59.7354823 66.1188904,59.4635816 C66.1869711,59.2094136 66.2165715,58.9345574 66.2165715,58.6537904 C66.2195315,57.8203556 65.9501685,56.9189457 65.6867255,56.3721889 C65.2338405,55.4707789 65.1154392,55.337784 64.4375916,54.97722 C63.9610263,54.7348737 63.5288614,54.6107452 62.9042945,54.4393295 C62.5402104,54.3299781 62.2619673,54.1615179 62.1790864,54.155607 C61.8416426,54.0846764 61.4864386,54.0610329 61.1105144,54.0610329 C60.5451481,54.0610329 59.9531415,54.1171863 59.3907352,54.1201417 L59.3137744,54.1201417 C58.8964097,54.1142308 58.4139243,54.0728546 57.9935996,54.0728546 C57.762717,54.0728546 57.5584748,54.0876319 57.4163932,54.1171863 C56.0044574,54.4068196 54.5185208,54.3004237 53.1509855,54.4304632 C52.7957816,54.4600176 52.4020972,54.4954829 52.0084128,54.4954829 C51.9669723,54.4954829 51.9284919,54.4954829 51.8840914,54.4925275 C51.7686501,54.489572 51.6532088,54.489572 51.5377675,54.489572 C50.3596744,54.489572 49.3295829,54.5871016 47.8791667,54.6787203 C45.937385,54.8058044 44.2264859,54.8826459 42.5866276,54.8826459 C41.2634928,54.8826459 39.9847585,54.8324033 38.6912241,54.723052 C38.2590592,54.8619578 37.8328145,54.903334 37.4213699,54.903334 C36.799763,54.9003785 36.2136764,54.8146707 35.6453501,54.7910271 C35.6275899,54.8146707 35.6127897,54.8412697 35.5950295,54.8678687 C35.7400711,56.2391939 35.6571902,57.6193856 35.7696714,58.650835 C36.269917,58.624236 36.8382434,58.5917261 37.4924107,58.5562608 C37.8564948,58.5355727 38.238339,58.4764639 38.599463,58.4764639 C38.8569859,58.4823747 39.1559493,58.4882856 39.4489925,58.7424537 L39.5703539,58.8606714 L39.5940342,59.032087 C39.9995587,61.9875295 39.940358,64.4819229 39.9995587,67.5023851 L40.0084388,67.9131916 L39.6058743,67.9959439 C38.6290634,68.1910031 37.2704082,68.4540375 36.2077563,68.456993 C36.1189553,68.456993 36.0301544,68.4540375 35.9472734,68.4510821 C35.9383933,68.4629038 35.9295132,68.4776811 35.9206331,68.4924583 C35.9591136,69.7248778 36.0183142,71.0311833 36.0183142,72.3138453 L36.0183142,72.358177 C36.0597547,72.3965977 36.0982351,72.4350185 36.1278354,72.4704838 C36.4682392,72.4438848 36.7968029,72.4379739 37.1283266,72.4379739 C37.5338511,72.4379739 37.9393757,72.4497957 38.3419402,72.4497957 C38.8392257,72.4497957 39.3335512,72.4350185 39.8397169,72.3670433 L40.0705995,72.3374889 L40.2363613,72.4941273 C40.3370025,72.5887015 40.4998043,72.6566767 40.6241257,72.6537212 C40.7129267,72.6537212 40.7839674,72.6330331 40.8550082,72.5768797 L40.9704495,72.4882164 L41.1184512,72.4763947 C41.6216568,72.4379739 42.1219024,72.4231967 42.6103078,72.4231967 C43.9008823,72.4261521 45.1411361,72.5148154 46.298509,72.5148154 L46.4938712,72.5148154 C47.100678,72.51186 47.8466063,72.3493106 48.6073348,72.3463552 C48.8234172,72.3463552 49.0365396,72.358177 49.2437419,72.3965977 C49.3621432,72.4172858 49.4687044,72.4231967 49.5811857,72.4231967 C49.8505487,72.4261521 50.146552,72.3670433 50.5372764,72.3286225 C50.7799991,72.304979 51.0079216,72.2961127 51.221044,72.2961127 C51.7272096,72.2961127 52.1712146,72.3374889 52.6240997,72.3374889 C52.6625801,72.3374889 52.6981005,72.3345334 52.742501,72.3345334 C52.7750614,71.9798803 52.7869015,71.5188313 52.7839415,71.0400496 C52.7839415,70.5849115 52.7780214,70.1120407 52.7780214,69.6746352 C52.7780214,69.5032196 52.7780214,69.3377148 52.7809814,69.1810764 C52.5204985,69.0510369 52.1800947,69.0067053 51.7804902,69.0067053 C51.3779257,69.0067053 50.9368808,69.0539923 50.4869558,69.0539923 C49.9511898,69.0510369 49.338463,68.991928 48.8766978,68.5161018 L48.7434963,68.3801515 L48.7405363,68.1880477 C48.7286962,67.6619789 48.713896,67.3073259 48.713896,66.9112966 C48.713896,66.6866829 48.7198161,66.453203 48.7346162,66.1753914 L48.7553365,65.8000502 L49.1253406,65.7232087 C49.2703822,65.6906988 49.4183839,65.6818325 49.5545454,65.6818325 C50.1080716,65.6877434 50.5579966,65.8414264 50.8747201,65.8325601 C50.9161606,65.8325601 50.9457609,65.8296046 50.9783213,65.8266492 C50.9901614,65.8236938 51.0079216,65.8148274 51.0256818,65.8030057 C51.0848825,65.7704958 51.1973637,65.6877434 51.3897659,65.6552335 C51.4519266,65.6434118 51.5140873,65.6404563 51.5584878,65.6404563 C52.023213,65.6670553 52.2511355,65.8443819 52.3044161,65.8207383 C52.9467433,65.8680254 53.6334709,65.785273 54.3201986,65.9596441 C55.0246865,66.1251489 55.6670136,66.7132819 55.9215765,67.7388204 L55.9422967,67.8127065 L55.9393367,67.8925035 L55.9393367,67.9279688 C55.9393367,68.3712851 56.0429378,68.4806365 56.143579,68.9978389 C56.2146198,69.4027345 56.2146198,69.8076302 56.2649403,70.0115557 C56.4484624,70.788837 57.0730293,72.1217416 57.3808728,72.4793501 C57.5525547,72.6891865 57.9995197,72.9935971 58.3073631,73.0704386 C58.3458436,73.0822604 58.4198444,73.0911267 58.5175255,73.0881713 C58.5944863,73.0881713 58.6921674,73.0852158 58.7987286,73.0852158 C58.9141699,73.0852158 59.0444114,73.0911267 59.189453,73.1177257 C59.7133788,73.2182107 60.2165845,73.3452947 60.6605894,73.3955373 C60.8322713,73.4191808 61.0779541,73.4280471 61.3473171,73.4280471 C61.788362,73.4280471 62.2886076,73.407359 62.7355726,73.407359 C63.0226958,73.407359 63.2802187,73.4132699 63.5111012,73.4487352 C63.7449439,73.4842005 63.9906266,73.4990027 64.2451894,73.4990027 C65.2664008,73.5019332 66.4089736,73.2418543 67.4361051,73.1384138 C67.607787,73.1443247 67.9511508,72.8783348 68.3477953,72.6596321 C68.4898768,72.5916569 68.6230783,72.5621025 68.7207594,72.5355035 C68.7947602,72.5207263 68.8391607,72.5089045 68.8569209,72.5029937 C69.0108427,72.3818205 69.2358052,71.8764399 69.6738901,71.4922323 L70.0616544,71.1878218 L70.3694978,71.5749847 C70.9467043,72.3256671 71.9590356,72.8694685 72.891446,72.8635576 C73.3591312,72.8635576 73.7942561,72.7364736 74.2027406,72.4497957 C74.5520245,72.2133603 74.7325866,71.8793953 75.2328321,71.5572521 L75.8218787,71.1937327 L75.9698804,71.870529 C76.0616414,72.3345334 76.0734815,72.7216964 76.1682026,73.0527059 C76.3517246,73.0527059 76.561887,73.0467951 76.7809294,73.0467951 C77.1834939,73.0527059 77.5978986,73.0556614 77.9915829,73.1620573 C78.1159043,73.1029485 78.2343057,73.0763495 78.3408669,73.0497505 C78.3734272,73.0438396 78.4059876,73.0379287 78.4355879,73.0320178 C78.352707,72.5295926 78.1484647,71.7611776 78.0448635,71.1109803 L78.0359834,71.075515 L78.0359834,71.0400496 C78.0330234,69.9967785 77.8465413,68.944641 77.8435813,67.7595085 C77.8435813,67.4314544 77.8583815,67.094534 77.8998219,66.7428363 L77.9412624,66.3852278 L78.2935063,66.3142972 C78.62503,66.2492775 78.9032731,66.2551883 79.0601549,66.2374557 C79.0631149,66.2374557 79.069035,66.2345003 79.074955,66.2345003 C78.8707128,65.2060063 78.8411124,64.1893341 78.6635105,63.3499884 C78.2254256,63.3618102 77.7074198,63.3706765 77.1627737,63.3706765 L77.1627737,63.3706765 Z" id="Fill-21"></path>
                        </g>
                    </g>
                </g>
            </g>
        </g>
    </g>
</svg>