<svg width="72" height="73" viewBox="0 0 72 73" fill="none"
     xmlns="http://www.w3.org/2000/svg">
  <rect width="72" height="72" transform="translate(0 0.75)" fill="white"/>
  <path
    d="M22.8188 30.6974H32.8058V33.9999H17.1348V30.8407L27.3299 20.4852H17.9956V17.2305H32.8572V20.5084L22.8188 30.6974Z"
    fill="#E81A32"/>
  <path
    d="M53.9336 30.1721C52.3956 34.0831 47.5454 34.3439 46.5021 34.3439C45.694 34.3439 42.6168 34.2252 40.5315 32.3297C38.7585 30.7182 38.707 28.6562 38.707 26.5697V17.2305H43.3478V27.6594C43.3478 29.1533 43.4789 29.7215 44.2087 30.2431C45.1209 30.8835 46.3466 30.8835 46.6589 30.8835C47.5197 30.8835 48.2752 30.7892 48.9278 30.2676C49.7887 29.5807 49.8144 28.5852 49.8144 27.6362V17.2305H54.4295V26.5697C54.4295 27.8027 54.3768 29.0113 53.9336 30.1721Z"
    fill="#E81A32"/>
  <path
    d="M27.584 48.341V56.2573H23.0472V48.4598L16.1387 39.5234H21.4052L25.3689 45.1892L29.3056 39.5234H34.5464L27.584 48.341Z"
    fill="#E81A32"/>
  <path
    d="M53.0786 53.8196C52.4786 54.4355 51.1231 55.5265 48.8811 56.0004C47.8635 56.2135 46.9782 56.2612 45.9349 56.2612H38.7129V39.5273H44.5794C45.1525 39.5273 45.7011 39.5273 46.2484 39.5518C47.0309 39.5996 50.1068 39.6706 52.35 41.3531C52.6892 41.5894 53.2366 42.04 53.8096 42.8702C54.4611 43.7947 55.1921 45.2873 55.1921 47.7522C55.1921 50.9041 54.0704 52.7775 53.0798 53.8196M49.5325 44.4327C49.2717 44.1486 48.7243 43.5792 47.7337 43.2951C46.8729 43.0343 46.0904 43.0575 45.2039 43.0575H43.3525V52.8939H44.7606C46.1162 52.8939 47.6811 52.8229 48.8798 52.0171C49.819 51.3767 50.5745 50.1682 50.5745 47.8931C50.5745 46.6135 50.4178 45.4514 49.5313 44.4327"
    fill="#E81A32"/>
</svg>
