<?xml version="1.0" encoding="utf-8"?>
<!-- Generator: Adobe Illustrator 23.0.3, SVG Export Plug-In . SVG Version: 6.00 Build 0)  -->
<svg version="1.1" id="Laag_1" xmlns="http://www.w3.org/2000/svg" xmlns:xlink="http://www.w3.org/1999/xlink" x="0px" y="0px"
	 width="148px" height="30.9px" viewBox="0 0 148 30.9" style="enable-background:new 0 0 148 30.9;" xml:space="preserve">
<style type="text/css">
	.st0{fill:#FFFFFF;}
</style>
<g>
	<path class="st0" d="M12.5,19.4c0,1.7-1.4,3-3,3c-1.7,0-3-1.4-3-3c0-1.7,1.4-3,3-3C11.2,16.4,12.5,17.8,12.5,19.4z"/>
	<g>
		<path class="st0" d="M9.5,10C4.2,10,0,14.2,0,19.4c0,5.2,4.2,9.5,9.5,9.5c5.2,0,9.5-4.2,9.5-9.5C19,14.2,14.7,10,9.5,10z
			 M9.5,26.1c-3.7,0-6.6-3-6.6-6.6c0-3.7,3-6.6,6.6-6.6c3.7,0,6.6,3,6.6,6.6C16.1,23.1,13.1,26.1,9.5,26.1z"/>
	</g>
	<g>
		<g>
			<path class="st0" d="M9.5,7.1c0.3,0,0.6,0,0.9,0l0.5-7C10.4,0,10,0,9.5,0C9,0,8.5,0,8.1,0.1l0.5,7C8.9,7.1,9.2,7.1,9.5,7.1z"/>
		</g>
	</g>
	<g>
		<g>
			<path class="st0" d="M14.2,8c0.3,0.1,0.6,0.2,0.8,0.4l3.2-6.3c-0.4-0.2-0.9-0.4-1.3-0.6C16.5,1.3,16,1.1,15.6,1l-2.2,6.7
				C13.6,7.8,13.9,7.9,14.2,8z"/>
		</g>
	</g>
	<g>
		<g>
			<path class="st0" d="M18.2,10.7c0.2,0.2,0.4,0.4,0.6,0.7l5.3-4.6c-0.3-0.4-0.6-0.7-1-1c-0.3-0.3-0.7-0.7-1-1l-4.6,5.3
				C17.8,10.3,18,10.5,18.2,10.7z"/>
		</g>
	</g>
	<g>
		<path class="st0" d="M65.4,25.4l5.7-8.8h-5.4v-1.3h7.3v1.1l-5.7,8.8h5.9v1.3h-7.8V25.4z"/>
		<path class="st0" d="M74.1,19.9c0-3,1.7-4.9,4.6-4.9c2.8,0,4.5,1.9,4.5,4.9v2c0,3-1.7,4.9-4.5,4.9c-2.9,0-4.6-1.9-4.6-4.9V19.9z
			 M75.6,21.7c0,2.3,0.8,3.7,3.1,3.7c2.2,0,3-1.5,3-3.7V20c0-2.2-0.9-3.7-3-3.7c-2.2,0-3.1,1.5-3.1,3.7V21.7z"/>
		<path class="st0" d="M85,15.3h1.2l0.2,1.6c0.7-1,1.8-1.9,3-1.9c0.4,0,0.7,0,1,0.1l-0.2,1.3c-0.3-0.1-0.6-0.1-0.9-0.1
			c-1,0-2.1,1-2.9,2v8.1H85V15.3z"/>
		<path class="st0" d="M92.9,29.5h3.1c1.4,0,2.1-0.9,2.1-2.2v-2.1c-1.1,0.8-2.1,1.2-3.2,1.2c-2.5,0-4.1-1.7-4.1-4.5v-2.6
			c0-2.8,1.5-4.5,4.1-4.5c1.2,0,2.3,0.5,3.4,1.5l0.2-1.2h1.2v12.1c0,2.2-1.2,3.5-3.6,3.5h-2.9L92.9,29.5z M92.4,21.6
			c0,2.3,0.8,3.5,2.7,3.5c1.1,0,2.1-0.5,3.1-1.3v-6.1c-0.9-0.7-1.9-1.4-3.1-1.4c-1.9,0-2.7,1.1-2.7,3.5V21.6z"/>
		<path class="st0" d="M103.5,29.5h3.1c1.4,0,2.1-0.9,2.1-2.2v-2.1c-1.1,0.8-2.1,1.2-3.2,1.2c-2.5,0-4.1-1.7-4.1-4.5v-2.6
			c0-2.8,1.5-4.5,4.1-4.5c1.2,0,2.3,0.5,3.4,1.5l0.2-1.2h1.2v12.1c0,2.2-1.2,3.5-3.6,3.5h-2.9L103.5,29.5z M103,21.6
			c0,2.3,0.8,3.5,2.7,3.5c1.1,0,2.1-0.5,3.1-1.3v-6.1c-0.9-0.7-1.9-1.4-3.1-1.4c-1.9,0-2.7,1.1-2.7,3.5V21.6z"/>
		<path class="st0" d="M112.5,15.3h1.2l0.2,1.6c0.7-1,1.8-1.9,3-1.9c0.3,0,0.7,0,1,0.1l-0.2,1.3c-0.3-0.1-0.6-0.1-0.9-0.1
			c-1,0-2.1,1-2.9,2v8.1h-1.5V15.3z"/>
		<path class="st0" d="M118.4,19.9c0-3,1.7-4.9,4.6-4.9c2.8,0,4.5,1.9,4.5,4.9v2c0,3-1.7,4.9-4.5,4.9c-2.9,0-4.6-1.9-4.6-4.9V19.9z
			 M119.9,21.7c0,2.3,0.8,3.7,3.1,3.7c2.2,0,3-1.5,3-3.7V20c0-2.2-0.9-3.7-3-3.7c-2.2,0-3.1,1.5-3.1,3.7V21.7z"/>
		<path class="st0" d="M128.8,19.5c0-2.4,1.6-4.5,4.4-4.5c2.8,0,4.4,2.2,4.4,4.5v1.2c0,0.2-0.2,0.4-0.4,0.4h-6.8v1.2
			c0,1.4,0.7,3.1,3,3.1c1.2,0,2.3-0.3,3.4-0.6l0.3,1.3c-1.3,0.4-2.4,0.7-3.7,0.7c-3,0-4.5-2.2-4.5-4.5V19.5z M136.1,19.9v-0.5
			c0-1.4-0.8-3.1-2.9-3.1c-2.1,0-2.9,1.6-2.9,3.1v0.5H136.1z"/>
		<path class="st0" d="M139.2,15.3h1.2l0.2,1.2c1.1-0.9,2.2-1.5,3.4-1.5c2.5,0,4.1,1.7,4.1,4.5v2.8c0,2.8-1.5,4.5-4.1,4.5
			c-1.2,0-2.2-0.5-3.3-1.3v5.4h-1.5V15.3z M140.7,24c1,0.7,1.9,1.4,3.1,1.4c1.9,0,2.8-1.2,2.8-3.5v-2.1c0-2.3-0.8-3.5-2.8-3.5
			c-1.1,0-2.2,0.7-3.1,1.4V24z"/>
	</g>
	<g>
		<path class="st0" d="M48.1,27.3H36.5l-0.4-2.4l5.6-8.1l1.9-2.4h-6.9l-0.4-2.9h11.2l0.4,2.2l-5.6,8.2l-1.9,2.4h7.7V27.3z"/>
	</g>
	<g>
		<path class="st0" d="M56.2,27.5c-2.2,0-3.9-0.6-5.1-1.7c-1.2-1.1-1.8-2.5-1.8-4.2v-4.2c0-1.7,0.6-3.1,1.6-4.2
			c1.2-1.1,3.1-1.7,5.5-1.7c1.3,0,2.9,0.3,4.9,0.8l0.2,0l-0.8,2.8L60.6,15c-1.6-0.5-3-0.7-4.1-0.7c-1.5,0-2.6,0.4-3.1,1.1
			c-0.4,0.5-0.6,1.2-0.6,2.2v3.8c0,2.2,1.1,3.3,3.4,3.3c0.6,0,1.3-0.1,2.2-0.2v-5.2l3.2-0.2v7.5l-0.1,0
			C59.1,27.1,57.3,27.5,56.2,27.5z"/>
	</g>
	<g>
		<polygon class="st0" points="34.3,24.4 27.6,24.4 29.4,22.1 34.9,14 34.6,11.6 23.5,11.6 23.8,14.5 30.7,14.5 28.8,16.8 
			23.2,24.9 23.6,27.3 34.8,27.3 		"/>
	</g>
</g>
</svg>
